<?xml version="1.0" standalone="no"?>
<!DOCTYPE svg PUBLIC "-//W3C//DTD SVG 1.1//EN" "http://www.w3.org/Graphics/SVG/1.1/DTD/svg11.dtd" >
<svg>
<metadata>
Created by FontForge 20090622 at Fri Jan 13 14:06:43 2017
 By deploy user
</metadata>
<defs>
<font id="BIP" horiz-adv-x="574" >
  <font-face 
    font-family="BIP"
    font-weight="400"
    font-stretch="normal"
    units-per-em="2048"
    panose-1="3 15 7 2 3 3 2 2 2 4"
    ascent="1638"
    descent="-410"
    x-height="997"
    cap-height="1595.5"
    bbox="-386.851 -655.719 2462.35 2289.5"
    underline-thickness="175"
    underline-position="-185"
    unicode-range="U+0020-U+F005"
  />
<missing-glyph horiz-adv-x="989" 
d="M341 1077l-27 -302q-48 -454 119 -491q320 -9 321 227l42 701q58 205 -285 187q-147 12 -170 -322zM752 -11q-488 -17 -580.5 3t-122.5 480q40 908 90 1025.5t200 117t367 -5t224.5 -95t-0.5 -408t-14.5 -697.5t-163.5 -420z" />
    <glyph glyph-name=".notdef" horiz-adv-x="989" 
d="M341 1077l-27 -302q-48 -454 119 -491q320 -9 321 227l42 701q58 205 -285 187q-147 12 -170 -322zM752 -11q-488 -17 -580.5 3t-122.5 480q40 908 90 1025.5t200 117t367 -5t224.5 -95t-0.5 -408t-14.5 -697.5t-163.5 -420z" />
    <glyph glyph-name="NULL" horiz-adv-x="0" 
 />
    <glyph glyph-name="nonmarkingreturn" horiz-adv-x="975" 
 />
    <glyph glyph-name="space" unicode=" " horiz-adv-x="612" 
 />
    <glyph glyph-name="exclam" unicode="!" horiz-adv-x="527" 
d="M484 1492l-92 -1089q0 -89 -133 -100q-149 6 -170.5 221t-34.5 517.5t-5.5 473.5t247.5 164q195 -26 188 -187zM441 18q-12 -47 -48.5 -83.5t-99 -46.5t-127 32.5t-71 147t74 131t161.5 7.5t102 -80t8 -108z" />
    <glyph glyph-name="quotedbl" unicode="&#x22;" horiz-adv-x="714" 
d="M194 932q-143 -26 -140 104.5t9 261.5l9 198.5t42.5 79.5t78.5 12q104 0 110 -77.5t-5.5 -303.5t-38.5 -250.5t-65 -24.5zM607 969q-103 2 -137.5 12t-33.5 256.5t13 293t104 43.5q97 5 106.5 -99t3.5 -304t-56 -202z" />
    <glyph glyph-name="numbersign" unicode="#" horiz-adv-x="1742" 
d="M618 679l316 4l91 257l-325 2zM329 719l85 241l-230 -4q-145 16 -120 136q16 165 366 151q86 329 209.5 332t187 -70.5t-16.5 -276.5l295 -5q74 321 242 342q140 -30 152.5 -76.5t-30.5 -280.5q246 21 226 -125q-5 -156 -81.5 -171.5t-254.5 -13.5l-56 -225
q328 -6 318.5 -142t-132.5 -177l-281 -11l-110 -269q-48 -107 -188.5 -113t-151 83t26.5 185.5t68 160.5h-298q-55 -374 -267 -371q-151 16 -146 113t72 277q-140 -10 -159.5 56.5t5.5 180.5t269 73z" />
    <glyph glyph-name="dollar" unicode="$" horiz-adv-x="1270" 
d="M484 974l-8 208q-113 -36 -101 -124.5t109 -83.5zM748 602l-3 -301q75 -2 142.5 33t39.5 135.5t-179 132.5zM747 1610l-4 -103q43 -6 173 -19q161 -63 237 -136t-46 -194.5t-193.5 -73t-149.5 69.5l1 -191q209 -49 343.5 -170t125.5 -356t-140.5 -363.5t-384.5 -154.5
q4 -99 -19 -148t-162 -53t-95 212q-405 84 -399 222t40 194t91 67.5t104 -25t177 -65.5l3 258q-115 5 -226 81t-141.5 290.5t79.5 344.5t290 163q-26 222 131 189q163 24 165 -39z" />
    <glyph glyph-name="percent" unicode="%" horiz-adv-x="1562" 
d="M413 927q-193 -34 -286 107t-71.5 290t123.5 244.5t237 109t225 -105.5t90 -258.5t-62.5 -245.5t-255.5 -141zM991 1602q25 27 93 49q66 -22 100.5 -31.5t87 -78.5t-8.5 -243.5t-164 -394t-305.5 -610.5t-299 -386t-157.5 50.5t-25.5 162t123 306.5t121.5 285.5
t435 890.5zM1286 -14q-130 -17 -225.5 69.5t-87.5 221t76 227t178 84t181.5 -46t98 -173t-31.5 -251t-189 -131.5zM415 1455q-46 3 -80 -29.5t-58 -103.5t17 -128.5t133 -42.5t111.5 60.5t14 114.5t-48 97.5t-89.5 31.5zM1222 397q-43 -2 -67 -28t-36.5 -79t15.5 -90
t106 -44.5t109.5 37.5t13 105.5t-58 81t-82.5 17.5z" />
    <glyph glyph-name="ampersand" unicode="&#x26;" horiz-adv-x="1319" 
d="M736 1115q99 60 94 145t-43 117.5t-70 32.5t-109 -64t-24 -177.5t152 -53.5zM658 684q-132 61 -228 4.5t-119.5 -215.5t65 -212.5t240 -39.5t163 208t-120.5 255zM858 905q72 -134 91 -153q35 180 174 134q147 -78 156.5 -142t-18.5 -170.5t-107 -234.5
q115 -209 44.5 -265t-149 -74.5t-128.5 70.5q-141 -125 -356 -148t-366 92t-161 327t93 367.5t308 275.5q-76 120 -76 280t131.5 260.5t247 85.5t186.5 -97t86 -270t-156 -338z" />
    <glyph glyph-name="quotesingle" unicode="'" horiz-adv-x="349" 
d="M201 1124q-76 -3 -114 32t-40 148.5t5.5 252t118.5 128.5q89 -5 102.5 -37.5t21 -186.5t5.5 -252t-99 -85z" />
    <glyph glyph-name="parenleft" unicode="(" horiz-adv-x="949" 
d="M877 1515q33 -97 -34 -186.5t-203 -371.5t-159 -591t170.5 -416t209 -184.5t-25.5 -170.5t-121.5 -93t-383 131t-286.5 772.5t242.5 933.5t311.5 338t166 -9t113 -153z" />
    <glyph glyph-name="parenright" unicode=")" horiz-adv-x="755" 
d="M699 346q-28 -518 -226 -670t-264.5 -142.5t-105 40t-57.5 166.5t115.5 238.5t176 400t-56.5 474.5t-141 328t25 219.5t171.5 127t247 -302t115.5 -879.5z" />
    <glyph glyph-name="asterisk" unicode="*" horiz-adv-x="1017" 
d="M51 1315q0 37 30 78.5t56 29t222 -71.5q25 126 33 184.5t97 61t117.5 -59.5t56.5 -196q149 49 212 46.5t84 -35.5t27 -96t-65 -104t-172 -46q28 -39 69.5 -116t50.5 -116.5t-20.5 -75t-92 -54.5t-142 41t-160.5 150q-134 -126 -196.5 -144t-109 21.5t-58 82t49 100
t103.5 92.5q-39 32 -127 89.5t-65 138.5z" />
    <glyph glyph-name="plus" unicode="+" horiz-adv-x="917" 
d="M521 516l2 -143q-10 -85 -97 -91.5t-123.5 13.5t-26.5 111l-7 121q-85 -19 -156 -15.5t-91 103.5q0 60 7.5 100t81 52.5t189.5 16.5q9 155 9.5 202t30.5 53.5t63 6.5q38 0 91 -8t59.5 -63.5t0.5 -191.5q126 -3 238.5 -20.5t112.5 -102t-40 -106t-101 -27.5t-243 -11z" />
    <glyph glyph-name="comma" unicode="," horiz-adv-x="374" 
d="M129 -359q-40 -2 -74.5 17t-25.5 71q13 45 65 181.5t85.5 184t76.5 47.5q36 0 61.5 -27.5t27 -106.5t-118.5 -298q-26 -60 -97 -69z" />
    <glyph glyph-name="hyphen" unicode="-" horiz-adv-x="787" 
d="M631 453q-135 -29 -483 -18q-92 -14 -89 104q-14 129 97 113q84 -4 235.5 1.5t253 1t96.5 -107.5q4 -89 -110 -94z" />
    <glyph glyph-name="period" unicode="." horiz-adv-x="357" 
d="M180 -96q-48 -3 -94 28.5t-45 93.5t30.5 108.5t111 39t113 -53.5t18.5 -93.5t-49.5 -83.5t-84.5 -39z" />
    <glyph glyph-name="slash" unicode="/" horiz-adv-x="1041" 
d="M134 -139q-54 -5 -79 12.5t-43 75.5q7 53 14 99l226 641t332 748t230 305q191 -25 205.5 -80.5t-13.5 -114.5q-217 -589 -352 -836l-382 -753q-61 -121 -138 -97z" />
    <glyph glyph-name="zero" unicode="0" horiz-adv-x="1302" 
d="M690 -13q-249 16 -452 185q-190 218 -200 624q19 310 163 585q187 259 538 193q285 -110 404.5 -261.5t109.5 -435.5q-9 -438 -98 -652t-465 -238zM331 807q-50 -324 49 -422t197 -117q272 -115 369 147q44 163 59 406q0 271 -96.5 336t-245.5 74t-230.5 -108.5
t-101.5 -315.5z" />
    <glyph glyph-name="one" unicode="1" horiz-adv-x="657" 
d="M540 35q-129 -62 -270 10q30 548 35.5 758t-5.5 348q-89 -80 -185 -104q-50 25 -65 86.5t-30 95.5q-15 52 77.5 122t359.5 237q72 11 114 -270.5t22.5 -611.5t-25.5 -532z" />
    <glyph glyph-name="two" unicode="2" horiz-adv-x="1120" 
d="M483 -17q-192 14 -231 14q-11 0 -32 4t-32 4q-69 0 -90 67q-12 35 -12 120q5 181 109.5 356.5t269.5 285.5t232 175.5t69.5 133t-44 96t-118 -10t-208.5 -172t-230 -65.5q-65 43 -112 120q-24 72 76 182q112 106 215.5 174.5t231.5 68.5q162 43 296.5 -48t166 -238.5
t-19 -326.5t-224 -307.5t-327.5 -309.5q259 16 532 -53q80 -16 66 -105t-34 -124.5t-159.5 -53.5t-390.5 13z" />
    <glyph glyph-name="three" unicode="3" horiz-adv-x="1132" 
d="M556 -75q-141 0 -281 67q-125 98 -242 265q0 94 37.5 163.5t117.5 123.5q65 46 169 -151q77 -73 118 -80t93 -10t117 10t72.5 115.5t-98.5 148.5q-114 42 -309 54q-62 106 -57 170q-15 74 33 170l312 29q79 5 109 40t14 87.5t-57.5 68t-184.5 -14.5q-122 -31 -187 -66
t-129 5q-68 45 -92 140q39 128 192 201q133 65 219 65q215 0 341 -95q135 -102 165 -281q20 -270 -125 -388q191 -140 168.5 -344t-152 -348.5t-363.5 -144.5z" />
    <glyph glyph-name="four" unicode="4" horiz-adv-x="1227" 
d="M940 377l-10 -310q20 -108 -81 -108q-156 -74 -176 54.5t14 338.5q-209 5 -537 115q-143 50 -66 225q580 893 733 868q168 5 179 -273t10 -600q194 -20 169 -114q0 -127 -52.5 -161t-182.5 -35zM736 1159q-163 -312 -277 -423l247 -16z" />
    <glyph glyph-name="five" unicode="5" horiz-adv-x="1227" 
d="M558 -154q-279 50 -470 229q-48 75 -48 123l54 95.5t72 91.5q73 62 138 -38t144.5 -111t155 -5.5t179 96.5t106.5 233.5t-147 241.5t-310 -17t-298 -116q-14 92 -17.5 263t28.5 373.5t50 248.5t139 47t249.5 -5t328.5 -37.5t169 -254.5q-28 -88 -237 -8l-135 4l-169 2
l-135 -25q-85 -47 -56 -188q611 96 736 -152q105 -132 84 -368q-10 -270 -137 -471q-99 -191 -474 -252z" />
    <glyph glyph-name="six" unicode="6" horiz-adv-x="1195" 
d="M603 -134q-297 0 -415.5 191.5t-145.5 464.5q-9 500 129 683.5t366 333t263.5 91t119.5 -159.5q70 -60 -150.5 -177.5t-279.5 -251.5q6 -9 188 16t335.5 -124.5t138.5 -462.5q-56 -259 -171 -403t-378 -201zM638 713q-101 11 -180 -25l-70 -66q-36 -38 -56 -120
q-36 -143 34 -220q66 -180 237 -155q141 -25 224 83q77 100 77 265q0 137 -79 205.5t-187 32.5z" />
    <glyph glyph-name="seven" unicode="7" horiz-adv-x="1295" 
d="M257 -86q-51 107 137.5 548t423.5 710l-609 32q-175 -30 -131 208q0 42 18 88.5t109 41.5q190 -14 424 -22t434 -13t220 -83q-10 -106 -206.5 -438l-361.5 -634.5t-194 -377.5t-115.5 -92.5t-148.5 32.5z" />
    <glyph glyph-name="eight" unicode="8" horiz-adv-x="1194" 
d="M285 766q-158 109 -175 311t157.5 418t488 123t339.5 -344.5t-27.5 -342t-102.5 -147.5q18 -44 78 -131q106 -102 109 -291t-57.5 -352.5t-422 -187.5t-500 130t-103 434t215.5 380zM630 1329q-80 -2 -151.5 -49.5t-68.5 -176t148 -153t197.5 26t52.5 158t-49 152.5
t-129 42zM425 537q-54 -54 -69 -210q9 -100 96 -157q46 -49 149 -49q147 10 193 61.5t58 154t-56 179.5t-186 76.5t-185 -55.5z" />
    <glyph glyph-name="nine" unicode="9" horiz-adv-x="1249" 
d="M841 101l-203 -157q-212 -92 -360 -121q-60 21 -93 66t-48 123.5t114 152.5q300 71 558 340q-139 -9 -269 -14.5t-305 105.5t-171 387q-25 319 254 531q203 68 391 68q229 -8 368.5 -135t135.5 -440q-10 -248 -72 -493q-119 -263 -300 -413zM697 1237q-104 5 -182.5 -42
t-115.5 -159t45 -185t227 -63.5t199.5 92t54 162.5t-61.5 135t-166 60z" />
    <glyph glyph-name="colon" unicode=":" horiz-adv-x="392" 
d="M226 110q-139 -6 -161 94.5t-13.5 171.5t56 72.5t147.5 3t85.5 -133t-36 -168t-78.5 -40.5zM320 1048q24 -80 19.5 -178t-69 -129.5t-128 -8t-82.5 162t1.5 177.5t71.5 49.5t107 9t80 -82.5z" />
    <glyph glyph-name="semicolon" unicode=";" horiz-adv-x="517" 
d="M479 1038q13 -119 2.5 -179.5t-136 -77t-142 82.5t-17 184t51 114t140.5 12t101 -136zM203 -276q-96 -15 -142 123.5t62.5 300t197 146.5t110.5 -59t30.5 -105.5t-64.5 -141t-75 -101.5t-12.5 -85t-106.5 -78z" />
    <glyph glyph-name="semicolon" unicode="&#x37e;" horiz-adv-x="517" 
d="M479 1038q13 -119 2.5 -179.5t-136 -77t-142 82.5t-17 184t51 114t140.5 12t101 -136zM203 -276q-96 -15 -142 123.5t62.5 300t197 146.5t110.5 -59t30.5 -105.5t-64.5 -141t-75 -101.5t-12.5 -85t-106.5 -78z" />
    <glyph glyph-name="less" unicode="&#x3c;" horiz-adv-x="656" 
d="M406 625q129 -144 149 -230t-23 -123.5t-80.5 -50.5t-178 80t-199.5 165.5t-55 132t57 113.5l176.5 188t166.5 157t72 13.5t56.5 -37t51.5 -83.5t-31.5 -137t-161.5 -188z" />
    <glyph glyph-name="equal" unicode="=" horiz-adv-x="974" 
d="M533 1030q324 -2 363 -60t21 -117.5t-348 -71t-412 -3.5t-98 49t-16 96t83.5 82t406.5 25zM856 545q0 -129 -297 -125.5t-369 11t-71.5 113t168 111.5t358.5 -6t211 -104z" />
    <glyph glyph-name="greater" unicode="&#x3e;" horiz-adv-x="718" 
d="M662 539q-135 -168 -262 -285.5t-172 -101.5t-74.5 36t-52.5 53q-76 95 -34 163.5t232 235.5l-122 218t-26 220t133 88.5t244.5 -211t167 -294t-33.5 -122.5z" />
    <glyph glyph-name="question" unicode="?" horiz-adv-x="1075" 
d="M489 276q-101 -4 -149.5 16t-60 106t79 230l175 287.5t-4.5 183.5t-159 17.5t-150.5 -85t-137.5 50.5t-55.5 205.5t169.5 166.5t378 66.5t344 -165t113 -362.5t-156.5 -320.5t-184 -207.5l-74 -138.5t-127.5 -50.5zM590 -212q-87 -20 -162 2.5t-119 108.5t16 195.5
t203.5 98t184 -115.5t3 -187t-125.5 -102z" />
    <glyph glyph-name="at" unicode="@" horiz-adv-x="1881" 
d="M1086 490q-134 -102 -225.5 -82t-190 110.5t-120.5 251t100 305t284 154.5t175.5 -118.5t-67 -154.5t-136.5 -88.5t-64.5 -106t76 -53.5t107 98t136 123.5t122.5 -102.5t82.5 -98t106.5 76t11 173t-138.5 236.5t-366.5 68.5t-390.5 -198.5t-123 -343t173.5 -336.5
t317.5 -139.5t302 32t231 46.5t140.5 -94t65.5 -235.5t-180.5 -179.5t-384.5 -62t-422 56t-451.5 259t-209.5 655.5t298 699t657 250t603 -234.5t235.5 -523t-112.5 -400t-299 -157t-342.5 112z" />
    <glyph glyph-name="A" unicode="A" horiz-adv-x="1566" 
d="M977 284q-129 8 -320 -1q-17 -103 -73 -216t-182.5 -137.5t-239 15t-123.5 167t145.5 523.5t323 661t518.5 210q195 -30 269.5 -261.5t153.5 -682t43.5 -516t-115 -91.5t-232.5 -22.5t-168 351.5zM676 738q-6 -93 210 -73q224 -8 155 253q-5 160 -126 199
q-136 19 -239 -379z" />
    <glyph glyph-name="B" unicode="B" horiz-adv-x="1322" 
d="M368 1600q208 22 398.5 -11t306 -147t121 -374t-95.5 -331q134 -124 159 -280.5t-18.5 -378.5t-393.5 -258.5t-542.5 29t-226 377.5t32 808.5t259.5 565.5zM520 1248l-14 -279q9 -54 115.5 -67t186 32t79.5 136.5t-35.5 153t-170 76t-161.5 -51.5zM762 560l-202 10
q-71 -10 -81.5 -59.5t-6.5 -250.5q-38 -83 202 -81t230.5 171t-142.5 210z" />
    <glyph glyph-name="C" unicode="C" horiz-adv-x="1365" 
d="M1241 118q-276 -193 -511 -196.5t-403 137t-234 428.5t103.5 656.5t462 484t374.5 82.5q106 -46 149 -180q30 -101 6 -213q-16 -45 -46 -78.5t-227 -104t-309 -280.5t-99.5 -337t150.5 -146t234 39t161 101.5t159.5 -12t107.5 -133.5t-78 -248z" />
    <glyph glyph-name="D" unicode="D" horiz-adv-x="1504" 
d="M1175 -17q-152 -104 -445.5 -105t-468.5 51t-193.5 256.5t14.5 670t73 584t246 133.5t487 -87t422.5 -326t149.5 -476t-62 -425t-223 -276zM510 988q-80 -598 22 -633.5t263 -36.5t249.5 78t65 275t-143 327t-285.5 149.5t-171 -159.5z" />
    <glyph glyph-name="E" unicode="E" horiz-adv-x="1099" 
d="M459 1195q0 -106 -11 -257q295 43 337 -1.5t49 -142t-10 -178t-321 -104.5q-3 -114 12 -185q231 29 336 33.5t157.5 -124.5t4.5 -234t-336.5 -143t-425.5 -29.5t-168 287.5t-31 657.5t35.5 637.5t208 270.5t260.5 11t240 -19.5q165 -1 188.5 -113.5t24.5 -184.5
t-64.5 -123.5t-166 -52.5t-319.5 -5z" />
    <glyph glyph-name="F" unicode="F" horiz-adv-x="1098" 
d="M474 1197l-17 -228q149 -19 238 -34t104 -118t-16 -200t-314 -93q28 -645 -85 -665t-224 26.5t-94 493t21 852t219 417t499 -18t255.5 -191t-109 -201.5t-477.5 -40z" />
    <glyph glyph-name="G" unicode="G" horiz-adv-x="1507" 
d="M1463 585q-13 -313 -190.5 -531.5t-548 -208t-508 170t-159 434t94.5 590t355 469.5t445 148t333 -112.5t113.5 -200.5t-38 -129.5t-73.5 -99.5t-181.5 -37.5t-262.5 7t-233 -183t-124.5 -344t149.5 -276.5t266 121q-193 -10 -229.5 57t-40 176t101 159.5t376.5 42
t315 -51.5t43 -87q0 -65 -4 -113z" />
    <glyph glyph-name="H" unicode="H" horiz-adv-x="1478" 
d="M1422 1409l-41 -113q-5 -40 -18 -91.5t-28.5 -124t-17.5 -199t3 -328.5q0 -127 41.5 -238t67.5 -250q5 -82 -40.5 -94.5t-86.5 -32.5q-106 -26 -234 5q-10 46 -16 88t-6 198.5t-26.5 264t-622.5 33.5q-51 -90 -69 -255.5t-18 -256.5q36 -107 -4.5 -118t-86.5 0
q-46 -6 -83.5 -5.5t-83.5 16.5q20 147 24.5 354.5t15 324t1 209.5t-4 242.5t13 249l12.5 168.5q-31 98 37.5 98h109.5t102 -5t45 -98q-51 -75 -61.5 -234.5t-10.5 -239.5l37 -74l286 -21q369 -29 366 -2q72 164 67 355q-20 112 0 205q125 5 236 5q103 47 103 5q0 -15 -9 -41
z" />
    <glyph glyph-name="I" unicode="I" horiz-adv-x="518" 
d="M405 1280q-23 -291 -23 -556q0 -70 4 -173t4 -173q0 -94 16 -226t-44 -151q-66 0 -197.5 -18.5t-2.5 202.5q10 110 10 214q-5 160 -14 245t-9 215.5t-44 309.5q-90 296 137 325q256 96 163 -214z" />
    <glyph glyph-name="J" unicode="J" horiz-adv-x="997" 
d="M956 1230l6 -232q-77 -591 -212 -837q-127 -214 -271 -255q-221 -36 -371 125q-98 131 -92 270q-6 195 121 159q117 -5 193 -34q15 -185 18.5 -267.5t95 -72t128.5 502.5q15 238 0 358q-11 135 -21 333q-37 189 -2 204.5t160.5 23t173.5 -77.5t73 -200z" />
    <glyph glyph-name="K" unicode="K" horiz-adv-x="1305" 
d="M1048 -138q-137 10 -443 236l-259 246l-16 -355v-150q-88 -26 -173 -22q-84 -5 -64 202q31 244 -6 679.5t-27 698.5q10 161 74.5 168t131.5 17q100 -25 110.5 -68t20.5 -117q-10 -122 -17 -286q-27 -178 9 -237q73 76 405 535q132 79 256.5 -88.5t-243.5 -379.5
q-141 -83 -229 -213q12 -177 137 -307q241 -213 369 -234q207 -72 79 -200q-62 -110 -115 -125z" />
    <glyph glyph-name="L" unicode="L" horiz-adv-x="1262" 
d="M1133 10l-350 -151q-233 -64 -343 -90q-116 -36 -257.5 -32.5t-85.5 253.5l20 367q21 391 57 965q15 242 69 256.5t142 4.5q89 10 130 -7t-5 -183q-173 -529 -50 -1211q296 -37 618 176q73 81 119 -16q38 -87 61 -227q-25 -54 -125 -105z" />
    <glyph glyph-name="M" unicode="M" horiz-adv-x="1788" 
d="M1601 -103q-49 -5 -91 -6t-93 304q-81 255 -125 427q-118 69 -334 -589q-42 -76 -113 -76q-59 0 -93 64q-22 42 -40 107l-29 111q-66 368 -163 539q-77 -320 -180 -871q-80 -43 -159 -17q-54 20 -93 30q-50 19 -50 114q35 177 94 425l95 393l98 320q44 221 -8 279
q50 93 215 108q85 5 158 -38q64 -175 94 -439l64 -227q153 72 231 312l70 151q-2 144 285 50q16 -57 122.5 -382.5t146 -585t49.5 -382.5q-5 -93 -57.5 -97t-93.5 -24z" />
    <glyph glyph-name="N" unicode="N" horiz-adv-x="1648" 
d="M1555 258q5 -89 -16 -323q-62 -20 -153 -24q-177 -42 -269 208q-259 299 -730 664q3 -213 -1.5 -371t20.5 -299q92 -253 -144 -248q-86 5 -148 25q-65 97 -55 167.5t16.5 130t17.5 127.5q10 92 8.5 185t4.5 165q0 81 9.5 202t9.5 187q0 63 -12 187.5t-12 187.5
q-36 158 -1 175.5t135 33.5q185 40 259 -142q208 -409 488 -620q186 -207 183.5 -111.5t9.5 299.5q-14 174 -25.5 247.5t29.5 138t234 72t153 -621.5q-5 -126 -8 -280.5t-3 -361.5z" />
    <glyph glyph-name="O" unicode="O" horiz-adv-x="1709" 
d="M966 -67q-482 -48 -699 178t-223.5 575.5t175 626t470 319.5t490.5 -14.5t344.5 -249.5t144 -512.5t-108.5 -597.5t-593 -325zM732 1184q-243 -38 -263.5 -356.5t142 -397t311 -78t247 84t139 315t-146 351t-429.5 81.5z" />
    <glyph glyph-name="P" unicode="P" horiz-adv-x="1180" 
d="M400 363q45 -372 23 -379.5t-178 -7.5q-40 0 -76 2.5t-108 16.5l15 268q-16 213 -6.5 463t-4 477t77 316t200.5 87q57 5 93.5 5t137.5 -15q148 -25 333 -135q166 -113 211 -347q45 -283 -19.5 -422.5t-199 -215t-284 -94t-215.5 -19.5zM568 1363q-187 14 -211.5 -177
t16.5 -403.5t304 -147t258.5 292.5t-92.5 324t-275 111z" />
    <glyph glyph-name="Q" unicode="Q" horiz-adv-x="1769" 
d="M1096 -176l-74 86q-17 -26 -183 -26q-301 0 -554 228t-247 555q6 363 211 643q303 319 719 274q368 -69 561 -349q207 -228 164 -621q0 -331 -324 -557q80 -146 -8 -218t-143.5 -86t-121.5 71zM889 1180q-121 18 -338 -171q-186 -230 -183 -401.5t130 -318.5
q176 -143 296 -164.5t90.5 31.5t4.5 98.5t78.5 74.5t91.5 45t84.5 -30t95.5 -82q193 112 217.5 344t-108.5 435q-180 163 -459 139z" />
    <glyph glyph-name="R" unicode="R" horiz-adv-x="1295" 
d="M738 84q-192 146 -341 298l-7 -117l5 -197q0 -44 -28.5 -73.5t-101.5 -29.5q-136 10 -177 5t-19 325.5t37.5 598.5t13.5 515q-11 181 218 166l226 -28q152 -17 261 -63q439 -224 415 -559q14 -157 -104 -294q-136 -108 -336 -118q311 -167 337 -204t9 -103t-82.5 -171
t-114.5 -85.5t-211 134.5zM552 1311l-94 -28l-44 -81q7 -74 7 -121q0 -80 -13 -199l-1 -86q-6 -113 23.5 -114t44.5 -1q245 49 314.5 76.5t112.5 75.5t45.5 154.5t-91.5 196.5q-145 110 -304 127z" />
    <glyph glyph-name="S" unicode="S" horiz-adv-x="1401" 
d="M130 149q-62 104 -82.5 187.5t126.5 164.5q168 100 277 92q27 -257 103.5 -308t190 -39.5t196 93t51.5 109t-156 45.5t-197.5 64t-231.5 110q-180 133 -156 326q-29 178 107 340q183 144 470 163q164 4 300 -38q233 -62 20 -514q-68 -46 -267 58q-59 24 12.5 143.5
t-31.5 142.5q-113 -12 -227 -96q-69 -78 -59 -168q19 -79 100 -127q55 -13 213 -24q229 -17 358 -144q118 -116 118 -283q0 -238 -220 -380q-191 -123 -386 -175q-169 -24 -406 36q-162 105 -223 222z" />
    <glyph glyph-name="T" unicode="T" horiz-adv-x="1260" 
d="M1081 1275q-150 11 -228 10q-6 -152 -14 -444.5t25 -404.5q0 -78 9.5 -144.5t4.5 -116.5q48 -268 -31 -327q5 6 -106 -13q-55 0 -120 23t-75 110l10 62q-5 68 -21 156.5t-1 223.5q4 167 -7.5 324.5t-5.5 474.5q-381 -91 -482 3q-5 102 -19 166q5 55 26 96q63 68 120 60
q59 12 212 10t357 -18.5t464 -9.5q36 -253 -118 -241z" />
    <glyph glyph-name="U" unicode="U" horiz-adv-x="1465" 
d="M197 47q-101 154 -108 383q-39 219 -25 623q-5 125 -9 240q-8 106 8 214q93 34 221 20q92 5 78 -222l24 -558q-63 -611 303 -471q149 79 207.5 193t-25.5 357q-129 290 -187 392t334 182q86 -56 131 -211l101 -297q193 -898 -336.5 -970.5t-716.5 125.5z" />
    <glyph glyph-name="V" unicode="V" horiz-adv-x="1366" 
d="M1302 1381q-27 -108 -136 -376l-122 -315l-183 -450q-47 -113 -120 -270l-196 -90q-148 -15 -189 188q-166 884 -233.5 1086t-92.5 306q5 35 42 74q54 22 105 27q147 81 189 -97q174 -588 179 -812q264 172 449 863q39 65 84 70t104 -15t112 -61.5t8 -127.5z" />
    <glyph glyph-name="W" unicode="W" horiz-adv-x="1974" 
d="M1322 -131q-222 -5 -237 79q-36 538 -88 584q-127 -277 -262 -487q-10 -45 -50 -74q-36 -27 -82 -27q-297 -76 -282 182q-139 769 -250 1247q-33 42 -2 106q30 47 135 47q176 46 171 -61q28 -51 37 -207q39 -186 83 -446l92 -239q112 45 244 234q88 188 178 177.5
t162.5 -30.5t130.5 -152l17 -196l20 -231q63 175 134 476q123 555 242 532t232 -138l-315 -928q-41 -119 -141 -346q-36 -67 -169 -102z" />
    <glyph glyph-name="X" unicode="X" horiz-adv-x="1592" 
d="M1494 1204q-64 -107 -166 -222l-125 -149l-72 -122q126 -281 298 -512q2 -103 -179.5 -187.5t-211.5 -40.5l-201 332l-204 -198q-262 -274 -327 -244q-76 0 -117 36t-91 88q-65 101 171 338l325 401q-65 102 -150 217q-185 209 -255 324q-52 70 -12 146q30 56 71.5 90.5
t94.5 64.5q70 20 141.5 -46t175.5 -203q84 -101 187 -203l296 422q86 50 189.5 -23.5t193.5 -150.5q40 -70 -32 -158z" />
    <glyph glyph-name="Y" unicode="Y" horiz-adv-x="1302" 
d="M598 -82q-24 -68 -346 -26q-80 49 74 342l152 360q15 27 -97 174q-140 158 -252 365t11 285.5t203 30.5l312 -455q34 -59 307 533q68 133 163 48q65 -30 114 -68t21.5 -103t-232 -483t-430.5 -1003z" />
    <glyph glyph-name="Z" unicode="Z" horiz-adv-x="1481" 
d="M1308 1208l-145 -103q-148 -184 -368 -514l-152 -143q373 133 494 179.5t175 15.5q50 -283 69 -442q11 -111 -85 -105t-275.5 19.5t-549.5 -104t-387 10.5q-52 122 45 230l164 188l54 57l273 370q77 134 249 317q-404 -94 -754 -13q-48 126 -26 214t76 110q33 14 109 14
q69 0 205.5 -14.5t205.5 -14.5q77 0 230.5 10t231.5 10q311 44 276 -97q25 -159 -115 -195z" />
    <glyph glyph-name="bracketleft" unicode="[" horiz-adv-x="756" 
d="M418 -412q-22 0 -67 -2.5t-237 -14.5q-33 -30 -30 283t34 510.5t-32 724.5q-43 379 -38.5 447.5t231.5 56.5q103 6 145 15.5t103 -2.5q85 -6 104.5 -16l92.5 -46q-4 -91 -29 -175q-12 -138 -117 -115.5t-224 9.5q6 -30 57 -188l29 -595l-79 -592l75 27q65 0 117.5 -20.5
t59.5 -58t19 -174.5q-1 -76 -46.5 -77.5t-92 1t-75.5 2.5z" />
    <glyph glyph-name="backslash" unicode="\" horiz-adv-x="989" 
d="M770 -277q-122 -31 -131 99q-18 198 -170 708t-431 834q-32 55 36 105q88 91 141 122.5t133 15.5q45 -52 71 -113q93 -171 179 -504l205 -515q81 -288 129 -427q38 -102 42 -197q-21 -44 -49 -73t-155 -55z" />
    <glyph glyph-name="bracketright" unicode="]" horiz-adv-x="808" 
d="M338 -273q-128 -5 -185.5 -0.5t-46 50.5t3.5 174.5t29 142.5t102 -16l215 -14l-37 398l-13 335l39 315q-95 18 -215.5 -1t-162.5 270q-25 84 -29 175l92.5 46t104.5 16q61 12 103 2.5t145 -15.5q227 12 231.5 -56.5t24.5 -494.5t8 -848.5t-105 -531.5
q-107 24 -164.5 26.5t-139.5 26.5z" />
    <glyph glyph-name="asciicircum" unicode="^" horiz-adv-x="878" 
d="M475 1682q54 -36 140.5 -116.5t165 -178t56.5 -152.5q-115 -113 -184 -19q-118 120 -165 155l-307 -233q-46 -33 -73 -11t-50 58q-29 44 -10 90q76 172 207 295t220 112z" />
    <glyph glyph-name="underscore" unicode="_" horiz-adv-x="1653" 
d="M137 -348q-28 -8 -63 119t54 185q14 42 329 56.5t739 -29.5t328 -267q12 -101 -354.5 -120t-1032.5 56z" />
    <glyph glyph-name="grave" unicode="`" horiz-adv-x="582" 
d="M534 1252q-19 -29 -51 -54t-74 -37q-40 -10 -97 70l-81 130q-54 96 -110 136q-112 35 -66 91q22 28 52 62t64 35q121 -17 240 -157q150 -235 123 -276z" />
    <glyph glyph-name="a" unicode="a" horiz-adv-x="1123" 
d="M977 -129q-99 -68 -181 80q-118 -81 -203.5 -78.5t-203.5 38t-243 145.5q-114 132 -104 395q21 249 187.5 421t397.5 172q87 0 195 -45q74 -34 109.5 -83.5t40.5 -96.5t16 -129t2.5 -212t6.5 -205.5t31.5 -142t56.5 -132.5q-4 -46 -26.5 -68.5t-81.5 -58.5zM557 790
q-147 -62 -189.5 -131.5t-61 -229.5t84.5 -225.5t296 -12.5q47 44 59 114q37 192 37.5 268.5t-7.5 112t-57 73.5t-162 31z" />
    <glyph glyph-name="b" unicode="b" horiz-adv-x="1132" 
d="M589 -77q-143 -10 -273 9q-52 8 -108 18q-84 10 -97.5 39t-36.5 166t-9.5 757t63.5 668q63 25 116 30q131 -10 95 -122q-5 -24 -3 -301l13 -195q42 39 118 81.5t248.5 17t280.5 -200.5q121 -160 121 -386q0 -248 -149.5 -417t-378.5 -164zM489 800q-62 -38 -108 -109
l-53 -143q10 -211 107 -346q92 -29 200 -24q129 31 184.5 105t65.5 216q-5 114 -60 214q-86 92 -190.5 120t-145.5 -33z" />
    <glyph glyph-name="c" unicode="c" horiz-adv-x="1060" 
d="M593 -81q-194 -14 -342 107q-172 119 -204 360q-14 129 19 272q90 303 270 412t459 -14q161 -70 213 -183q-10 -45 -35 -88.5t-97 -61.5q-61 25 -124.5 63.5t-168.5 63.5t-205 -157q-66 -142 -66 -257t40 -205q109 -106 230 -99q64 11 128 50l95 51q34 30 79 41l60 -68.5
t60.5 -55t-117.5 -153.5q-138 -78 -294 -78z" />
    <glyph glyph-name="d" unicode="d" horiz-adv-x="1143" 
d="M1034 86q2 -14 2 -23q0 -40 -28 -66t-65 -26q-62 0 -107.5 -9.5t-120.5 -26.5t-174 -1q-212 -11 -353 138q-156 146 -161 362q-15 251 136.5 455.5t353.5 199.5t307 -38q30 308 13 515q49 89 137 59q122 -11 101 -128q0 -139 -10.5 -452.5t-23 -553.5t-7.5 -405zM546 163
q161 -4 217 63q46 44 55 98l2 137l1 116l2 118q-38 81 -101 93.5t-157.5 2t-181.5 -74t-110 -228t58.5 -234.5t214.5 -91z" />
    <glyph glyph-name="e" unicode="e" horiz-adv-x="1184" 
d="M579 -70q-260 4 -380 117q-129 145 -160 373q7 257 143 450q127 182 380 195q203 14 302 -69q163 -76 193 -301q17 -104 -72 -179q-394 -263 -601 -176q-11 -141 198 -174q107 0 196 42l131.5 112.5t97.5 21.5q38 -34 58.5 -62.5t34.5 -66.5q55 -63 -213 -211
q-160 -68 -308 -72zM586 549q338 89 264 202.5t-243.5 60.5t-258.5 -157.5t238 -105.5z" />
    <glyph glyph-name="f" unicode="f" horiz-adv-x="792" 
d="M586 1346q-143 -28 -153 -289q104 -10 209 -4q137 16 126 -144q-11 -100 -111 -114q-44 10 -95 3.5t-155 -21.5q-22 -500 -24.5 -642t-24.5 -292q-55 -3 -131 -3q-41 0 -92 -3.5t-34 112.5q17 134 17 325l14 295l5 175q-109 1 -105 137l21 71l107 41q3 56 15 152
q26 222 88 384.5t354 129.5q160 0 138 -157q22 -178 -169 -156z" />
    <glyph glyph-name="g" unicode="g" horiz-adv-x="1161" 
d="M1040 80q-21 -205 -56 -337q-45 -197 -123 -201q-197 -83 -353.5 -65t-313.5 71t-120 147q-25 101 159 200q125 -54 179 -81.5t160 -31.5q136 -14 161 50t23 178q-81 -85 -259.5 -67.5t-294.5 143.5t-131 333q-5 270 140 455q111 185 372 195q172 -10 227.5 -26.5
t168.5 -54.5q142 -48 117 -179q-4 -328 -56 -729zM568 814q-81 -20 -140 -96q-98 -118 -93 -295q-5 -105 50 -163t165 -68q299 25 309 357q-6 141 -103 210.5t-188 54.5z" />
    <glyph glyph-name="h" unicode="h" horiz-adv-x="1107" 
d="M805 242q3 88 -2.5 166.5t0.5 234.5q-42 79 -111 94.5t-174 -21.5q-113 -90 -103 -275.5t-69 -400.5q-28 -62 -87 -62q-41 -16 -127 -6t-71 112q29 621 52.5 946t19 367.5t-12.5 133t19 96.5t131 37q151 27 154 -114q5 -107 16.5 -206t13.5 -318q-17 -77 84.5 -25
t227.5 57q197 -16 243 -129q44 -76 45 -245l3 -212q29 -169 33 -326q-1 -100 -167 -101t-118 197z" />
    <glyph glyph-name="i" unicode="i" horiz-adv-x="424" 
d="M251 1266q-48 0 -87.5 17.5t-84.5 63t6.5 152.5t156 86t125 -88t1.5 -115q0 -48 -34.5 -82t-82.5 -34zM336 90q9 -86 -25 -100t-83 -18q-66 4 -107.5 13.5t-32.5 104.5q0 98 -10.5 205.5t-8 210.5t-15.5 464q1 153 58.5 148t138.5 -47q76 -5 103.5 -32.5t20.5 -130.5
t-17 -229t-10 -229t-4 -196.5t-8 -163.5z" />
    <glyph glyph-name="j" unicode="j" horiz-adv-x="968" 
d="M597 1678q180 -70 221.5 -149t-4.5 -154.5t-87.5 -116t-114 -40.5t-129.5 37t-91.5 124t10 165.5t195.5 133.5zM493 920q102 152 244 153t157 -175l13 -504l8 -655q7 -303 -115.5 -345.5t-278.5 -42.5q-509 65 -400 555q120 86 187 92t87 -36.5t38 -121t121 -67.5
t67 268.5l-66 460z" />
    <glyph glyph-name="k" unicode="k" horiz-adv-x="1181" 
d="M784 125q-73 137 -237 398q-32 -72 -77 -145q-88 -165 -88 -312q0 -45 -27.5 -73t-65.5 -43q-101 -16 -168 38q-76 875 -16 1246t92.5 404t152.5 23q120 -26 147.5 -54t16.5 -160.5t-71 -630.5l356 266t213 87t70 -77t32 -126q53 -72 -287 -304q105 -265 212 -461
q57 -66 15 -120.5t-118 -88t-152 132.5z" />
    <glyph glyph-name="l" unicode="l" horiz-adv-x="404" 
d="M325 786q21 -576 20 -720.5t-100 -160.5q-129 -5 -196 35q11 219 9 598.5t8 955.5q-5 151 170 130q120 -5 125 -120q-5 -153 -20.5 -356.5t-15.5 -361.5z" />
    <glyph glyph-name="m" unicode="m" horiz-adv-x="1495" 
d="M1282 -106q-151 -8 -154 37q-10 79 -9 287l16 367q48 220 -84 189q-92 -22 -111.5 -102.5t-9.5 -173.5q37 -287 -1 -436q-7 -133 -195 -113q-81 0 -118 21t-23.5 76.5t24 201.5t1.5 301q-15 110 -164 135q-91 -10 -101 -98t-3.5 -203t12 -191t-2 -166t-26.5 -97t-95 -7
q-155 -27 -141.5 151t10.5 313t-0.5 266t-20.5 227q-39 262 136 258q128 8 148 -162q98 105 268 93.5t217 -86.5q133 69 275 96q282 -16 293 -207q24 -44 6 -301q-22 -333 -16.5 -512.5t-130.5 -163.5z" />
    <glyph glyph-name="n" unicode="n" horiz-adv-x="1032" 
d="M772 -89q-115 0 -101 50l12 179q22 161 29.5 242.5t14.5 114t-25.5 81.5t-109 71t-131 -47.5t-78.5 -146.5t-35 -285.5t-27.5 -235t-81.5 -29.5q-62 -4 -127 -5t-43.5 78.5t26 364.5t8.5 676q-7 109 28.5 112.5t113.5 18.5q168 4 160 -119q94 38 271 38q160 0 256 -130
q54 -112 50 -282l-3 -112l-9 -96q-7 -94 2 -211t-10 -308q-78 -30 -190 -19z" />
    <glyph glyph-name="o" unicode="o" horiz-adv-x="1027" 
d="M546 -99q-198 10 -371 130q-131 142 -138 399q1 239 114 408q157 241 424 203q200 0 324 -169q88 -155 85 -363q4 -236 -92 -393q-100 -185 -346 -215zM306 401q-15 -110 54 -188q66 -49 145 -39q100 10 186 89q78 57 96 245q-44 208 -194.5 205t-215.5 -98.5t-71 -213.5
z" />
    <glyph glyph-name="p" unicode="p" horiz-adv-x="1198" 
d="M836 -220q-248 -41 -393 -51l15 -147q10 -172 -51 -178t-136 -6q-63 -5 -127.5 2t-63.5 98q-6 866 -17 1169.5t31 456.5q56 43 127.5 53.5t113.5 1.5t55 -44.5t113 -8.5t244.5 -15t323.5 -227q92 -199 98.5 -425t-42.5 -383.5t-291 -295.5zM395 240q94 -223 249 -211
q145 1 230.5 169t49.5 391q-38 172 -172 230.5t-241 -4t-137 -207t21 -368.5z" />
    <glyph glyph-name="q" unicode="q" horiz-adv-x="1169" 
d="M1005 -466q-9 -94 -66.5 -117t-130.5 -13t-133 29.5t-16 237.5l37 171q-239 -69 -500 176q-155 176 -176 395q20 379 201 576q199 122 397.5 128.5t236.5 -97.5q38 78 91 73q86 -20 133 -39.5t42 -110.5q-36 -290 -78.5 -770.5t-37.5 -638.5zM449 232q110 -67 187 -61
t120.5 94.5t71.5 357.5l4 115q-20 34 -100.5 54t-178 -5.5t-141.5 -129.5t-37 -230t74 -195z" />
    <glyph glyph-name="r" unicode="r" horiz-adv-x="1006" 
d="M946 739l-91 -26q-77 -16 -125.5 43.5t-217.5 7.5q-100 -51 -124 -235l-12 -495q7 -115 -120 -133q-144 -11 -204 41q-2 567 61 1010q25 137 151 136q141 0 160 -81q128 47 362 47q81 0 128 -48.5t83 -164.5q3 -77 -51 -102z" />
    <glyph glyph-name="s" unicode="s" horiz-adv-x="1032" 
d="M744 781q-12 63 -43.5 89t-191.5 -14q-157 -75 -20.5 -116t202 -73.5t196.5 -138.5q88 -105 77 -308q-19 -185 -155.5 -274t-341.5 -70q-150 26 -286.5 93t-144.5 137q29 164 70 251q38 195 172 110.5t177 -132.5q144 -107 186 -64q78 119 -112 167l-104 23
q-133 29 -189 68q-81 56 -171 158q-30 258 238 373q238 113 364 120t182.5 -8t93.5 -65.5t42 -128.5t5 -122q-22 -86 -49.5 -106.5t-86 -9.5t-110.5 41z" />
    <glyph glyph-name="t" unicode="t" horiz-adv-x="904" 
d="M720 806q-87 4 -140 -38l-8 -327l-5 -298q125 -75 156 30q161 64 138.5 -124.5t-378.5 -189.5q-151 -22 -201 165.5t-16 736.5q-70 7 -151 8q-99 8 -94 186q0 44 27 73t69 29l178 -3q5 119 2.5 154.5t-11.5 86.5q14 106 52 104t80 -2q158 9 153.5 -83t-16.5 -273
q92 16 178 -11q44 -151 -13 -224z" />
    <glyph glyph-name="u" unicode="u" horiz-adv-x="1009" 
d="M954 18q0 -75 -45 -86.5t-87 -11.5q-106 -21 -112 38q-111 -8 -227 -33q-106 -4 -248.5 36t-155 269.5t-12.5 436.5q0 137 -6 229q-15 116 121 101q71 4 116 0t52 -54q-21 -153 -11 -285.5t11 -199t35.5 -116t118.5 -67.5q88 -3 146 78l14 89q-30 263 -58 419
q-35 106 130 113q143 25 152 -39l40.5 -288.5t25.5 -628.5z" />
    <glyph glyph-name="v" unicode="v" horiz-adv-x="1040" 
d="M528 -40q-107 -21 -127 38q-163 269 -357 993q-18 55 40.5 90.5t130.5 15.5q105 -41 192 -369l114 -193q92 31 171 235l78 250q11 61 116 54q58 -24 94 -53t23 -72q-161 -521 -291 -761.5t-184 -227.5z" />
    <glyph glyph-name="w" unicode="w" horiz-adv-x="1390" 
d="M1294 678q-43 -109 -155 -464q-60 -143 -108 -181t-175 -26q-133 -9 -145.5 116t-59.5 250l-107 -152l-85 -178q-13 -38 -38 -58q-16 -37 -128 -28q-146 -39 -161 224q-36 172 -58 423q-19 268 -26 336q3 113 32.5 124.5t74.5 11.5t120 -13q37 8 45 -226l26 -154l21 -176
q110 129 186 285q41 87 140 98q143 -7 171 -113q55 -78 55 -346q42 176 162 527q13 122 93.5 118t157.5 -93q25 -68 -38 -305z" />
    <glyph glyph-name="x" unicode="x" horiz-adv-x="1204" 
d="M1106 833l-156 -155l-132 -137l136 -201q133 -157 125 -253q-42 -88 -112 -106q-63 -18 -105 8q-106 97 -277 348q-193 -193 -273 -298q-58 -90 -117 -63t-88.5 57t-51 54t-11 69.5t83.5 149t268 251.5q-74 159 -149 259.5l-126 165.5q-21 76 16 110.5t151 66.5
q94 32 206 -211l126 -153l305.5 266.5t166.5 -25t14 -203.5z" />
    <glyph glyph-name="y" unicode="y" horiz-adv-x="1214" 
d="M710 -424q-117 -49 -192 -22q-79 10 -116.5 25.5t-32.5 176.5q22 169 172 466l-221 229l-216 306q-83 142 -52.5 213t79.5 127.5t159 -14.5q91 -55 173.5 -167.5t241.5 -300.5l141 344q37 86 114 121q127 -4 176 -53.5t54 -140.5q-76 -183 -226.5 -634.5t-253.5 -675.5z
" />
    <glyph glyph-name="z" unicode="z" horiz-adv-x="1098" 
d="M1021 805q-85 -142 -207 -315.5t-210 -249.5l143 -7q92 1 128.5 12.5t121.5 11.5q40 -32 32.5 -97.5t-11.5 -120.5q-10 -102 -43 -101.5t-77 0.5q-39 0 -125 1t-216.5 -4.5t-297.5 -29.5q-186 -17 -201.5 41.5t-15.5 161.5q335 292 543 593q-30 45 -111 46.5t-220 -14.5
q-117 -71 -117 220q0 44 27 73.5t68 29.5q49 0 148 -11.5t150 -11.5q68 0 204 9.5t204 9.5q85 0 85 -70q35 -74 -2 -177z" />
    <glyph glyph-name="braceleft" unicode="{" horiz-adv-x="805" 
d="M376 567q-23 -39 15 -110q45 -82 48 -125.5t14 -161.5t6 -232q55 -85 127.5 -100.5t119 -28t52.5 -103.5q0 -57 -38 -109q-138 -37 -199 -18.5t-167 83.5q-140 159 -121 468q-28 221 -97.5 254t-119.5 153q0 84 126 147q74 69 80 218q-46 695 104 743.5t282 17.5
q93 0 154 -34q8 -63 8 -121q-6 -86 -90 -95q-216 -38 -213 -173.5t3.5 -212t-9 -175t-51.5 -175.5t-34 -110z" />
    <glyph glyph-name="bar" unicode="|" horiz-adv-x="348" 
d="M208 1760q86 -26 86 -128l-6 -1877q11 -130 -81 -136q-85 -7 -120 12t-16 375l-13 1614q-19 123 29.5 131.5t120.5 8.5z" />
    <glyph glyph-name="braceright" unicode="}" horiz-adv-x="875" 
d="M535 567q-113 187 -113 247q0 43 6.5 204t6.5 204q-50 128 -140 181q-40 13 -107 16q-84 10 -103 95q-56 209 121 197q198 -11 305 -96q168 -106 136 -441l-36 -180l-9 -111l62 -91q145 -39 169.5 -108.5t2.5 -121t-76 -106.5t-77 -164.5t-17 -174.5q6 -158 -45 -317
q-63 -178 -274 -209q-87 -19 -168 -7q-69 9 -69 122q-13 166 82 127q61 -5 130 14t93 91q39 108 39 192q0 33 -8 99t-8 99q0 47 97 239z" />
    <glyph glyph-name="asciitilde" unicode="~" horiz-adv-x="1258" 
d="M527 967q89 -33 172 -98q111 -90 171 -80t106.5 94t143.5 39q61 -29 76.5 -53.5t25.5 -70.5q-25 -126 -131 -226q-82 -105 -193 -105t-201 28q-103 61 -143.5 141.5t-98.5 70.5t-142 -138q-12 -55 -87 -111q-79 1 -124 9t-64 57q-1 81 50.5 162.5t136.5 164.5
q168 140 302 116z" />
    <glyph glyph-name="Adieresis" unicode="&#xc4;" horiz-adv-x="1498" 
d="M977 284q-129 8 -320 -1q-17 -103 -73 -216t-182.5 -137.5t-239 15t-123.5 167t145.5 523.5t323 661t518.5 210q195 -30 269.5 -261.5t153.5 -682t43.5 -516t-115 -91.5t-232.5 -22.5t-168 351.5zM676 738q-6 -93 210 -73q224 -8 155 253q-5 160 -126 199
q-136 19 -239 -379zM636 1894q121 -8 135 -112t-27.5 -156.5t-168 -49.5t-146.5 98t33.5 162t173.5 58zM1223 1909q60 -23 85 -62t6 -123t-130 -95t-169.5 44t-38 144.5t103.5 102t143 -10.5z" />
    <glyph glyph-name="Aring" unicode="&#xc5;" horiz-adv-x="1498" 
d="M977 284q-129 8 -320 -1q-17 -103 -73 -216t-182.5 -137.5t-239 15t-123.5 167t145.5 523.5t323 661t518.5 210q195 -30 269.5 -261.5t153.5 -682t43.5 -516t-115 -91.5t-232.5 -22.5t-168 351.5zM676 738q-6 -93 210 -73q224 -8 155 253q-5 160 -126 199
q-136 19 -239 -379zM763 1576q73 3 123 31.5t23 100t-67.5 99t-128 17t-90.5 -79.5t32 -119.5t108 -48.5zM412 1726q7 111 108 193t270 93t248.5 -76t67 -219.5t-100 -223.5t-253.5 -82t-256.5 107t-83.5 208z" />
    <glyph glyph-name="Ccedilla" unicode="&#xc7;" horiz-adv-x="1370" 
d="M1033 -250q-36 -172 -249 -213q-147 -34 -283 -46q-160 -30 -238 120q-6 135 30.5 186t138.5 52t153 39t23 79l-161 56q-142 83 -237.5 154t-138 371t169 730.5t671.5 434.5q349 -84 389.5 -198t-37.5 -329q-70 -70 -169 4t-281 38.5t-263 -198t-106 -316t118.5 -277
t283.5 -91.5t195 79t114.5 14t80.5 -77t21 -103q12 -77 -144 -185l-93 -58q24 -145 12 -266z" />
    <glyph glyph-name="Eacute" unicode="&#xc9;" horiz-adv-x="1279" 
d="M459 1195q0 -106 -11 -257q295 43 337 -1.5t49 -142t-10 -178t-321 -104.5q-3 -114 12 -185q231 29 336 33.5t157.5 -124.5t4.5 -234t-336.5 -143t-425.5 -29.5t-168 287.5t-31 657.5t35.5 637.5t208 270.5t260.5 11t240 -19.5q165 -1 188.5 -113.5t24.5 -184.5
t-64.5 -123.5t-166 -52.5t-319.5 -5zM649 1742q-77 4 -109 29t-55 64.5t5 100.5t114 145.5t141.5 129t117 59.5t91 -17t45 -80t-128 -241t-221.5 -190z" />
    <glyph glyph-name="Ntilde" unicode="&#xd1;" horiz-adv-x="1632" 
d="M1555 258q5 -89 -16 -323q-62 -20 -153 -24q-177 -42 -269 208q-259 299 -730 664q3 -213 -1.5 -371t20.5 -299q92 -253 -144 -248q-86 5 -148 25q-65 97 -55 167.5t16.5 130t17.5 127.5q10 92 8.5 185t4.5 165q0 81 9.5 202t9.5 187q0 63 -12 187.5t-12 187.5
q-36 158 -1 175.5t135 33.5q185 40 259 -142q208 -409 488 -620q186 -207 183.5 -111.5t9.5 299.5q-14 174 -25.5 247.5t29.5 138t234 72t153 -621.5q-5 -126 -8 -280.5t-3 -361.5zM1085 1805q-40 -65 -69 -95q-56 -57 -147.5 -71.5t-180.5 36.5t-147.5 99.5t-91.5 -18.5
t-103 -36.5t-94.5 63t4 83.5t92 96.5t140 47t221 -66t192.5 -23.5t95.5 26.5t80.5 -49.5t8 -92z" />
    <glyph glyph-name="Odieresis" unicode="&#xd6;" horiz-adv-x="1635" 
d="M966 -67q-482 -48 -699 178t-223.5 575.5t175 626t470 319.5t490.5 -14.5t344.5 -249.5t144 -512.5t-108.5 -597.5t-593 -325zM732 1184q-243 -38 -263.5 -356.5t142 -397t311 -78t247 84t139 315t-146 351t-429.5 81.5zM616 1920q121 -8 135 -112t-27.5 -156.5
t-168 -49.5t-146.5 98t33.5 162t173.5 58zM1203 1935q60 -23 85 -62t6 -123t-130 -95t-169.5 44t-38 144.5t103.5 102t143 -10.5z" />
    <glyph glyph-name="Udieresis" unicode="&#xdc;" horiz-adv-x="1509" 
d="M197 47q-101 154 -108 383q-39 219 -25 623q-5 125 -9 240q-8 106 8 214q93 34 221 20q92 5 78 -222l24 -558q-63 -611 303 -471q149 79 207.5 193t-25.5 357q-129 290 -187 392t334 182q86 -56 131 -211l101 -297q193 -898 -336.5 -970.5t-716.5 125.5zM505 1897
q121 -8 135 -112t-27.5 -156.5t-168 -49.5t-146.5 98t33.5 162t173.5 58zM1092 1912q60 -23 85 -62t6 -123t-130 -95t-169.5 44t-38 144.5t103.5 102t143 -10.5z" />
    <glyph glyph-name="aacute" unicode="&#xe1;" horiz-adv-x="1048" 
d="M992 -129q-99 -68 -181 80q-118 -81 -203.5 -78.5t-203.5 38t-243 145.5q-114 132 -104 395q21 249 187.5 421t397.5 172q87 0 195 -45q74 -34 109.5 -83.5t40.5 -96.5t16 -129t2.5 -212t6.5 -205.5t31.5 -142t56.5 -132.5q-4 -46 -26.5 -68.5t-81.5 -58.5zM572 790
q-147 -62 -189.5 -131.5t-61 -229.5t84.5 -225.5t296 -12.5q47 44 59 114q37 192 37.5 268.5t-7.5 112t-57 73.5t-162 31zM485 1165q-77 4 -109 29t-55 64.5t5 100.5t114 145.5t141.5 129t117 59.5t91 -17t45 -80t-128 -241t-221.5 -190z" />
    <glyph glyph-name="agrave" unicode="&#xe0;" horiz-adv-x="1048" 
d="M992 -129q-99 -68 -181 80q-118 -81 -203.5 -78.5t-203.5 38t-243 145.5q-114 132 -104 395q21 249 187.5 421t397.5 172q87 0 195 -45q74 -34 109.5 -83.5t40.5 -96.5t16 -129t2.5 -212t6.5 -205.5t31.5 -142t56.5 -132.5q-4 -46 -26.5 -68.5t-81.5 -58.5zM572 790
q-147 -62 -189.5 -131.5t-61 -229.5t84.5 -225.5t296 -12.5q47 44 59 114q37 192 37.5 268.5t-7.5 112t-57 73.5t-162 31zM705 1246q-19 -29 -51 -54t-74 -37q-40 -10 -97 70l-81 130q-54 96 -110 136q-112 35 -66 91q22 28 52 62t64 35q121 -17 240 -157q150 -235 123 -276
z" />
    <glyph glyph-name="acircumflex" unicode="&#xe2;" horiz-adv-x="1048" 
d="M992 -129q-99 -68 -181 80q-118 -81 -203.5 -78.5t-203.5 38t-243 145.5q-114 132 -104 395q21 249 187.5 421t397.5 172q87 0 195 -45q74 -34 109.5 -83.5t40.5 -96.5t16 -129t2.5 -212t6.5 -205.5t31.5 -142t56.5 -132.5q-4 -46 -26.5 -68.5t-81.5 -58.5zM572 790
q-147 -62 -189.5 -131.5t-61 -229.5t84.5 -225.5t296 -12.5q47 44 59 114q37 192 37.5 268.5t-7.5 112t-57 73.5t-162 31zM758 1197q-33 0 -63 29q-226 137 -247 128t-278 -161q-83 -28 -116.5 -12t-42 47.5t33 156t174.5 244.5t213 98t155 -69.5t199 -186.5t111 -188
t-57.5 -67.5t-81.5 -18.5z" />
    <glyph glyph-name="adieresis" unicode="&#xe4;" horiz-adv-x="1048" 
d="M992 -129q-99 -68 -181 80q-118 -81 -203.5 -78.5t-203.5 38t-243 145.5q-114 132 -104 395q21 249 187.5 421t397.5 172q87 0 195 -45q74 -34 109.5 -83.5t40.5 -96.5t16 -129t2.5 -212t6.5 -205.5t31.5 -142t56.5 -132.5q-4 -46 -26.5 -68.5t-81.5 -58.5zM572 790
q-147 -62 -189.5 -131.5t-61 -229.5t84.5 -225.5t296 -12.5q47 44 59 114q37 192 37.5 268.5t-7.5 112t-57 73.5t-162 31zM279 1444q121 -8 135 -112t-27.5 -156.5t-168 -49.5t-146.5 98t33.5 162t173.5 58zM866 1459q60 -23 85 -62t6 -123t-130 -95t-169.5 44t-38 144.5
t103.5 102t143 -10.5z" />
    <glyph glyph-name="atilde" unicode="&#xe3;" horiz-adv-x="1048" 
d="M992 -129q-99 -68 -181 80q-118 -81 -203.5 -78.5t-203.5 38t-243 145.5q-114 132 -104 395q21 249 187.5 421t397.5 172q87 0 195 -45q74 -34 109.5 -83.5t40.5 -96.5t16 -129t2.5 -212t6.5 -205.5t31.5 -142t56.5 -132.5q-4 -46 -26.5 -68.5t-81.5 -58.5zM572 790
q-147 -62 -189.5 -131.5t-61 -229.5t84.5 -225.5t296 -12.5q47 44 59 114q37 192 37.5 268.5t-7.5 112t-57 73.5t-162 31zM856 1316q-40 -65 -69 -95q-56 -57 -147.5 -71.5t-180.5 36.5t-147.5 99.5t-91.5 -18.5t-103 -36.5t-94.5 63t4 83.5t92 96.5t140 47t221 -66
t192.5 -23.5t95.5 26.5t80.5 -49.5t8 -92z" />
    <glyph glyph-name="aring" unicode="&#xe5;" horiz-adv-x="1048" 
d="M992 -129q-99 -68 -181 80q-118 -81 -203.5 -78.5t-203.5 38t-243 145.5q-114 132 -104 395q21 249 187.5 421t397.5 172q87 0 195 -45q74 -34 109.5 -83.5t40.5 -96.5t16 -129t2.5 -212t6.5 -205.5t31.5 -142t56.5 -132.5q-4 -46 -26.5 -68.5t-81.5 -58.5zM572 790
q-147 -62 -189.5 -131.5t-61 -229.5t84.5 -225.5t296 -12.5q47 44 59 114q37 192 37.5 268.5t-7.5 112t-57 73.5t-162 31zM408 1333q73 3 123 31.5t23 100t-67.5 99t-128 17t-90.5 -79.5t32 -119.5t108 -48.5zM57 1483q7 111 108 193t270 93t248.5 -76t67 -219.5
t-100 -223.5t-253.5 -82t-256.5 107t-83.5 208z" />
    <glyph glyph-name="ccedilla" unicode="&#xe7;" horiz-adv-x="1069" 
d="M783 -220q-24 -100 -61 -172t-135 -124q-122 5 -222 28q-152 79 -213 162q9 162 162 205q102 -43 154.5 -48.5t79.5 12.5t3.5 35t-104.5 41q-187 36 -284 162.5t-113.5 333t137.5 432t389 244.5q113 5 266 -36q126 -69 167 -159q-18 -61 -50 -100t-79 -58
q-57 -14 -92.5 10.5t-80 26t-115 -29t-142.5 -240t-37 -274t167 -106.5q60 0 128 32l83 76l57 26q56 9 92.5 -23t69.5 -119t-199 -162q-33 -111 -28 -175z" />
    <glyph glyph-name="eacute" unicode="&#xe9;" horiz-adv-x="1122" 
d="M579 -70q-260 4 -380 117q-129 145 -160 373q7 257 143 450q127 182 380 195q203 14 302 -69q163 -76 193 -301q17 -104 -72 -179q-394 -263 -601 -176q-11 -141 198 -174q107 0 196 42l131.5 112.5t97.5 21.5q38 -34 58.5 -62.5t34.5 -66.5q55 -63 -213 -211
q-160 -68 -308 -72zM586 549q338 89 264 202.5t-243.5 60.5t-258.5 -157.5t238 -105.5zM497 1165q-77 4 -109 29t-55 64.5t5 100.5t114 145.5t141.5 129t117 59.5t91 -17t45 -80t-128 -241t-221.5 -190z" />
    <glyph glyph-name="egrave" unicode="&#xe8;" horiz-adv-x="1122" 
d="M579 -70q-260 4 -380 117q-129 145 -160 373q7 257 143 450q127 182 380 195q203 14 302 -69q163 -76 193 -301q17 -104 -72 -179q-394 -263 -601 -176q-11 -141 198 -174q107 0 196 42l131.5 112.5t97.5 21.5q38 -34 58.5 -62.5t34.5 -66.5q55 -63 -213 -211
q-160 -68 -308 -72zM586 549q338 89 264 202.5t-243.5 60.5t-258.5 -157.5t238 -105.5zM692 1252q-19 -29 -51 -54t-74 -37q-40 -10 -97 70l-81 130q-54 96 -110 136q-112 35 -66 91q22 28 52 62t64 35q121 -17 240 -157q150 -235 123 -276z" />
    <glyph glyph-name="ecircumflex" unicode="&#xea;" horiz-adv-x="1122" 
d="M579 -70q-260 4 -380 117q-129 145 -160 373q7 257 143 450q127 182 380 195q203 14 302 -69q163 -76 193 -301q17 -104 -72 -179q-394 -263 -601 -176q-11 -141 198 -174q107 0 196 42l131.5 112.5t97.5 21.5q38 -34 58.5 -62.5t34.5 -66.5q55 -63 -213 -211
q-160 -68 -308 -72zM586 549q338 89 264 202.5t-243.5 60.5t-258.5 -157.5t238 -105.5zM784 1189q-33 0 -63 29q-226 137 -247 128t-278 -161q-83 -28 -116.5 -12t-42 47.5t33 156t174.5 244.5t213 98t155 -69.5t199 -186.5t111 -188t-57.5 -67.5t-81.5 -18.5z" />
    <glyph glyph-name="edieresis" unicode="&#xeb;" horiz-adv-x="1122" 
d="M579 -70q-260 4 -380 117q-129 145 -160 373q7 257 143 450q127 182 380 195q203 14 302 -69q163 -76 193 -301q17 -104 -72 -179q-394 -263 -601 -176q-11 -141 198 -174q107 0 196 42l131.5 112.5t97.5 21.5q38 -34 58.5 -62.5t34.5 -66.5q55 -63 -213 -211
q-160 -68 -308 -72zM586 549q338 89 264 202.5t-243.5 60.5t-258.5 -157.5t238 -105.5zM312 1541q121 -8 135 -112t-27.5 -156.5t-168 -49.5t-146.5 98t33.5 162t173.5 58zM899 1556q60 -23 85 -62t6 -123t-130 -95t-169.5 44t-38 144.5t103.5 102t143 -10.5z" />
    <glyph glyph-name="iacute" unicode="&#xed;" 
d="M343 92q-22 -110 -94.5 -114.5t-119 9t-50 86t-21.5 163.5t15 699q13 133 84 144.5t114 -7.5t56 -61.5t13 -87.5q10 -97 6 -234.5t-7 -216t-1 -195t5 -185.5zM90 1165q-77 4 -109 29t-55 64.5t5 100.5t114 145.5t141.5 129t117 59.5t91 -17t45 -80t-128 -241t-221.5 -190
z" />
    <glyph glyph-name="igrave" unicode="&#xec;" 
d="M343 92q-22 -110 -94.5 -114.5t-119 9t-50 86t-21.5 163.5t15 699q13 133 84 144.5t114 -7.5t56 -61.5t13 -87.5q10 -97 6 -234.5t-7 -216t-1 -195t5 -185.5zM411 1252q-19 -29 -51 -54t-74 -37q-40 -10 -97 70l-81 130q-54 96 -110 136q-112 35 -66 91q22 28 52 62
t64 35q121 -17 240 -157q150 -235 123 -276z" />
    <glyph glyph-name="icircumflex" unicode="&#xee;" 
d="M343 92q-22 -110 -94.5 -114.5t-119 9t-50 86t-21.5 163.5t15 699q13 133 84 144.5t114 -7.5t56 -61.5t13 -87.5q10 -97 6 -234.5t-7 -216t-1 -195t5 -185.5zM453 1140q-33 0 -63 29q-226 137 -247 128t-278 -161q-83 -28 -116.5 -12t-42 47.5t33 156t174.5 244.5t213 98
t155 -69.5t199 -186.5t111 -188t-57.5 -67.5t-81.5 -18.5z" />
    <glyph glyph-name="idieresis" unicode="&#xef;" 
d="M343 92q-22 -110 -94.5 -114.5t-119 9t-50 86t-21.5 163.5t15 699q13 133 84 144.5t114 -7.5t56 -61.5t13 -87.5q10 -97 6 -234.5t-7 -216t-1 -195t5 -185.5zM-76 1444q121 -8 135 -112t-27.5 -156.5t-168 -49.5t-146.5 98t33.5 162t173.5 58zM511 1459q60 -23 85 -62
t6 -123t-130 -95t-169.5 44t-38 144.5t103.5 102t143 -10.5z" />
    <glyph glyph-name="ntilde" unicode="&#xf1;" horiz-adv-x="1072" 
d="M772 -89q-115 0 -101 50l12 179q22 161 29.5 242.5t14.5 114t-25.5 81.5t-109 71t-131 -47.5t-78.5 -146.5t-35 -285.5t-27.5 -235t-81.5 -29.5q-62 -4 -127 -5t-43.5 78.5t26 364.5t8.5 676q-7 109 28.5 112.5t113.5 18.5q168 4 160 -119q94 38 271 38q160 0 256 -130
q54 -112 50 -282l-3 -112l-9 -96q-7 -94 2 -211t-10 -308q-78 -30 -190 -19zM863 1335q-40 -65 -69 -95q-56 -57 -147.5 -71.5t-180.5 36.5t-147.5 99.5t-91.5 -18.5t-103 -36.5t-94.5 63t4 83.5t92 96.5t140 47t221 -66t192.5 -23.5t95.5 26.5t80.5 -49.5t8 -92z" />
    <glyph glyph-name="oacute" unicode="&#xf3;" horiz-adv-x="1077" 
d="M552 -99q-198 10 -371 130q-131 142 -138 399q1 239 114 408q157 241 424 203q200 0 324 -169q88 -155 85 -363q4 -236 -92 -393q-100 -185 -346 -215zM312 401q-15 -110 54 -188q66 -49 145 -39q100 10 186 89q78 57 96 245q-44 208 -194.5 205t-215.5 -98.5t-71 -213.5
zM484 1165q-77 4 -109 29t-55 64.5t5 100.5t114 145.5t141.5 129t117 59.5t91 -17t45 -80t-128 -241t-221.5 -190z" />
    <glyph glyph-name="ograve" unicode="&#xf2;" horiz-adv-x="1077" 
d="M552 -99q-198 10 -371 130q-131 142 -138 399q1 239 114 408q157 241 424 203q200 0 324 -169q88 -155 85 -363q4 -236 -92 -393q-100 -185 -346 -215zM312 401q-15 -110 54 -188q66 -49 145 -39q100 10 186 89q78 57 96 245q-44 208 -194.5 205t-215.5 -98.5t-71 -213.5
zM765 1252q-19 -29 -51 -54t-74 -37q-40 -10 -97 70l-81 130q-54 96 -110 136q-112 35 -66 91q22 28 52 62t64 35q121 -17 240 -157q150 -235 123 -276z" />
    <glyph glyph-name="ocircumflex" unicode="&#xf4;" horiz-adv-x="1077" 
d="M552 -99q-198 10 -371 130q-131 142 -138 399q1 239 114 408q157 241 424 203q200 0 324 -169q88 -155 85 -363q4 -236 -92 -393q-100 -185 -346 -215zM312 401q-15 -110 54 -188q66 -49 145 -39q100 10 186 89q78 57 96 245q-44 208 -194.5 205t-215.5 -98.5t-71 -213.5
zM767 1189q-33 0 -63 29q-226 137 -247 128t-278 -161q-83 -28 -116.5 -12t-42 47.5t33 156t174.5 244.5t213 98t155 -69.5t199 -186.5t111 -188t-57.5 -67.5t-81.5 -18.5z" />
    <glyph glyph-name="odieresis" unicode="&#xf6;" horiz-adv-x="1077" 
d="M552 -99q-198 10 -371 130q-131 142 -138 399q1 239 114 408q157 241 424 203q200 0 324 -169q88 -155 85 -363q4 -236 -92 -393q-100 -185 -346 -215zM312 401q-15 -110 54 -188q66 -49 145 -39q100 10 186 89q78 57 96 245q-44 208 -194.5 205t-215.5 -98.5t-71 -213.5
zM310 1444q121 -8 135 -112t-27.5 -156.5t-168 -49.5t-146.5 98t33.5 162t173.5 58zM897 1459q60 -23 85 -62t6 -123t-130 -95t-169.5 44t-38 144.5t103.5 102t143 -10.5z" />
    <glyph glyph-name="otilde" unicode="&#xf5;" horiz-adv-x="1077" 
d="M552 -99q-198 10 -371 130q-131 142 -138 399q1 239 114 408q157 241 424 203q200 0 324 -169q88 -155 85 -363q4 -236 -92 -393q-100 -185 -346 -215zM312 401q-15 -110 54 -188q66 -49 145 -39q100 10 186 89q78 57 96 245q-44 208 -194.5 205t-215.5 -98.5t-71 -213.5
zM882 1335q-40 -65 -69 -95q-56 -57 -147.5 -71.5t-180.5 36.5t-147.5 99.5t-91.5 -18.5t-103 -36.5t-94.5 63t4 83.5t92 96.5t140 47t221 -66t192.5 -23.5t95.5 26.5t80.5 -49.5t8 -92z" />
    <glyph glyph-name="uacute" unicode="&#xfa;" horiz-adv-x="1065" 
d="M954 18q0 -75 -45 -86.5t-87 -11.5q-106 -21 -112 38q-111 -8 -227 -33q-106 -4 -248.5 36t-155 269.5t-12.5 436.5q0 137 -6 229q-15 116 121 101q71 4 116 0t52 -54q-21 -153 -11 -285.5t11 -199t35.5 -116t118.5 -67.5q88 -3 146 78l14 89q-30 263 -58 419
q-35 106 130 113q143 25 152 -39l40.5 -288.5t25.5 -628.5zM472 1165q-77 4 -109 29t-55 64.5t5 100.5t114 145.5t141.5 129t117 59.5t91 -17t45 -80t-128 -241t-221.5 -190z" />
    <glyph glyph-name="ugrave" unicode="&#xf9;" horiz-adv-x="1065" 
d="M954 18q0 -75 -45 -86.5t-87 -11.5q-106 -21 -112 38q-111 -8 -227 -33q-106 -4 -248.5 36t-155 269.5t-12.5 436.5q0 137 -6 229q-15 116 121 101q71 4 116 0t52 -54q-21 -153 -11 -285.5t11 -199t35.5 -116t118.5 -67.5q88 -3 146 78l14 89q-30 263 -58 419
q-35 106 130 113q143 25 152 -39l40.5 -288.5t25.5 -628.5zM723 1260q-19 -29 -51 -54t-74 -37q-40 -10 -97 70l-81 130q-54 96 -110 136q-112 35 -66 91q22 28 52 62t64 35q121 -17 240 -157q150 -235 123 -276z" />
    <glyph glyph-name="ucircumflex" unicode="&#xfb;" horiz-adv-x="1065" 
d="M954 18q0 -75 -45 -86.5t-87 -11.5q-106 -21 -112 38q-111 -8 -227 -33q-106 -4 -248.5 36t-155 269.5t-12.5 436.5q0 137 -6 229q-15 116 121 101q71 4 116 0t52 -54q-21 -153 -11 -285.5t11 -199t35.5 -116t118.5 -67.5q88 -3 146 78l14 89q-30 263 -58 419
q-35 106 130 113q143 25 152 -39l40.5 -288.5t25.5 -628.5zM719 1189q-33 0 -63 29q-226 137 -247 128t-278 -161q-83 -28 -116.5 -12t-42 47.5t33 156t174.5 244.5t213 98t155 -69.5t199 -186.5t111 -188t-57.5 -67.5t-81.5 -18.5z" />
    <glyph glyph-name="udieresis" unicode="&#xfc;" horiz-adv-x="1065" 
d="M954 18q0 -75 -45 -86.5t-87 -11.5q-106 -21 -112 38q-111 -8 -227 -33q-106 -4 -248.5 36t-155 269.5t-12.5 436.5q0 137 -6 229q-15 116 121 101q71 4 116 0t52 -54q-21 -153 -11 -285.5t11 -199t35.5 -116t118.5 -67.5q88 -3 146 78l14 89q-30 263 -58 419
q-35 106 130 113q143 25 152 -39l40.5 -288.5t25.5 -628.5zM266 1536q121 -8 135 -112t-27.5 -156.5t-168 -49.5t-146.5 98t33.5 162t173.5 58zM853 1551q60 -23 85 -62t6 -123t-130 -95t-169.5 44t-38 144.5t103.5 102t143 -10.5z" />
    <glyph glyph-name="dagger" unicode="&#x2020;" horiz-adv-x="1031" 
d="M705 -79q-13 -91 -37.5 -119t-122.5 -34q-150 -18 -176 75l24 595l23 373l-71 33q-158 18 -243 13t-79 232q-12 119 51.5 134t141 7t170.5 4q4 318 55.5 343t136.5 7q56 0 104.5 -13t6.5 -147l6 -187q83 -41 143 -35q79 -12 128.5 -12t32.5 -158.5t-111 -176.5l-183 -7
l-10 -386z" />
    <glyph glyph-name="degree" unicode="&#xb0;" horiz-adv-x="871" 
d="M468 1726q187 -18 277 -136.5t76 -288t-133.5 -259.5t-259.5 -85t-234.5 77.5t-127.5 250t91.5 318.5t310.5 123zM286 1328q3 -78 40 -118.5t112 -51.5t144 31t69 131t-44.5 140t-122 62t-139.5 -52.5t-59 -141.5z" />
    <glyph glyph-name="cent" unicode="&#xa2;" horiz-adv-x="1214" 
d="M1188 555q-162 -289 -481 -333q16 -140 -161 -140q-181 16 -150 163q-135 81 -250.5 223.5t-115.5 370.5t105 428.5t300 284.5l20 109q-2 106 130 106q99 -11 112 -44t24 -69l3 -103q89 -10 153.5 -11.5t125 -33.5t60.5 -97q27 -144 -20 -202t-87 -58q-17 0 -69 6.5
t-146 13.5q3 -247 -27 -608q52 -17 133 52l89 65q34 48 72 48q34 0 110.5 -37t69.5 -134zM426 592l28 567q-59 -26 -105 -99t-53 -217t130 -251z" />
    <glyph glyph-name="sterling" unicode="&#xa3;" horiz-adv-x="1366" 
d="M253 990q-2 230 139 414q158 206 437 206q161 0 294 -69q161 -84 161 -229q0 -36 -0.5 -69t-44.5 -60.5t-134 -11.5q-210 85 -291.5 63.5t-134.5 -85t-58 -165.5q57 4 150 3q95 -3 101.5 -92t-19 -171t-96.5 -91.5t-147 -2.5q-18 -184 -71 -514q314 26 413 58.5t216 56.5
q99 -14 128.5 -178.5t-90.5 -228.5q-200 -79 -439.5 -90t-567.5 13q-78 5 -112.5 42.5t-39.5 138.5q-11 79 11 147t56 215t104 349q-139 -5 -154 79.5t-20 130t38.5 98t170.5 43.5z" />
    <glyph glyph-name="section" unicode="&#xa7;" horiz-adv-x="1287" 
d="M1090 506q163 -136 120 -271t-134 -253t-372 -113q-252 27 -427 89q-246 125 -219 337q16 101 105 165q64 75 191.5 -55t254 -172.5t184 40.5t-225 159.5t-367 202t-65.5 231t79.5 165.5t-0.5 125q-113 287 103.5 482.5t467.5 120.5t428 -273q39 -63 20.5 -93.5
t-53.5 -74.5t-127 -60t-178 100.5t-170 116.5t-114.5 -53t-17 -122t337 -236.5t302 -335t-122.5 -222.5zM922 707q27 65 -169 168q-271 135 -314 49.5t56.5 -143.5t231 -100t195.5 26z" />
    <glyph glyph-name="bullet" unicode="&#x2022;" horiz-adv-x="549" 
d="M51 779q20 91 83 152t176 43t159 -78t38 -149.5t-72 -164.5t-194 -57t-169.5 91t-20.5 163z" />
    <glyph glyph-name="paragraph" unicode="&#xb6;" horiz-adv-x="1773" 
d="M1239 -145q-52 -63 -167 -36q-105 15 -100.5 80t18 120.5t198.5 528.5t204 609t17.5 237t165 61t148 -275t-212.5 -734.5t-271 -590.5zM872 1198q-27 104 -180 136t-242 -113t-132 -312.5t49.5 -266.5t277 -129.5t204 119.5t35.5 306.5t-12 259.5zM937 -110
q-62 -143 -144 -148.5t-178.5 27t-30.5 155.5l-13 208q-293 131 -416 313t-84 436q46 364 191 554t428 185.5t366 -33t45 -514t-164 -1183.5z" />
    <glyph glyph-name="germandbls" unicode="&#xdf;" horiz-adv-x="1181" 
d="M396 997q-18 -209 -18 -451q0 -61 3.5 -183t3.5 -184q0 -154 -8 -201q-22 -135 -78 -157q-67 -16 -117.5 -11.5t-91 17t-43.5 111.5q1 891 62 1226.5t171.5 427t380.5 64.5q205 -70 286 -201q81 -134 87 -302q-6 -215 -125 -338q125 -134 181.5 -266.5t35.5 -325.5
t-90 -296.5t-266 -113.5q-139 -49 -235 24q-82 204 5 240.5t128 36.5q83 0 118 31q39 34 39 118q0 191 -56.5 245t-166.5 116q-137 -2 -105 146q-5 81 15 151q212 91 212 206.5t-37 159t-99.5 27.5t-118.5 -71t-73 -246z" />
    <glyph glyph-name="registered" unicode="&#xae;" horiz-adv-x="1677" 
d="M295 844q0 -231 145 -351q131 -108 355 -108q220 0 394 148q194 165 195 421q1 200 -121 346q-129 154 -325 154q-321 0 -482 -152.5t-161 -457.5zM953 1722q401 -69 544.5 -286.5t132 -563t-270 -543.5t-582.5 -189t-534 205t-168 531t260 625t618 221zM752 1029
q94 -34 157 -16.5t59 114.5q4 46 -190 64q-72 -75 -26 -162zM917 862q57 -34 90.5 -96.5t17.5 -121.5q-116 -114 -190 -68q-41 45 -129 133l-27 -79q-19 -73 -148 -86q-37 0 -64 24.5t-27 61.5q0 8 2 19l87 503q24 174 102 197.5t195.5 23.5t207.5 -48q135 -34 108.5 -257.5
t-225.5 -205.5z" />
    <glyph glyph-name="copyright" unicode="&#xa9;" horiz-adv-x="1676" 
d="M473 1290q-169 -152 -130 -393.5t128.5 -336t329.5 -95.5t418 165q113 181 113 362.5t-77 272t-334.5 133t-447.5 -107.5zM955 1673q428 -62 556.5 -249.5t128.5 -445t-195 -529.5t-765.5 -239t-607 505t209 746.5t673.5 211.5zM1100 754q-8 -87 -59.5 -106t-212.5 -55
q-132 -3 -279 70q-129 134 -133.5 286t107.5 288.5t389 121.5q210 -66 219 -179q-17 -74 -96 -112q-62 -35 -100.5 -10t-87.5 27t-106 -28.5t-59.5 -95.5t26.5 -106t101 -11t100 48.5t74 3.5t66.5 -54t50.5 -88z" />
    <glyph glyph-name="trademark" unicode="&#x2122;" horiz-adv-x="1759" 
d="M1593 892q-91 -3 -151 258q-60 -30 -99 -159.5t-136 -139.5q-83 -3 -101.5 55t-27.5 188l-26 94q-47 -328 -178 -338q-92 0 -122 15t-46 48q9 58 37 133.5t168 512.5q42 75 160 43q103 -4 157 -325q47 38 73.5 132.5t101.5 104.5q88 6 124 -32q199 -396 199.5 -470
t-33.5 -95.5t-100 -24.5zM124 1517q72 3 118 15.5t139 25.5l222 28q58 -4 114 3q112 16 115 -85q-6 -104 -63 -146q-22 -21 -236 -26q-7 -62 1.5 -165t22 -163.5t13.5 -82.5q0 -31 -8.5 -58t-79.5 -47q-206 -23 -170 66q29 366 32 432q-66 17 -243 14q-62 -3 -72 88
q23 84 95 101z" />
    <glyph glyph-name="acute" unicode="&#xb4;" horiz-adv-x="592" 
d="M206 1165q-77 4 -109 29t-55 64.5t5 100.5t114 145.5t141.5 129t117 59.5t91 -17t45 -80t-128 -241t-221.5 -190z" />
    <glyph glyph-name="dieresis" unicode="&#xa8;" horiz-adv-x="995" 
d="M266 1444q121 -8 135 -112t-27.5 -156.5t-168 -49.5t-146.5 98t33.5 162t173.5 58zM853 1459q60 -23 85 -62t6 -123t-130 -95t-169.5 44t-38 144.5t103.5 102t143 -10.5z" />
    <glyph glyph-name="notequal" unicode="&#x2260;" horiz-adv-x="889" 
d="M327 143q-73 1 -116.5 16.5t-40 44.5t15.5 56q-47 2 -105 9t-58 96q0 127 79 136q73 0 170 4l68 219q-123 18 -188.5 26.5t-88 28t-24.5 52.5t3.5 134.5t228.5 91.5l171 -18l48 111q18 95 79.5 102t139 1t70 -75t-55.5 -158q138 -18 99 -118q3 -103 -65 -158
q-64 -6 -150 -6l-92 -242q253 -4 272 -29.5t18 -81.5t-28.5 -88.5t-107.5 -36.5l-238 -5l-14 -43q-15 -39 -90 -69z" />
    <glyph glyph-name="AE" unicode="&#xc6;" horiz-adv-x="1870" 
d="M481 413l-10 -79q-2 -172 2 -277.5t-92.5 -136.5t-220 -12t-97.5 315q-5 474 171 911.5t602 478.5q201 -64 404 -1.5t484 4.5q115 -36 89 -117q-12 -63 -29.5 -129.5t-115 -64t-192 18.5t-173 -4t-127 -85.5t-17.5 -329.5l304 32q229 -7 75 -345h-398q2 -292 24 -406
q138 -12 257.5 10.5t186 20.5t60.5 -152.5t-116 -162.5q-514 -83 -711 25q-43 98 -48 215q-11 173 -27.5 256.5t-284.5 14.5zM562 923q-15 -148 84 -168t171 -18.5t83.5 175.5t3.5 225.5t-110 100.5t-159 -59t-73 -256z" />
    <glyph glyph-name="Oslash" unicode="&#xd8;" horiz-adv-x="1653" 
d="M1338 971q-69 -56 -218.5 -233t-450.5 -471q81 -31 277 7.5t339.5 182t52.5 514.5zM1113 1155q-78 73 -234.5 50.5t-292 -181.5t-120.5 -450q321 241 647 581zM177 -39q-88 56 -93.5 94t3.5 116l84 112q-102 91 -117.5 365.5t265.5 638.5q280 304 643 289
q243 -61 372 -168q54 58 88.5 55t83 -49t74 -113.5t-32.5 -114.5q66 -200 58.5 -449t-201.5 -536t-588 -262q-261 0 -375 82l-123 -107q-84 -15 -141 47z" />
    <glyph glyph-name="infinity" unicode="&#x221e;" horiz-adv-x="1595" 
d="M984 645q70 -199 226 -190q88 5 124 58q32 46 32 146q0 73 -49.5 109.5t-149.5 36.5q-91 0 -157 -52q-25 -19 -26 -108zM820 826q123 92 195.5 133.5t212 37.5t233 -113t62.5 -254q0 -154 -91 -239q-84 -96 -260 -103t-345 149q-54 -82 -151 -140t-260.5 -31.5
t-267.5 131t-97 265.5t107 247t265 96t246 -51.5t151 -127.5zM681 600q-17 94 -68.5 125.5t-148.5 40t-165 -37.5t-52.5 -123.5t91 -109.5t182 -34t161.5 139z" />
    <glyph glyph-name="plusminus" unicode="&#xb1;" horiz-adv-x="1018" 
d="M831 661q-3 -59 -2 -73.5t-15 -21.5t-28 -7l-100 -2q-61 -2 -70 -19l-10 -59q8 -57 -2 -131q-41 -46 -117 -46q-72 -15 -83 82l3 54l-1 97q-118 11 -171 11q-155 0 -155 92q0 64 29 168q50 17 135 -1.5t162 -0.5l-1 78q-1 164 94 164q37 0 75 -10.5t45 -65.5
q-3 -29 -3 -54.5t-7 -66.5l8 -70h60q125 2 140 -20t14 -98zM883 25q123 36 106.5 156.5t-237.5 84.5l-324.5 -61t-309.5 -82q-97 -37 -35 -131q56 -117 198 -79q274 104 391.5 99t210.5 13z" />
    <glyph glyph-name="lessequal" unicode="&#x2264;" horiz-adv-x="819" 
d="M417 666l127 -185t77 -100t66 -94q0 -41 -27 -70.5t-67 -37.5q-43 -7 -93 36q-40 29 -155.5 92t-203.5 129t-103 154q-15 65 65 154q192 183 332.5 257.5t191.5 -2.5q41 -113 -7 -165.5t-203 -167.5zM680 -87q39 0 77 29t-17 138q-25 8 -104 8q-74 0 -189 7.5t-249 25.5
q-122 15 -122 -124q0 -92 155 -92q80 0 221.5 -5.5t227.5 13.5z" />
    <glyph glyph-name="greaterequal" unicode="&#x2265;" horiz-adv-x="782" 
d="M661 475q-157 -131 -424 -291q-44 -14 -85 -14q-40 8 -66.5 36.5t-36 56.5t0 63.5t115.5 124.5l169 206l-115 161q-136 140 -116 221q31 52 57 79t58 23q57 0 201.5 -115.5t298.5 -254.5q39 -61 39 -132t-96 -164zM660 -120q39 0 47.5 21t28.5 64q12 54 0 102
q-29 39 -64.5 50.5t-127.5 -15.5t-166 -27.5t-206 15.5t-116 -126q4 -123 182 -108q198 8 270.5 16t151.5 8z" />
    <glyph glyph-name="yen" unicode="&#xa5;" horiz-adv-x="1154" 
d="M511 601q24 67 -96 148q-33 0 -100 6q-111 -11 -121 78q0 92 30 94.5t84 29.5q-291 401 -267.5 443t52.5 59.5l62 36.5q70 37 197 -137t251 -373q125 69 181 284q25 68 44 137q80 40 169 -40q81 -19 3 -211l-97 -200l125 4q107 -33 69 -116q-14 -113 -111 -99
q-54 -4 -112.5 -12t-115.5 -13l-30 -116q35 -15 68.5 -17.5t88.5 -1.5t75 -33.5t20 -69.5q14 -108 -81 -105l-166 -21l4 -325q-61 -84 -143 -84q-83 0 -83 84q0 31 -3 94.5t-3 94.5l5 152q-77 35 -133 36q-80 -12 -86 73q12 113 54 104t53 -9q78 0 113 25z" />
    <glyph glyph-name="mu1" unicode="&#xb5;" horiz-adv-x="1216" 
d="M452 -60l-99 -182q-40 -100 -108 -109q-139 -9 -176 74.5t31 215.5q73 219 81 403t41 338l61 275t82.5 146t165.5 -7q114 -33 77 -113q-23 -103 -68 -224q-39 -92 -63 -219q-36 -170 -16.5 -231t63 -75.5t128.5 -19t175 121.5l59 251q6 208 34 323q23 92 121.5 76
t126.5 -58.5t-8 -128.5q-88 -681 -149 -770q-38 -121 -174 -126.5t-244 8t-141 31.5z" />
    <glyph glyph-name="partialdiff" unicode="&#x2202;" horiz-adv-x="1008" 
d="M317 359q10 -77 52.5 -107.5t140.5 -26.5q94 1 131 71t61 219q-29 120 -146 125q-78 0 -171 -75q-58 -76 -68 -206zM613 885q-159 279 -208 345t-196 122q-45 26 -40 99q59 100 83.5 113t72.5 30.5t170 -60.5q402 -402 443 -592.5t26 -415.5t-142 -396t-297 -183.5
t-317 99.5q-144 140 -161 328t145.5 400.5t420.5 110.5z" />
    <glyph glyph-name="summation" unicode="&#x2211;" horiz-adv-x="1510" 
d="M180 7q342 508 328 646l-343 643q-28 37 -28 74q-22 132 46 169t195.5 37t425.5 -15.5t442 -24t177 -63t41.5 -170t-230.5 -98.5q-354 -16 -632 16q156 -230 362 -415q86 -90 75 -174q-6 -57 -42 -98q-131 -186 -368 -463q146 -66 341.5 -58t262 -6t89 -78.5t14.5 -136.5
t-84.5 -139t-410.5 -45t-508.5 15t-233.5 69t-39.5 128t120.5 187z" />
    <glyph glyph-name="product" unicode="&#x220f;" horiz-adv-x="1797" 
d="M1517 1148q-8 -86 4 -249q28 -158 27 -445t-3.5 -456t-83.5 -188t-192 -34t-125.5 136t-21.5 424t-52 574q-97 -24 -476 33l15 -1021q-11 -158 -41 -199q-66 -40 -153 -23q-78 -6 -103.5 24t-31.5 102q-11 610 -1 1195l-115 21q-55 -17 -88.5 2.5t-45.5 160.5
q17 133 149 110q178 46 440.5 70.5t990.5 165.5q44 0 72 -28t80 -238q-23 -54 -154 -117z" />
    <glyph glyph-name="pi" unicode="&#x3c0;" horiz-adv-x="1366" 
d="M1079 650q-86 -339 -64 -404.5t54 -115.5q64 -7 61 -69q7 -114 -94 -111q-204 -14 -250.5 33.5t-26.5 160.5q0 108 42 561l-210 -1q-48 -410 -87 -669q-27 -77 -90.5 -84t-128 -6.5t-60.5 90.5l103 699q-84 7 -96.5 -33.5t-85.5 -40.5t-92.5 115.5t36 224.5t315.5 83.5
t505.5 -32.5t278.5 -7q99 0 143 -95q4 -158 -17 -233.5t-236 -65.5z" />
    <glyph glyph-name="integral" unicode="&#x222b;" horiz-adv-x="1443" 
d="M1272 1306q-102 -60 -210 0.5t-237 -81t-70.5 -606.5t30.5 -669t-226.5 -281t-363.5 18.5t-171.5 265.5t159.5 170t176 -101.5t44.5 -68t-8.5 587t73 893t334.5 402.5t373 -61.5t207 -210.5t21 -142.5t-131.5 -115.5z" />
    <glyph glyph-name="ordfeminine" unicode="&#xaa;" horiz-adv-x="1005" 
d="M555 1227q42 95 24.5 168t-90.5 59t-142.5 -49t-69.5 -90.5t42.5 -101.5t104.5 -51.5t131 65.5zM838 1532q130 -561 60.5 -601t-110.5 -40q-157 -15 -134 93q-88 -92 -266.5 -89.5t-264 149t-80.5 289t135 246.5t277 115t221 -11.5t114.5 -32.5t47.5 -118z" />
    <glyph glyph-name="ordmasculine" unicode="&#xba;" horiz-adv-x="917" 
d="M881 1348q0 -228 -105.5 -342t-271.5 -124t-309 87.5t-151.5 272t117.5 329t294 142t300 -140.5q126 -123 126 -224zM650 1198q43 62 49.5 126t-41.5 112t-152.5 65.5t-156 -49.5t-55.5 -143.5t56 -145t156 -52t144 86.5z" />
    <glyph glyph-name="Omega" unicode="&#x3a9;" horiz-adv-x="2049" 
d="M489 251l-111 208q-60 178 -60 380q0 329 193.5 571t749.5 220q331 6 542 -284t73.5 -670.5t-372.5 -514.5q126 15 196 1t69.5 -133t-90.5 -183q-119 -6 -272.5 -8t-231.5 18q-37 32 -9 187q0 53 160 302.5t190.5 515t-90 340.5t-314.5 106.5t-290 -104.5t-107 -334
t70 -486.5t83.5 -362t-108.5 -156.5q-292 -21 -417 -32t-208 24.5t-94 169t76 168.5t372 57z" />
    <glyph glyph-name="ae" unicode="&#xe6;" horiz-adv-x="1861" 
d="M1411 898q-72 36 -199.5 0t-109 -213.5t106.5 -123t174.5 95.5t99 81.5t7 82t-78.5 77.5zM210 98q-134 143 -151 414.5t178.5 409t340 149.5t242 -28t131.5 -122q39 72 138 106.5t259.5 38t272 -87t116.5 -205.5t-137 -243.5t-496 -213.5q128 -116 291 -105.5t222 71
t89.5 50t71.5 -45.5t39.5 -119t-138 -164t-361.5 -80q-256 11 -332 144q5 -20 10 -68q4 -41 -77 -41q-53 0 -129 -8.5t-259 -3.5t-321 152zM650 812q-172 17 -266 -92.5t-90.5 -247.5t98.5 -230q80 -94 189 -94q59 0 108.5 22.5t83 36t50 181.5t-13.5 277.5t-69 128
t-90 18.5z" />
    <glyph glyph-name="oslash" unicode="&#xf8;" horiz-adv-x="1060" 
d="M759 635l-349 -376q73 -95 211.5 -26.5t164.5 199t-27 203.5zM297 414q177 220 350 392q-44 30 -148 17.5t-167 -127.5t-35 -282zM169 -35q-74 14 -86.5 43l-28 64.5t62.5 119.5q-40 80 -45 244q-6 226 105 425.5t399 175.5q156 0 206 -78q64 49 118 -2.5t51.5 -79.5
t-31.5 -74q103 -182 79.5 -372t-151 -347t-326.5 -158.5t-263 111.5q-44 -61 -90 -72z" />
    <glyph glyph-name="questiondown" unicode="&#xbf;" horiz-adv-x="1053" 
d="M619 1145q70 -14 120.5 -6t70 -107.5t-158.5 -283t-236 -285.5t20 -188t149 -89.5t165.5 42.5t134 62t69 -47.5t51.5 -119.5t-135.5 -155.5t-310 -81t-326.5 89t-195.5 329.5t135.5 363t256.5 219.5t125 174t65.5 83.5zM642 1555q48 15 100.5 -7.5t62 -94t-3.5 -146.5
t-143.5 -60.5t-130.5 106t33.5 140t81.5 62.5z" />
    <glyph glyph-name="exclamdown" unicode="&#xa1;" horiz-adv-x="375" 
d="M48 23l5 1096q21 148 151 143q110 -32 105 -99.5t5 -246.5t-10.5 -463.5t-2 -404t-112.5 -145.5q-141 21 -141 120zM72 1537q21 46 62.5 75.5t90 13.5t82.5 -69t31.5 -102t-41.5 -80t-113 -23.5t-103.5 74t-8.5 111.5z" />
    <glyph glyph-name="logicalnot" unicode="&#xac;" horiz-adv-x="999" 
d="M830 234q-111 4 -99 60q6 158 -26 214q-316 -76 -505 -32t-186.5 152.5t117 121.5t308 13.5t394.5 -21.5q65 7 90 -20t23.5 -82t-16 -201t-27 -171t-73.5 -34z" />
    <glyph glyph-name="radical" unicode="&#x221a;" horiz-adv-x="1251" 
d="M36 480q53 63 86 77t79 19q82 5 99.5 -37.5t101.5 -98.5q68 469 160.5 804.5t120 366t176 41t268.5 -21.5q104 0 104 -100q5 -168 -68.5 -182.5t-269.5 -10.5q-72 -670 -178.5 -1047.5t-170.5 -394.5t-177.5 -17.5t-162 74t-119.5 265t-49 263.5z" />
    <glyph glyph-name="florin" unicode="&#x192;" horiz-adv-x="1399" 
d="M403 582q-190 6 -211 193t275 114q101 263 256 448q137 236 396 278q272 6 236 -118q6 -144 -78 -150q-179 -30 -262 -157.5t-144 -333.5q133 0 186 -13t29 -102.5t-74 -104.5t-175 -1q-2 -268 -129 -551t-234 -378.5t-230 -99t-173 31t-53 125.5t102.5 134t156 110.5
t123.5 348t3 226.5z" />
    <glyph glyph-name="approxequal" unicode="&#x2248;" horiz-adv-x="1235" 
d="M673 1132q175 -141 218 -139.5t110.5 104t111 83t59.5 -40t23.5 -43t-3 -88t-95.5 -168.5q-88 -106 -196 -104.5t-187 57.5t-126.5 97t-97.5 40t-154 -80q-31 -33 -96.5 10t-50.5 112.5t108.5 151t179.5 95t196 -86.5zM944 624q45 -27 63.5 -59t10 -87.5t-54.5 -125.5
q-79 -100 -184 -100t-192 71l-113 92t-163 -8.5t-114 -83.5t-60 -24q-34 0 -61 10.5t-36 24.5t-7 55t25.5 95.5t105 139t191.5 101t222.5 -97t154 -125t102 71.5t110.5 50z" />
    <glyph glyph-name="increment.001" unicode="&#x394;" horiz-adv-x="1653" 
d="M823 1701q186 -22 410.5 -573.5t309 -789.5t71 -345.5t-144 -86t-316 26.5t-570.5 -1.5t-443 -6.5q-81 -5 -97.5 66t125 501.5t334 814t321.5 394.5zM969 814q-144 330 -185.5 238t-105.5 -259.5t-238 -546.5q470 -2 618.5 -7.5t178.5 69t-268 506.5z" />
    <glyph glyph-name="guillemotleft" unicode="&#xab;" horiz-adv-x="1095" 
d="M408 617q24 -30 87 -102.5t104.5 -127.5t41.5 -97q2 -43 -29 -72.5t-65.5 -32t-75.5 18.5t-159.5 133.5t-194.5 148.5t-96 108q0 67 78.5 139l213 189.5l175 151.5t84.5 17.5t66 -51t27.5 -70t-57.5 -117t-200 -236.5zM840 653q26 -74 106.5 -150.5t68 -119.5t-62 -92.5
t-179.5 45.5t-200 153.5t-70 111t57.5 119t176 186.5t136 142t67 2.5t76 -51.5t36 -67t-40.5 -91q-27 -41 -171 -188z" />
    <glyph glyph-name="guillemotright" unicode="&#xbb;" horiz-adv-x="1141" 
d="M772 617q-166 172 -239 266q-37 38 -59 67q-11 45 26.5 81t84.5 52q77 14 109 -38t147 -154t196 -144t73 -142q0 -55 -66 -101t-183.5 -167t-162.5 -141.5t-82 -27.5t-73.5 25t-48 59t-7 52.5t44 69t125.5 130.5zM302 634l-223 249q-31 31 -31 65q0 36 27.5 64t63.5 40.5
t67 -8.5t155.5 -152t187.5 -179t71 -82t0 -61.5t-61.5 -77l-153.5 -140.5q-121 -138 -170 -165q-39 -21 -77 -29q-36 6 -65.5 33t-46.5 60q-3 43 47 78.5t147 136.5q81 85 62 168z" />
    <glyph glyph-name="ellipsis" unicode="&#x2026;" horiz-adv-x="1192" 
d="M1025 -69q-40 0 -72 20q-37 22 -51.5 45t-10.5 75t28.5 85t121.5 31q105 -16 105 -99q0 -157 -121 -157zM596 -90q-112 -6 -132 112t117 114q115 17 113 -135q2 -80 -98 -91zM164 -67q-97 0 -111.5 106.5t112.5 123.5t111.5 -106.5t-112.5 -123.5z" />
    <glyph glyph-name="nonbreakingspace" unicode="&#xa0;" horiz-adv-x="612" 
 />
    <glyph glyph-name="Agrave" unicode="&#xc0;" horiz-adv-x="1498" 
d="M977 284q-129 8 -320 -1q-17 -103 -73 -216t-182.5 -137.5t-239 15t-123.5 167t145.5 523.5t323 661t518.5 210q195 -30 269.5 -261.5t153.5 -682t43.5 -516t-115 -91.5t-232.5 -22.5t-168 351.5zM676 738q-6 -93 210 -73q224 -8 155 253q-5 160 -126 199
q-136 19 -239 -379zM1056 1712q-19 -29 -51 -54t-74 -37q-40 -10 -97 70l-81 130q-54 96 -110 136q-112 35 -66 91q22 28 52 62t64 35q121 -17 240 -157q150 -235 123 -276z" />
    <glyph glyph-name="Atilde" unicode="&#xc3;" horiz-adv-x="1498" 
d="M977 284q-129 8 -320 -1q-17 -103 -73 -216t-182.5 -137.5t-239 15t-123.5 167t145.5 523.5t323 661t518.5 210q195 -30 269.5 -261.5t153.5 -682t43.5 -516t-115 -91.5t-232.5 -22.5t-168 351.5zM676 738q-6 -93 210 -73q224 -8 155 253q-5 160 -126 199
q-136 19 -239 -379zM1235 1786q-40 -65 -69 -95q-56 -57 -147.5 -71.5t-180.5 36.5t-147.5 99.5t-91.5 -18.5t-103 -36.5t-94.5 63t4 83.5t92 96.5t140 47t221 -66t192.5 -23.5t95.5 26.5t80.5 -49.5t8 -92z" />
    <glyph glyph-name="Otilde" unicode="&#xd5;" horiz-adv-x="1635" 
d="M966 -67q-482 -48 -699 178t-223.5 575.5t175 626t470 319.5t490.5 -14.5t344.5 -249.5t144 -512.5t-108.5 -597.5t-593 -325zM732 1184q-243 -38 -263.5 -356.5t142 -397t311 -78t247 84t139 315t-146 351t-429.5 81.5zM1241 1788q-40 -65 -69 -95q-56 -57 -147.5 -71.5
t-180.5 36.5t-147.5 99.5t-91.5 -18.5t-103 -36.5t-94.5 63t4 83.5t92 96.5t140 47t221 -66t192.5 -23.5t95.5 26.5t80.5 -49.5t8 -92z" />
    <glyph glyph-name="OE" unicode="&#x152;" horiz-adv-x="2498" 
d="M555 1072q-146 -208 -146 -458q0 -179 133 -291q127 -106 330 -44.5t344.5 215t141.5 407.5q-24 203 -148.5 303t-311 81.5t-343.5 -213.5zM1675 886l198 -2q97 -33 59 -217.5t-250 -147.5q-46 -170 74 -173t268.5 -21t95.5 -286q0 -122 -269 -115q-270 0 -362 54
q-105 47 -146 120q-91 -92 -239 -157.5t-364.5 -49.5t-437 188t-241.5 505.5t201 656t499 383.5t446 15t268 -46q43 0 175 31t336 31t414 -81q67 -37 62 -94t-46 -121t-184 -72.5t-352 -5.5t-217.5 -78t12.5 -317z" />
    <glyph glyph-name="oe" unicode="&#x153;" horiz-adv-x="1834" 
d="M876 84q-194 -202 -388 -189.5t-320 155.5t-117 386t146 398q140 203 390 203q219 0 329 -185q166 227 355 210t294 -73q129 -70 144.5 -191t-66 -231.5t-480.5 -244.5q30 -128 127 -150.5t169.5 26t108.5 77.5t85 19q66 -55 105.5 -123.5t-136.5 -182.5
q-170 -65 -395.5 -63.5t-350.5 159.5zM1466 768q-41 73 -196 63q-210 -45 -203 -241l151 39q240 91 248 139zM410 266q90 -40 151.5 -35t128 76t52.5 249t-154.5 211.5t-190 -85t-56 -232.5t68.5 -184z" />
    <glyph glyph-name="endash" unicode="&#x2013;" horiz-adv-x="898" 
d="M62 645q-20 132 188.5 141.5t325 -17.5t191 -28.5t83 -32.5t7 -79.5t-29.5 -76t-84 -35t-165 -2.5l-202 9.5t-191.5 6.5t-110.5 35.5t-12 78.5z" />
    <glyph glyph-name="emdash" unicode="&#x2014;" horiz-adv-x="1807" 
d="M1739 656q29 -134 -71.5 -134t-265 -1.5t-571.5 -12t-570 -4t-176 143.5q-39 164 278 178.5t516 2.5t466 -32.5t324 -43t70 -97.5z" />
    <glyph glyph-name="quotedblleft" unicode="&#x201c;" horiz-adv-x="710" 
d="M557 1071q-70 8 -115.5 119t-58.5 200.5t16 118.5t76 52q51 6 100.5 -100t76 -173.5t26 -108t-31.5 -70.5t-89 -38zM223 1130q-50 0 -71.5 24.5t-44 95t-44 147t-25.5 117.5t35 71.5t105.5 25.5t109 -132t53.5 -258q-3 -56 -34.5 -70.5t-83.5 -20.5z" />
    <glyph glyph-name="quotedblright" unicode="&#x201d;" horiz-adv-x="728" 
d="M515 1016q-52 -10 -91 5.5t-51 98.5t28.5 203t70.5 173.5t84.5 48.5t100 -31.5t9 -137.5t-46.5 -154.5t-30.5 -119.5t-73.5 -86zM50 1041q-7 118 51.5 324t136.5 196t106.5 -40t21.5 -100q-54 -202 -66.5 -245.5t-17.5 -147.5q-27 -91 -108.5 -93.5t-106 16.5t-17.5 90z
" />
    <glyph glyph-name="quoteleft" unicode="&#x2018;" horiz-adv-x="371" 
d="M221 1072q-103 -16 -109 85q-42 217 -65 323.5t125 137.5q104 -2 121 -168q34 -195 30 -255q16 -107 -102 -123z" />
    <glyph glyph-name="quoteright" unicode="&#x2019;" horiz-adv-x="331" 
d="M293 1491q-2 -85 -48 -314q-26 -95 -70 -103t-93.5 13.5t-46.5 84t9.5 117t42.5 188t95.5 123.5t88 -36t22.5 -73z" />
    <glyph glyph-name="quoteright" unicode="&#x201b;" horiz-adv-x="331" 
d="M293 1491q-2 -85 -48 -314q-26 -95 -70 -103t-93.5 13.5t-46.5 84t9.5 117t42.5 188t95.5 123.5t88 -36t22.5 -73z" />
    <glyph glyph-name="divide" unicode="&#xf7;" horiz-adv-x="933" 
d="M914 661q6 -61 -7 -100.5t-125.5 -51.5t-217 -2.5t-322 -27.5t-229.5 144q3 102 51.5 112t115.5 8.5t188.5 9.5t231 20t213.5 3t101 -115zM416 1166q54 19 123 -2t69 -92t-17 -104t-64 -62.5t-91 -23t-82 52t-15 129t77 102.5zM348 256q-9 42 20 99t81.5 49t101 -37.5
t42.5 -83t-35.5 -90t-88.5 -36.5t-85 28.5t-36 70.5z" />
    <glyph glyph-name="lozenge" unicode="&#x25ca;" horiz-adv-x="1542" 
d="M670 487q83 -71 193.5 48.5t154 188.5t-13.5 192t-167.5 216.5t-186.5 -54l-132 -256.5t6.5 -186.5t145.5 -148.5zM648 -34q-334 279 -465.5 464.5t-145 213.5t-5.5 73t49 123q270 464 380 620.5l147 208.5t81.5 44t90.5 -35t109 -93q58 -59 145 -169t370 -419
q108 -177 113 -241.5t-133 -212.5t-270 -325t-205 -238.5t-130 -72t-131 58.5z" />
    <glyph glyph-name="ydieresis" unicode="&#xff;" horiz-adv-x="883" 
d="M710 -424q-117 -49 -192 -22q-79 10 -116.5 25.5t-32.5 176.5q22 169 172 466l-221 229l-216 306q-83 142 -52.5 213t79.5 127.5t159 -14.5q91 -55 173.5 -167.5t241.5 -300.5l141 344q37 86 114 121q127 -4 176 -53.5t54 -140.5q-76 -183 -226.5 -634.5t-253.5 -675.5z
M178 1444q121 -8 135 -112t-27.5 -156.5t-168 -49.5t-146.5 98t33.5 162t173.5 58zM765 1459q60 -23 85 -62t6 -123t-130 -95t-169.5 44t-38 144.5t103.5 102t143 -10.5z" />
    <glyph glyph-name="Ydieresis" unicode="&#x178;" horiz-adv-x="1301" 
d="M598 -82q-24 -68 -346 -26q-80 49 74 342l152 360q15 27 -97 174q-140 158 -252 365t11 285.5t203 30.5l312 -455q34 -59 307 533q68 133 163 48q65 -30 114 -68t21.5 -103t-232 -483t-430.5 -1003zM351 1899q121 -8 135 -112t-27.5 -156.5t-168 -49.5t-146.5 98
t33.5 162t173.5 58zM938 1914q60 -23 85 -62t6 -123t-130 -95t-169.5 44t-38 144.5t103.5 102t143 -10.5z" />
    <glyph glyph-name="fraction" unicode="&#x2044;" horiz-adv-x="1856" 
d="M1489 1654q104 90 158.5 101t105 -23.5t72.5 -75.5t3 -106q-148 -290 -422 -594.5t-516 -600.5t-382.5 -421t-229 -108.5t-124.5 50t-91 113.5t188 427t413 509t406.5 357t418.5 372z" />
    <glyph glyph-name="fraction" unicode="&#x2215;" horiz-adv-x="1856" 
d="M1489 1654q104 90 158.5 101t105 -23.5t72.5 -75.5t3 -106q-148 -290 -422 -594.5t-516 -600.5t-382.5 -421t-229 -108.5t-124.5 50t-91 113.5t188 427t413 509t406.5 357t418.5 372z" />
    <glyph glyph-name="currency" unicode="&#xa4;" horiz-adv-x="1241" 
d="M634 611q72 6 110 45t29 99t-66.5 89t-119.5 2t-92 -93t18.5 -106.5t120.5 -35.5zM531 1103q117 92 254 -16q139 105 213.5 145t121.5 5t64 -75t20.5 -72t-38.5 -70.5l-155 -135.5q26 -102 15.5 -182t-22.5 -124q47 -79 70.5 -124.5t-5 -104t-85 -80t-123 19t-123.5 71.5
q-166 -54 -308 28l-152 -149q-54 -31 -100.5 -36t-87 26.5t-50.5 68.5q-4 46 37.5 119.5t165.5 183.5q-52 216 46 358q-84 122 -92.5 154t3.5 54t44 51.5t74.5 40.5t86 -19t126.5 -137z" />
    <glyph glyph-name="guilsinglleft" unicode="&#x2039;" horiz-adv-x="714" 
d="M453 621q77 -75 125.5 -137.5t71 -116t-19.5 -112t-83 -65.5t-192.5 96t-232.5 163t-96 138.5t70 158t221.5 185t176 133t76.5 15t64.5 -41t30.5 -72.5t-49.5 -120.5t-162.5 -223.5z" />
    <glyph glyph-name="guilsinglright" unicode="&#x203a;" horiz-adv-x="662" 
d="M302 606q-157 129 -185 183t-20 104.5t39.5 75t87.5 34t189 -114t184 -178.5t51 -105q0 -55 -65 -130t-218 -206.5t-207.5 -108.5t-89.5 63.5t-33.5 82.5t59 127.5t208.5 172.5z" />
    <glyph glyph-name="fi" unicode="&#xf001;" horiz-adv-x="1326" 
d="M1124 1170q-93 0 -129 53t-33 115.5t39 94t104.5 38t116 -28.5t60 -94.5t-26 -118.5t-131.5 -59zM890 730q-60 38 -301 3q21 -462 2 -587t-11 -218t-172 -88q-96 -22 -136 7.5t-34 151.5t31 707q-87 1 -143 1t-83 174q-17 169 206 172q56 423 184 539t356.5 80.5
t201 -178.5t-168.5 -159q-165 -22 -147 -256q217 -8 381 -10.5t147 -145.5q-11 -94 -10 -314t-1 -331.5t-2 -174.5t-46 -85.5t-97.5 -36t-112 3.5t-53 280t8.5 465z" />
    <glyph glyph-name="fi" unicode="&#xfb01;" horiz-adv-x="1326" 
d="M1124 1170q-93 0 -129 53t-33 115.5t39 94t104.5 38t116 -28.5t60 -94.5t-26 -118.5t-131.5 -59zM890 730q-60 38 -301 3q21 -462 2 -587t-11 -218t-172 -88q-96 -22 -136 7.5t-34 151.5t31 707q-87 1 -143 1t-83 174q-17 169 206 172q56 423 184 539t356.5 80.5
t201 -178.5t-168.5 -159q-165 -22 -147 -256q217 -8 381 -10.5t147 -145.5q-11 -94 -10 -314t-1 -331.5t-2 -174.5t-46 -85.5t-97.5 -36t-112 3.5t-53 280t8.5 465z" />
    <glyph glyph-name="fl" unicode="&#xf002;" horiz-adv-x="1344" 
d="M942 1290q-115 66 -182.5 14.5t-122.5 -278.5q54 -15 123 -18t63 -220q-34 -129 -183 -115q-12 -418 -3.5 -560t3 -216t-133.5 -93t-201.5 10t-53.5 146t29 691q-70 -5 -137 9t-89 105q-33 205 141 232l124 4q53 387 184.5 550t403 135.5t329.5 -88.5t58 -151t0.5 -296.5
t-12.5 -573.5t-13.5 -504.5t-149.5 -137.5q-171 -11 -171 96q-28 590 -6 1259z" />
    <glyph glyph-name="fl" unicode="&#xfb02;" horiz-adv-x="1344" 
d="M942 1290q-115 66 -182.5 14.5t-122.5 -278.5q54 -15 123 -18t63 -220q-34 -129 -183 -115q-12 -418 -3.5 -560t3 -216t-133.5 -93t-201.5 10t-53.5 146t29 691q-70 -5 -137 9t-89 105q-33 205 141 232l124 4q53 387 184.5 550t403 135.5t329.5 -88.5t58 -151t0.5 -296.5
t-12.5 -573.5t-13.5 -504.5t-149.5 -137.5q-171 -11 -171 96q-28 590 -6 1259z" />
    <glyph glyph-name="daggerdbl" unicode="&#x2021;" horiz-adv-x="1347" 
d="M491 707l-17 354q-407 -23 -433.5 93t7 172.5t162 57t302.5 8.5q-7 267 27 307t148 34q86 -18 104.5 -64t19.5 -270q451 25 488 -55.5t30.5 -168.5t-136.5 -101.5t-384 -9.5l11 -356l94 -28q140 -22 139 -98t-13 -124t-79 -53.5t-142 -7.5q78 -602 -68 -624.5
t-221.5 14.5t-34.5 282l12 321q-146 -33 -243.5 -25t-98 74.5t-9.5 174.5t335 93z" />
    <glyph glyph-name="middot.001" unicode="&#xb7;" horiz-adv-x="510" 
d="M180 589q-48 -3 -94 28.5t-45 93.5t30.5 108.5t111 39t113 -53.5t18.5 -93.5t-49.5 -83.5t-84.5 -39z" />
    <glyph glyph-name="middot.001" unicode="&#x2219;" horiz-adv-x="510" 
d="M180 589q-48 -3 -94 28.5t-45 93.5t30.5 108.5t111 39t113 -53.5t18.5 -93.5t-49.5 -83.5t-84.5 -39z" />
    <glyph glyph-name="quotesinglbase" unicode="&#x201a;" horiz-adv-x="515" 
d="M142 -228q-106 27 -107.5 140t109.5 245q104 101 164.5 98.5t98.5 -37t67 -76.5t-81 -131t-121 -168t-130 -71z" />
    <glyph glyph-name="quotedblbase" unicode="&#x201e;" horiz-adv-x="748" 
d="M157 137q77 99 137 78q48 -26 90.5 -66.5t26.5 -75.5t-69.5 -99.5t-65 -132.5t-74.5 -63.5t-110.5 25t-51 61t14.5 112.5t102 161zM680 16q-60 -95 -73.5 -152.5t-48.5 -71t-98.5 -9.5t-63.5 83t55.5 206.5t112.5 118t85 -29t48.5 -54t-17.5 -91.5z" />
    <glyph glyph-name="perthousand" unicode="&#x2030;" horiz-adv-x="2341" 
d="M372 1007q-150 34 -241.5 117.5t-78.5 213.5t84 222t211.5 110.5t261 -75.5t118 -238.5t-103.5 -264t-251 -85.5zM359 1453q-38 -5 -64 -33t-29 -66t19 -70.5t70 -40.5t85.5 22.5t45 78t-40 81t-86.5 28.5zM501 -96q-95 13 -152 40t-75.5 77t14.5 131t153.5 334t320 711
t252.5 479t114.5 7.5t83 -46.5t11 -104.5t-152 -475l-246 -686t-166.5 -381.5t-157 -86zM1181 -50q-145 0 -234 77.5t-70.5 232.5t94.5 253t253.5 113.5t240 -70.5t75.5 -270.5t-100.5 -260t-258.5 -75.5zM1203 440q-84 3 -143.5 -87t-0.5 -155.5t140 -57.5t99.5 66t4 145
t-99.5 89zM1947 -37q-144 21 -233 91.5t-99.5 228t94 283.5t258.5 105.5t256 -112t94 -268t-116.5 -263t-253.5 -65.5zM1962 443q-71 10 -112.5 -36t-38.5 -113.5t51 -95t120 -18t105.5 46t33.5 105t-44 85.5t-115 26z" />
    <glyph glyph-name="Acircumflex" unicode="&#xc2;" horiz-adv-x="1498" 
d="M977 284q-129 8 -320 -1q-17 -103 -73 -216t-182.5 -137.5t-239 15t-123.5 167t145.5 523.5t323 661t518.5 210q195 -30 269.5 -261.5t153.5 -682t43.5 -516t-115 -91.5t-232.5 -22.5t-168 351.5zM676 738q-6 -93 210 -73q224 -8 155 253q-5 160 -126 199
q-136 19 -239 -379zM1111 1589q-33 0 -63 29q-226 137 -247 128t-278 -161q-83 -28 -116.5 -12t-42 47.5t33 156t174.5 244.5t213 98t155 -69.5t199 -186.5t111 -188t-57.5 -67.5t-81.5 -18.5z" />
    <glyph glyph-name="Ecircumflex" unicode="&#xca;" horiz-adv-x="1279" 
d="M459 1195q0 -106 -11 -257q295 43 337 -1.5t49 -142t-10 -178t-321 -104.5q-3 -114 12 -185q231 29 336 33.5t157.5 -124.5t4.5 -234t-336.5 -143t-425.5 -29.5t-168 287.5t-31 657.5t35.5 637.5t208 270.5t260.5 11t240 -19.5q165 -1 188.5 -113.5t24.5 -184.5
t-64.5 -123.5t-166 -52.5t-319.5 -5zM949 1756q-33 0 -63 29q-226 137 -247 128t-278 -161q-83 -28 -116.5 -12t-42 47.5t33 156t174.5 244.5t213 98t155 -69.5t199 -186.5t111 -188t-57.5 -67.5t-81.5 -18.5z" />
    <glyph glyph-name="Aacute" unicode="&#xc1;" horiz-adv-x="1498" 
d="M977 284q-129 8 -320 -1q-17 -103 -73 -216t-182.5 -137.5t-239 15t-123.5 167t145.5 523.5t323 661t518.5 210q195 -30 269.5 -261.5t153.5 -682t43.5 -516t-115 -91.5t-232.5 -22.5t-168 351.5zM676 738q-6 -93 210 -73q224 -8 155 253q-5 160 -126 199
q-136 19 -239 -379zM833 1608q-77 4 -109 29t-55 64.5t5 100.5t114 145.5t141.5 129t117 59.5t91 -17t45 -80t-128 -241t-221.5 -190z" />
    <glyph glyph-name="Edieresis" unicode="&#xcb;" horiz-adv-x="1279" 
d="M459 1195q0 -106 -11 -257q295 43 337 -1.5t49 -142t-10 -178t-321 -104.5q-3 -114 12 -185q231 29 336 33.5t157.5 -124.5t4.5 -234t-336.5 -143t-425.5 -29.5t-168 287.5t-31 657.5t35.5 637.5t208 270.5t260.5 11t240 -19.5q165 -1 188.5 -113.5t24.5 -184.5
t-64.5 -123.5t-166 -52.5t-319.5 -5zM456 2012q121 -8 135 -112t-27.5 -156.5t-168 -49.5t-146.5 98t33.5 162t173.5 58zM1043 2027q60 -23 85 -62t6 -123t-130 -95t-169.5 44t-38 144.5t103.5 102t143 -10.5z" />
    <glyph glyph-name="Egrave" unicode="&#xc8;" horiz-adv-x="1279" 
d="M459 1195q0 -106 -11 -257q295 43 337 -1.5t49 -142t-10 -178t-321 -104.5q-3 -114 12 -185q231 29 336 33.5t157.5 -124.5t4.5 -234t-336.5 -143t-425.5 -29.5t-168 287.5t-31 657.5t35.5 637.5t208 270.5t260.5 11t240 -19.5q165 -1 188.5 -113.5t24.5 -184.5
t-64.5 -123.5t-166 -52.5t-319.5 -5zM912 1821q-19 -29 -51 -54t-74 -37q-40 -10 -97 70l-81 130q-54 96 -110 136q-112 35 -66 91q22 28 52 62t64 35q121 -17 240 -157q150 -235 123 -276z" />
    <glyph glyph-name="Iacute" unicode="&#xcd;" horiz-adv-x="1119" 
d="M405 1280q-23 -291 -23 -556q0 -70 4 -173t4 -173q0 -94 16 -226t-44 -151q-66 0 -197.5 -18.5t-2.5 202.5q10 110 10 214q-5 160 -14 245t-9 215.5t-44 309.5q-90 296 137 325q256 96 163 -214zM426 1635q-77 4 -109 29t-55 64.5t5 100.5t114 145.5t141.5 129t117 59.5
t91 -17t45 -80t-128 -241t-221.5 -190z" />
    <glyph glyph-name="Icircumflex" unicode="&#xce;" horiz-adv-x="1119" 
d="M405 1280q-23 -291 -23 -556q0 -70 4 -173t4 -173q0 -94 16 -226t-44 -151q-66 0 -197.5 -18.5t-2.5 202.5q10 110 10 214q-5 160 -14 245t-9 215.5t-44 309.5q-90 296 137 325q256 96 163 -214zM773 1676q-33 0 -63 29q-226 137 -247 128t-278 -161q-83 -28 -116.5 -12
t-42 47.5t33 156t174.5 244.5t213 98t155 -69.5t199 -186.5t111 -188t-57.5 -67.5t-81.5 -18.5z" />
    <glyph glyph-name="Idieresis" unicode="&#xcf;" horiz-adv-x="1119" 
d="M405 1280q-23 -291 -23 -556q0 -70 4 -173t4 -173q0 -94 16 -226t-44 -151q-66 0 -197.5 -18.5t-2.5 202.5q10 110 10 214q-5 160 -14 245t-9 215.5t-44 309.5q-90 296 137 325q256 96 163 -214zM268 1914q121 -8 135 -112t-27.5 -156.5t-168 -49.5t-146.5 98t33.5 162
t173.5 58zM855 1929q60 -23 85 -62t6 -123t-130 -95t-169.5 44t-38 144.5t103.5 102t143 -10.5z" />
    <glyph glyph-name="Igrave" unicode="&#xcc;" horiz-adv-x="1119" 
d="M405 1280q-23 -291 -23 -556q0 -70 4 -173t4 -173q0 -94 16 -226t-44 -151q-66 0 -197.5 -18.5t-2.5 202.5q10 110 10 214q-5 160 -14 245t-9 215.5t-44 309.5q-90 296 137 325q256 96 163 -214zM711 1752q-19 -29 -51 -54t-74 -37q-40 -10 -97 70l-81 130
q-54 96 -110 136q-112 35 -66 91q22 28 52 62t64 35q121 -17 240 -157q150 -235 123 -276z" />
    <glyph glyph-name="Oacute" unicode="&#xd3;" horiz-adv-x="1635" 
d="M966 -67q-482 -48 -699 178t-223.5 575.5t175 626t470 319.5t490.5 -14.5t344.5 -249.5t144 -512.5t-108.5 -597.5t-593 -325zM732 1184q-243 -38 -263.5 -356.5t142 -397t311 -78t247 84t139 315t-146 351t-429.5 81.5zM871 1615q-77 4 -109 29t-55 64.5t5 100.5
t114 145.5t141.5 129t117 59.5t91 -17t45 -80t-128 -241t-221.5 -190z" />
    <glyph glyph-name="Ocircumflex" unicode="&#xd4;" horiz-adv-x="1635" 
d="M966 -67q-482 -48 -699 178t-223.5 575.5t175 626t470 319.5t490.5 -14.5t344.5 -249.5t144 -512.5t-108.5 -597.5t-593 -325zM732 1184q-243 -38 -263.5 -356.5t142 -397t311 -78t247 84t139 315t-146 351t-429.5 81.5zM1178 1639q-33 0 -63 29q-226 137 -247 128
t-278 -161q-83 -28 -116.5 -12t-42 47.5t33 156t174.5 244.5t213 98t155 -69.5t199 -186.5t111 -188t-57.5 -67.5t-81.5 -18.5z" />
    <glyph glyph-name="Ograve" unicode="&#xd2;" horiz-adv-x="1635" 
d="M966 -67q-482 -48 -699 178t-223.5 575.5t175 626t470 319.5t490.5 -14.5t344.5 -249.5t144 -512.5t-108.5 -597.5t-593 -325zM732 1184q-243 -38 -263.5 -356.5t142 -397t311 -78t247 84t139 315t-146 351t-429.5 81.5zM1178 1722q-19 -29 -51 -54t-74 -37
q-40 -10 -97 70l-81 130q-54 96 -110 136q-112 35 -66 91q22 28 52 62t64 35q121 -17 240 -157q150 -235 123 -276z" />
    <glyph glyph-name="Uacute" unicode="&#xda;" horiz-adv-x="1509" 
d="M197 47q-101 154 -108 383q-39 219 -25 623q-5 125 -9 240q-8 106 8 214q93 34 221 20q92 5 78 -222l24 -558q-63 -611 303 -471q149 79 207.5 193t-25.5 357q-129 290 -187 392t334 182q86 -56 131 -211l101 -297q193 -898 -336.5 -970.5t-716.5 125.5zM669 1621
q-77 4 -109 29t-55 64.5t5 100.5t114 145.5t141.5 129t117 59.5t91 -17t45 -80t-128 -241t-221.5 -190z" />
    <glyph glyph-name="Ucircumflex" unicode="&#xdb;" horiz-adv-x="1509" 
d="M197 47q-101 154 -108 383q-39 219 -25 623q-5 125 -9 240q-8 106 8 214q93 34 221 20q92 5 78 -222l24 -558q-63 -611 303 -471q149 79 207.5 193t-25.5 357q-129 290 -187 392t334 182q86 -56 131 -211l101 -297q193 -898 -336.5 -970.5t-716.5 125.5zM1016 1645
q-33 0 -63 29q-226 137 -247 128t-278 -161q-83 -28 -116.5 -12t-42 47.5t33 156t174.5 244.5t213 98t155 -69.5t199 -186.5t111 -188t-57.5 -67.5t-81.5 -18.5z" />
    <glyph glyph-name="Ugrave" unicode="&#xd9;" horiz-adv-x="1509" 
d="M197 47q-101 154 -108 383q-39 219 -25 623q-5 125 -9 240q-8 106 8 214q93 34 221 20q92 5 78 -222l24 -558q-63 -611 303 -471q149 79 207.5 193t-25.5 357q-129 290 -187 392t334 182q86 -56 131 -211l101 -297q193 -898 -336.5 -970.5t-716.5 125.5zM884 1708
q-19 -29 -51 -54t-74 -37q-40 -10 -97 70l-81 130q-54 96 -110 136q-112 35 -66 91q22 28 52 62t64 35q121 -17 240 -157q150 -235 123 -276z" />
    <glyph glyph-name="dotlessi" unicode="&#x131;" horiz-adv-x="398" 
d="M343 92q-22 -110 -94.5 -114.5t-119 9t-50 86t-21.5 163.5t15 699q13 133 84 144.5t114 -7.5t56 -61.5t13 -87.5q10 -97 6 -234.5t-7 -216t-1 -195t5 -185.5z" />
    <glyph glyph-name="circumflex" unicode="&#x2c6;" horiz-adv-x="964" 
d="M788 1189q-33 0 -63 29q-226 137 -247 128t-278 -161q-83 -28 -116.5 -12t-42 47.5t33 156t174.5 244.5t213 98t155 -69.5t199 -186.5t111 -188t-57.5 -67.5t-81.5 -18.5z" />
    <glyph glyph-name="tilde" unicode="&#x2dc;" horiz-adv-x="938" 
d="M884 1335q-40 -65 -69 -95q-56 -57 -147.5 -71.5t-180.5 36.5t-147.5 99.5t-91.5 -18.5t-103 -36.5t-94.5 63t4 83.5t92 96.5t140 47t221 -66t192.5 -23.5t95.5 26.5t80.5 -49.5t8 -92z" />
    <glyph glyph-name="macron" unicode="&#x2c9;" horiz-adv-x="841" 
d="M783 1265q4 -81 -55.5 -80.5t-297 4t-286.5 3.5q-97 1 -83 79q-4 75 53 76q76 23 186 23t302 -6.5t181 -98.5z" />
    <glyph glyph-name="breve" unicode="&#x2d8;" horiz-adv-x="950" 
d="M824 1473q43 -37 79.5 -78t-121 -152.5t-342 -104t-276.5 121t-115 242.5q-14 65 75.5 100t142 -51.5t104.5 -109.5t174.5 -21t183.5 52t95 1z" />
    <glyph glyph-name="dotaccent" unicode="&#x2d9;" horiz-adv-x="344" 
d="M303 1278q-3 -52 -32.5 -74.5t-75.5 -28.5t-84.5 4t-59.5 68t14.5 112.5t108.5 62.5t102.5 -41.5t26.5 -102.5z" />
    <glyph glyph-name="ring" unicode="&#x2da;" horiz-adv-x="784" 
d="M392 1333q73 3 123 31.5t23 100t-67.5 99t-128 17t-90.5 -79.5t32 -119.5t108 -48.5zM41 1483q7 111 108 193t270 93t248.5 -76t67 -219.5t-100 -223.5t-253.5 -82t-256.5 107t-83.5 208z" />
    <glyph glyph-name="cedilla" unicode="&#xb8;" horiz-adv-x="608" 
d="M58 -313q33 84 92 85q79 -19 126 -5.5t46 63t-36 76t-108 37.5q-72 7 -62.5 101t116 93t224.5 -104.5t113 -238.5t-74.5 -196.5t-175.5 -65t-197.5 37.5t-63.5 117z" />
    <glyph glyph-name="hungarumlaut" unicode="&#x2dd;" horiz-adv-x="799" 
d="M194 1225q-29 -26 -62 -34t-62.5 18t-36 69.5t59 109.5l156 152.5t125 96t62 -15.5t38.5 -58.5t-15.5 -75.5t-74 -95.5t-92.5 -91.5t-98 -75zM767 1477q-1 -28 -55 -119t-133.5 -123.5t-109 -29.5t-49 17.5t-33.5 44.5t21 71q115 146 190 205.5t99.5 41.5t48 -43
t21.5 -65z" />
    <glyph glyph-name="ogonek" unicode="&#x2db;" horiz-adv-x="620" 
d="M527 -119q32 -16 46.5 -45.5t16.5 -65.5q11 -71 -98.5 -99.5t-202.5 -21.5t-168 75.5t-79 170.5t62.5 196.5t176.5 96.5q56 2 72 -18t29 -75q16 -71 -41.5 -94t-69.5 -66t23.5 -76t69.5 -34t82 28.5t81 27.5z" />
    <glyph glyph-name="caron" unicode="&#x2c7;" horiz-adv-x="737" 
d="M365 1469q112 85 176 111t86.5 11.5t46.5 -40.5t29.5 -42.5t0 -31.5t-76.5 -115t-162 -148t-132 -43.5t-112 56.5t-130.5 171.5t-31.5 148.5t78.5 52.5t84 -8.5t143.5 -122z" />
    <glyph glyph-name="Lslash" unicode="&#x141;" horiz-adv-x="1061" 
d="M775 -54q-223 -39 -367 -39q-168 -36 -186.5 21.5t-28.5 158.5t-7 429q-103 -44 -122.5 23.5t-24.5 142t115 120.5l3 193q-30 375 54.5 402.5t168 14.5t150.5 -45.5t65 -318.5q109 35 127 -9t30.5 -152.5t-178.5 -168.5q-17 -442 89.5 -409.5l215.5 69t134 -71t30 -199.5
t-268 -161z" />
    <glyph glyph-name="lslash" unicode="&#x142;" horiz-adv-x="839" 
d="M621 683q-26 -495 -76 -626q-41 -92 -123 -92q-173 -5 -170.5 96t24.5 453q-98 -28 -137 1.5t-83 80t19 138.5q105 103 227 179l8 245q0 318 48.5 349t99 33.5t99 -24t63.5 -144.5l-10 -311q43 52 79.5 52t64 -60t47 -140t-179.5 -230z" />
    <glyph glyph-name="Scaron" unicode="&#x160;" horiz-adv-x="1420" 
d="M131 149q-62 104 -82.5 187.5t126.5 164.5q168 100 277 92q27 -257 103.5 -308t190 -39.5t196 93t51.5 109t-156 45.5t-197.5 64t-231.5 110q-180 133 -156 326q-29 178 107 340q183 144 470 163q164 4 300 -38q233 -62 20 -514q-68 -46 -267 58q-59 24 12.5 143.5
t-31.5 142.5q-113 -12 -227 -96q-69 -78 -59 -168q19 -79 100 -127q55 -13 213 -24q229 -17 358 -144q118 -116 118 -283q0 -238 -220 -380q-191 -123 -386 -175q-169 -24 -406 36q-162 105 -223 222zM638 1920q112 85 176 111t86.5 11.5t46.5 -40.5t29.5 -42.5t0 -31.5
t-76.5 -115t-162 -148t-132 -43.5t-112 56.5t-130.5 171.5t-31.5 148.5t78.5 52.5t84 -8.5t143.5 -122z" />
    <glyph glyph-name="scaron" unicode="&#x161;" horiz-adv-x="826" 
d="M746 781q-12 63 -43.5 89t-191.5 -14q-157 -75 -20.5 -116t202 -73.5t196.5 -138.5q88 -105 77 -308q-19 -185 -155.5 -274t-341.5 -70q-150 26 -286.5 93t-144.5 137q29 164 70 251q38 195 172 110.5t177 -132.5q144 -107 186 -64q78 119 -112 167l-104 23
q-133 29 -189 68q-81 56 -171 158q-30 258 238 373q238 113 364 120t182.5 -8t93.5 -65.5t42 -128.5t5 -122q-22 -86 -49.5 -106.5t-86 -9.5t-110.5 41zM271 1469q112 85 176 111t86.5 11.5t46.5 -40.5t29.5 -42.5t0 -31.5t-76.5 -115t-162 -148t-132 -43.5t-112 56.5
t-130.5 171.5t-31.5 148.5t78.5 52.5t84 -8.5t143.5 -122z" />
    <glyph glyph-name="Zcaron" unicode="&#x17d;" horiz-adv-x="1420" 
d="M1308 1208l-145 -103q-148 -184 -368 -514l-152 -143q373 133 494 179.5t175 15.5q50 -283 69 -442q11 -111 -85 -105t-275.5 19.5t-549.5 -104t-387 10.5q-52 122 45 230l164 188l54 57l273 370q77 134 249 317q-404 -94 -754 -13q-48 126 -26 214t76 110q33 14 109 14
q69 0 205.5 -14.5t205.5 -14.5q77 0 230.5 10t231.5 10q311 44 276 -97q25 -159 -115 -195zM520 2017q112 85 176 111t86.5 11.5t46.5 -40.5t29.5 -42.5t0 -31.5t-76.5 -115t-162 -148t-132 -43.5t-112 56.5t-130.5 171.5t-31.5 148.5t78.5 52.5t84 -8.5t143.5 -122z" />
    <glyph glyph-name="zcaron" unicode="&#x17e;" horiz-adv-x="1102" 
d="M1021 805q-85 -142 -207 -315.5t-210 -249.5l143 -7q92 1 128.5 12.5t121.5 11.5q40 -32 32.5 -97.5t-11.5 -120.5q-10 -102 -43 -101.5t-77 0.5q-39 0 -125 1t-216.5 -4.5t-297.5 -29.5q-186 -17 -201.5 41.5t-15.5 161.5q335 292 543 593q-30 45 -111 46.5t-220 -14.5
q-117 -71 -117 220q0 44 27 73.5t68 29.5q49 0 148 -11.5t150 -11.5q68 0 204 9.5t204 9.5q85 0 85 -70q35 -74 -2 -177zM264 1469q112 85 176 111t86.5 11.5t46.5 -40.5t29.5 -42.5t0 -31.5t-76.5 -115t-162 -148t-132 -43.5t-112 56.5t-130.5 171.5t-31.5 148.5t78.5 52.5
t84 -8.5t143.5 -122z" />
    <glyph glyph-name="brokenbar" unicode="&#xa6;" horiz-adv-x="351" 
d="M200 876q-136 0 -139 101t-15 334t-9 322t170 62q96 5 84.5 -301t-4.5 -412t-87 -106zM288 31q0 -75 -64 -97q-70 -5 -102.5 73.5t-45 271t1 334t119.5 139t110 -141.5t-7.5 -315t-11.5 -264z" />
    <glyph glyph-name="Eth" unicode="&#xd0;" horiz-adv-x="1474" 
d="M190 554q-125 -40 -138.5 148t132.5 167l-3 235q-9 223 43.5 281t152.5 83.5t416 -42t462.5 -252.5t182.5 -587q0 -171 -80 -327q-81 -159 -220 -253q-156 -106 -340.5 -106t-285.5 26t-204.5 44t-119 118t1.5 465zM550 1084l-7 -222q135 -23 163 -25t30.5 -94
t-17.5 -156.5t-125 -49.5l-105 -4l-4 -219q163 -72 304 -77.5t227 55t132.5 164.5t28 225t-103 222.5t-202.5 144.5t-321 36z" />
    <glyph glyph-name="eth" unicode="&#xf0;" horiz-adv-x="984" 
d="M615 696q-74 48 -174 -51.5t-151.5 -206t21.5 -186.5t185 -97.5t157 83t52 207t-90 251.5zM260 1295q-42 76 -49.5 121.5t35 86t135.5 65t161 -124.5q164 71 206.5 68.5t76.5 -53.5t34 -94t-34 -70l-127 -73q231 -384 241 -654.5t-109.5 -446.5t-346.5 -176t-332.5 131
t-113 318.5t138 336t333.5 214.5q-18 78 -82 145q-98 -80 -185.5 25t18.5 181z" />
    <glyph glyph-name="Yacute" unicode="&#xdd;" horiz-adv-x="1301" 
d="M598 -82q-24 -68 -346 -26q-80 49 74 342l152 360q15 27 -97 174q-140 158 -252 365t11 285.5t203 30.5l312 -455q34 -59 307 533q68 133 163 48q65 -30 114 -68t21.5 -103t-232 -483t-430.5 -1003zM568 1706q-77 4 -109 29t-55 64.5t5 100.5t114 145.5t141.5 129
t117 59.5t91 -17t45 -80t-128 -241t-221.5 -190z" />
    <glyph glyph-name="Thorn" unicode="&#xde;" horiz-adv-x="1222" 
d="M508 1097l-54 -523q112 -23 190.5 2t153.5 105t55.5 187.5t-111 162.5t-234.5 66zM428 214q3 -222 -45 -247t-112 -25t-147 17.5t-43.5 290t63.5 558t27.5 461.5t20 273t116 102.5t191 -19.5t96.5 -184q200 -37 387 -172t206.5 -380t-138.5 -438t-622 -237z" />
    <glyph glyph-name="thorn" unicode="&#xfe;" horiz-adv-x="1286" 
d="M452 -94q-8 -431 -35.5 -468.5t-138.5 -41t-145 50.5t-53.5 575t-23.5 1017t82.5 511t156.5 5.5t115.5 -115t63.5 -377.5q362 209 583.5 -48t176 -519t-126 -422.5t-252.5 -189.5t-403 22zM435 711q13 -227 39 -419q96 -55 203.5 -61.5t194.5 67.5t58 268.5t-145 233.5
t-192.5 13.5t-157.5 -102.5z" />
    <glyph glyph-name="minus" unicode="&#x2212;" horiz-adv-x="999" 
d="M965 686q-5 -82 -14 -116t-128 -36t-309.5 -1t-310.5 -29.5t-139 134.5q-25 123 119.5 117.5t249.5 -2.5t323.5 5.5t208.5 -72.5z" />
    <glyph glyph-name="onesuperior" unicode="&#xb9;" horiz-adv-x="460" 
d="M170 1066l39 353q-65 -23 -124.5 -28t-72.5 119q10 60 48.5 91.5t127.5 77t116 45.5q71 10 87 -110q31 -690 -103 -689t-118 141z" />
    <glyph glyph-name="twosuperior" unicode="&#xb2;" horiz-adv-x="699" 
d="M347 1110q134 -11 176.5 -8.5t52.5 -42t19 -100.5t-171 -66t-263 0t-83 115q0 132 106 226q252 243 200 279t-116 -27t-110 -45q-28 11 -57.5 34t-48 71t85.5 132.5t220 79t191 -43.5t95 -162t-34.5 -196.5t-262.5 -245.5z" />
    <glyph glyph-name="threesuperior" unicode="&#xb3;" horiz-adv-x="581" 
d="M452 1314q90 -53 87.5 -199t-110 -209.5t-216.5 -59.5t-143 45.5t-6 114.5t107.5 60t99 11t13 60t-47.5 55t-38 106q18 51 68.5 80t32 61.5t-66.5 30.5t-95 6q-58 45 -58 105.5t26.5 77t113 29.5t176 -3.5t110.5 -163t-53 -207.5z" />
    <glyph glyph-name="onehalf" unicode="&#xbd;" horiz-adv-x="1142" 
d="M442 1436q-31 -10 -90.5 -34.5t-101.5 108.5q-16 60 26.5 85t129 82t133 65t70.5 -21t8 -127l-3 -559q29 -171 -110.5 -180.5t-61.5 581.5zM493 784q342 3 485 4.5t149.5 -158t-251 -122.5t-461.5 37.5t-280 3.5t-96 94.5t46.5 114.5t407.5 26zM551 -142q91 -1 160.5 2
t87.5 -33t15.5 -117t-118.5 -84.5t-181.5 -6t-120.5 -1t-92.5 20.5t-46.5 108q-10 142 122 226q234 210 188 253t-101.5 -4t-93.5 -30.5t-65.5 45t-17.5 78.5t87.5 119t187 61t191.5 -65t78.5 -183t-57 -186t-223.5 -203z" />
    <glyph glyph-name="onequarter" unicode="&#xbc;" horiz-adv-x="1125" 
d="M464 1382q-179 -50 -179 47q-3 96 39.5 133.5l119.5 104.5t164.5 63.5t79.5 -801.5q-23 -97 -152 -93.5t-72 546.5zM665 771q306 2 378.5 -12.5t61.5 -124.5t-266.5 -92.5t-471 8t-283.5 13t-53.5 120t172 92.5t462.5 -4zM510 39q56 -1 55.5 108t-63.5 70.5
t-114.5 -103.5t8 -69t114.5 -6zM731 29q82 -6 85 -102q16 -90 -108 -79l2 -109q-16 -100 -91 -97t-89.5 35.5t-13.5 162.5l-217 32q-166 10 -169 76.5t48.5 130l165.5 198.5t168.5 186.5t105.5 53t85 -25t32.5 -97t-4.5 -365.5z" />
    <glyph glyph-name="threequarters" unicode="&#xbe;" horiz-adv-x="1102" 
d="M772 1311q106 -181 85 -282.5t-130 -156t-242.5 -53t-156 35t2.5 128.5t79 77t119.5 -6.5t73.5 76.5t-50 71t-54 78.5t65 98.5t35.5 70t-59.5 28.5t-80 -31t-85 32.5q-40 77 9.5 122t130 73t188.5 -5.5t127.5 -156t-58.5 -200.5zM1075 644q13 -113 -200 -118t-439 -11.5
t-324.5 -12.5t-92 113.5t277 138.5t434 -4.5t254 -31.5t90.5 -74zM494 33q84 1 82 121.5t-76.5 69t-107.5 -110t-7 -69.5t109 -11zM713 53q68 11 65 -81q3 -91 -95 -81l2 -158q0 -75 -75 -75t-75 75l-2 119l-201 19q-198 17 -198 94q0 60 50.5 159t207.5 240t232 138
q30 0 77.5 -31t36.5 -138.5t-25 -279.5z" />
    <glyph glyph-name="yacute" unicode="&#xfd;" horiz-adv-x="1066" 
d="M710 -424q-117 -49 -192 -22q-79 10 -116.5 25.5t-32.5 176.5q22 169 172 466l-221 229l-216 306q-83 142 -52.5 213t79.5 127.5t159 -14.5q91 -55 173.5 -167.5t241.5 -300.5l141 344q37 86 114 121q127 -4 176 -53.5t54 -140.5q-76 -183 -226.5 -634.5t-253.5 -675.5z
M329 1165q-77 4 -109 29t-55 64.5t5 100.5t114 145.5t141.5 129t117 59.5t91 -17t45 -80t-128 -241t-221.5 -190z" />
    <glyph glyph-name="multiply" unicode="&#xd7;" horiz-adv-x="857" 
d="M629 643q24 -56 92.5 -141.5t68.5 -133t-27 -76t-100 -56t-126.5 63t-104.5 129.5q-50 -37 -84 -76q-67 -72 -117 -68.5t-84 29t-45 71.5t35.5 97.5t100.5 124.5q-131 136 -169.5 182.5t-38.5 91.5t23.5 86.5t82.5 56.5t291 -191q59 60 209 148q55 37 86.5 7.5t65.5 -88
t-9 -119.5t-150 -138z" />
    <glyph glyph-name="sfthyphen" horiz-adv-x="792" 
d="M62 535q-17 114 86 117.5t258 2.5t249.5 -7.5t83.5 -95.5q1 -81 -118.5 -91t-335.5 -17.5t-223 91.5z" />
    <glyph glyph-name="franc" unicode="&#x20a3;" horiz-adv-x="2026" 
d="M474 1197l-17 -228q149 -19 238 -34t104 -118t-16 -200t-314 -93q28 -645 -85 -665t-224 26.5t-94 493t21 852t219 417t499 -18t255.5 -191t-109 -201.5t-477.5 -40zM1988 739l-91 -26q-77 -16 -125.5 43.5t-217.5 7.5q-100 -51 -124 -235l-12 -495q7 -115 -120 -133
q-144 -11 -204 41q-2 567 61 1010q25 137 151 136q141 0 160 -81q128 47 362 47q81 0 128 -48.5t83 -164.5q3 -77 -51 -102z" />
    <glyph glyph-name="Gbreve" unicode="&#x11e;" horiz-adv-x="1392" 
d="M1463 585q-13 -313 -190.5 -531.5t-548 -208t-508 170t-159 434t94.5 590t355 469.5t445 148t333 -112.5t113.5 -200.5t-38 -129.5t-73.5 -99.5t-181.5 -37.5t-262.5 7t-233 -183t-124.5 -344t149.5 -276.5t266 121q-193 -10 -229.5 57t-40 176t101 159.5t376.5 42
t315 -51.5t43 -87q0 -65 -4 -113zM1014 1923q43 -37 79.5 -78t-121 -152.5t-342 -104t-276.5 121t-115 242.5q-14 65 75.5 100t142 -51.5t104.5 -109.5t174.5 -21t183.5 52t95 1z" />
    <glyph glyph-name="gbreve" unicode="&#x11f;" horiz-adv-x="1087" 
d="M1040 80q-21 -205 -56 -337q-45 -197 -123 -201q-197 -83 -353.5 -65t-313.5 71t-120 147q-25 101 159 200q125 -54 179 -81.5t160 -31.5q136 -14 161 50t23 178q-81 -85 -259.5 -67.5t-294.5 143.5t-131 333q-5 270 140 455q111 185 372 195q172 -10 227.5 -26.5
t168.5 -54.5q142 -48 117 -179q-4 -328 -56 -729zM568 814q-81 -20 -140 -96q-98 -118 -93 -295q-5 -105 50 -163t165 -68q299 25 309 357q-6 141 -103 210.5t-188 54.5zM824 1473q43 -37 79.5 -78t-121 -152.5t-342 -104t-276.5 121t-115 242.5q-14 65 75.5 100t142 -51.5
t104.5 -109.5t174.5 -21t183.5 52t95 1z" />
    <glyph glyph-name="Idotaccent" unicode="&#x130;" horiz-adv-x="1119" 
d="M405 1280q-23 -291 -23 -556q0 -70 4 -173t4 -173q0 -94 16 -226t-44 -151q-66 0 -197.5 -18.5t-2.5 202.5q10 110 10 214q-5 160 -14 245t-9 215.5t-44 309.5q-90 296 137 325q256 96 163 -214zM423 1728q-3 -52 -32.5 -74.5t-75.5 -28.5t-84.5 4t-59.5 68t14.5 112.5
t108.5 62.5t102.5 -41.5t26.5 -102.5z" />
    <glyph glyph-name="Scedilla" unicode="&#x15e;" horiz-adv-x="1447" 
d="M1173 111q-138 -117 -233 -154q14 -111 2 -221t-172.5 -202t-318.5 -43.5t-119 169t94 144.5t103.5 -15.5t86.5 -33t41 64.5t-108.5 82t-271 102.5t-206 143.5t-35 119t178.5 214.5t260 65t176.5 -122t115 63.5t-94.5 107t-279.5 107t-183.5 284.5t149.5 390.5t429 199
t365.5 -70t143 -145.5t0 -179t-129 -106.5q-136 71 -281.5 100t-184 -68.5t74.5 -136l348 -118.5t266.5 -304t-217.5 -437z" />
    <glyph glyph-name="scedilla" unicode="&#x15f;" horiz-adv-x="999" 
d="M698 752q-96 54 -110.5 14t31.5 -75l182 -134t106.5 -304.5t-244.5 -320.5q17 -112 -12.5 -244.5t-185.5 -155t-267 32t-81 118t72 115.5t87.5 17.5t87.5 -48.5t54 47.5t-128 84.5q-263 95 -263 241q0 40 36.5 102t101.5 94.5t154 -20.5q76 -45 133 -47.5t86.5 57t-22 88
t-138.5 47.5q-78 64 -127 124t-51.5 183.5t94.5 234t338 97t290.5 -106.5t47 -174.5t-49.5 -97t-103.5 -23t-118.5 53.5z" />
    <glyph glyph-name="Cacute" unicode="&#x106;" horiz-adv-x="1234" 
d="M1241 118q-276 -193 -511 -196.5t-403 137t-234 428.5t103.5 656.5t462 484t374.5 82.5q106 -46 149 -180q30 -101 6 -213q-16 -45 -46 -78.5t-227 -104t-309 -280.5t-99.5 -337t150.5 -146t234 39t161 101.5t159.5 -12t107.5 -133.5t-78 -248zM636 1615q-77 4 -109 29
t-55 64.5t5 100.5t114 145.5t141.5 129t117 59.5t91 -17t45 -80t-128 -241t-221.5 -190z" />
    <glyph glyph-name="cacute" unicode="&#x107;" horiz-adv-x="1052" 
d="M593 -81q-194 -14 -342 107q-172 119 -204 360q-14 129 19 272q90 303 270 412t459 -14q161 -70 213 -183q-10 -45 -35 -88.5t-97 -61.5q-61 25 -124.5 63.5t-168.5 63.5t-205 -157q-66 -142 -66 -257t40 -205q109 -106 230 -99q64 11 128 50l95 51q34 30 79 41l60 -68.5
t60.5 -55t-117.5 -153.5q-138 -78 -294 -78zM416 1165q-77 4 -109 29t-55 64.5t5 100.5t114 145.5t141.5 129t117 59.5t91 -17t45 -80t-128 -241t-221.5 -190z" />
    <glyph glyph-name="Ccaron" unicode="&#x10c;" horiz-adv-x="1234" 
d="M1241 118q-276 -193 -511 -196.5t-403 137t-234 428.5t103.5 656.5t462 484t374.5 82.5q106 -46 149 -180q30 -101 6 -213q-16 -45 -46 -78.5t-227 -104t-309 -280.5t-99.5 -337t150.5 -146t234 39t161 101.5t159.5 -12t107.5 -133.5t-78 -248zM575 1919q112 85 176 111
t86.5 11.5t46.5 -40.5t29.5 -42.5t0 -31.5t-76.5 -115t-162 -148t-132 -43.5t-112 56.5t-130.5 171.5t-31.5 148.5t78.5 52.5t84 -8.5t143.5 -122z" />
    <glyph glyph-name="ccaron" unicode="&#x10d;" horiz-adv-x="1234" 
d="M593 -81q-194 -14 -342 107q-172 119 -204 360q-14 129 19 272q90 303 270 412t459 -14q161 -70 213 -183q-10 -45 -35 -88.5t-97 -61.5q-61 25 -124.5 63.5t-168.5 63.5t-205 -157q-66 -142 -66 -257t40 -205q109 -106 230 -99q64 11 128 50l95 51q34 30 79 41l60 -68.5
t60.5 -55t-117.5 -153.5q-138 -78 -294 -78zM365 1469q112 85 176 111t86.5 11.5t46.5 -40.5t29.5 -42.5t0 -31.5t-76.5 -115t-162 -148t-132 -43.5t-112 56.5t-130.5 171.5t-31.5 148.5t78.5 52.5t84 -8.5t143.5 -122z" />
    <glyph glyph-name="dcroat" unicode="&#x111;" horiz-adv-x="1310" 
d="M1274 1264q-11 -146 -157 -134q4 -440 11.5 -659.5t6.5 -358.5t-28 -165.5t-126.5 -44.5t-138.5 52q-46 -47 -244 -72t-384 141t-189 423t136 458t356 213.5t334 -92.5l31 136l-167 15q-118 65 -107.5 142.5t66 85.5t179.5 -13q9 157 112 172q152 -5 162 -66
q0 -70 -5 -127l58 -5q94 1 94 -101zM752 248q116 213 75 390.5t-224.5 157t-242.5 -171t30 -294.5t214.5 -144t147.5 62z" />
    <glyph glyph-name="mu" unicode="&#x3bc;" horiz-adv-x="1077" 
d="M396 -70q16 -157 11 -241.5t-157 -89.5q-163 -27 -139 124q-64 739 -23 1036t171 307q43 0 95 -7t76 -181t6 -269.5t2 -202.5q69 -47 134 -60.5t121.5 19t53.5 448.5q34 164 251 64q60 -27 38 -509q-47 -328 -97.5 -369.5t-88.5 -60t-213.5 -22t-240.5 13.5z" />
    <glyph glyph-name="Ohm" unicode="&#x2126;" horiz-adv-x="1966" 
d="M489 251l-111 208q-60 178 -60 380q0 329 193.5 571t749.5 220q331 6 542 -284t73.5 -670.5t-372.5 -514.5q126 15 196 1t69.5 -133t-90.5 -183q-119 -6 -272.5 -8t-231.5 18q-37 32 -9 187q0 53 160 302.5t190.5 515t-90 340.5t-314.5 106.5t-290 -104.5t-107 -334
t70 -486.5t83.5 -362t-108.5 -156.5q-292 -21 -417 -32t-208 24.5t-94 169t76 168.5t372 57z" />
    <glyph glyph-name="Delta" unicode="&#x2206;" horiz-adv-x="1627" 
d="M823 1701q186 -22 410.5 -573.5t309 -789.5t71 -345.5t-144 -86t-316 26.5t-570.5 -1.5t-443 -6.5q-81 -5 -97.5 66t125 501.5t334 814t321.5 394.5zM969 814q-144 330 -185.5 238t-105.5 -259.5t-238 -546.5q470 -2 618.5 -7.5t178.5 69t-268 506.5z" />
    <glyph glyph-name="hyphenminus" unicode="&#xad;" horiz-adv-x="853" 
d="M631 453q-135 -29 -483 -18q-92 -14 -89 104q-14 129 97 113q84 -4 235.5 1.5t253 1t96.5 -107.5q4 -89 -110 -94z" />
    <glyph glyph-name="overscore.001" unicode="&#xaf;" horiz-adv-x="1284" 
d="M137 1700q-28 -8 -63 119t54 185q14 42 329 56.5t739 -29.5t328 -267q12 -101 -354.5 -120t-1032.5 56z" />
    <glyph glyph-name="periodcentered" horiz-adv-x="379" 
d="M333 709q-18 -66 -58 -98t-102 -26.5t-98 43.5t-33 91t28.5 107.5t104.5 44.5t127.5 -52.5t30.5 -109.5z" />
    <glyph glyph-name="Abreve" unicode="&#x102;" horiz-adv-x="1498" 
d="M977 284q-129 8 -320 -1q-17 -103 -73 -216t-182.5 -137.5t-239 15t-123.5 167t145.5 523.5t323 661t518.5 210q195 -30 269.5 -261.5t153.5 -682t43.5 -516t-115 -91.5t-232.5 -22.5t-168 351.5zM676 738q-6 -93 210 -73q224 -8 155 253q-5 160 -126 199
q-136 19 -239 -379zM1124 1923q43 -37 79.5 -78t-121 -152.5t-342 -104t-276.5 121t-115 242.5q-14 65 75.5 100t142 -51.5t104.5 -109.5t174.5 -21t183.5 52t95 1z" />
    <glyph glyph-name="abreve" unicode="&#x103;" horiz-adv-x="1048" 
d="M977 -129q-99 -68 -181 80q-118 -81 -203.5 -78.5t-203.5 38t-243 145.5q-114 132 -104 395q21 249 187.5 421t397.5 172q87 0 195 -45q74 -34 109.5 -83.5t40.5 -96.5t16 -129t2.5 -212t6.5 -205.5t31.5 -142t56.5 -132.5q-4 -46 -26.5 -68.5t-81.5 -58.5zM557 790
q-147 -62 -189.5 -131.5t-61 -229.5t84.5 -225.5t296 -12.5q47 44 59 114q37 192 37.5 268.5t-7.5 112t-57 73.5t-162 31zM755 1473q43 -37 79.5 -78t-121 -152.5t-342 -104t-276.5 121t-115 242.5q-14 65 75.5 100t142 -51.5t104.5 -109.5t174.5 -21t183.5 52t95 1z" />
    <glyph glyph-name="Aogonek" unicode="&#x104;" horiz-adv-x="1478" 
d="M1380 -321q-76 -46 -223 -46t-202.5 112t-66.5 189t-10 170.5t4 205.5q-211 9 -391 20q-39 -85 -55.5 -213.5t-230.5 -156.5q-86 17 -137.5 40.5t-48.5 74.5t116 458t333 710t388 257.5t198 -185t92 -370.5l113.5 -428t80 -333.5t-48 -175t-91.5 -49t-21 -33t35 -63.5
t139 -42t27 -142zM903 727q-44 123 -75 261q-65 -43 -212 -251q121 -43 287 -10z" />
    <glyph glyph-name="aogonek" unicode="&#x105;" horiz-adv-x="1224" 
d="M743 -86q-157 -33 -349 -2.5t-280.5 160.5t-84.5 387.5t157.5 436t354 189.5t348.5 -65.5t149.5 -196t-2 -304t25.5 -377t-33.5 -224t-18.5 -55t112 -13t44 -92t-117 -102.5t-175.5 77t-130.5 181zM325 503q-17 -126 108 -221q151 -83 237 -69.5t93 163t7 243t-106.5 123
t-222.5 -37t-116 -201.5z" />
    <glyph glyph-name="Dcaron" unicode="&#x10e;" horiz-adv-x="1478" 
d="M1175 -17q-152 -104 -445.5 -105t-468.5 51t-193.5 256.5t14.5 670t73 584t246 133.5t487 -87t422.5 -326t149.5 -476t-62 -425t-223 -276zM510 988q-80 -598 22 -633.5t263 -36.5t249.5 78t65 275t-143 327t-285.5 149.5t-171 -159.5zM425 1919q112 85 176 111
t86.5 11.5t46.5 -40.5t29.5 -42.5t0 -31.5t-76.5 -115t-162 -148t-132 -43.5t-112 56.5t-130.5 171.5t-31.5 148.5t78.5 52.5t84 -8.5t143.5 -122z" />
    <glyph glyph-name="dcaron" unicode="&#x10f;" horiz-adv-x="1698" 
d="M1034 86q2 -14 2 -23q0 -40 -28 -66t-65 -26q-62 0 -107.5 -9.5t-120.5 -26.5t-174 -1q-212 -11 -353 138q-156 146 -161 362q-15 251 136.5 455.5t353.5 199.5t307 -38q30 308 13 515q49 89 137 59q122 -11 101 -128q0 -139 -10.5 -452.5t-23 -553.5t-7.5 -405zM546 163
q161 -4 217 63q46 44 55 98l2 137l1 116l2 118q-38 81 -101 93.5t-157.5 2t-181.5 -74t-110 -228t58.5 -234.5t214.5 -91zM1240 1465q13 -138 -44.5 -254t-131.5 -113t-96 47t-10.5 85.5t50 66t44 42t-39 40t-59.5 86.5t29.5 121t145 37.5t112.5 -158.5z" />
    <glyph glyph-name="Dslash" unicode="&#x110;" horiz-adv-x="1478" 
d="M190 554q-125 -40 -138.5 148t132.5 167l-3 235q-9 223 43.5 281t152.5 83.5t416 -42t462.5 -252.5t182.5 -587q0 -171 -80 -327q-81 -159 -220 -253q-156 -106 -340.5 -106t-285.5 26t-204.5 44t-119 118t1.5 465zM550 1084l-7 -222q135 -23 163 -25t30.5 -94
t-17.5 -156.5t-125 -49.5l-105 -4l-4 -219q163 -72 304 -77.5t227 55t132.5 164.5t28 225t-103 222.5t-202.5 144.5t-321 36z" />
    <glyph glyph-name="Eogonek" unicode="&#x118;" horiz-adv-x="1190" 
d="M452 1250q-23 -161 -22.5 -217.5t268.5 -88.5q153 29 150.5 -160t-94.5 -197q-167 -30 -349 -17q-34 -168 4 -349q150 10 262 13.5t251.5 10t133.5 -223.5q0 -84 -85 -101q-88 -17 -118 -28t26 -82q151 18 212 24q56 -56 68 -142q0 -94 -154 -133q-88 -17 -176 -11
q-92 38 -169 74q-106 112 -102 235q-311 -30 -415.5 14t-88.5 476.5t19.5 678t9.5 317t6 149.5t166 131q264 14 458 14q296 40 290.5 -177t-217.5 -202t-334 -8z" />
    <glyph glyph-name="eogonek" unicode="&#x119;" horiz-adv-x="1158" 
d="M1044 -265q18 -103 -94.5 -131t-219 -19t-180.5 103.5t-74 150.5t-86.5 75t-218 145.5t-145.5 379.5q32 314 179 478t340 146t298 -74q129 -70 149 -193t-108.5 -249t-457.5 -156q89 -185 181 -200.5t173 54t126 125.5t113.5 7t87 -98t9.5 -110.5t-117.5 -135.5
t-176 -90.5t-53.5 -79t114 -16t130.5 -17.5t30.5 -95zM616 865q-199 0 -266 -190t166.5 -59t230 190t-130.5 59z" />
    <glyph glyph-name="Ecaron" unicode="&#x11a;" horiz-adv-x="1279" 
d="M459 1195q0 -106 -11 -257q295 43 337 -1.5t49 -142t-10 -178t-321 -104.5q-3 -114 12 -185q231 29 336 33.5t157.5 -124.5t4.5 -234t-336.5 -143t-425.5 -29.5t-168 287.5t-31 657.5t35.5 637.5t208 270.5t260.5 11t240 -19.5q165 -1 188.5 -113.5t24.5 -184.5
t-64.5 -123.5t-166 -52.5t-319.5 -5zM505 1949q112 85 176 111t86.5 11.5t46.5 -40.5t29.5 -42.5t0 -31.5t-76.5 -115t-162 -148t-132 -43.5t-112 56.5t-130.5 171.5t-31.5 148.5t78.5 52.5t84 -8.5t143.5 -122z" />
    <glyph glyph-name="ecaron" unicode="&#x11b;" horiz-adv-x="1122" 
d="M579 -70q-260 4 -380 117q-129 145 -160 373q7 257 143 450q127 182 380 195q203 14 302 -69q163 -76 193 -301q17 -104 -72 -179q-394 -263 -601 -176q-11 -141 198 -174q107 0 196 42l131.5 112.5t97.5 21.5q38 -34 58.5 -62.5t34.5 -66.5q55 -63 -213 -211
q-160 -68 -308 -72zM586 549q338 89 264 202.5t-243.5 60.5t-258.5 -157.5t238 -105.5zM365 1469q112 85 176 111t86.5 11.5t46.5 -40.5t29.5 -42.5t0 -31.5t-76.5 -115t-162 -148t-132 -43.5t-112 56.5t-130.5 171.5t-31.5 148.5t78.5 52.5t84 -8.5t143.5 -122z" />
    <glyph glyph-name="Lacute" unicode="&#x139;" horiz-adv-x="1128" 
d="M1133 10l-350 -151q-233 -64 -343 -90q-116 -36 -257.5 -32.5t-85.5 253.5l20 367q21 391 57 965q15 242 69 256.5t142 4.5q89 10 130 -7t-5 -183q-173 -529 -50 -1211q296 -37 618 176q73 81 119 -16q38 -87 61 -227q-25 -54 -125 -105zM396 1615q-77 4 -109 29
t-55 64.5t5 100.5t114 145.5t141.5 129t117 59.5t91 -17t45 -80t-128 -241t-221.5 -190z" />
    <glyph glyph-name="lacute" unicode="&#x13a;" horiz-adv-x="561" 
d="M325 786q21 -576 20 -720.5t-100 -160.5q-129 -5 -196 35q11 219 9 598.5t8 955.5q-5 151 170 130q120 -5 125 -120q-5 -153 -20.5 -356.5t-15.5 -361.5zM206 1665q-77 4 -109 29t-55 64.5t5 100.5t114 145.5t141.5 129t117 59.5t91 -17t45 -80t-128 -241t-221.5 -190z
" />
    <glyph glyph-name="Lcaron" unicode="&#x13d;" horiz-adv-x="1128" 
d="M1133 10l-350 -151q-233 -64 -343 -90q-116 -36 -257.5 -32.5t-85.5 253.5l20 367q21 391 57 965q15 242 69 256.5t142 4.5q89 10 130 -7t-5 -183q-173 -529 -50 -1211q296 -37 618 176q73 81 119 -16q38 -87 61 -227q-25 -54 -125 -105zM646 1395q13 -138 -44.5 -254
t-131.5 -113t-96 47t-10.5 85.5t50 66t44 42t-39 40t-59.5 86.5t29.5 121t145 37.5t112.5 -158.5z" />
    <glyph glyph-name="lcaron" unicode="&#x13e;" horiz-adv-x="951" 
d="M325 786q21 -576 20 -720.5t-100 -160.5q-129 -5 -196 35q11 219 9 598.5t8 955.5q-5 151 170 130q120 -5 125 -120q-5 -153 -20.5 -356.5t-15.5 -361.5zM526 1465q13 -138 -44.5 -254t-131.5 -113t-96 47t-10.5 85.5t50 66t44 42t-39 40t-59.5 86.5t29.5 121t145 37.5
t112.5 -158.5z" />
    <glyph glyph-name="Ldot" unicode="&#x13f;" horiz-adv-x="1128" 
d="M1133 10l-350 -151q-233 -64 -343 -90q-116 -36 -257.5 -32.5t-85.5 253.5l20 367q21 391 57 965q15 242 69 256.5t142 4.5q89 10 130 -7t-5 -183q-173 -529 -50 -1211q296 -37 618 176q73 81 119 -16q38 -87 61 -227q-25 -54 -125 -105zM883 709q-18 -66 -58 -98
t-102 -26.5t-98 43.5t-33 91t28.5 107.5t104.5 44.5t127.5 -52.5t30.5 -109.5z" />
    <glyph glyph-name="ldot" unicode="&#x140;" horiz-adv-x="809" 
d="M325 786q21 -576 20 -720.5t-100 -160.5q-129 -5 -196 35q11 219 9 598.5t8 955.5q-5 151 170 130q120 -5 125 -120q-5 -153 -20.5 -356.5t-15.5 -361.5zM753 709q-18 -66 -58 -98t-102 -26.5t-98 43.5t-33 91t28.5 107.5t104.5 44.5t127.5 -52.5t30.5 -109.5z" />
    <glyph glyph-name="Nacute" unicode="&#x143;" horiz-adv-x="1632" 
d="M1555 258q5 -89 -16 -323q-62 -20 -153 -24q-177 -42 -269 208q-259 299 -730 664q3 -213 -1.5 -371t20.5 -299q92 -253 -144 -248q-86 5 -148 25q-65 97 -55 167.5t16.5 130t17.5 127.5q10 92 8.5 185t4.5 165q0 81 9.5 202t9.5 187q0 63 -12 187.5t-12 187.5
q-36 158 -1 175.5t135 33.5q185 40 259 -142q208 -409 488 -620q186 -207 183.5 -111.5t9.5 299.5q-14 174 -25.5 247.5t29.5 138t234 72t153 -621.5q-5 -126 -8 -280.5t-3 -361.5zM626 1615q-77 4 -109 29t-55 64.5t5 100.5t114 145.5t141.5 129t117 59.5t91 -17t45 -80
t-128 -241t-221.5 -190z" />
    <glyph glyph-name="nacute" unicode="&#x144;" horiz-adv-x="1072" 
d="M772 -89q-115 0 -101 50l12 179q22 161 29.5 242.5t14.5 114t-25.5 81.5t-109 71t-131 -47.5t-78.5 -146.5t-35 -285.5t-27.5 -235t-81.5 -29.5q-62 -4 -127 -5t-43.5 78.5t26 364.5t8.5 676q-7 109 28.5 112.5t113.5 18.5q168 4 160 -119q94 38 271 38q160 0 256 -130
q54 -112 50 -282l-3 -112l-9 -96q-7 -94 2 -211t-10 -308q-78 -30 -190 -19zM386 1165q-77 4 -109 29t-55 64.5t5 100.5t114 145.5t141.5 129t117 59.5t91 -17t45 -80t-128 -241t-221.5 -190z" />
    <glyph glyph-name="Ncaron" unicode="&#x147;" horiz-adv-x="1632" 
d="M1555 258q5 -89 -16 -323q-62 -20 -153 -24q-177 -42 -269 208q-259 299 -730 664q3 -213 -1.5 -371t20.5 -299q92 -253 -144 -248q-86 5 -148 25q-65 97 -55 167.5t16.5 130t17.5 127.5q10 92 8.5 185t4.5 165q0 81 9.5 202t9.5 187q0 63 -12 187.5t-12 187.5
q-36 158 -1 175.5t135 33.5q185 40 259 -142q208 -409 488 -620q186 -207 183.5 -111.5t9.5 299.5q-14 174 -25.5 247.5t29.5 138t234 72t153 -621.5q-5 -126 -8 -280.5t-3 -361.5zM595 1919q112 85 176 111t86.5 11.5t46.5 -40.5t29.5 -42.5t0 -31.5t-76.5 -115t-162 -148
t-132 -43.5t-112 56.5t-130.5 171.5t-31.5 148.5t78.5 52.5t84 -8.5t143.5 -122z" />
    <glyph glyph-name="ncaron" unicode="&#x148;" horiz-adv-x="1072" 
d="M772 -89q-115 0 -101 50l12 179q22 161 29.5 242.5t14.5 114t-25.5 81.5t-109 71t-131 -47.5t-78.5 -146.5t-35 -285.5t-27.5 -235t-81.5 -29.5q-62 -4 -127 -5t-43.5 78.5t26 364.5t8.5 676q-7 109 28.5 112.5t113.5 18.5q168 4 160 -119q94 38 271 38q160 0 256 -130
q54 -112 50 -282l-3 -112l-9 -96q-7 -94 2 -211t-10 -308q-78 -30 -190 -19zM365 1469q112 85 176 111t86.5 11.5t46.5 -40.5t29.5 -42.5t0 -31.5t-76.5 -115t-162 -148t-132 -43.5t-112 56.5t-130.5 171.5t-31.5 148.5t78.5 52.5t84 -8.5t143.5 -122z" />
    <glyph glyph-name="Odblacute" unicode="&#x150;" horiz-adv-x="1635" 
d="M966 -67q-482 -48 -699 178t-223.5 575.5t175 626t470 319.5t490.5 -14.5t344.5 -249.5t144 -512.5t-108.5 -597.5t-593 -325zM732 1184q-243 -38 -263.5 -356.5t142 -397t311 -78t247 84t139 315t-146 351t-429.5 81.5zM644 1675q-29 -26 -62 -34t-62.5 18t-36 69.5
t59 109.5l156 152.5t125 96t62 -15.5t38.5 -58.5t-15.5 -75.5t-74 -95.5t-92.5 -91.5t-98 -75zM1217 1927q-1 -28 -55 -119t-133.5 -123.5t-109 -29.5t-49 17.5t-33.5 44.5t21 71q115 146 190 205.5t99.5 41.5t48 -43t21.5 -65z" />
    <glyph glyph-name="odblacute" unicode="&#x151;" horiz-adv-x="1077" 
d="M546 -99q-198 10 -371 130q-131 142 -138 399q1 239 114 408q157 241 424 203q200 0 324 -169q88 -155 85 -363q4 -236 -92 -393q-100 -185 -346 -215zM306 401q-15 -110 54 -188q66 -49 145 -39q100 10 186 89q78 57 96 245q-44 208 -194.5 205t-215.5 -98.5t-71 -213.5
zM244 1225q-29 -26 -62 -34t-62.5 18t-36 69.5t59 109.5l156 152.5t125 96t62 -15.5t38.5 -58.5t-15.5 -75.5t-74 -95.5t-92.5 -91.5t-98 -75zM817 1477q-1 -28 -55 -119t-133.5 -123.5t-109 -29.5t-49 17.5t-33.5 44.5t21 71q115 146 190 205.5t99.5 41.5t48 -43t21.5 -65z
" />
    <glyph glyph-name="Racute" unicode="&#x154;" horiz-adv-x="1287" 
d="M738 84q-192 146 -341 298l-7 -117l5 -197q0 -44 -28.5 -73.5t-101.5 -29.5q-136 10 -177 5t-19 325.5t37.5 598.5t13.5 515q-11 181 218 166l226 -28q152 -17 261 -63q439 -224 415 -559q14 -157 -104 -294q-136 -108 -336 -118q311 -167 337 -204t9 -103t-82.5 -171
t-114.5 -85.5t-211 134.5zM552 1311l-94 -28l-44 -81q7 -74 7 -121q0 -80 -13 -199l-1 -86q-6 -113 23.5 -114t44.5 -1q245 49 314.5 76.5t112.5 75.5t45.5 154.5t-91.5 196.5q-145 110 -304 127zM426 1665q-77 4 -109 29t-55 64.5t5 100.5t114 145.5t141.5 129t117 59.5
t91 -17t45 -80t-128 -241t-221.5 -190z" />
    <glyph glyph-name="racute" unicode="&#x155;" horiz-adv-x="984" 
d="M946 739l-91 -26q-77 -16 -125.5 43.5t-217.5 7.5q-100 -51 -124 -235l-12 -495q7 -115 -120 -133q-144 -11 -204 41q-2 567 61 1010q25 137 151 136q141 0 160 -81q128 47 362 47q81 0 128 -48.5t83 -164.5q3 -77 -51 -102zM356 1165q-77 4 -109 29t-55 64.5t5 100.5
t114 145.5t141.5 129t117 59.5t91 -17t45 -80t-128 -241t-221.5 -190z" />
    <glyph glyph-name="Rcaron" unicode="&#x158;" horiz-adv-x="1287" 
d="M738 84q-192 146 -341 298l-7 -117l5 -197q0 -44 -28.5 -73.5t-101.5 -29.5q-136 10 -177 5t-19 325.5t37.5 598.5t13.5 515q-11 181 218 166l226 -28q152 -17 261 -63q439 -224 415 -559q14 -157 -104 -294q-136 -108 -336 -118q311 -167 337 -204t9 -103t-82.5 -171
t-114.5 -85.5t-211 134.5zM552 1311l-94 -28l-44 -81q7 -74 7 -121q0 -80 -13 -199l-1 -86q-6 -113 23.5 -114t44.5 -1q245 49 314.5 76.5t112.5 75.5t45.5 154.5t-91.5 196.5q-145 110 -304 127zM346 1919q112 85 176 111t86.5 11.5t46.5 -40.5t29.5 -42.5t0 -31.5
t-76.5 -115t-162 -148t-132 -43.5t-112 56.5t-130.5 171.5t-31.5 148.5t78.5 52.5t84 -8.5t143.5 -122z" />
    <glyph glyph-name="rcaron" unicode="&#x159;" horiz-adv-x="984" 
d="M946 739l-91 -26q-77 -16 -125.5 43.5t-217.5 7.5q-100 -51 -124 -235l-12 -495q7 -115 -120 -133q-144 -11 -204 41q-2 567 61 1010q25 137 151 136q141 0 160 -81q128 47 362 47q81 0 128 -48.5t83 -164.5q3 -77 -51 -102zM266 1469q112 85 176 111t86.5 11.5
t46.5 -40.5t29.5 -42.5t0 -31.5t-76.5 -115t-162 -148t-132 -43.5t-112 56.5t-130.5 171.5t-31.5 148.5t78.5 52.5t84 -8.5t143.5 -122z" />
    <glyph glyph-name="Sacute" unicode="&#x15a;" horiz-adv-x="1420" 
d="M130 149q-62 104 -82.5 187.5t126.5 164.5q168 100 277 92q27 -257 103.5 -308t190 -39.5t196 93t51.5 109t-156 45.5t-197.5 64t-231.5 110q-180 133 -156 326q-29 178 107 340q183 144 470 163q164 4 300 -38q233 -62 20 -514q-68 -46 -267 58q-59 24 12.5 143.5
t-31.5 142.5q-113 -12 -227 -96q-69 -78 -59 -168q19 -79 100 -127q55 -13 213 -24q229 -17 358 -144q118 -116 118 -283q0 -238 -220 -380q-191 -123 -386 -175q-169 -24 -406 36q-162 105 -223 222zM606 1615q-77 4 -109 29t-55 64.5t5 100.5t114 145.5t141.5 129
t117 59.5t91 -17t45 -80t-128 -241t-221.5 -190z" />
    <glyph glyph-name="sacute" unicode="&#x15b;" horiz-adv-x="997" 
d="M744 781q-12 63 -43.5 89t-191.5 -14q-157 -75 -20.5 -116t202 -73.5t196.5 -138.5q88 -105 77 -308q-19 -185 -155.5 -274t-341.5 -70q-150 26 -286.5 93t-144.5 137q29 164 70 251q38 195 172 110.5t177 -132.5q144 -107 186 -64q78 119 -112 167l-104 23
q-133 29 -189 68q-81 56 -171 158q-30 258 238 373q238 113 364 120t182.5 -8t93.5 -65.5t42 -128.5t5 -122q-22 -86 -49.5 -106.5t-86 -9.5t-110.5 41zM406 1165q-77 4 -109 29t-55 64.5t5 100.5t114 145.5t141.5 129t117 59.5t91 -17t45 -80t-128 -241t-221.5 -190z" />
    <glyph glyph-name="Tcedilla" unicode="&#x162;" horiz-adv-x="1392" 
d="M1081 1275q-150 11 -228 10q-6 -152 -14 -444.5t25 -404.5q0 -78 9.5 -144.5t4.5 -116.5q48 -268 -31 -327q5 6 -106 -13q-55 0 -120 23t-75 110l10 62q-5 68 -21 156.5t-1 223.5q4 167 -7.5 324.5t-5.5 474.5q-381 -91 -482 3q-5 102 -19 166q5 55 26 96q63 68 120 60
q59 12 212 10t357 -18.5t464 -9.5q36 -253 -118 -241zM600 -277q13 -138 -44.5 -254t-131.5 -113t-96 47t-10.5 85.5t50 66t44 42t-39 40t-59.5 86.5t29.5 121t145 37.5t112.5 -158.5z" />
    <glyph glyph-name="tcedilla" unicode="&#x163;" horiz-adv-x="965" 
d="M720 806q-87 4 -140 -38l-8 -327l-5 -298q125 -75 156 30q161 64 138.5 -124.5t-378.5 -189.5q-151 -22 -201 165.5t-16 736.5q-70 7 -151 8q-99 8 -94 186q0 44 27 73t69 29l178 -3q5 119 2.5 154.5t-11.5 86.5q14 106 52 104t80 -2q158 9 153.5 -83t-16.5 -273
q92 16 178 -11q44 -151 -13 -224zM352 -277q13 -138 -44.5 -254t-131.5 -113t-96 47t-10.5 85.5t50 66t44 42t-39 40t-59.5 86.5t29.5 121t145 37.5t112.5 -158.5z" />
    <glyph glyph-name="Tcaron" unicode="&#x164;" horiz-adv-x="1392" 
d="M1081 1275q-150 11 -228 10q-6 -152 -14 -444.5t25 -404.5q0 -78 9.5 -144.5t4.5 -116.5q48 -268 -31 -327q5 6 -106 -13q-55 0 -120 23t-75 110l10 62q-5 68 -21 156.5t-1 223.5q4 167 -7.5 324.5t-5.5 474.5q-381 -91 -482 3q-5 102 -19 166q5 55 26 96q63 68 120 60
q59 12 212 10t357 -18.5t464 -9.5q36 -253 -118 -241zM525 1969q112 85 176 111t86.5 11.5t46.5 -40.5t29.5 -42.5t0 -31.5t-76.5 -115t-162 -148t-132 -43.5t-112 56.5t-130.5 171.5t-31.5 148.5t78.5 52.5t84 -8.5t143.5 -122z" />
    <glyph glyph-name="tcaron" unicode="&#x165;" horiz-adv-x="1309" 
d="M720 806q-87 4 -140 -38l-8 -327l-5 -298q125 -75 156 30q161 64 138.5 -124.5t-378.5 -189.5q-151 -22 -201 165.5t-16 736.5q-70 7 -151 8q-99 8 -94 186q0 44 27 73t69 29l178 -3q5 119 2.5 154.5t-11.5 86.5q14 106 52 104t80 -2q158 9 153.5 -83t-16.5 -273
q92 16 178 -11q44 -151 -13 -224zM976 1255q13 -138 -44.5 -254t-131.5 -113t-96 47t-10.5 85.5t50 66t44 42t-39 40t-59.5 86.5t29.5 121t145 37.5t112.5 -158.5z" />
    <glyph glyph-name="Uring" unicode="&#x16e;" horiz-adv-x="1509" 
d="M197 47q-101 154 -108 383q-39 219 -25 623q-5 125 -9 240q-8 106 8 214q93 34 221 20q92 5 78 -222l24 -558q-63 -611 303 -471q149 79 207.5 193t-25.5 357q-129 290 -187 392t334 182q86 -56 131 -211l101 -297q193 -898 -336.5 -970.5t-716.5 125.5zM542 1783
q73 3 123 31.5t23 100t-67.5 99t-128 17t-90.5 -79.5t32 -119.5t108 -48.5zM191 1933q7 111 108 193t270 93t248.5 -76t67 -219.5t-100 -223.5t-253.5 -82t-256.5 107t-83.5 208z" />
    <glyph glyph-name="uring" unicode="&#x16f;" horiz-adv-x="1065" 
d="M954 18q0 -75 -45 -86.5t-87 -11.5q-106 -21 -112 38q-111 -8 -227 -33q-106 -4 -248.5 36t-155 269.5t-12.5 436.5q0 137 -6 229q-15 116 121 101q71 4 116 0t52 -54q-21 -153 -11 -285.5t11 -199t35.5 -116t118.5 -67.5q88 -3 146 78l14 89q-30 263 -58 419
q-35 106 130 113q143 25 152 -39l40.5 -288.5t25.5 -628.5zM293 1333q73 3 123 31.5t23 100t-67.5 99t-128 17t-90.5 -79.5t32 -119.5t108 -48.5zM-58 1483q7 111 108 193t270 93t248.5 -76t67 -219.5t-100 -223.5t-253.5 -82t-256.5 107t-83.5 208z" />
    <glyph glyph-name="Udblacute" unicode="&#x170;" horiz-adv-x="1509" 
d="M197 47q-101 154 -108 383q-39 219 -25 623q-5 125 -9 240q-8 106 8 214q93 34 221 20q92 5 78 -222l24 -558q-63 -611 303 -471q149 79 207.5 193t-25.5 357q-129 290 -187 392t334 182q86 -56 131 -211l101 -297q193 -898 -336.5 -970.5t-716.5 125.5zM504 1675
q-29 -26 -62 -34t-62.5 18t-36 69.5t59 109.5l156 152.5t125 96t62 -15.5t38.5 -58.5t-15.5 -75.5t-74 -95.5t-92.5 -91.5t-98 -75zM1077 1927q-1 -28 -55 -119t-133.5 -123.5t-109 -29.5t-49 17.5t-33.5 44.5t21 71q115 146 190 205.5t99.5 41.5t48 -43t21.5 -65z" />
    <glyph glyph-name="udblacute" unicode="&#x171;" horiz-adv-x="1065" 
d="M954 18q0 -75 -45 -86.5t-87 -11.5q-106 -21 -112 38q-111 -8 -227 -33q-106 -4 -248.5 36t-155 269.5t-12.5 436.5q0 137 -6 229q-15 116 121 101q71 4 116 0t52 -54q-21 -153 -11 -285.5t11 -199t35.5 -116t118.5 -67.5q88 -3 146 78l14 89q-30 263 -58 419
q-35 106 130 113q143 25 152 -39l40.5 -288.5t25.5 -628.5zM274 1225q-29 -26 -62 -34t-62.5 18t-36 69.5t59 109.5l156 152.5t125 96t62 -15.5t38.5 -58.5t-15.5 -75.5t-74 -95.5t-92.5 -91.5t-98 -75zM847 1477q-1 -28 -55 -119t-133.5 -123.5t-109 -29.5t-49 17.5
t-33.5 44.5t21 71q115 146 190 205.5t99.5 41.5t48 -43t21.5 -65z" />
    <glyph glyph-name="Zacute" unicode="&#x179;" horiz-adv-x="1420" 
d="M1308 1208l-145 -103q-148 -184 -368 -514l-152 -143q373 133 494 179.5t175 15.5q50 -283 69 -442q11 -111 -85 -105t-275.5 19.5t-549.5 -104t-387 10.5q-52 122 45 230l164 188l54 57l273 370q77 134 249 317q-404 -94 -754 -13q-48 126 -26 214t76 110q33 14 109 14
q69 0 205.5 -14.5t205.5 -14.5q77 0 230.5 10t231.5 10q311 44 276 -97q25 -159 -115 -195zM566 1665q-77 4 -109 29t-55 64.5t5 100.5t114 145.5t141.5 129t117 59.5t91 -17t45 -80t-128 -241t-221.5 -190z" />
    <glyph glyph-name="zacute" unicode="&#x17a;" horiz-adv-x="1102" 
d="M1021 805q-85 -142 -207 -315.5t-210 -249.5l143 -7q92 1 128.5 12.5t121.5 11.5q40 -32 32.5 -97.5t-11.5 -120.5q-10 -102 -43 -101.5t-77 0.5q-39 0 -125 1t-216.5 -4.5t-297.5 -29.5q-186 -17 -201.5 41.5t-15.5 161.5q335 292 543 593q-30 45 -111 46.5t-220 -14.5
q-117 -71 -117 220q0 44 27 73.5t68 29.5q49 0 148 -11.5t150 -11.5q68 0 204 9.5t204 9.5q85 0 85 -70q35 -74 -2 -177zM426 1165q-77 4 -109 29t-55 64.5t5 100.5t114 145.5t141.5 129t117 59.5t91 -17t45 -80t-128 -241t-221.5 -190z" />
    <glyph glyph-name="Zdot" unicode="&#x17b;" horiz-adv-x="1420" 
d="M1308 1208l-145 -103q-148 -184 -368 -514l-152 -143q373 133 494 179.5t175 15.5q50 -283 69 -442q11 -111 -85 -105t-275.5 19.5t-549.5 -104t-387 10.5q-52 122 45 230l164 188l54 57l273 370q77 134 249 317q-404 -94 -754 -13q-48 126 -26 214t76 110q33 14 109 14
q69 0 205.5 -14.5t205.5 -14.5q77 0 230.5 10t231.5 10q311 44 276 -97q25 -159 -115 -195zM613 1728q-3 -52 -32.5 -74.5t-75.5 -28.5t-84.5 4t-59.5 68t14.5 112.5t108.5 62.5t102.5 -41.5t26.5 -102.5z" />
    <glyph glyph-name="zdot" unicode="&#x17c;" horiz-adv-x="1102" 
d="M1021 805q-85 -142 -207 -315.5t-210 -249.5l143 -7q92 1 128.5 12.5t121.5 11.5q40 -32 32.5 -97.5t-11.5 -120.5q-10 -102 -43 -101.5t-77 0.5q-39 0 -125 1t-216.5 -4.5t-297.5 -29.5q-186 -17 -201.5 41.5t-15.5 161.5q335 292 543 593q-30 45 -111 46.5t-220 -14.5
q-117 -71 -117 220q0 44 27 73.5t68 29.5q49 0 148 -11.5t150 -11.5q68 0 204 9.5t204 9.5q85 0 85 -70q35 -74 -2 -177zM493 1278q-3 -52 -32.5 -74.5t-75.5 -28.5t-84.5 4t-59.5 68t14.5 112.5t108.5 62.5t102.5 -41.5t26.5 -102.5z" />
    <glyph glyph-name="Gamma" unicode="&#x393;" horiz-adv-x="1098" 
d="M1092 1355q0 -66 -24 -107.5t-107.5 -39l-306 9t-283.5 -13.5q-11 -57 7 -354.5t27.5 -399.5t9.5 -285t-121 -202t-154 10t-38 81.5t-18.5 322.5t-22.5 574t-9 460q0 46 29 75t74 29q378 7 803 -47q129 0 134 -113z" />
    <glyph glyph-name="Theta" unicode="&#x398;" horiz-adv-x="1722" 
d="M1657 933q27 -408 -162.5 -713.5t-560.5 -315t-605 167.5t-263.5 511.5t148 633t493.5 340.5t619.5 -87t330.5 -537zM1352 842q-15 234 -104.5 311.5t-333.5 87.5t-365.5 -202t-119 -396.5t176.5 -304.5t337.5 -88t293.5 195t115 397zM1222 750q-2 -100 -129 -89.5
t-343 10.5t-233 115t155.5 110t310.5 -3t190 -20t49 -123z" />
    <glyph glyph-name="Phi" unicode="&#x3a6;" horiz-adv-x="1246" 
d="M1211 797q0 -371 -474 -499l7 -96q115 14 205 16.5t87.5 -99t-33.5 -117t-78 -27.5t-167 -21.5t-392 -3.5q-86 0 -93 119t72.5 133.5t144.5 6.5l-1 81q-151 -17 -305 70.5t-154 283.5t138 348t363 203l-11 54q-99 12 -176 36q-43 0 -45 90.5t33.5 119t231 26t330 -21
t156 -91.5t-3 -117.5t-105.5 -42t-165 11.5l-5 -55q141 16 287 -110q153 -130 153 -298zM766 936l-1 -398q111 2 169 47q99 75 99 190t-91 157t-176 4zM508 511q-1 211 -1 200q0 137 -25 210q-211 -18 -242 -198.5t79.5 -224.5t188.5 13z" />
    <glyph glyph-name="alpha" unicode="&#x3b1;" horiz-adv-x="1173" 
d="M831 -20q-33 -49 -131 -68.5t-256 -7t-284.5 158.5t-113.5 423.5t190 433.5t346.5 140t252.5 -41q91 107 111.5 118t95.5 -32.5t82 -115t-22 -106.5t-65.5 -106t-53.5 -140t-17 -227t64.5 -254.5t59 -135.5t-36.5 -75t-79 -50.5t-143 85.5zM750 552q-21 120 -59.5 171
t-136 36.5t-171 -92.5t-63 -236t113.5 -181.5t162.5 8.5t117.5 103t36 191z" />
    <glyph glyph-name="delta" unicode="&#x3b4;" horiz-adv-x="1163" 
d="M195 861q152 146 262 197q-84 128 -140 173t-109.5 127.5t-21.5 148.5t271.5 76t495.5 -33q124 -48 116.5 -109t-13 -112.5t-146 -39.5t-191.5 11.5t77 -105.5t228.5 -306.5t76 -428t-168 -402.5t-365.5 -166t-377.5 160.5t-139.5 386.5t145 422zM787 429
q11 296 -160 297q-112 1 -175 -107q-50 -87 -50 -198t61 -173q50 -51 118 -51q80 0 137 58q65 65 69 174z" />
    <glyph glyph-name="epsilon" unicode="&#x3b5;" horiz-adv-x="843" 
d="M810 143q0 -66 -112.5 -142.5t-267 -75t-271.5 76t-110 264.5t110 292q-69 107 -91.5 206t46.5 204t255 120.5t286 -26t67 -130.5t-67.5 -104.5t-91 -0.5t-100.5 8t-81 -35t-35.5 -67.5t64.5 -67t80.5 -62t10.5 -104.5t-70.5 -98t-86 -66t-7 -85.5t84.5 -53t170.5 48.5
t140 42t57.5 -59.5t19 -84.5z" />
    <glyph glyph-name="sigma" unicode="&#x3c3;" horiz-adv-x="1212" 
d="M940 793q110 -127 95 -322t-103 -372.5t-328.5 -191.5t-391 124t-162 360.5t77.5 422t268 233.5t359 27.5t259.5 -11.5t123.5 -40.5t40.5 -130.5t-76.5 -103t-162 4zM776 438q-39 254 -163.5 277t-194 -69.5t-64.5 -214t61.5 -175.5t135 -45.5t150 57.5t75.5 170z" />
    <glyph glyph-name="tau" unicode="&#x3c4;" horiz-adv-x="953" 
d="M599 774q22 -460 -6 -638q0 -200 -106 -200q-103 -7 -141.5 24.5t-26.5 217t27 577.5q-81 -1 -201 10q-89 -14 -105 105.5t17.5 153t102.5 44t387 7t351.5 -29.5t28.5 -142t-120.5 -115t-207.5 -14z" />
    <glyph glyph-name="phi" unicode="&#x3c6;" horiz-adv-x="1150" 
d="M661 -105q-23 -91 -44 -193t-97 -120q-130 9 -146 37t-14 104t7 244q-244 56 -291 325t-14.5 392.5t67.5 190.5q30 106 147.5 72.5t110.5 -98.5t-49.5 -160t-34.5 -273.5t113 -150.5q-27 101 -6.5 321t106 359.5t300.5 65.5t261 -254.5t39 -421t-159 -326.5t-296 -114z
M873 407q0 104 -32 219q-34 128 -104.5 110t-88.5 -139q0 -34 3 -86t3 -61q0 -53 24.5 -145.5t109.5 -39t85 141.5z" />
    <glyph glyph-name="underscoredbl" unicode="&#x2017;" horiz-adv-x="1284" 
d="M1167.01 81.9785q27.999 8 62.9971 -118.992q34.9971 -126.992 -53.9971 -184.989q-13.999 -41.9971 -328.979 -56.4961q-314.981 -14.499 -738.955 29.498q-423.975 43.9971 -327.98 266.983q-11.999 100.994 354.479 119.993t1032.44 -55.9971zM137 -547
q-28 -8 -63 119t54 185q14 42 329 56.5t739 -29.5t328 -267q12 -101 -354.5 -120t-1032.5 56z" />
    <glyph glyph-name="exclamdbl" unicode="&#x203c;" horiz-adv-x="921" 
d="M484 1492l-92 -1089q0 -89 -133 -100q-149 6 -170.5 221t-34.5 517.5t-5.5 473.5t247.5 164q195 -26 188 -187zM441 18q-12 -47 -48.5 -83.5t-99 -46.5t-127 32.5t-71 147t74 131t161.5 7.5t102 -80t8 -108zM869 1461l-92 -1089q0 -89 -133 -100q-149 6 -170.5 221
t-34.5 517.5t-5.5 473.5t247.5 164q195 -26 188 -187zM826 -13q-12 -47 -48.5 -83.5t-99 -46.5t-127 32.5t-71 147t74 131t161.5 7.5t102 -80t8 -108z" />
    <glyph glyph-name="nsuperior" unicode="&#x207f;" horiz-adv-x="826" 
d="M526 871q3 241 6.5 288.5t-26 82t-81 39.5t-87.5 -49t-47.5 -124t-14.5 -182t-94 -132q-109 5 -117.5 40.5t-10.5 273t26 364.5t116.5 134.5t95.5 -33.5q62 39 196 26.5t205 -99.5t78.5 -211t6 -242t-9 -158.5t-30 -69t-129.5 -22.5t-83 74z" />
    <glyph glyph-name="peseta" unicode="&#x20a7;" horiz-adv-x="2468" 
d="M2410 871q0 -45 -14.5 -80.5t-79 -56t-103.5 29t-113 50t-89 -56.5t126.5 -112.5t222.5 -141.5t71 -295t-167 -266.5t-322.5 -52.5t-302 75.5t-10.5 224t157 113t95 -72t114.5 8.5t26 89t-144.5 83t-188.5 104.5t-68.5 231.5t196.5 256.5t355.5 84.5t198.5 -99t39.5 -117
zM1677 953q0 -44 -27.5 -72.5t-118.5 -26.5t-98 -90q-7 -386 3.5 -517.5t-71.5 -139.5t-137 26t-52 139t39 537q-74 7 -211 6q-15 -176 -184.5 -260.5t-345.5 -115.5q-49 -408 -97.5 -445.5t-142 -37.5t-140 30t-23.5 278t61 610.5t76 525.5t107.5 167t280 14t345.5 -131.5
t132 -334.5l96 27q-34 246 33 260.5t156 -0.5t48 -264q54 -10 123.5 -4.5t142.5 -20.5q61 -35 5 -160zM824 1070q-18 102 -101 158t-161.5 56t-96 -25t-72.5 -199.5t94.5 -261t252 41.5t84.5 230z" />
    <glyph glyph-name="IJ" unicode="&#x132;" horiz-adv-x="2307" 
d="M405 1280q-23 -291 -23 -556q0 -70 4 -173t4 -173q0 -94 16 -226t-44 -151q-66 0 -197.5 -18.5t-2.5 202.5q10 110 10 214q-5 160 -14 245t-9 215.5t-44 309.5q-90 296 137 325q256 96 163 -214zM1900 1230l6 -232q-77 -591 -212 -837q-127 -214 -271 -255
q-221 -36 -371 125q-98 131 -92 270q-6 195 121 159q117 -5 193 -34q15 -185 18.5 -267.5t95 -72t128.5 502.5q15 238 0 358q-11 135 -21 333q-37 189 -2 204.5t160.5 23t173.5 -77.5t73 -200z" />
    <glyph glyph-name="ij" unicode="&#x133;" horiz-adv-x="1086" 
d="M251 1266q-48 0 -87.5 17.5t-84.5 63t6.5 152.5t156 86t125 -88t1.5 -115q0 -48 -34.5 -82t-82.5 -34zM336 90q9 -86 -25 -100t-83 -18q-66 4 -107.5 13.5t-32.5 104.5q0 98 -10.5 205.5t-8 210.5t-15.5 464q1 153 58.5 148t138.5 -47q76 -5 103.5 -32.5t20.5 -130.5
t-17 -229t-10 -229t-4 -196.5t-8 -163.5zM857 1678q180 -70 221.5 -149t-4.5 -154.5t-87.5 -116t-114 -40.5t-129.5 37t-91.5 124t10 165.5t195.5 133.5zM753 920q102 152 244 153t157 -175l13 -504l8 -655q7 -303 -115.5 -345.5t-278.5 -42.5q-509 65 -400 555
q120 86 187 92t87 -36.5t38 -121t121 -67.5t67 268.5l-66 460z" />
    <glyph glyph-name="napostrophe" unicode="&#x149;" horiz-adv-x="1272" 
d="M293 1491q-2 -85 -48 -314q-26 -95 -70 -103t-93.5 13.5t-46.5 84t9.5 117t42.5 188t95.5 123.5t88 -36t22.5 -73zM972 -89q-115 0 -101 50l12 179q22 161 29.5 242.5t14.5 114t-25.5 81.5t-109 71t-131 -47.5t-78.5 -146.5t-35 -285.5t-27.5 -235t-81.5 -29.5
q-62 -4 -127 -5t-43.5 78.5t26 364.5t8.5 676q-7 109 28.5 112.5t113.5 18.5q168 4 160 -119q94 38 271 38q160 0 256 -130q54 -112 50 -282l-3 -112l-9 -96q-7 -94 2 -211t-10 -308q-78 -30 -190 -19z" />
    <glyph glyph-name="minute" unicode="&#x2032;" horiz-adv-x="369" 
d="M293 1491q-2 -85 -48 -314q-26 -95 -70 -103t-93.5 13.5t-46.5 84t9.5 117t42.5 188t95.5 123.5t88 -36t22.5 -73z" />
    <glyph glyph-name="second" unicode="&#x2033;" horiz-adv-x="678" 
d="M121.018 1325.09q2 84.9951 47.9971 313.981q25.999 94.9941 69.9961 102.993q43.9971 8 93.4941 -13.499t46.4971 -83.9951t-9.49902 -116.993q-6.5 -54.4961 -42.498 -187.988q-35.9971 -133.491 -95.4941 -123.492q-59.4961 9.99902 -87.9941 35.998
q-28.498 25.998 -22.499 72.9951zM597 1551q-2 -85 -48 -314q-26 -95 -70 -103t-93.5 13.5t-46.5 84t9.5 117t42.5 188t95.5 123.5t88 -36t22.5 -73z" />
    <glyph glyph-name="afii61248" unicode="&#x2105;" horiz-adv-x="1660" 
d="M633 -18q-69 -53 -132 -40t-110 74.5t100 403t351 741.5t239.5 451.5t149 3t40.5 -271t-638 -1362.5zM1630 328q0 -143 -75 -247.5t-235 -132.5t-262 67.5t-120 250.5t60.5 281t255 141t276.5 -101t100 -259zM561 944q-6 -99 -147.5 -117t-263.5 88.5t-84 405.5
t335 273.5t256 -175.5t-143.5 -101.5t-154 6.5t-51.5 -115.5t60 -111.5t130 -46t63 -107zM1418 275q-7 122 -41 158t-120 33.5t-102.5 -140t127.5 -155.5t136 104z" />
    <glyph glyph-name="afii61289" unicode="&#x2113;" horiz-adv-x="937" 
d="M793 96q31 -108 -58 -141t-242.5 -14.5t-242.5 236.5q-56 138 -76 365q-57 -15 -85.5 49.5t-47 163.5t143.5 149q-18 289 29.5 512.5t229.5 247t308.5 -93t139.5 -377t-437 -530.5q20 -421 128 -418t142.5 -7.5t51 -57t16.5 -84.5zM639 1227q16 90 -43 136.5t-118.5 46.5
t-61.5 -232t102.5 -136.5t120.5 185.5z" />
    <glyph glyph-name="tonos" unicode="&#x384;" horiz-adv-x="378" 
d="M348 1414q-8 -45 -62.5 -117t-87 -106.5t-67 -28.5t-59 25.5t-36.5 38.5t26.5 108.5l68.5 155.5t104.5 44t98 -48.5t14.5 -71.5z" />
    <glyph glyph-name="Amacron" unicode="&#x100;" horiz-adv-x="1498" 
d="M977 284q-129 8 -320 -1q-17 -103 -73 -216t-182.5 -137.5t-239 15t-123.5 167t145.5 523.5t323 661t518.5 210q195 -30 269.5 -261.5t153.5 -682t43.5 -516t-115 -91.5t-232.5 -22.5t-168 351.5zM676 738q-6 -93 210 -73q224 -8 155 253q-5 160 -126 199
q-136 19 -239 -379zM1123 1715q4 -81 -55.5 -80.5t-297 4t-286.5 3.5q-97 1 -83 79q-4 75 53 76q76 23 186 23t302 -6.5t181 -98.5z" />
    <glyph glyph-name="amacron" unicode="&#x101;" horiz-adv-x="1048" 
d="M977 -129q-99 -68 -181 80q-118 -81 -203.5 -78.5t-203.5 38t-243 145.5q-114 132 -104 395q21 249 187.5 421t397.5 172q87 0 195 -45q74 -34 109.5 -83.5t40.5 -96.5t16 -129t2.5 -212t6.5 -205.5t31.5 -142t56.5 -132.5q-4 -46 -26.5 -68.5t-81.5 -58.5zM557 790
q-147 -62 -189.5 -131.5t-61 -229.5t84.5 -225.5t296 -12.5q47 44 59 114q37 192 37.5 268.5t-7.5 112t-57 73.5t-162 31zM764 1265q4 -81 -55.5 -80.5t-297 4t-286.5 3.5q-97 1 -83 79q-4 75 53 76q76 23 186 23t302 -6.5t181 -98.5z" />
    <glyph glyph-name="Ccircumflex" unicode="&#x108;" horiz-adv-x="1234" 
d="M1241 118q-276 -193 -511 -196.5t-403 137t-234 428.5t103.5 656.5t462 484t374.5 82.5q106 -46 149 -180q30 -101 6 -213q-16 -45 -46 -78.5t-227 -104t-309 -280.5t-99.5 -337t150.5 -146t234 39t161 101.5t159.5 -12t107.5 -133.5t-78 -248zM978 1639q-33 0 -63 29
q-226 137 -247 128t-278 -161q-83 -28 -116.5 -12t-42 47.5t33 156t174.5 244.5t213 98t155 -69.5t199 -186.5t111 -188t-57.5 -67.5t-81.5 -18.5z" />
    <glyph glyph-name="ccircumflex" unicode="&#x109;" horiz-adv-x="1052" 
d="M593 -81q-194 -14 -342 107q-172 119 -204 360q-14 129 19 272q90 303 270 412t459 -14q161 -70 213 -183q-10 -45 -35 -88.5t-97 -61.5q-61 25 -124.5 63.5t-168.5 63.5t-205 -157q-66 -142 -66 -257t40 -205q109 -106 230 -99q64 11 128 50l95 51q34 30 79 41l60 -68.5
t60.5 -55t-117.5 -153.5q-138 -78 -294 -78zM788 1090q-33 0 -63 29q-226 137 -247 128t-278 -161q-83 -28 -116.5 -12t-42 47.5t33 156t174.5 244.5t213 98t155 -69.5t199 -186.5t111 -188t-57.5 -67.5t-81.5 -18.5z" />
    <glyph glyph-name="Cdot" unicode="&#x10a;" horiz-adv-x="1234" 
d="M1241 118q-276 -193 -511 -196.5t-403 137t-234 428.5t103.5 656.5t462 484t374.5 82.5q106 -46 149 -180q30 -101 6 -213q-16 -45 -46 -78.5t-227 -104t-309 -280.5t-99.5 -337t150.5 -146t234 39t161 101.5t159.5 -12t107.5 -133.5t-78 -248zM723 1728
q-3 -52 -32.5 -74.5t-75.5 -28.5t-84.5 4t-59.5 68t14.5 112.5t108.5 62.5t102.5 -41.5t26.5 -102.5z" />
    <glyph glyph-name="cdot" unicode="&#x10b;" horiz-adv-x="1052" 
d="M593 -81q-194 -14 -342 107q-172 119 -204 360q-14 129 19 272q90 303 270 412t459 -14q161 -70 213 -183q-10 -45 -35 -88.5t-97 -61.5q-61 25 -124.5 63.5t-168.5 63.5t-205 -157q-66 -142 -66 -257t40 -205q109 -106 230 -99q64 11 128 50l95 51q34 30 79 41l60 -68.5
t60.5 -55t-117.5 -153.5q-138 -78 -294 -78zM473 1278q-3 -52 -32.5 -74.5t-75.5 -28.5t-84.5 4t-59.5 68t14.5 112.5t108.5 62.5t102.5 -41.5t26.5 -102.5z" />
    <glyph glyph-name="Emacron" unicode="&#x112;" horiz-adv-x="1279" 
d="M459 1195q0 -106 -11 -257q295 43 337 -1.5t49 -142t-10 -178t-321 -104.5q-3 -114 12 -185q231 29 336 33.5t157.5 -124.5t4.5 -234t-336.5 -143t-425.5 -29.5t-168 287.5t-31 657.5t35.5 637.5t208 270.5t260.5 11t240 -19.5q165 -1 188.5 -113.5t24.5 -184.5
t-64.5 -123.5t-166 -52.5t-319.5 -5zM933 1795q4 -81 -55.5 -80.5t-297 4t-286.5 3.5q-97 1 -83 79q-4 75 53 76q76 23 186 23t302 -6.5t181 -98.5z" />
    <glyph glyph-name="emacron" unicode="&#x113;" horiz-adv-x="1122" 
d="M579 -70q-260 4 -380 117q-129 145 -160 373q7 257 143 450q127 182 380 195q203 14 302 -69q163 -76 193 -301q17 -104 -72 -179q-394 -263 -601 -176q-11 -141 198 -174q107 0 196 42l131.5 112.5t97.5 21.5q38 -34 58.5 -62.5t34.5 -66.5q55 -63 -213 -211
q-160 -68 -308 -72zM586 549q338 89 264 202.5t-243.5 60.5t-258.5 -157.5t238 -105.5zM764 1265q4 -81 -55.5 -80.5t-297 4t-286.5 3.5q-97 1 -83 79q-4 75 53 76q76 23 186 23t302 -6.5t181 -98.5z" />
    <glyph glyph-name="Ebreve" unicode="&#x114;" horiz-adv-x="1279" 
d="M459 1195q0 -106 -11 -257q295 43 337 -1.5t49 -142t-10 -178t-321 -104.5q-3 -114 12 -185q231 29 336 33.5t157.5 -124.5t4.5 -234t-336.5 -143t-425.5 -29.5t-168 287.5t-31 657.5t35.5 637.5t208 270.5t260.5 11t240 -19.5q165 -1 188.5 -113.5t24.5 -184.5
t-64.5 -123.5t-166 -52.5t-319.5 -5zM964 1973q43 -37 79.5 -78t-121 -152.5t-342 -104t-276.5 121t-115 242.5q-14 65 75.5 100t142 -51.5t104.5 -109.5t174.5 -21t183.5 52t95 1z" />
    <glyph glyph-name="ebreve" unicode="&#x115;" horiz-adv-x="1122" 
d="M579 -70q-260 4 -380 117q-129 145 -160 373q7 257 143 450q127 182 380 195q203 14 302 -69q163 -76 193 -301q17 -104 -72 -179q-394 -263 -601 -176q-11 -141 198 -174q107 0 196 42l131.5 112.5t97.5 21.5q38 -34 58.5 -62.5t34.5 -66.5q55 -63 -213 -211
q-160 -68 -308 -72zM586 549q338 89 264 202.5t-243.5 60.5t-258.5 -157.5t238 -105.5zM775 1473q43 -37 79.5 -78t-121 -152.5t-342 -104t-276.5 121t-115 242.5q-14 65 75.5 100t142 -51.5t104.5 -109.5t174.5 -21t183.5 52t95 1z" />
    <glyph glyph-name="Edot" unicode="&#x116;" horiz-adv-x="1279" 
d="M459 1195q0 -106 -11 -257q295 43 337 -1.5t49 -142t-10 -178t-321 -104.5q-3 -114 12 -185q231 29 336 33.5t157.5 -124.5t4.5 -234t-336.5 -143t-425.5 -29.5t-168 287.5t-31 657.5t35.5 637.5t208 270.5t260.5 11t240 -19.5q165 -1 188.5 -113.5t24.5 -184.5
t-64.5 -123.5t-166 -52.5t-319.5 -5zM653 1778q-3 -52 -32.5 -74.5t-75.5 -28.5t-84.5 4t-59.5 68t14.5 112.5t108.5 62.5t102.5 -41.5t26.5 -102.5z" />
    <glyph glyph-name="edot" unicode="&#x117;" horiz-adv-x="1122" 
d="M579 -70q-260 4 -380 117q-129 145 -160 373q7 257 143 450q127 182 380 195q203 14 302 -69q163 -76 193 -301q17 -104 -72 -179q-394 -263 -601 -176q-11 -141 198 -174q107 0 196 42l131.5 112.5t97.5 21.5q38 -34 58.5 -62.5t34.5 -66.5q55 -63 -213 -211
q-160 -68 -308 -72zM586 549q338 89 264 202.5t-243.5 60.5t-258.5 -157.5t238 -105.5zM423 1278q-3 -52 -32.5 -74.5t-75.5 -28.5t-84.5 4t-59.5 68t14.5 112.5t108.5 62.5t102.5 -41.5t26.5 -102.5z" />
    <glyph glyph-name="Gcircumflex" unicode="&#x11c;" horiz-adv-x="1392" 
d="M1463 585q-13 -313 -190.5 -531.5t-548 -208t-508 170t-159 434t94.5 590t355 469.5t445 148t333 -112.5t113.5 -200.5t-38 -129.5t-73.5 -99.5t-181.5 -37.5t-262.5 7t-233 -183t-124.5 -344t149.5 -276.5t266 121q-193 -10 -229.5 57t-40 176t101 159.5t376.5 42
t315 -51.5t43 -87q0 -65 -4 -113zM1018 1639q-33 0 -63 29q-226 137 -247 128t-278 -161q-83 -28 -116.5 -12t-42 47.5t33 156t174.5 244.5t213 98t155 -69.5t199 -186.5t111 -188t-57.5 -67.5t-81.5 -18.5z" />
    <glyph glyph-name="gcircumflex" unicode="&#x11d;" horiz-adv-x="1087" 
d="M1040 80q-21 -205 -56 -337q-45 -197 -123 -201q-197 -83 -353.5 -65t-313.5 71t-120 147q-25 101 159 200q125 -54 179 -81.5t160 -31.5q136 -14 161 50t23 178q-81 -85 -259.5 -67.5t-294.5 143.5t-131 333q-5 270 140 455q111 185 372 195q172 -10 227.5 -26.5
t168.5 -54.5q142 -48 117 -179q-4 -328 -56 -729zM568 814q-81 -20 -140 -96q-98 -118 -93 -295q-5 -105 50 -163t165 -68q299 25 309 357q-6 141 -103 210.5t-188 54.5zM808 1189q-33 0 -63 29q-226 137 -247 128t-278 -161q-83 -28 -116.5 -12t-42 47.5t33 156
t174.5 244.5t213 98t155 -69.5t199 -186.5t111 -188t-57.5 -67.5t-81.5 -18.5z" />
    <glyph glyph-name="Gdot" unicode="&#x120;" horiz-adv-x="1392" 
d="M1463 585q-13 -313 -190.5 -531.5t-548 -208t-508 170t-159 434t94.5 590t355 469.5t445 148t333 -112.5t113.5 -200.5t-38 -129.5t-73.5 -99.5t-181.5 -37.5t-262.5 7t-233 -183t-124.5 -344t149.5 -276.5t266 121q-193 -10 -229.5 57t-40 176t101 159.5t376.5 42
t315 -51.5t43 -87q0 -65 -4 -113zM713 1728q-3 -52 -32.5 -74.5t-75.5 -28.5t-84.5 4t-59.5 68t14.5 112.5t108.5 62.5t102.5 -41.5t26.5 -102.5z" />
    <glyph glyph-name="gdot" unicode="&#x121;" horiz-adv-x="1087" 
d="M1040 80q-21 -205 -56 -337q-45 -197 -123 -201q-197 -83 -353.5 -65t-313.5 71t-120 147q-25 101 159 200q125 -54 179 -81.5t160 -31.5q136 -14 161 50t23 178q-81 -85 -259.5 -67.5t-294.5 143.5t-131 333q-5 270 140 455q111 185 372 195q172 -10 227.5 -26.5
t168.5 -54.5q142 -48 117 -179q-4 -328 -56 -729zM568 814q-81 -20 -140 -96q-98 -118 -93 -295q-5 -105 50 -163t165 -68q299 25 309 357q-6 141 -103 210.5t-188 54.5zM553 1278q-3 -52 -32.5 -74.5t-75.5 -28.5t-84.5 4t-59.5 68t14.5 112.5t108.5 62.5t102.5 -41.5
t26.5 -102.5z" />
    <glyph glyph-name="Gcedilla" unicode="&#x122;" horiz-adv-x="1360" 
d="M812 -69q29 -389 -191 -423.5t-306 18.5t-73.5 132t66 123t95.5 13.5t70.5 14.5t-13.5 67.5l-216 121t-193 414.5t65 535.5t250.5 402.5t342 214.5t358.5 -49t180 -143t-33.5 -160t-114.5 -94.5t-192.5 18t-208.5 -13.5t-209.5 -224t-122 -351t143 -264.5t437.5 164
q-166 24 -319.5 -3t-117.5 161q-38 208 236.5 217t433 15.5t118 -244t-206.5 -437t-279 -225.5z" />
    <glyph glyph-name="gcedilla" unicode="&#x123;" horiz-adv-x="1087" 
d="M1040 80q-21 -205 -56 -337q-45 -197 -123 -201q-197 -83 -353.5 -65t-313.5 71t-120 147q-25 101 159 200q125 -54 179 -81.5t160 -31.5q136 -14 161 50t23 178q-81 -85 -259.5 -67.5t-294.5 143.5t-131 333q-5 270 140 455q111 185 372 195q172 -10 227.5 -26.5
t168.5 -54.5q142 -48 117 -179q-4 -328 -56 -729zM568 814q-81 -20 -140 -96q-98 -118 -93 -295q-5 -105 50 -163t165 -68q299 25 309 357q-6 141 -103 210.5t-188 54.5zM439 1360q12 -44 9 -72t-28 -64.5t-76.5 -41.5t-127 11t-70 135.5t67 252t152 136.5t104.5 -81
t-34 -92.5t-67.5 -33t-21.5 -41.5t39.5 -40.5t52.5 -68.5z" />
    <glyph glyph-name="Hcircumflex" unicode="&#x124;" horiz-adv-x="1573" 
d="M1422 1409l-41 -113q-5 -40 -18 -91.5t-28.5 -124t-17.5 -199t3 -328.5q0 -127 41.5 -238t67.5 -250q5 -82 -40.5 -94.5t-86.5 -32.5q-106 -26 -234 5q-10 46 -16 88t-6 198.5t-26.5 264t-622.5 33.5q-51 -90 -69 -255.5t-18 -256.5q36 -107 -4.5 -118t-86.5 0
q-46 -6 -83.5 -5.5t-83.5 16.5q20 147 24.5 354.5t15 324t1 209.5t-4 242.5t13 249l12.5 168.5q-31 98 37.5 98h109.5t102 -5t45 -98q-51 -75 -61.5 -234.5t-10.5 -239.5l37 -74l286 -21q369 -29 366 -2q72 164 67 355q-20 112 0 205q125 5 236 5q103 47 103 5q0 -15 -9 -41
zM1018 1639q-33 0 -63 29q-226 137 -247 128t-278 -161q-83 -28 -116.5 -12t-42 47.5t33 156t174.5 244.5t213 98t155 -69.5t199 -186.5t111 -188t-57.5 -67.5t-81.5 -18.5z" />
    <glyph glyph-name="hcircumflex" unicode="&#x125;" horiz-adv-x="1183" 
d="M805 242q3 88 -2.5 166.5t0.5 234.5q-42 79 -111 94.5t-174 -21.5q-113 -90 -103 -275.5t-69 -400.5q-28 -62 -87 -62q-41 -16 -127 -6t-71 112q29 621 52.5 946t19 367.5t-12.5 133t19 96.5t131 37q151 27 154 -114q5 -107 16.5 -206t13.5 -318q-17 -77 84.5 -25
t227.5 57q197 -16 243 -129q44 -76 45 -245l3 -212q29 -169 33 -326q-1 -100 -167 -101t-118 197zM908 1639q-33 0 -63 29q-226 137 -247 128t-278 -161q-83 -28 -116.5 -12t-42 47.5t33 156t174.5 244.5t213 98t155 -69.5t199 -186.5t111 -188t-57.5 -67.5t-81.5 -18.5z
" />
    <glyph glyph-name="Hbar" unicode="&#x126;" horiz-adv-x="1784" 
d="M1743 1211q5 -192 -188 -162q-1 -46 7.5 -244t3.5 -293.5t-14.5 -237.5t-87.5 -188t-134.5 0t-49.5 193t-8 265q-378 19 -782 -17q26 -95 13 -258t-15.5 -231.5t-38 -102t-89 -41.5t-112 15.5t-53 92l17.5 225.5t7 303.5t6 520.5q-187 -42 -177 144q1 180 205 108
q19 69 16.5 150t45.5 91t142.5 10t99 -38t4.5 -91.5t8.5 -89t244.5 -41.5q200 -5 318 -5q37 0 195 6q7 80 6 150.5t143 101.5q38 0 68 -27.5t30 -69.5q0 -15 -9 -41q-14 -39 -15 -107l21 1q-3 -1 57 -1q124 31 114 -91zM1312 1085q-307 -36 -766 -55q-10 -154 6 -239
q200 -32 410 15t355 44q3 110 -5 235z" />
    <glyph glyph-name="hbar" unicode="&#x127;" horiz-adv-x="1251" 
d="M934 247q-17 264 -45.5 322.5t-116 82t-173 -27t-101 -272t-27.5 -317.5q-40 -93 -110 -96t-117 9.5t-57 48.5t-9.5 92t10 270.5t44.5 769.5l-57 5q-140 -16 -135 139q6 79 52.5 90.5t113.5 21.5q11 142 34 173t139.5 35t90.5 -194q387 67 408 -53q21 -146 -20 -171
t-366 -41q-8 -129 -17 -243q143 198 331 169.5t285 -130.5t114 -364.5t15.5 -394t-58 -156.5t-119.5 -38t-77 52t-32 218z" />
    <glyph glyph-name="Itilde" unicode="&#x128;" horiz-adv-x="1119" 
d="M405 1280q-23 -291 -23 -556q0 -70 4 -173t4 -173q0 -94 16 -226t-44 -151q-66 0 -197.5 -18.5t-2.5 202.5q10 110 10 214q-5 160 -14 245t-9 215.5t-44 309.5q-90 296 137 325q256 96 163 -214zM805 1785q-40 -65 -69 -95q-56 -57 -147.5 -71.5t-180.5 36.5t-147.5 99.5
t-91.5 -18.5t-103 -36.5t-94.5 63t4 83.5t92 96.5t140 47t221 -66t192.5 -23.5t95.5 26.5t80.5 -49.5t8 -92z" />
    <glyph glyph-name="itilde" unicode="&#x129;" 
d="M343 92q-22 -110 -94.5 -114.5t-119 9t-50 86t-21.5 163.5t15 699q13 133 84 144.5t114 -7.5t56 -61.5t13 -87.5q10 -97 6 -234.5t-7 -216t-1 -195t5 -185.5zM525 1335q-40 -65 -69 -95q-56 -57 -147.5 -71.5t-180.5 36.5t-147.5 99.5t-91.5 -18.5t-103 -36.5t-94.5 63
t4 83.5t92 96.5t140 47t221 -66t192.5 -23.5t95.5 26.5t80.5 -49.5t8 -92z" />
    <glyph glyph-name="Imacron" unicode="&#x12a;" horiz-adv-x="1119" 
d="M405 1280q-23 -291 -23 -556q0 -70 4 -173t4 -173q0 -94 16 -226t-44 -151q-66 0 -197.5 -18.5t-2.5 202.5q10 110 10 214q-5 160 -14 245t-9 215.5t-44 309.5q-90 296 137 325q256 96 163 -214zM724 1715q4 -81 -55.5 -80.5t-297 4t-286.5 3.5q-97 1 -83 79q-4 75 53 76
q76 23 186 23t302 -6.5t181 -98.5z" />
    <glyph glyph-name="imacron" unicode="&#x12b;" 
d="M343 92q-22 -110 -94.5 -114.5t-119 9t-50 86t-21.5 163.5t15 699q13 133 84 144.5t114 -7.5t56 -61.5t13 -87.5q10 -97 6 -234.5t-7 -216t-1 -195t5 -185.5zM424 1265q4 -81 -55.5 -80.5t-297 4t-286.5 3.5q-97 1 -83 79q-4 75 53 76q76 23 186 23t302 -6.5t181 -98.5z
" />
    <glyph glyph-name="Ibreve" unicode="&#x12c;" horiz-adv-x="1119" 
d="M405 1280q-23 -291 -23 -556q0 -70 4 -173t4 -173q0 -94 16 -226t-44 -151q-66 0 -197.5 -18.5t-2.5 202.5q10 110 10 214q-5 160 -14 245t-9 215.5t-44 309.5q-90 296 137 325q256 96 163 -214zM745 1923q43 -37 79.5 -78t-121 -152.5t-342 -104t-276.5 121t-115 242.5
q-14 65 75.5 100t142 -51.5t104.5 -109.5t174.5 -21t183.5 52t95 1z" />
    <glyph glyph-name="ibreve" unicode="&#x12d;" 
d="M343 92q-22 -110 -94.5 -114.5t-119 9t-50 86t-21.5 163.5t15 699q13 133 84 144.5t114 -7.5t56 -61.5t13 -87.5q10 -97 6 -234.5t-7 -216t-1 -195t5 -185.5zM485 1473q43 -37 79.5 -78t-121 -152.5t-342 -104t-276.5 121t-115 242.5q-14 65 75.5 100t142 -51.5
t104.5 -109.5t174.5 -21t183.5 52t95 1z" />
    <glyph glyph-name="Iogonek" unicode="&#x12e;" horiz-adv-x="1119" 
d="M405 1280q-23 -291 -23 -556q0 -70 4 -173t4 -173q0 -94 16 -226t-44 -151q-66 0 -197.5 -18.5t-2.5 202.5q10 110 10 214q-5 160 -14 245t-9 215.5t-44 309.5q-90 296 137 325q256 96 163 -214zM577 -119q32 -16 46.5 -45.5t16.5 -65.5q11 -71 -98.5 -99.5t-202.5 -21.5
t-168 75.5t-79 170.5t62.5 196.5t176.5 96.5q56 2 72 -18t29 -75q16 -71 -41.5 -94t-69.5 -66t23.5 -76t69.5 -34t82 28.5t81 27.5z" />
    <glyph glyph-name="iogonek" unicode="&#x12f;" 
d="M251 1266q-48 0 -87.5 17.5t-84.5 63t6.5 152.5t156 86t125 -88t1.5 -115q0 -48 -34.5 -82t-82.5 -34zM336 90q9 -86 -25 -100t-83 -18q-66 4 -107.5 13.5t-32.5 104.5q0 98 -10.5 205.5t-8 210.5t-15.5 464q1 153 58.5 148t138.5 -47q76 -5 103.5 -32.5t20.5 -130.5
t-17 -229t-10 -229t-4 -196.5t-8 -163.5zM278 -119q32 -16 46.5 -45.5t16.5 -65.5q11 -71 -98.5 -99.5t-202.5 -21.5t-168 75.5t-79 170.5t62.5 196.5t176.5 96.5q56 2 72 -18t29 -75q16 -71 -41.5 -94t-69.5 -66t23.5 -76t69.5 -34t82 28.5t81 27.5z" />
    <glyph glyph-name="Jcircumflex" unicode="&#x134;" horiz-adv-x="1362" 
d="M956 1230l6 -232q-77 -591 -212 -837q-127 -214 -271 -255q-221 -36 -371 125q-98 131 -92 270q-6 195 121 159q117 -5 193 -34q15 -185 18.5 -267.5t95 -72t128.5 502.5q15 238 0 358q-11 135 -21 333q-37 189 -2 204.5t160.5 23t173.5 -77.5t73 -200zM948 1639
q-33 0 -63 29q-226 137 -247 128t-278 -161q-83 -28 -116.5 -12t-42 47.5t33 156t174.5 244.5t213 98t155 -69.5t199 -186.5t111 -188t-57.5 -67.5t-81.5 -18.5z" />
    <glyph glyph-name="jcircumflex" unicode="&#x135;" horiz-adv-x="963" 
d="M735 1218q-72 11 -220 160q-197 -226 -265.5 -240.5t-124.5 20.5t-66.5 78t18 106.5t177.5 205.5t247 142q55 0 146 -31l116 -98q62 -77 113 -163.5t9 -129.5t-150 -50zM543 367q-41 420 -41 560t151 148q77 7 89.5 -36t76.5 -333t49 -568.5t-18.5 -442t-104.5 -263.5
t-305 -86t-308.5 209.5t70 310t200.5 -10.5t69 -146.5t75 81t-3 577.5z" />
    <glyph glyph-name="Kcedilla" unicode="&#x136;" horiz-adv-x="1251" 
d="M1048 -138q-137 10 -443 236l-259 246l-16 -355v-150q-88 -26 -173 -22q-84 -5 -64 202q31 244 -6 679.5t-27 698.5q10 161 74.5 168t131.5 17q100 -25 110.5 -68t20.5 -117q-10 -122 -17 -286q-27 -178 9 -237q73 76 405 535q132 79 256.5 -88.5t-243.5 -379.5
q-141 -83 -229 -213q12 -177 137 -307q241 -213 369 -234q207 -72 79 -200q-62 -110 -115 -125zM138 -313q33 84 92 85q79 -19 126 -5.5t46 63t-36 76t-108 37.5q-72 7 -62.5 101t116 93t224.5 -104.5t113 -238.5t-74.5 -196.5t-175.5 -65t-197.5 37.5t-63.5 117z" />
    <glyph glyph-name="kcedilla" unicode="&#x137;" horiz-adv-x="1106" 
d="M784 125q-73 137 -237 398q-32 -72 -77 -145q-88 -165 -88 -312q0 -45 -27.5 -73t-65.5 -43q-101 -16 -168 38q-76 875 -16 1246t92.5 404t152.5 23q120 -26 147.5 -54t16.5 -160.5t-71 -630.5l356 266t213 87t70 -77t32 -126q53 -72 -287 -304q105 -265 212 -461
q57 -66 15 -120.5t-118 -88t-152 132.5zM58 -313q33 84 92 85q79 -19 126 -5.5t46 63t-36 76t-108 37.5q-72 7 -62.5 101t116 93t224.5 -104.5t113 -238.5t-74.5 -196.5t-175.5 -65t-197.5 37.5t-63.5 117z" />
    <glyph glyph-name="kgreenlandic" unicode="&#x138;" horiz-adv-x="917" 
d="M352 259q15 -114 18.5 -190.5t-55.5 -97.5t-110 -6q-101 0 -101 136q-19 75 -26 237l-18.5 430t165.5 294q143 -11 155 -116.5t6 -186.5q101 117 246 190t196.5 -25.5t-5 -162.5t-260.5 -232q193 -74 257.5 -193t66.5 -157t-26 -67t-87.5 -63t-135.5 9t-286 201z" />
    <glyph glyph-name="Lcedilla" unicode="&#x13b;" horiz-adv-x="1140" 
d="M841 -102q13 -269 -122.5 -340t-292.5 -27q-120 67 -108 146t52 116t82 0.5t82 -36t34 44.5t-93 59t-189 18t-166.5 39.5t-71 104t-2 447.5t26.5 702t41 355.5t164.5 31t170.5 -119.5q-25 -515 -45.5 -717.5t5.5 -385.5q193 -41 548 29q179 -16 166.5 -183t-107 -213
t-175.5 -71z" />
    <glyph glyph-name="lcedilla" unicode="&#x13c;" horiz-adv-x="718" 
d="M416 162q168 -36 225.5 -150t47.5 -260t-205.5 -184.5t-259 2t-50.5 113.5t58.5 98.5t123.5 -1.5t81 26t-34 75t-97 23.5t-145 24t-78.5 134t1 477.5t-10 540.5t-20.5 354.5t211 177t211 -193t-15 -387t-26 -503t-18 -367z" />
    <glyph glyph-name="Ncedilla" unicode="&#x145;" horiz-adv-x="1632" 
d="M1555 258q5 -89 -16 -323q-62 -20 -153 -24q-177 -42 -269 208q-259 299 -730 664q3 -213 -1.5 -371t20.5 -299q92 -253 -144 -248q-86 5 -148 25q-65 97 -55 167.5t16.5 130t17.5 127.5q10 92 8.5 185t4.5 165q0 81 9.5 202t9.5 187q0 63 -12 187.5t-12 187.5
q-36 158 -1 175.5t135 33.5q185 40 259 -142q208 -409 488 -620q186 -207 183.5 -111.5t9.5 299.5q-14 174 -25.5 247.5t29.5 138t234 72t153 -621.5q-5 -126 -8 -280.5t-3 -361.5zM228 -313q33 84 92 85q79 -19 126 -5.5t46 63t-36 76t-108 37.5q-72 7 -62.5 101t116 93
t224.5 -104.5t113 -238.5t-74.5 -196.5t-175.5 -65t-197.5 37.5t-63.5 117z" />
    <glyph glyph-name="ncedilla" unicode="&#x146;" horiz-adv-x="1072" 
d="M772 -89q-115 0 -101 50l12 179q22 161 29.5 242.5t14.5 114t-25.5 81.5t-109 71t-131 -47.5t-78.5 -146.5t-35 -285.5t-27.5 -235t-81.5 -29.5q-62 -4 -127 -5t-43.5 78.5t26 364.5t8.5 676q-7 109 28.5 112.5t113.5 18.5q168 4 160 -119q94 38 271 38q160 0 256 -130
q54 -112 50 -282l-3 -112l-9 -96q-7 -94 2 -211t-10 -308q-78 -30 -190 -19zM9 -313q33 84 92 85q79 -19 126 -5.5t46 63t-36 76t-108 37.5q-72 7 -62.5 101t116 93t224.5 -104.5t113 -238.5t-74.5 -196.5t-175.5 -65t-197.5 37.5t-63.5 117z" />
    <glyph glyph-name="Eng" unicode="&#x14a;" horiz-adv-x="1602" 
d="M1111 -591q-182 65 -201.5 142t37 153t105 48.5t99.5 -21t70.5 65.5t-259 249t-428.5 566q30 -201 21 -458.5t-202 -245t-225 47.5q-29 31 -29 74q0 42 -35 357t-11 658t70 424.5t201.5 72t358 -209t429.5 -706.5q3 301 14.5 480t194.5 187q206 -5 219 -255.5t6.5 -480.5
t3.5 -477t-47.5 -462t-391.5 -209z" />
    <glyph glyph-name="eng" unicode="&#x14b;" horiz-adv-x="1071" 
d="M739 461q-62 221 -154.5 261t-160 -65t-85.5 -408t-50.5 -316t-97.5 -18t-105 28.5t-33.5 196.5t-6 495t13.5 382.5t70.5 62.5t123.5 12t72 -105q174 119 365.5 84.5t250 -156t55 -365.5t10 -456.5t16 -348.5t-96 -270.5t-260.5 -119t-230 82t-93.5 157.5t-7 120.5
t50 58.5t95.5 13t98.5 -71.5t87 -68.5t75.5 40t15 131.5t-13 303.5t-5 339z" />
    <glyph glyph-name="Omacron" unicode="&#x14c;" horiz-adv-x="1635" 
d="M966 -67q-482 -48 -699 178t-223.5 575.5t175 626t470 319.5t490.5 -14.5t344.5 -249.5t144 -512.5t-108.5 -597.5t-593 -325zM732 1184q-243 -38 -263.5 -356.5t142 -397t311 -78t247 84t139 315t-146 351t-429.5 81.5zM1143 1715q4 -81 -55.5 -80.5t-297 4t-286.5 3.5
q-97 1 -83 79q-4 75 53 76q76 23 186 23t302 -6.5t181 -98.5z" />
    <glyph glyph-name="omacron" unicode="&#x14d;" horiz-adv-x="1077" 
d="M546 -99q-198 10 -371 130q-131 142 -138 399q1 239 114 408q157 241 424 203q200 0 324 -169q88 -155 85 -363q4 -236 -92 -393q-100 -185 -346 -215zM306 401q-15 -110 54 -188q66 -49 145 -39q100 10 186 89q78 57 96 245q-44 208 -194.5 205t-215.5 -98.5t-71 -213.5
zM744 1265q4 -81 -55.5 -80.5t-297 4t-286.5 3.5q-97 1 -83 79q-4 75 53 76q76 23 186 23t302 -6.5t181 -98.5z" />
    <glyph glyph-name="Obreve" unicode="&#x14e;" horiz-adv-x="1635" 
d="M966 -67q-482 -48 -699 178t-223.5 575.5t175 626t470 319.5t490.5 -14.5t344.5 -249.5t144 -512.5t-108.5 -597.5t-593 -325zM732 1184q-243 -38 -263.5 -356.5t142 -397t311 -78t247 84t139 315t-146 351t-429.5 81.5zM1208 1923q43 -37 79.5 -78t-121 -152.5
t-342 -104t-276.5 121t-115 242.5q-14 65 75.5 100t142 -51.5t104.5 -109.5t174.5 -21t183.5 52t95 1z" />
    <glyph glyph-name="obreve" unicode="&#x14f;" horiz-adv-x="1077" 
d="M546 -99q-198 10 -371 130q-131 142 -138 399q1 239 114 408q157 241 424 203q200 0 324 -169q88 -155 85 -363q4 -236 -92 -393q-100 -185 -346 -215zM306 401q-15 -110 54 -188q66 -49 145 -39q100 10 186 89q78 57 96 245q-44 208 -194.5 205t-215.5 -98.5t-71 -213.5
zM805 1473q43 -37 79.5 -78t-121 -152.5t-342 -104t-276.5 121t-115 242.5q-14 65 75.5 100t142 -51.5t104.5 -109.5t174.5 -21t183.5 52t95 1z" />
    <glyph glyph-name="Rcedilla" unicode="&#x156;" horiz-adv-x="1287" 
d="M738 84q-192 146 -341 298l-7 -117l5 -197q0 -44 -28.5 -73.5t-101.5 -29.5q-136 10 -177 5t-19 325.5t37.5 598.5t13.5 515q-11 181 218 166l226 -28q152 -17 261 -63q439 -224 415 -559q14 -157 -104 -294q-136 -108 -336 -118q311 -167 337 -204t9 -103t-82.5 -171
t-114.5 -85.5t-211 134.5zM552 1311l-94 -28l-44 -81q7 -74 7 -121q0 -80 -13 -199l-1 -86q-6 -113 23.5 -114t44.5 -1q245 49 314.5 76.5t112.5 75.5t45.5 154.5t-91.5 196.5q-145 110 -304 127zM58 -313q33 84 92 85q79 -19 126 -5.5t46 63t-36 76t-108 37.5
q-72 7 -62.5 101t116 93t224.5 -104.5t113 -238.5t-74.5 -196.5t-175.5 -65t-197.5 37.5t-63.5 117z" />
    <glyph glyph-name="rcedilla" unicode="&#x157;" horiz-adv-x="977" 
d="M806 614q-86 0 -86 99q0 19 -33 56t-75 18t-108 -63t-93 -632q258 -120 215.5 -335.5t-243 -218t-268 44t-60.5 126.5t68.5 101t95 -27t68 -42.5t41.5 67.5t-134 82t-131.5 438t3 562.5t155.5 144.5q100 5 106 -63q173 143 397.5 117t229 -186t-1.5 -236t-146 -53z" />
    <glyph glyph-name="Scircumflex" unicode="&#x15c;" horiz-adv-x="1420" 
d="M130 149q-62 104 -82.5 187.5t126.5 164.5q168 100 277 92q27 -257 103.5 -308t190 -39.5t196 93t51.5 109t-156 45.5t-197.5 64t-231.5 110q-180 133 -156 326q-29 178 107 340q183 144 470 163q164 4 300 -38q233 -62 20 -514q-68 -46 -267 58q-59 24 12.5 143.5
t-31.5 142.5q-113 -12 -227 -96q-69 -78 -59 -168q19 -79 100 -127q55 -13 213 -24q229 -17 358 -144q118 -116 118 -283q0 -238 -220 -380q-191 -123 -386 -175q-169 -24 -406 36q-162 105 -223 222zM958 1639q-33 0 -63 29q-226 137 -247 128t-278 -161
q-83 -28 -116.5 -12t-42 47.5t33 156t174.5 244.5t213 98t155 -69.5t199 -186.5t111 -188t-57.5 -67.5t-81.5 -18.5z" />
    <glyph glyph-name="scircumflex" unicode="&#x15d;" horiz-adv-x="997" 
d="M744 781q-12 63 -43.5 89t-191.5 -14q-157 -75 -20.5 -116t202 -73.5t196.5 -138.5q88 -105 77 -308q-19 -185 -155.5 -274t-341.5 -70q-150 26 -286.5 93t-144.5 137q29 164 70 251q38 195 172 110.5t177 -132.5q144 -107 186 -64q78 119 -112 167l-104 23
q-133 29 -189 68q-81 56 -171 158q-30 258 238 373q238 113 364 120t182.5 -8t93.5 -65.5t42 -128.5t5 -122q-22 -86 -49.5 -106.5t-86 -9.5t-110.5 41zM659 1189q-33 0 -63 29q-226 137 -247 128t-278 -161q-83 -28 -116.5 -12t-42 47.5t33 156t174.5 244.5t213 98
t155 -69.5t199 -186.5t111 -188t-57.5 -67.5t-81.5 -18.5z" />
    <glyph glyph-name="Tbar" unicode="&#x166;" horiz-adv-x="1376" 
d="M1230 1201q-286 23 -479 41q-7 -97 14 -357l169 6q86 4 114 -45.5t9.5 -120.5t-104.5 -90l-168 -16q5 -108 5 -231q0 -35 7 -106t7 -107q0 -183 -85 -195t-135 5t-57 79t5.5 273.5t-22.5 309.5q-108 -26 -124.5 36.5t5 117t103.5 73.5q30 134 -32 364q-184 -8 -330 3
q-100 18 -105 117t14.5 144.5t357.5 35.5t522.5 -16t287 -30t126.5 -167t-105 -124z" />
    <glyph glyph-name="tbar" unicode="&#x167;" horiz-adv-x="823" 
d="M545 786l-7 -93q61 4 126 -33q91 -131 -12 -204q-76 0 -129 -12q12 -172 28 -319.5t-68.5 -159t-128 -1.5t-38.5 63q0 38 3 114t3 114q0 103 -3.5 154.5t-42 37.5t-61.5 -2.5t-37.5 47t-1 101.5t132.5 96l-12 123q-74 3 -208 8q-75 8 -68.5 90t41 114.5t176.5 24.5
q4 112 9 160t2.5 99.5t47 70t132 -6.5t68.5 -202q0 -28 1 -115q226 38 268.5 1t31 -117t-98.5 -104.5t-154 -48.5z" />
    <glyph glyph-name="Utilde" unicode="&#x168;" horiz-adv-x="1509" 
d="M197 47q-101 154 -108 383q-39 219 -25 623q-5 125 -9 240q-8 106 8 214q93 34 221 20q92 5 78 -222l24 -558q-63 -611 303 -471q149 79 207.5 193t-25.5 357q-129 290 -187 392t334 182q86 -56 131 -211l101 -297q193 -898 -336.5 -970.5t-716.5 125.5zM1054 1785
q-40 -65 -69 -95q-56 -57 -147.5 -71.5t-180.5 36.5t-147.5 99.5t-91.5 -18.5t-103 -36.5t-94.5 63t4 83.5t92 96.5t140 47t221 -66t192.5 -23.5t95.5 26.5t80.5 -49.5t8 -92z" />
    <glyph glyph-name="utilde" unicode="&#x169;" horiz-adv-x="1065" 
d="M954 18q0 -75 -45 -86.5t-87 -11.5q-106 -21 -112 38q-111 -8 -227 -33q-106 -4 -248.5 36t-155 269.5t-12.5 436.5q0 137 -6 229q-15 116 121 101q71 4 116 0t52 -54q-21 -153 -11 -285.5t11 -199t35.5 -116t118.5 -67.5q88 -3 146 78l14 89q-30 263 -58 419
q-35 106 130 113q143 25 152 -39l40.5 -288.5t25.5 -628.5zM805 1335q-40 -65 -69 -95q-56 -57 -147.5 -71.5t-180.5 36.5t-147.5 99.5t-91.5 -18.5t-103 -36.5t-94.5 63t4 83.5t92 96.5t140 47t221 -66t192.5 -23.5t95.5 26.5t80.5 -49.5t8 -92z" />
    <glyph glyph-name="Umacron" unicode="&#x16a;" horiz-adv-x="1509" 
d="M197 47q-101 154 -108 383q-39 219 -25 623q-5 125 -9 240q-8 106 8 214q93 34 221 20q92 5 78 -222l24 -558q-63 -611 303 -471q149 79 207.5 193t-25.5 357q-129 290 -187 392t334 182q86 -56 131 -211l101 -297q193 -898 -336.5 -970.5t-716.5 125.5zM983 1715
q4 -81 -55.5 -80.5t-297 4t-286.5 3.5q-97 1 -83 79q-4 75 53 76q76 23 186 23t302 -6.5t181 -98.5z" />
    <glyph glyph-name="umacron" unicode="&#x16b;" horiz-adv-x="1065" 
d="M954 18q0 -75 -45 -86.5t-87 -11.5q-106 -21 -112 38q-111 -8 -227 -33q-106 -4 -248.5 36t-155 269.5t-12.5 436.5q0 137 -6 229q-15 116 121 101q71 4 116 0t52 -54q-21 -153 -11 -285.5t11 -199t35.5 -116t118.5 -67.5q88 -3 146 78l14 89q-30 263 -58 419
q-35 106 130 113q143 25 152 -39l40.5 -288.5t25.5 -628.5zM739 1265q4 -81 -55.5 -80.5t-297 4t-286.5 3.5q-97 1 -83 79q-4 75 53 76q76 23 186 23t302 -6.5t181 -98.5z" />
    <glyph glyph-name="Ubreve" unicode="&#x16c;" horiz-adv-x="1509" 
d="M197 47q-101 154 -108 383q-39 219 -25 623q-5 125 -9 240q-8 106 8 214q93 34 221 20q92 5 78 -222l24 -558q-63 -611 303 -471q149 79 207.5 193t-25.5 357q-129 290 -187 392t334 182q86 -56 131 -211l101 -297q193 -898 -336.5 -970.5t-716.5 125.5zM1014 1923
q43 -37 79.5 -78t-121 -152.5t-342 -104t-276.5 121t-115 242.5q-14 65 75.5 100t142 -51.5t104.5 -109.5t174.5 -21t183.5 52t95 1z" />
    <glyph glyph-name="ubreve" unicode="&#x16d;" horiz-adv-x="1065" 
d="M954 18q0 -75 -45 -86.5t-87 -11.5q-106 -21 -112 38q-111 -8 -227 -33q-106 -4 -248.5 36t-155 269.5t-12.5 436.5q0 137 -6 229q-15 116 121 101q71 4 116 0t52 -54q-21 -153 -11 -285.5t11 -199t35.5 -116t118.5 -67.5q88 -3 146 78l14 89q-30 263 -58 419
q-35 106 130 113q143 25 152 -39l40.5 -288.5t25.5 -628.5zM745 1473q43 -37 79.5 -78t-121 -152.5t-342 -104t-276.5 121t-115 242.5q-14 65 75.5 100t142 -51.5t104.5 -109.5t174.5 -21t183.5 52t95 1z" />
    <glyph glyph-name="Uogonek" unicode="&#x172;" horiz-adv-x="1509" 
d="M197 47q-101 154 -108 383q-39 219 -25 623q-5 125 -9 240q-8 106 8 214q93 34 221 20q92 5 78 -222l24 -558q-63 -611 303 -471q149 79 207.5 193t-25.5 357q-129 290 -187 392t334 182q86 -56 131 -211l101 -297q193 -898 -336.5 -970.5t-716.5 125.5zM827 -218
q32 -16 46.5 -45.5t16.5 -65.5q11 -71 -98.5 -99.5t-202.5 -21.5t-168 75.5t-79 170.5t62.5 196.5t176.5 96.5q56 2 72 -18t29 -75q16 -71 -41.5 -94t-69.5 -66t23.5 -76t69.5 -34t82 28.5t81 27.5z" />
    <glyph glyph-name="uogonek" unicode="&#x173;" horiz-adv-x="1065" 
d="M954 18q0 -75 -45 -86.5t-87 -11.5q-106 -21 -112 38q-111 -8 -227 -33q-106 -4 -248.5 36t-155 269.5t-12.5 436.5q0 137 -6 229q-15 116 121 101q71 4 116 0t52 -54q-21 -153 -11 -285.5t11 -199t35.5 -116t118.5 -67.5q88 -3 146 78l14 89q-30 263 -58 419
q-35 106 130 113q143 25 152 -39l40.5 -288.5t25.5 -628.5zM827 -218q32 -16 46.5 -45.5t16.5 -65.5q11 -71 -98.5 -99.5t-202.5 -21.5t-168 75.5t-79 170.5t62.5 196.5t176.5 96.5q56 2 72 -18t29 -75q16 -71 -41.5 -94t-69.5 -66t23.5 -76t69.5 -34t82 28.5t81 27.5z" />
    <glyph glyph-name="Wcircumflex" unicode="&#x174;" horiz-adv-x="2129" 
d="M1322 -131q-222 -5 -237 79q-36 538 -88 584q-127 -277 -262 -487q-10 -45 -50 -74q-36 -27 -82 -27q-297 -76 -282 182q-139 769 -250 1247q-33 42 -2 106q30 47 135 47q176 46 171 -61q28 -51 37 -207q39 -186 83 -446l92 -239q112 45 244 234q88 188 178 177.5
t162.5 -30.5t130.5 -152l17 -196l20 -231q63 175 134 476q123 555 242 532t232 -138l-315 -928q-41 -119 -141 -346q-36 -67 -169 -102zM1298 1639q-33 0 -63 29q-226 137 -247 128t-278 -161q-83 -28 -116.5 -12t-42 47.5t33 156t174.5 244.5t213 98t155 -69.5t199 -186.5
t111 -188t-57.5 -67.5t-81.5 -18.5z" />
    <glyph glyph-name="wcircumflex" unicode="&#x175;" horiz-adv-x="1401" 
d="M1294 678q-43 -109 -155 -464q-60 -143 -108 -181t-175 -26q-133 -9 -145.5 116t-59.5 250l-107 -152l-85 -178q-13 -38 -38 -58q-16 -37 -128 -28q-146 -39 -161 224q-36 172 -58 423q-19 268 -26 336q3 113 32.5 124.5t74.5 11.5t120 -13q37 8 45 -226l26 -154l21 -176
q110 129 186 285q41 87 140 98q143 -7 171 -113q55 -78 55 -346q42 176 162 527q13 122 93.5 118t157.5 -93q25 -68 -38 -305zM898 1189q-33 0 -63 29q-226 137 -247 128t-278 -161q-83 -28 -116.5 -12t-42 47.5t33 156t174.5 244.5t213 98t155 -69.5t199 -186.5t111 -188
t-57.5 -67.5t-81.5 -18.5z" />
    <glyph glyph-name="Ycircumflex" unicode="&#x176;" horiz-adv-x="1301" 
d="M598 -82q-24 -68 -346 -26q-80 49 74 342l152 360q15 27 -97 174q-140 158 -252 365t11 285.5t203 30.5l312 -455q34 -59 307 533q68 133 163 48q65 -30 114 -68t21.5 -103t-232 -483t-430.5 -1003zM788 1639q-33 0 -63 29q-226 137 -247 128t-278 -161
q-83 -28 -116.5 -12t-42 47.5t33 156t174.5 244.5t213 98t155 -69.5t199 -186.5t111 -188t-57.5 -67.5t-81.5 -18.5z" />
    <glyph glyph-name="ycircumflex" unicode="&#x177;" horiz-adv-x="1066" 
d="M710 -424q-117 -49 -192 -22q-79 10 -116.5 25.5t-32.5 176.5q22 169 172 466l-221 229l-216 306q-83 142 -52.5 213t79.5 127.5t159 -14.5q91 -55 173.5 -167.5t241.5 -300.5l141 344q37 86 114 121q127 -4 176 -53.5t54 -140.5q-76 -183 -226.5 -634.5t-253.5 -675.5z
M689 1189q-33 0 -63 29q-226 137 -247 128t-278 -161q-83 -28 -116.5 -12t-42 47.5t33 156t174.5 244.5t213 98t155 -69.5t199 -186.5t111 -188t-57.5 -67.5t-81.5 -18.5z" />
    <glyph glyph-name="uF003" unicode="&#xf003;" horiz-adv-x="416" 
d="M382 1544q-11 -125 -71 -123t-77.5 -13.5t24.5 -61t9 -87.5t-105 -47t-88 67.5t-26 161t22.5 175t113 107t145 -16t53.5 -162.5z" />
    <glyph glyph-name="uF004" unicode="&#xf004;" horiz-adv-x="380" 
d="M336 1554q13 -138 -44.5 -254t-131.5 -113t-96 47t-10.5 85.5t50 66t44 42t-39 40t-59.5 86.5t29.5 121t145 37.5t112.5 -158.5z" />
    <glyph glyph-name="uF005" unicode="&#xf005;" horiz-adv-x="407" 
d="M329 1360q12 -44 9 -72t-28 -64.5t-76.5 -41.5t-127 11t-70 135.5t67 252t152 136.5t104.5 -81t-34 -92.5t-67.5 -33t-21.5 -41.5t39.5 -40.5t52.5 -68.5z" />
    <glyph glyph-name="longs" unicode="&#x17f;" horiz-adv-x="766" 
d="M752 1502q0 -200 -131.5 -197t-196.5 -59.5t-59.5 -164.5t12 -565.5t15.5 -547.5t-127 -106t-157 -3.5t-26.5 79.5t-22.5 561t47 786t240 341t291 52.5t115 -176.5z" />
    <glyph glyph-name="Aringacute" unicode="&#x1fa;" horiz-adv-x="1498" 
d="M977 284q-129 8 -320 -1q-17 -103 -73 -216t-182.5 -137.5t-239 15t-123.5 167t145.5 523.5t323 661t518.5 210q195 -30 269.5 -261.5t153.5 -682t43.5 -516t-115 -91.5t-232.5 -22.5t-168 351.5zM676 738q-6 -93 210 -73q224 -8 155 253q-5 160 -126 199
q-136 19 -239 -379zM763 1496q73 3 123 31.5t23 100t-67.5 99t-128 17t-90.5 -79.5t32 -119.5t108 -48.5zM412 1646q7 111 108 193t270 93t248.5 -76t67 -219.5t-100 -223.5t-253.5 -82t-256.5 107t-83.5 208zM819 2164q-8 -45 -62.5 -117t-87 -106.5t-67 -28.5t-59 25.5
t-36.5 38.5t26.5 108.5l68.5 155.5t104.5 44t98 -48.5t14.5 -71.5z" />
    <glyph glyph-name="aringacute" unicode="&#x1fb;" horiz-adv-x="1048" 
d="M992 -129q-99 -68 -181 80q-118 -81 -203.5 -78.5t-203.5 38t-243 145.5q-114 132 -104 395q21 249 187.5 421t397.5 172q87 0 195 -45q74 -34 109.5 -83.5t40.5 -96.5t16 -129t2.5 -212t6.5 -205.5t31.5 -142t56.5 -132.5q-4 -46 -26.5 -68.5t-81.5 -58.5zM572 790
q-147 -62 -189.5 -131.5t-61 -229.5t84.5 -225.5t296 -12.5q47 44 59 114q37 192 37.5 268.5t-7.5 112t-57 73.5t-162 31zM408 1134q73 3 123 31.5t23 100t-67.5 99t-128 17t-90.5 -79.5t32 -119.5t108 -48.5zM57 1284q7 111 108 193t270 93t248.5 -76t67 -219.5
t-100 -223.5t-253.5 -82t-256.5 107t-83.5 208zM419 1914q-8 -45 -62.5 -117t-87 -106.5t-67 -28.5t-59 25.5t-36.5 38.5t26.5 108.5l68.5 155.5t104.5 44t98 -48.5t14.5 -71.5z" />
    <glyph glyph-name="AEacute" unicode="&#x1fc;" horiz-adv-x="2226" 
d="M481 413l-10 -79q-2 -172 2 -277.5t-92.5 -136.5t-220 -12t-97.5 315q-5 474 171 911.5t602 478.5q201 -64 404 -1.5t484 4.5q115 -36 89 -117q-12 -63 -29.5 -129.5t-115 -64t-192 18.5t-173 -4t-127 -85.5t-17.5 -329.5l304 32q229 -7 75 -345h-398q2 -292 24 -406
q138 -12 257.5 10.5t186 20.5t60.5 -152.5t-116 -162.5q-514 -83 -711 25q-43 98 -48 215q-11 173 -27.5 256.5t-284.5 14.5zM562 923q-15 -148 84 -168t171 -18.5t83.5 175.5t3.5 225.5t-110 100.5t-159 -59t-73 -256zM1406 1665q-77 4 -109 29t-55 64.5t5 100.5t114 145.5
t141.5 129t117 59.5t91 -17t45 -80t-128 -241t-221.5 -190z" />
    <glyph glyph-name="Oslashacute" unicode="&#x1fe;" horiz-adv-x="1635" 
d="M1338 971q-69 -56 -218.5 -233t-450.5 -471q81 -31 277 7.5t339.5 182t52.5 514.5zM1113 1155q-78 73 -234.5 50.5t-292 -181.5t-120.5 -450q321 241 647 581zM177 -39q-88 56 -93.5 94t3.5 116l84 112q-102 91 -117.5 365.5t265.5 638.5q280 304 643 289
q243 -61 372 -168q54 58 88.5 55t83 -49t74 -113.5t-32.5 -114.5q66 -200 58.5 -449t-201.5 -536t-588 -262q-261 0 -375 82l-123 -107q-84 -15 -141 47zM666 1615q-77 4 -109 29t-55 64.5t5 100.5t114 145.5t141.5 129t117 59.5t91 -17t45 -80t-128 -241t-221.5 -190z" />
    <glyph glyph-name="oslashacute" unicode="&#x1ff;" horiz-adv-x="1077" 
d="M759 635l-349 -376q73 -95 211.5 -26.5t164.5 199t-27 203.5zM297 414q177 220 350 392q-44 30 -148 17.5t-167 -127.5t-35 -282zM169 -35q-74 14 -86.5 43l-28 64.5t62.5 119.5q-40 80 -45 244q-6 226 105 425.5t399 175.5q156 0 206 -78q64 49 118 -2.5t51.5 -79.5
t-31.5 -74q103 -182 79.5 -372t-151 -347t-326.5 -158.5t-263 111.5q-44 -61 -90 -72zM416 1165q-77 4 -109 29t-55 64.5t5 100.5t114 145.5t141.5 129t117 59.5t91 -17t45 -80t-128 -241t-221.5 -190z" />
    <glyph glyph-name="anoteleia" unicode="&#x387;" horiz-adv-x="510" 
d="M180 589q-48 -3 -94 28.5t-45 93.5t30.5 108.5t111 39t113 -53.5t18.5 -93.5t-49.5 -83.5t-84.5 -39z" />
    <glyph glyph-name="Wgrave" unicode="&#x1e80;" horiz-adv-x="2129" 
d="M1322 -131q-222 -5 -237 79q-36 538 -88 584q-127 -277 -262 -487q-10 -45 -50 -74q-36 -27 -82 -27q-297 -76 -282 182q-139 769 -250 1247q-33 42 -2 106q30 47 135 47q176 46 171 -61q28 -51 37 -207q39 -186 83 -446l92 -239q112 45 244 234q88 188 178 177.5
t162.5 -30.5t130.5 -152l17 -196l20 -231q63 175 134 476q123 555 242 532t232 -138l-315 -928q-41 -119 -141 -346q-36 -67 -169 -102zM1164 1702q-19 -29 -51 -54t-74 -37q-40 -10 -97 70l-81 130q-54 96 -110 136q-112 35 -66 91q22 28 52 62t64 35q121 -17 240 -157
q150 -235 123 -276z" />
    <glyph glyph-name="wgrave" unicode="&#x1e81;" horiz-adv-x="1401" 
d="M1294 678q-43 -109 -155 -464q-60 -143 -108 -181t-175 -26q-133 -9 -145.5 116t-59.5 250l-107 -152l-85 -178q-13 -38 -38 -58q-16 -37 -128 -28q-146 -39 -161 224q-36 172 -58 423q-19 268 -26 336q3 113 32.5 124.5t74.5 11.5t120 -13q37 8 45 -226l26 -154l21 -176
q110 129 186 285q41 87 140 98q143 -7 171 -113q55 -78 55 -346q42 176 162 527q13 122 93.5 118t157.5 -93q25 -68 -38 -305zM864 1252q-19 -29 -51 -54t-74 -37q-40 -10 -97 70l-81 130q-54 96 -110 136q-112 35 -66 91q22 28 52 62t64 35q121 -17 240 -157
q150 -235 123 -276z" />
    <glyph glyph-name="Wacute" unicode="&#x1e82;" horiz-adv-x="2129" 
d="M1322 -131q-222 -5 -237 79q-36 538 -88 584q-127 -277 -262 -487q-10 -45 -50 -74q-36 -27 -82 -27q-297 -76 -282 182q-139 769 -250 1247q-33 42 -2 106q30 47 135 47q176 46 171 -61q28 -51 37 -207q39 -186 83 -446l92 -239q112 45 244 234q88 188 178 177.5
t162.5 -30.5t130.5 -152l17 -196l20 -231q63 175 134 476q123 555 242 532t232 -138l-315 -928q-41 -119 -141 -346q-36 -67 -169 -102zM926 1615q-77 4 -109 29t-55 64.5t5 100.5t114 145.5t141.5 129t117 59.5t91 -17t45 -80t-128 -241t-221.5 -190z" />
    <glyph glyph-name="wacute" unicode="&#x1e83;" horiz-adv-x="1401" 
d="M1294 678q-43 -109 -155 -464q-60 -143 -108 -181t-175 -26q-133 -9 -145.5 116t-59.5 250l-107 -152l-85 -178q-13 -38 -38 -58q-16 -37 -128 -28q-146 -39 -161 224q-36 172 -58 423q-19 268 -26 336q3 113 32.5 124.5t74.5 11.5t120 -13q37 8 45 -226l26 -154l21 -176
q110 129 186 285q41 87 140 98q143 -7 171 -113q55 -78 55 -346q42 176 162 527q13 122 93.5 118t157.5 -93q25 -68 -38 -305zM556 1165q-77 4 -109 29t-55 64.5t5 100.5t114 145.5t141.5 129t117 59.5t91 -17t45 -80t-128 -241t-221.5 -190z" />
    <glyph glyph-name="Wdieresis" unicode="&#x1e84;" horiz-adv-x="2129" 
d="M1322 -131q-222 -5 -237 79q-36 538 -88 584q-127 -277 -262 -487q-10 -45 -50 -74q-36 -27 -82 -27q-297 -76 -282 182q-139 769 -250 1247q-33 42 -2 106q30 47 135 47q176 46 171 -61q28 -51 37 -207q39 -186 83 -446l92 -239q112 45 244 234q88 188 178 177.5
t162.5 -30.5t130.5 -152l17 -196l20 -231q63 175 134 476q123 555 242 532t232 -138l-315 -928q-41 -119 -141 -346q-36 -67 -169 -102zM776 1894q121 -8 135 -112t-27.5 -156.5t-168 -49.5t-146.5 98t33.5 162t173.5 58zM1363 1909q60 -23 85 -62t6 -123t-130 -95
t-169.5 44t-38 144.5t103.5 102t143 -10.5z" />
    <glyph glyph-name="wdieresis" unicode="&#x1e85;" horiz-adv-x="1401" 
d="M1294 678q-43 -109 -155 -464q-60 -143 -108 -181t-175 -26q-133 -9 -145.5 116t-59.5 250l-107 -152l-85 -178q-13 -38 -38 -58q-16 -37 -128 -28q-146 -39 -161 224q-36 172 -58 423q-19 268 -26 336q3 113 32.5 124.5t74.5 11.5t120 -13q37 8 45 -226l26 -154l21 -176
q110 129 186 285q41 87 140 98q143 -7 171 -113q55 -78 55 -346q42 176 162 527q13 122 93.5 118t157.5 -93q25 -68 -38 -305zM386 1444q121 -8 135 -112t-27.5 -156.5t-168 -49.5t-146.5 98t33.5 162t173.5 58zM973 1459q60 -23 85 -62t6 -123t-130 -95t-169.5 44
t-38 144.5t103.5 102t143 -10.5z" />
    <glyph glyph-name="Ygrave" unicode="&#x1ef2;" horiz-adv-x="1301" 
d="M598 -82q-24 -68 -346 -26q-80 49 74 342l152 360q15 27 -97 174q-140 158 -252 365t11 285.5t203 30.5l312 -455q34 -59 307 533q68 133 163 48q65 -30 114 -68t21.5 -103t-232 -483t-430.5 -1003zM794 1702q-19 -29 -51 -54t-74 -37q-40 -10 -97 70l-81 130
q-54 96 -110 136q-112 35 -66 91q22 28 52 62t64 35q121 -17 240 -157q150 -235 123 -276z" />
    <glyph glyph-name="ygrave" unicode="&#x1ef3;" horiz-adv-x="1066" 
d="M710 -424q-117 -49 -192 -22q-79 10 -116.5 25.5t-32.5 176.5q22 169 172 466l-221 229l-216 306q-83 142 -52.5 213t79.5 127.5t159 -14.5q91 -55 173.5 -167.5t241.5 -300.5l141 344q37 86 114 121q127 -4 176 -53.5t54 -140.5q-76 -183 -226.5 -634.5t-253.5 -675.5z
M614 1252q-19 -29 -51 -54t-74 -37q-40 -10 -97 70l-81 130q-54 96 -110 136q-112 35 -66 91q22 28 52 62t64 35q121 -17 240 -157q150 -235 123 -276z" />
    <glyph glyph-name="radicalex" unicode="&#x203e;" horiz-adv-x="1619" 
d="M1330 1383q-1106 -1 -1193 35t-84 177t230 133t674.5 -21t503 -20t76.5 -61.5t30 -140t-237 -102.5z" />
    <glyph glyph-name="afii08941" unicode="&#x20a4;" horiz-adv-x="1410" 
d="M1380 203q0 -56 -22 -119q-79 -234 -296 -272t-430.5 -1t-334 38.5t-158 36.5t-37.5 115t60 106.5t103 63.5q49 90 41 227q-81 10 -91 43q-46 183 37 207q23 69 -7 120q-144 1 -155 100q-60 203 101 202q33 202 153 371t372 191t396.5 -76t60.5 -215q-72 -110 -163.5 -62
t-183 48t-170 -62.5t-114.5 -124.5t92 -73q218 9 107 -228q-79 -33 -156 -21q-31 -27 -82 -15q-26 -76 1 -126q120 -9 202.5 7t69 -119.5t-66 -154.5t-113 -19t-71.5 -68.5t-19 -110.5q189 -64 327 -85.5t212.5 0.5t113 97t130 58.5t91.5 -79.5z" />
    <glyph glyph-name="estimated" unicode="&#x212e;" horiz-adv-x="1141" 
d="M1080 583q-24 -160 -435 -96.5t-358 -88.5t215 -208t298 16.5t163 37.5t48.5 -80.5t-72 -114.5t-331.5 -69t-383.5 144.5t-166.5 409.5t115 444.5t423 184.5t398 -207.5t86 -372.5zM364 791q16 -140 250.5 -133.5t233 99t-36.5 123.5t-118.5 51.5t-208.5 13t-120 -153.5z
" />
    <glyph glyph-name="oneeighth" unicode="&#x215b;" horiz-adv-x="1197" 
d="M499 1035v410q-50 -33 -86 -35t-71 79t4.5 111t127.5 90t140.5 48.5t54.5 -40t-11 -749.5q8 -89 -84 -93.5t-88.5 89t13.5 90.5zM1126 644q-17 -95 -266 -99t-375 3t-230 4t-171 13.5t-60 113t171 114t578.5 22.5t352.5 -171zM341 69q-68 71 -58 180.5t73.5 177t245 67.5
t221 -140t34.5 -183t-62 -95q79 -58 77.5 -199.5t-86.5 -215.5t-231.5 -72.5t-229 72t-77.5 207.5t93 201zM681 231q5 76 -31.5 113.5t-112.5 22.5t-84.5 -102t107.5 -98.5t121 64.5zM684 -138q-3 117 -102.5 128t-130.5 -48q-38 -36 -38 -98q0 -103 142 -113t129 131z" />
    <glyph glyph-name="threeeighths" unicode="&#x215c;" horiz-adv-x="1114" 
d="M663 913q-92 -51 -224 -18.5t-154.5 87t-2.5 87.5t53 46t89 -22t104.5 -19t39.5 74.5t-62.5 69.5t-63.5 82q0 69 47.5 90t47.5 52t-21.5 44t-64 -13.5t-130.5 45.5q-36 56 20 103.5t132 57t165.5 -21.5t109 -151.5t-21.5 -184.5q65 -69 75 -210.5t-138 -197.5zM1089 758
q9 -147 -40 -168t-471 -13.5t-470.5 17.5t-69.5 114.5t227.5 96t537.5 14.5t286 -61zM321 76q-75 94 -65 216t96.5 183t254.5 48t189.5 -172.5t-63.5 -249.5q107 -47 126.5 -221t-89.5 -233.5t-249 -62.5t-217.5 74t-77.5 213.5t95 204.5zM642 260q0 54 -18 96t-97.5 35.5
t-74.5 -93.5t97.5 -89t92.5 51zM680 -144q-6 109 -101 120t-137 -19.5t-35.5 -131.5t143.5 -89.5t130 120.5z" />
    <glyph glyph-name="fiveeighths" unicode="&#x215d;" horiz-adv-x="1161" 
d="M311 970q-14 20 -27 55q13 33 44.5 58t61 36.5t78 -26t97 -34.5t78.5 31.5t47.5 78t-17.5 89t-94.5 43t-104 -43.5t-93.5 -54q-58 3 -67 26.5t-9 52.5q-20 155 -12 298t129 145t263.5 -9t162.5 -28t18.5 -58.5t-30.5 -89.5q-58 -2 -346 5q-6 -49 -2 -91q31 22 142 22
q130 0 207 -81q73 -78 74.5 -220.5t-99.5 -240t-261 -101t-240 136.5zM1117 637q0 -94 -99 -78q-3 0 -209.5 11t-734.5 5q-56 10 -52 78q3 121 94 128q426 -14 940 -24q87 -46 61 -120zM374 70q-84 74 -79 175t75.5 186.5t217 87t228.5 -128.5t56 -198t-74 -106
q132 -87 122 -238.5t-109.5 -212.5t-244 -56t-215.5 82t-69.5 212t92.5 197zM706 247q23 65 -44 108.5t-129 -0.5t-39 -129.5t106 -64.5t106 86zM728 -139q13 98 -86 120.5t-146 -18t-40.5 -132.5t133 -80.5t139.5 110.5z" />
    <glyph glyph-name="seveneighths" unicode="&#x215e;" horiz-adv-x="1148" 
d="M1023 1651q16 -56 -8.5 -86.5t-84 -157l-148 -313.5t-105 -213.5t-83 -20t-89.5 26t-23 49.5q0 23 72 225.5t168 341.5q-174 -2 -266.5 -9t-117.5 138q-11 105 85.5 103.5t353 4.5t246.5 -89zM1099 572q0 -79 -59 -82q-3 0 -209.5 11t-685.5 5q-134 3 -114 68
q-13 102 75 147q776 3 952 -36q61 -59 41 -113zM383 73q-58 57 -56 165t69 183.5t266 69t220.5 -153t16.5 -180t-56 -74.5q83 -71 84.5 -209.5t-93 -217.5t-231 -74t-216 59t-96 191t91.5 241zM718 226q0 57 -35.5 85t-98.5 20t-69.5 -105t98.5 -77t105 77zM755 -146
q-8 121 -110 116.5t-144 -31.5t-22.5 -123t152 -89.5t124.5 127.5z" />
    <glyph glyph-name="dieresistonos" unicode="&#x385;" horiz-adv-x="982" 
d="M862 1358q32 0 64.5 -29.5t22.5 -78t-72.5 -65t-101 14.5t-26.5 80.5t26.5 63.5t86.5 14zM381 1229q0 16 34.5 121t75.5 150.5t107.5 19.5t79.5 -80t-41 -125.5t-85 -121.5t-80 -47t-70 27.5t-21 55.5zM243 1315q7 -74 -20.5 -102.5t-106.5 -28.5t-87.5 78t31 114
t108.5 25t75 -86z" />
    <glyph glyph-name="Alphatonos" unicode="&#x386;" horiz-adv-x="1498" 
d="M977 284q-129 8 -320 -1q-17 -103 -73 -216t-182.5 -137.5t-239 15t-123.5 167t145.5 523.5t323 661t518.5 210q195 -30 269.5 -261.5t153.5 -682t43.5 -516t-115 -91.5t-232.5 -22.5t-168 351.5zM676 738q-6 -93 210 -73q224 -8 155 253q-5 160 -126 199
q-136 19 -239 -379zM149 1464q-8 -45 -62.5 -117t-87 -106.5t-67 -28.5t-59 25.5t-36.5 38.5t26.5 108.5l68.5 155.5t104.5 44t98 -48.5t14.5 -71.5z" />
    <glyph glyph-name="Epsilontonos" unicode="&#x388;" horiz-adv-x="1616" 
d="M796 1195q0 -106 -11 -257q295 43 337 -1.5t49 -142t-10 -178t-321 -104.5q-3 -114 12 -185q231 29 336 33.5t157.5 -124.5t4.5 -234t-336.5 -143t-425.5 -29.5t-168 287.5t-31 657.5t35.5 637.5t208 270.5t260.5 11t240 -19.5q165 -1 188.5 -113.5t24.5 -184.5
t-64.5 -123.5t-166 -52.5t-319.5 -5zM26 1464q-8 -45 -62.5 -117t-87 -106.5t-67 -28.5t-59 25.5t-36.5 38.5t26.5 108.5l68.5 155.5t104.5 44t98 -48.5t14.5 -71.5z" />
    <glyph glyph-name="Etatonos" unicode="&#x389;" horiz-adv-x="2013" 
d="M1862 1409l-41 -113q-5 -40 -18 -91.5t-28.5 -124t-17.5 -199t3 -328.5q0 -127 41.5 -238t67.5 -250q5 -82 -40.5 -94.5t-86.5 -32.5q-106 -26 -234 5q-10 46 -16 88t-6 198.5t-26.5 264t-622.5 33.5q-51 -90 -69 -255.5t-18 -256.5q36 -107 -4.5 -118t-86.5 0
q-46 -6 -83.5 -5.5t-83.5 16.5q20 147 24.5 354.5t15 324t1 209.5t-4 242.5t13 249l12.5 168.5q-31 98 37.5 98h109.5t102 -5t45 -98q-51 -75 -61.5 -234.5t-10.5 -239.5l37 -74l286 -21q369 -29 366 -2q72 164 67 355q-20 112 0 205q125 5 236 5q103 47 103 5q0 -15 -9 -41
zM79 1464q-8 -45 -62.5 -117t-87 -106.5t-67 -28.5t-59 25.5t-36.5 38.5t26.5 108.5l68.5 155.5t104.5 44t98 -48.5t14.5 -71.5z" />
    <glyph glyph-name="Iotatonos" unicode="&#x38a;" horiz-adv-x="1549" 
d="M835 1280q-23 -291 -23 -556q0 -70 4 -173t4 -173q0 -94 16 -226t-44 -151q-66 0 -197.5 -18.5t-2.5 202.5q10 110 10 214q-5 160 -14 245t-9 215.5t-44 309.5q-90 296 137 325q256 96 163 -214zM-72 1464q-8 -45 -62.5 -117t-87 -106.5t-67 -28.5t-59 25.5t-36.5 38.5
t26.5 108.5l68.5 155.5t104.5 44t98 -48.5t14.5 -71.5z" />
    <glyph glyph-name="Omicrontonos" unicode="&#x38c;" horiz-adv-x="1795" 
d="M1126 -67q-482 -48 -699 178t-223.5 575.5t175 626t470 319.5t490.5 -14.5t344.5 -249.5t144 -512.5t-108.5 -597.5t-593 -325zM892 1184q-243 -38 -263.5 -356.5t142 -397t311 -78t247 84t139 315t-146 351t-429.5 81.5zM-21 1464q-8 -45 -62.5 -117t-87 -106.5
t-67 -28.5t-59 25.5t-36.5 38.5t26.5 108.5l68.5 155.5t104.5 44t98 -48.5t14.5 -71.5z" />
    <glyph glyph-name="Upsilontonos" unicode="&#x38e;" horiz-adv-x="1741" 
d="M1038 -82q-24 -68 -346 -26q-80 49 74 342l152 360q15 27 -97 174q-140 158 -252 365t11 285.5t203 30.5l312 -455q34 -59 307 533q68 133 163 48q65 -30 114 -68t21.5 -103t-232 -483t-430.5 -1003zM-71 1464q-8 -45 -62.5 -117t-87 -106.5t-67 -28.5t-59 25.5
t-36.5 38.5t26.5 108.5l68.5 155.5t104.5 44t98 -48.5t14.5 -71.5z" />
    <glyph glyph-name="Omegatonos" unicode="&#x38f;" horiz-adv-x="1986" 
d="M509 251l-111 208q-60 178 -60 380q0 329 193.5 571t749.5 220q331 6 542 -284t73.5 -670.5t-372.5 -514.5q126 15 196 1t69.5 -133t-90.5 -183q-119 -6 -272.5 -8t-231.5 18q-37 32 -9 187q0 53 160 302.5t190.5 515t-90 340.5t-314.5 106.5t-290 -104.5t-107 -334
t70 -486.5t83.5 -362t-108.5 -156.5q-292 -21 -417 -32t-208 24.5t-94 169t76 168.5t372 57zM-51 1464q-8 -45 -62.5 -117t-87 -106.5t-67 -28.5t-59 25.5t-36.5 38.5t26.5 108.5l68.5 155.5t104.5 44t98 -48.5t14.5 -71.5z" />
    <glyph glyph-name="iotadieresistonos" unicode="&#x390;" 
d="M343 92q-22 -110 -94.5 -114.5t-119 9t-50 86t-21.5 163.5t15 699q13 133 84 144.5t114 -7.5t56 -61.5t13 -87.5q10 -97 6 -234.5t-7 -216t-1 -195t5 -185.5zM633 1358q32 0 64.5 -29.5t22.5 -78t-72.5 -65t-101 14.5t-26.5 80.5t26.5 63.5t86.5 14zM152 1229
q0 16 34.5 121t75.5 150.5t107.5 19.5t79.5 -80t-41 -125.5t-85 -121.5t-80 -47t-70 27.5t-21 55.5zM14 1315q7 -74 -20.5 -102.5t-106.5 -28.5t-87.5 78t31 114t108.5 25t75 -86z" />
    <glyph glyph-name="Alpha" unicode="&#x391;" horiz-adv-x="1498" 
d="M977 284q-129 8 -320 -1q-17 -103 -73 -216t-182.5 -137.5t-239 15t-123.5 167t145.5 523.5t323 661t518.5 210q195 -30 269.5 -261.5t153.5 -682t43.5 -516t-115 -91.5t-232.5 -22.5t-168 351.5zM676 738q-6 -93 210 -73q224 -8 155 253q-5 160 -126 199
q-136 19 -239 -379z" />
    <glyph glyph-name="Beta" unicode="&#x392;" horiz-adv-x="1291" 
d="M368 1600q208 22 398.5 -11t306 -147t121 -374t-95.5 -331q134 -124 159 -280.5t-18.5 -378.5t-393.5 -258.5t-542.5 29t-226 377.5t32 808.5t259.5 565.5zM520 1248l-14 -279q9 -54 115.5 -67t186 32t79.5 136.5t-35.5 153t-170 76t-161.5 -51.5zM762 560l-202 10
q-71 -10 -81.5 -59.5t-6.5 -250.5q-38 -83 202 -81t230.5 171t-142.5 210z" />
    <glyph glyph-name="Epsilon" unicode="&#x395;" horiz-adv-x="1279" 
d="M459 1195q0 -106 -11 -257q295 43 337 -1.5t49 -142t-10 -178t-321 -104.5q-3 -114 12 -185q231 29 336 33.5t157.5 -124.5t4.5 -234t-336.5 -143t-425.5 -29.5t-168 287.5t-31 657.5t35.5 637.5t208 270.5t260.5 11t240 -19.5q165 -1 188.5 -113.5t24.5 -184.5
t-64.5 -123.5t-166 -52.5t-319.5 -5z" />
    <glyph glyph-name="Zeta" unicode="&#x396;" horiz-adv-x="1420" 
d="M1308 1208l-145 -103q-148 -184 -368 -514l-152 -143q373 133 494 179.5t175 15.5q50 -283 69 -442q11 -111 -85 -105t-275.5 19.5t-549.5 -104t-387 10.5q-52 122 45 230l164 188l54 57l273 370q77 134 249 317q-404 -94 -754 -13q-48 126 -26 214t76 110q33 14 109 14
q69 0 205.5 -14.5t205.5 -14.5q77 0 230.5 10t231.5 10q311 44 276 -97q25 -159 -115 -195z" />
    <glyph glyph-name="Eta" unicode="&#x397;" horiz-adv-x="1573" 
d="M1422 1409l-41 -113q-5 -40 -18 -91.5t-28.5 -124t-17.5 -199t3 -328.5q0 -127 41.5 -238t67.5 -250q5 -82 -40.5 -94.5t-86.5 -32.5q-106 -26 -234 5q-10 46 -16 88t-6 198.5t-26.5 264t-622.5 33.5q-51 -90 -69 -255.5t-18 -256.5q36 -107 -4.5 -118t-86.5 0
q-46 -6 -83.5 -5.5t-83.5 16.5q20 147 24.5 354.5t15 324t1 209.5t-4 242.5t13 249l12.5 168.5q-31 98 37.5 98h109.5t102 -5t45 -98q-51 -75 -61.5 -234.5t-10.5 -239.5l37 -74l286 -21q369 -29 366 -2q72 164 67 355q-20 112 0 205q125 5 236 5q103 47 103 5q0 -15 -9 -41
z" />
    <glyph glyph-name="Iota" unicode="&#x399;" horiz-adv-x="1119" 
d="M405 1280q-23 -291 -23 -556q0 -70 4 -173t4 -173q0 -94 16 -226t-44 -151q-66 0 -197.5 -18.5t-2.5 202.5q10 110 10 214q-5 160 -14 245t-9 215.5t-44 309.5q-90 296 137 325q256 96 163 -214z" />
    <glyph glyph-name="Kappa" unicode="&#x39a;" horiz-adv-x="1251" 
d="M1048 -138q-137 10 -443 236l-259 246l-16 -355v-150q-88 -26 -173 -22q-84 -5 -64 202q31 244 -6 679.5t-27 698.5q10 161 74.5 168t131.5 17q100 -25 110.5 -68t20.5 -117q-10 -122 -17 -286q-27 -178 9 -237q73 76 405 535q132 79 256.5 -88.5t-243.5 -379.5
q-141 -83 -229 -213q12 -177 137 -307q241 -213 369 -234q207 -72 79 -200q-62 -110 -115 -125z" />
    <glyph glyph-name="Lambda" unicode="&#x39b;" horiz-adv-x="1483" 
d="M1085 189q-143 550 -234 611q-81 -49 -226.5 -336.5t-246 -420.5t-183.5 -154q-131 31 -154 102t55 193l473 969.5t115.5 288t178 130t205 -188.5l206 -520.5t157.5 -542.5t-35 -228.5t-148.5 -36t-162.5 133.5z" />
    <glyph glyph-name="Mu" unicode="&#x39c;" horiz-adv-x="1808" 
d="M1601 -103q-49 -5 -91 -6t-93 304q-81 255 -125 427q-118 69 -334 -589q-42 -76 -113 -76q-59 0 -93 64q-22 42 -40 107l-29 111q-66 368 -163 539q-77 -320 -180 -871q-80 -43 -159 -17q-54 20 -93 30q-50 19 -50 114q35 177 94 425l95 393l98 320q44 221 -8 279
q50 93 215 108q85 5 158 -38q64 -175 94 -439l64 -227q153 72 231 312l70 151q-2 144 285 50q16 -57 122.5 -382.5t146 -585t49.5 -382.5q-5 -93 -57.5 -97t-93.5 -24z" />
    <glyph glyph-name="Nu" unicode="&#x39d;" horiz-adv-x="1632" 
d="M1555 258q5 -89 -16 -323q-62 -20 -153 -24q-177 -42 -269 208q-259 299 -730 664q3 -213 -1.5 -371t20.5 -299q92 -253 -144 -248q-86 5 -148 25q-65 97 -55 167.5t16.5 130t17.5 127.5q10 92 8.5 185t4.5 165q0 81 9.5 202t9.5 187q0 63 -12 187.5t-12 187.5
q-36 158 -1 175.5t135 33.5q185 40 259 -142q208 -409 488 -620q186 -207 183.5 -111.5t9.5 299.5q-14 174 -25.5 247.5t29.5 138t234 72t153 -621.5q-5 -126 -8 -280.5t-3 -361.5z" />
    <glyph glyph-name="Xi" unicode="&#x39e;" horiz-adv-x="1398" 
d="M1347 1388q0 -43 1 -95t-67.5 -76t-218 -5.5t-364 21t-348 -11.5t-181 24.5t-66 69t-23.5 104.5t70.5 85.5t166.5 18t338.5 6.5t380.5 -21t194 -21t89 -28t28 -71zM1117 811q7 -52 -1.5 -94.5t-264.5 -49t-377.5 -10.5t-195 -6t-90 31t-19 81t33 68.5t75.5 25.5
t237.5 15.5t365.5 10.5t198.5 -9.5t37.5 -62.5zM1326 87q0 -43 -19 -71t-79.5 -37.5t-291.5 -11t-476.5 -0.5t-315 1t-81 71t-12 128t63.5 61.5t253.5 9.5t467 8t362.5 13t106.5 -59.5t21.5 -112.5z" />
    <glyph glyph-name="Omicron" unicode="&#x39f;" horiz-adv-x="1635" 
d="M966 -67q-482 -48 -699 178t-223.5 575.5t175 626t470 319.5t490.5 -14.5t344.5 -249.5t144 -512.5t-108.5 -597.5t-593 -325zM732 1184q-243 -38 -263.5 -356.5t142 -397t311 -78t247 84t139 315t-146 351t-429.5 81.5z" />
    <glyph glyph-name="Pi" unicode="&#x3a0;" horiz-adv-x="1772" 
d="M1577 974q21 -401 16 -689q-15 -83 -66 -106.5t-132 -13.5t-81 106t-10 308.5t-47 640.5q-470 -12 -575 -28q-26 -581 -29 -730.5t-11 -255t-45.5 -127t-153 -41.5t-124 31.5t-3.5 146t6.5 154.5t8 150.5t6.5 174t-19 547.5q-262 -17 -272.5 81t4.5 171.5t154 93.5
t387.5 7.5t1024.5 -44.5q43 0 71.5 -28t38.5 -99.5t-51 -136.5t-97 -58.5t-1 -254.5z" />
    <glyph glyph-name="Rho" unicode="&#x3a1;" horiz-adv-x="1066" 
d="M400 363q45 -372 23 -379.5t-178 -7.5q-40 0 -76 2.5t-108 16.5l15 268q-16 213 -6.5 463t-4 477t77 316t200.5 87q57 5 93.5 5t137.5 -15q148 -25 333 -135q166 -113 211 -347q45 -283 -19.5 -422.5t-199 -215t-284 -94t-215.5 -19.5zM568 1363q-187 14 -211.5 -177
t16.5 -403.5t304 -147t258.5 292.5t-92.5 324t-275 111z" />
    <glyph glyph-name="Sigma" unicode="&#x3a3;" horiz-adv-x="1274" 
d="M1160 16q-68 -43 -384 -50.5t-505 -7t-205.5 83.5t75 193.5t227 258t108.5 311.5q-418 487 -406 578t45.5 129t160.5 45.5t467 3t339.5 -172t-158.5 -155t-336 -21.5l110 -120l174 -164q75 -58 89.5 -158t-82.5 -186.5t-242 -268.5q130 -24 387 -25q216 16 136 -274z" />
    <glyph glyph-name="Tau" unicode="&#x3a4;" horiz-adv-x="1392" 
d="M1081 1275q-150 11 -228 10q-6 -152 -14 -444.5t25 -404.5q0 -78 9.5 -144.5t4.5 -116.5q48 -268 -31 -327q5 6 -106 -13q-55 0 -120 23t-75 110l10 62q-5 68 -21 156.5t-1 223.5q4 167 -7.5 324.5t-5.5 474.5q-381 -91 -482 3q-5 102 -19 166q5 55 26 96q63 68 120 60
q59 12 212 10t357 -18.5t464 -9.5q36 -253 -118 -241z" />
    <glyph glyph-name="Upsilon" unicode="&#x3a5;" horiz-adv-x="1301" 
d="M598 -82q-24 -68 -346 -26q-80 49 74 342l152 360q15 27 -97 174q-140 158 -252 365t11 285.5t203 30.5l312 -455q34 -59 307 533q68 133 163 48q65 -30 114 -68t21.5 -103t-232 -483t-430.5 -1003z" />
    <glyph glyph-name="Chi" unicode="&#x3a7;" horiz-adv-x="1482" 
d="M1494 1204q-64 -107 -166 -222l-125 -149l-72 -122q126 -281 298 -512q2 -103 -179.5 -187.5t-211.5 -40.5l-201 332l-204 -198q-262 -274 -327 -244q-76 0 -117 36t-91 88q-65 101 171 338l325 401q-65 102 -150 217q-185 209 -255 324q-52 70 -12 146q30 56 71.5 90.5
t94.5 64.5q70 20 141.5 -46t175.5 -203q84 -101 187 -203l296 422q86 50 189.5 -23.5t193.5 -150.5q40 -70 -32 -158z" />
    <glyph glyph-name="Psi" unicode="&#x3a8;" horiz-adv-x="1427" 
d="M858 478q-19 -288 -39 -414q-29 -72 -72 -81t-86 -9t-103 38.5t-57.5 199.5t5.5 261q-221 31 -341 214q-128 153 -130.5 477t87 353.5t153 -12.5t43 -182.5t1.5 -246.5t68.5 -171t117.5 -36l41 578q20 107 161 92q101 0 128 -81t28 -176t0 -368q211 55 206 368
q0 136 87 120.5t169 -45t66.5 -175.5t-138.5 -401.5t-395 -302.5z" />
    <glyph glyph-name="Iotadieresis" unicode="&#x3aa;" horiz-adv-x="1119" 
d="M405 1280q-23 -291 -23 -556q0 -70 4 -173t4 -173q0 -94 16 -226t-44 -151q-66 0 -197.5 -18.5t-2.5 202.5q10 110 10 214q-5 160 -14 245t-9 215.5t-44 309.5q-90 296 137 325q256 96 163 -214zM268 1914q121 -8 135 -112t-27.5 -156.5t-168 -49.5t-146.5 98t33.5 162
t173.5 58zM855 1929q60 -23 85 -62t6 -123t-130 -95t-169.5 44t-38 144.5t103.5 102t143 -10.5z" />
    <glyph glyph-name="Upsilondieresis" unicode="&#x3ab;" horiz-adv-x="1301" 
d="M598 -82q-24 -68 -346 -26q-80 49 74 342l152 360q15 27 -97 174q-140 158 -252 365t11 285.5t203 30.5l312 -455q34 -59 307 533q68 133 163 48q65 -30 114 -68t21.5 -103t-232 -483t-430.5 -1003zM351 1899q121 -8 135 -112t-27.5 -156.5t-168 -49.5t-146.5 98
t33.5 162t173.5 58zM938 1914q60 -23 85 -62t6 -123t-130 -95t-169.5 44t-38 144.5t103.5 102t143 -10.5z" />
    <glyph glyph-name="alphatonos" unicode="&#x3ac;" horiz-adv-x="1091" 
d="M831 -20q-33 -49 -131 -68.5t-256 -7t-284.5 158.5t-113.5 423.5t190 433.5t346.5 140t252.5 -41q91 107 111.5 118t95.5 -32.5t82 -115t-22 -106.5t-65.5 -106t-53.5 -140t-17 -227t64.5 -254.5t59 -135.5t-36.5 -75t-79 -50.5t-143 85.5zM750 552q-21 120 -59.5 171
t-136 36.5t-171 -92.5t-63 -236t113.5 -181.5t162.5 8.5t117.5 103t36 191zM398 1414q-8 -45 -62.5 -117t-87 -106.5t-67 -28.5t-59 25.5t-36.5 38.5t26.5 108.5l68.5 155.5t104.5 44t98 -48.5t14.5 -71.5z" />
    <glyph glyph-name="epsilontonos" unicode="&#x3ad;" horiz-adv-x="1007" 
d="M810 143q0 -66 -112.5 -142.5t-267 -75t-271.5 76t-110 264.5t110 292q-69 107 -91.5 206t46.5 204t255 120.5t286 -26t67 -130.5t-67.5 -104.5t-91 -0.5t-100.5 8t-81 -35t-35.5 -67.5t64.5 -67t80.5 -62t10.5 -104.5t-70.5 -98t-86 -66t-7 -85.5t84.5 -53t170.5 48.5
t140 42t57.5 -59.5t19 -84.5zM299 1414q-8 -45 -62.5 -117t-87 -106.5t-67 -28.5t-59 25.5t-36.5 38.5t26.5 108.5l68.5 155.5t104.5 44t98 -48.5t14.5 -71.5z" />
    <glyph glyph-name="etatonos" unicode="&#x3ae;" horiz-adv-x="1072" 
d="M998 -151q0 -141 -22 -168.5t-162 -19.5q-165 14 -128 121q20 832 -21.5 885.5t-135.5 60.5t-142.5 -54t-38.5 -372.5t-46 -339.5t-117.5 -30t-99.5 12.5t-42.5 63.5t-8.5 188.5t17 387.5t22 357t36 139t106.5 38.5t96.5 -101.5q84 145 266 129.5t270 -126.5t108.5 -243
t41.5 -928zM339 1414q-8 -45 -62.5 -117t-87 -106.5t-67 -28.5t-59 25.5t-36.5 38.5t26.5 108.5l68.5 155.5t104.5 44t98 -48.5t14.5 -71.5z" />
    <glyph glyph-name="upsilondieresistonos" unicode="&#x3b0;" horiz-adv-x="1065" 
d="M55 592q0 65 0.5 177.5t7.5 140t42 50t78.5 19t102 -29.5t58.5 -80.5t9.5 -143.5t6 -180.5t37 -180.5t168.5 -73t152.5 268.5t11 361.5t43 133.5t116 26.5t79 -38.5t33.5 -174.5t6.5 -307t-110.5 -408.5t-389.5 -232t-376 186.5t-75.5 485zM862 1358q32 0 64.5 -29.5
t22.5 -78t-72.5 -65t-101 14.5t-26.5 80.5t26.5 63.5t86.5 14zM381 1229q0 16 34.5 121t75.5 150.5t107.5 19.5t79.5 -80t-41 -125.5t-85 -121.5t-80 -47t-70 27.5t-21 55.5zM243 1315q7 -74 -20.5 -102.5t-106.5 -28.5t-87.5 78t31 114t108.5 25t75 -86z" />
    <glyph glyph-name="beta" unicode="&#x3b2;" horiz-adv-x="1170" 
d="M405 -178q-4 -254 -218 -225q-92 0 -109.5 80.5t-21.5 947.5t140 908t299 23.5t266.5 -125t88 -236t-56.5 -220.5q218 -87 275.5 -221.5t69.5 -493.5t-330 -403t-403 -35zM845 430q0 128 -78 206t-166.5 69t-112 75t26 170.5t40.5 166.5t-128 83t-125 -246t14.5 -529.5
t194 -271.5t254 79.5t80.5 197.5z" />
    <glyph glyph-name="gamma" unicode="&#x3b3;" horiz-adv-x="957" 
d="M937 952q-18 -70 -123 -307l-177.5 -413t-70 -280t6 -164.5t-31 -78t-121.5 -26.5q-141 -13 -134.5 120.5t3.5 250.5l-153 429t-99 291q-13 137 16.5 164t96 48.5t137.5 -91.5q73 -166 146 -382q158 385 269 529q38 43 93 56q83 -35 108 -70.5t34 -75.5z" />
    <glyph glyph-name="zeta" unicode="&#x3b6;" horiz-adv-x="1109" 
d="M377 -316q-18 100 53.5 126t119 21.5t86.5 32t-123.5 57t-295.5 106.5t-160.5 350.5t119.5 472.5t366 410q-135 -13 -301.5 25.5t-154.5 150.5q12 177 192.5 160t340.5 -4.5t277.5 9.5t145 -85.5t14.5 -137t-77 -140t-144 -165.5t-170 -197.5t-175 -240.5t-66.5 -227
t135.5 -135t289 -102.5t159.5 -304.5t-198.5 -284.5t-323 -45.5t-109 148z" />
    <glyph glyph-name="eta" unicode="&#x3b7;" horiz-adv-x="1045" 
d="M998 -151q0 -141 -22 -168.5t-162 -19.5q-165 14 -128 121q20 832 -21.5 885.5t-135.5 60.5t-142.5 -54t-38.5 -372.5t-46 -339.5t-117.5 -30t-99.5 12.5t-42.5 63.5t-8.5 188.5t17 387.5t22 357t36 139t106.5 38.5t96.5 -101.5q84 145 266 129.5t270 -126.5t108.5 -243
t41.5 -928z" />
    <glyph glyph-name="theta" unicode="&#x3b8;" horiz-adv-x="1317" 
d="M1238 551q-40 -590 -484 -592.5t-571.5 237.5t-135 570.5t137.5 564.5t444.5 241.5t474 -211.5t134.5 -810zM662 1347q-157 0 -272 -200.5t46 -218.5t372.5 -31.5t167.5 218.5t-314 232zM328 688q-40 -58 24.5 -261.5t305.5 -203.5q163 0 264 182q130 257 -87.5 271
t-506.5 12z" />
    <glyph glyph-name="iota" unicode="&#x3b9;" 
d="M343 92q-22 -110 -94.5 -114.5t-119 9t-50 86t-21.5 163.5t15 699q13 133 84 144.5t114 -7.5t56 -61.5t13 -87.5q10 -97 6 -234.5t-7 -216t-1 -195t5 -185.5z" />
    <glyph glyph-name="kappa" unicode="&#x3ba;" horiz-adv-x="975" 
d="M591 -41q-104 7 -168 91t-89 142l-10 -133q-17 -68 -48 -91.5t-109 -12.5q-115 10 -113 119.5t13.5 344t7.5 548.5q-4 79 39.5 105.5t102.5 25t91.5 -30t28.5 -326.5q31 -3 334 273q90 80 135 57.5t67.5 -57.5t46.5 -85q31 -97 -391 -469q159 -226 208 -321t-6 -117
t-140 -63z" />
    <glyph glyph-name="lambda" unicode="&#x3bb;" horiz-adv-x="1004" 
d="M480 380q-67 -279 -148 -361t-152 -75.5t-113.5 44.5t-42.5 81t312 844q17 119 4 284t105.5 178t156.5 -38.5t8 -378.5q94 -169 234 -507.5t133.5 -381t-46.5 -78t-112.5 -37.5t-139.5 82t-199 344z" />
    <glyph glyph-name="nu" unicode="&#x3bd;" horiz-adv-x="996" 
d="M528 -40q-107 -21 -127 38q-163 269 -357 993q-18 55 40.5 90.5t130.5 15.5q105 -41 192 -369l114 -193q92 31 171 235l78 250q11 61 116 54q58 -24 94 -53t23 -72q-161 -521 -291 -761.5t-184 -227.5z" />
    <glyph glyph-name="xi" unicode="&#x3be;" horiz-adv-x="1090" 
d="M278 890q-176 155 -138.5 438t369.5 286t357 -112.5t0 -186.5t-119 -40q-235 50 -263.5 -27.5t80.5 -133.5t160 -146q12 -88 12 -168t-97.5 -116t-149.5 -112t-36.5 -174t159.5 -132t288.5 -52.5t151 -275.5t-175 -330t-300.5 -63.5t-154 50.5t-44 156t123.5 89.5
t154.5 7.5t-18 59t-162 29.5t-242.5 105.5t-164 360.5t208.5 487.5z" />
    <glyph glyph-name="omicron" unicode="&#x3bf;" horiz-adv-x="1077" 
d="M546 -99q-198 10 -371 130q-131 142 -138 399q1 239 114 408q157 241 424 203q200 0 324 -169q88 -155 85 -363q4 -236 -92 -393q-100 -185 -346 -215zM306 401q-15 -110 54 -188q66 -49 145 -39q100 10 186 89q78 57 96 245q-44 208 -194.5 205t-215.5 -98.5t-71 -213.5
z" />
    <glyph glyph-name="rho" unicode="&#x3c1;" horiz-adv-x="1192" 
d="M433 -155q17 -313 -121.5 -304t-206.5 31.5t-30.5 337.5t69 664.5t206.5 474t404 61t322.5 -227t75.5 -382.5t-83.5 -416.5t-280 -228.5t-355.5 -10zM916 594q-31 172 -202.5 185.5t-230 -99.5t-87.5 -340t218.5 -183t290.5 155t11 282z" />
    <glyph glyph-name="sigma1" unicode="&#x3c2;" horiz-adv-x="973" 
d="M875 873q0 -38 -6.5 -76.5t-26 -107.5t-98 -31.5t-184.5 7.5t-128.5 -105.5t0.5 -152t124 -131.5l239.5 -133.5t136 -291t-181.5 -265t-297 -45.5t-130 53.5t-12 89.5q0 115 76 120t112.5 20.5t46 38t-21.5 41.5t-154.5 32.5t-231.5 115.5t-108 352q0 202 93.5 412
t379.5 247q101 0 223 -48q149 -58 149 -142z" />
    <glyph glyph-name="upsilon" unicode="&#x3c5;" horiz-adv-x="1057" 
d="M55 592q0 65 0.5 177.5t7.5 140t42 50t78.5 19t102 -29.5t58.5 -80.5t9.5 -143.5t6 -180.5t37 -180.5t168.5 -73t152.5 268.5t11 361.5t43 133.5t116 26.5t79 -38.5t33.5 -174.5t6.5 -307t-110.5 -408.5t-389.5 -232t-376 186.5t-75.5 485z" />
    <glyph glyph-name="chi" unicode="&#x3c7;" horiz-adv-x="1268" 
d="M607 33q-259 -450 -376 -423t-158 65t-39 92.5t358 621.5q-96 163 -176.5 273.5t-89.5 222.5q45 99 103.5 130t211.5 -101q144 -104 191 -188l170 227q106 139 151.5 120.5t78.5 -48t117 -132t-254 -497.5q97 -117 214.5 -356.5t70 -305t-95.5 -97.5t-104.5 -32
t-180.5 158.5t-192 269.5z" />
    <glyph glyph-name="psi" unicode="&#x3c8;" horiz-adv-x="1207" 
d="M706 -52q-21 -208 -21 -271t-37 -77t-113.5 -16t-107 19t-15.5 83l11 264q-174 44 -288 225q-102 161 -102 390q0 64 7 233t146 168.5t132 -152.5t-7 -211t19 -150.5t107 -125.5q28 293 23.5 456t25.5 205t101 51q90 -4 120.5 -71t21 -217t-26.5 -463q105 7 152 167
t48 350.5t29 218.5t71 28t80.5 -4.5t56 -56.5t18.5 -145t9 -241.5t-60 -390.5t-400 -266z" />
    <glyph glyph-name="omega" unicode="&#x3c9;" horiz-adv-x="1624" 
d="M778 44q-98 -137 -309.5 -118t-318.5 233t-96.5 410.5t70 347.5t150 133.5t146 -63.5t3.5 -137.5t-61 -191.5t19.5 -191t128.5 -85.5t145 144.5t47.5 214.5t107.5 86t106 -87.5q45 -423 144.5 -457.5t164.5 133t63.5 286t-14 170t-19.5 93.5t31.5 68t142.5 50
q137 11 142.5 -496t-235 -605.5t-392 -59t-166.5 122.5z" />
    <glyph glyph-name="iotadieresis" unicode="&#x3ca;" 
d="M343 92q-22 -110 -94.5 -114.5t-119 9t-50 86t-21.5 163.5t15 699q13 133 84 144.5t114 -7.5t56 -61.5t13 -87.5q10 -97 6 -234.5t-7 -216t-1 -195t5 -185.5zM-76 1444q121 -8 135 -112t-27.5 -156.5t-168 -49.5t-146.5 98t33.5 162t173.5 58zM511 1459q60 -23 85 -62
t6 -123t-130 -95t-169.5 44t-38 144.5t103.5 102t143 -10.5z" />
    <glyph glyph-name="upsilondieresis" unicode="&#x3cb;" horiz-adv-x="1065" 
d="M55 592q0 65 0.5 177.5t7.5 140t42 50t78.5 19t102 -29.5t58.5 -80.5t9.5 -143.5t6 -180.5t37 -180.5t168.5 -73t152.5 268.5t11 361.5t43 133.5t116 26.5t79 -38.5t33.5 -174.5t6.5 -307t-110.5 -408.5t-389.5 -232t-376 186.5t-75.5 485zM237 1444q121 -8 135 -112
t-27.5 -156.5t-168 -49.5t-146.5 98t33.5 162t173.5 58zM824 1459q60 -23 85 -62t6 -123t-130 -95t-169.5 44t-38 144.5t103.5 102t143 -10.5z" />
    <glyph glyph-name="omicrontonos" unicode="&#x3cc;" horiz-adv-x="1077" 
d="M546 -99q-198 10 -371 130q-131 142 -138 399q1 239 114 408q157 241 424 203q200 0 324 -169q88 -155 85 -363q4 -236 -92 -393q-100 -185 -346 -215zM306 401q-15 -110 54 -188q66 -49 145 -39q100 10 186 89q78 57 96 245q-44 208 -194.5 205t-215.5 -98.5t-71 -213.5
zM321 1414q-8 -45 -62.5 -117t-87 -106.5t-67 -28.5t-59 25.5t-36.5 38.5t26.5 108.5l68.5 155.5t104.5 44t98 -48.5t14.5 -71.5z" />
    <glyph glyph-name="upsilontonos" unicode="&#x3cd;" horiz-adv-x="1065" 
d="M55 592q0 65 0.5 177.5t7.5 140t42 50t78.5 19t102 -29.5t58.5 -80.5t9.5 -143.5t6 -180.5t37 -180.5t168.5 -73t152.5 268.5t11 361.5t43 133.5t116 26.5t79 -38.5t33.5 -174.5t6.5 -307t-110.5 -408.5t-389.5 -232t-376 186.5t-75.5 485zM309 1414q-8 -45 -62.5 -117
t-87 -106.5t-67 -28.5t-59 25.5t-36.5 38.5t26.5 108.5l68.5 155.5t104.5 44t98 -48.5t14.5 -71.5z" />
    <glyph glyph-name="omegatonos" unicode="&#x3ce;" horiz-adv-x="1557" 
d="M778 44q-98 -137 -309.5 -118t-318.5 233t-96.5 410.5t70 347.5t150 133.5t146 -63.5t3.5 -137.5t-61 -191.5t19.5 -191t128.5 -85.5t145 144.5t47.5 214.5t107.5 86t106 -87.5q45 -423 144.5 -457.5t164.5 133t63.5 286t-14 170t-19.5 93.5t31.5 68t142.5 50
q137 11 142.5 -496t-235 -605.5t-392 -59t-166.5 122.5zM538 1414q-8 -45 -62.5 -117t-87 -106.5t-67 -28.5t-59 25.5t-36.5 38.5t26.5 108.5l68.5 155.5t104.5 44t98 -48.5t14.5 -71.5z" />
    <glyph glyph-name="afii10023" unicode="&#x401;" horiz-adv-x="1279" 
d="M459 1195q0 -106 -11 -257q295 43 337 -1.5t49 -142t-10 -178t-321 -104.5q-3 -114 12 -185q231 29 336 33.5t157.5 -124.5t4.5 -234t-336.5 -143t-425.5 -29.5t-168 287.5t-31 657.5t35.5 637.5t208 270.5t260.5 11t240 -19.5q165 -1 188.5 -113.5t24.5 -184.5
t-64.5 -123.5t-166 -52.5t-319.5 -5zM456 2012q121 -8 135 -112t-27.5 -156.5t-168 -49.5t-146.5 98t33.5 162t173.5 58zM1043 2027q60 -23 85 -62t6 -123t-130 -95t-169.5 44t-38 144.5t103.5 102t143 -10.5z" />
    <glyph glyph-name="afii10051" unicode="&#x402;" horiz-adv-x="1798" 
d="M1568 -60q-188 -297 -292 -314t-159 62t-55 128t102 138.5t179.5 234.5t27 367.5t-200 228t-258 -60.5t-68 -407.5t-113.5 -341.5q-76 -11 -135 13t-60.5 347.5t-61.5 861.5q-461 -48 -452.5 105.5t21 186t408 34t836.5 -32.5q81 0 94 -94.5t-2.5 -138.5t-82.5 -41.5
t-458 -3.5l-17 -152q565 125 754 -96t161 -501.5t-168 -522.5z" />
    <glyph glyph-name="afii10052" unicode="&#x403;" horiz-adv-x="1262" 
d="M1092 1355q0 -66 -24 -107.5t-107.5 -39l-306 9t-283.5 -13.5q-11 -57 7 -354.5t27.5 -399.5t9.5 -285t-121 -202t-154 10t-38 81.5t-18.5 322.5t-22.5 574t-9 460q0 46 29 75t74 29q378 7 803 -47q129 0 134 -113zM506 1615q-77 4 -109 29t-55 64.5t5 100.5t114 145.5
t141.5 129t117 59.5t91 -17t45 -80t-128 -241t-221.5 -190z" />
    <glyph glyph-name="afii10053" unicode="&#x404;" horiz-adv-x="1201" 
d="M478 866q92 14 245.5 31.5t185.5 -29.5t44.5 -129.5t-82.5 -115.5t-405 -77q-3 -157 38 -193.5t186 -26.5t232.5 70.5t136.5 53t71.5 -63.5t30 -122t-158.5 -191.5t-425.5 -118t-390.5 174t-141 460t135.5 598t471 351.5t482.5 -102q29 -80 -13.5 -158.5t-137.5 -64
t-194 0t-187 -108.5t-124 -239z" />
    <glyph glyph-name="afii10054" unicode="&#x405;" horiz-adv-x="1420" 
d="M130 149q-62 104 -82.5 187.5t126.5 164.5q168 100 277 92q27 -257 103.5 -308t190 -39.5t196 93t51.5 109t-156 45.5t-197.5 64t-231.5 110q-180 133 -156 326q-29 178 107 340q183 144 470 163q164 4 300 -38q233 -62 20 -514q-68 -46 -267 58q-59 24 12.5 143.5
t-31.5 142.5q-113 -12 -227 -96q-69 -78 -59 -168q19 -79 100 -127q55 -13 213 -24q229 -17 358 -144q118 -116 118 -283q0 -238 -220 -380q-191 -123 -386 -175q-169 -24 -406 36q-162 105 -223 222z" />
    <glyph glyph-name="afii10055" unicode="&#x406;" horiz-adv-x="1119" 
d="M405 1280q-23 -291 -23 -556q0 -70 4 -173t4 -173q0 -94 16 -226t-44 -151q-66 0 -197.5 -18.5t-2.5 202.5q10 110 10 214q-5 160 -14 245t-9 215.5t-44 309.5q-90 296 137 325q256 96 163 -214z" />
    <glyph glyph-name="afii10056" unicode="&#x407;" horiz-adv-x="1119" 
d="M405 1280q-23 -291 -23 -556q0 -70 4 -173t4 -173q0 -94 16 -226t-44 -151q-66 0 -197.5 -18.5t-2.5 202.5q10 110 10 214q-5 160 -14 245t-9 215.5t-44 309.5q-90 296 137 325q256 96 163 -214zM268 1914q121 -8 135 -112t-27.5 -156.5t-168 -49.5t-146.5 98t33.5 162
t173.5 58zM855 1929q60 -23 85 -62t6 -123t-130 -95t-169.5 44t-38 144.5t103.5 102t143 -10.5z" />
    </font>
</defs>
</svg>
