<?xml version="1.0" encoding="UTF-8"?>
<!DOCTYPE svg PUBLIC "-//W3C//DTD SVG 1.1//EN" "http://www.w3.org/Graphics/SVG/1.1/DTD/svg11.dtd">
<!-- Creator: CorelDRAW X7 -->
<svg xmlns="http://www.w3.org/2000/svg" xml:space="preserve" width="1005px" height="686px" version="1.1" style="shape-rendering:geometricPrecision; text-rendering:geometricPrecision; image-rendering:optimizeQuality; fill-rule:evenodd; clip-rule:evenodd"
viewBox="0 0 1005 686"
 xmlns:xlink="http://www.w3.org/1999/xlink">
 <defs>
  <style type="text/css">
   <![CDATA[
    .str0 {stroke:white;stroke-width:8.34215;stroke-dasharray:41.884350 41.884350}
    .fil4 {fill:none}
    .fil5 {fill:#4B7198}
    .fil2 {fill:#767676}
    .fil3 {fill:#7CABDD}
    .fil1 {fill:#888888}
    .fil0 {fill:#9FA0A0}
    .fil7 {fill:#FEFEFE;fill-rule:nonzero}
    .fil6 {fill:white;fill-opacity:0.549020}
   ]]>
  </style>
 </defs>
 <g id="Слой_x0020_1">
  <metadata id="CorelCorpID_0Corel-Layer"/>
  <g id="_2329302975440">
   <g>
    <polygon class="fil0" points="585,301 676,301 676,678 527,678 "/>
    <g>
     <polygon class="fil0" points="359,428 509,428 702,149 596,141 "/>
     <polygon class="fil1" points="359,523 505,523 505,428 359,428 "/>
     <polygon class="fil2" points="702,149 702,225 506,523 506,428 "/>
    </g>
    <g>
     <path class="fil3" d="M592 6c10,15 19,28 26,39 10,14 5,35 -10,43 -51,29 -151,90 -155,122 -9,60 166,345 158,405 -2,10 -2,33 0,63l188 0c107,0 194,-88 194,-196 0,-95 -66,-174 -155,-192 0,-6 1,-11 1,-17 0,-137 -79,-267 -246,-267l-1 0z"/>
     <path class="fil4 str0" d="M592 6c10,15 19,28 26,39 10,14 5,35 -10,43 -51,29 -151,90 -155,122 -9,60 166,345 158,405 -2,10 -2,33 0,63l188 0c107,0 194,-88 194,-196 0,-95 -66,-174 -155,-192 0,-6 1,-11 1,-17 0,-137 -79,-267 -246,-267l-1 0z"/>
    </g>
    <path class="fil5" d="M781 426c0,0 10,-6 29,-14 10,-4 21,-8 35,-14 13,-5 29,-10 45,-15 17,-6 36,-11 55,-16 3,-1 6,-2 10,-3 4,6 8,12 11,18 -6,1 -12,2 -17,3 -20,4 -39,8 -56,12 -17,4 -32,7 -46,11 -14,3 -26,6 -36,9 -10,2 -18,4 -23,6 -4,2 -7,3 -7,3z"/>
    <g>
     <path class="fil6" d="M781 446c0,0 10,-4 20,-8 10,-4 20,-8 20,-8l1 3c0,0 -10,3 -20,6 -11,3 -21,7 -21,7z"/>
     <path class="fil6" d="M862 417c0,0 10,-3 21,-6 10,-3 20,-6 20,-6l2 4c0,0 -11,3 -21,6 -10,2 -21,5 -21,5l-1 -3z"/>
     <path class="fil6" d="M945 394l25 -6c1,2 2,4 3,6l-27 6 -1 -6z"/>
    </g>
    <g>
     <path class="fil5" d="M842 291c-1,5 -2,9 -3,14 -3,9 -6,17 -9,24 -6,14 -12,25 -16,32 -2,3 -4,6 -5,8 -2,1 -2,2 -2,2l-2 -1c0,0 0,-1 1,-3 1,-2 3,-5 4,-8 3,-8 7,-19 11,-33 4,-15 7,-33 10,-54 2,-14 3,-30 4,-46 3,15 4,31 4,47 0,6 -1,11 -1,17 1,0 3,0 4,1z"/>
     <path class="fil5" d="M625 587c5,-2 10,-5 15,-8 4,-2 9,-5 14,-8 5,-2 9,-5 14,-8 4,-3 9,-6 13,-9 5,-3 9,-6 14,-9 4,-3 8,-6 13,-9 4,-4 8,-7 12,-10 4,-4 8,-7 12,-11 4,-3 8,-7 12,-11 4,-3 7,-7 11,-11l5 -6 5 -6c1,-2 3,-4 4,-6 2,-2 3,-4 5,-6 3,-5 5,-9 7,-13 3,-5 5,-9 6,-14 1,-2 2,-4 3,-6 0,-3 1,-5 1,-7 1,-3 2,-5 2,-7l0 -8 1 4c-4,-14 -8,-29 -12,-44l-7 -22 -6 -22 -7 -21 -7 -22c-2,-7 -5,-14 -7,-21 -2,-8 -5,-14 -8,-22 -2,-7 -4,-14 -7,-21 -3,-7 -5,-15 -9,-21l-8 -22 -9 -20 -10 -21c-4,-7 -7,-13 -11,-20 -2,-3 -4,-6 -5,-10l-7 -9c-4,-7 -9,-12 -13,-19l9 8 4 4 2 2 2 2 8 9c2,3 5,5 7,9 4,6 10,12 14,19 4,6 8,13 12,20l12 20c3,7 7,14 11,21 3,7 6,13 10,21 3,7 6,14 9,21 3,7 6,14 9,21 2,8 5,15 8,22 3,7 5,15 8,22l7 22c5,15 9,29 13,44 5,15 9,30 12,45l0 2 0 2 -1 9c0,3 -1,6 -2,9 0,3 -1,6 -2,9 -1,3 -2,5 -3,8 -2,6 -5,11 -8,16 -3,5 -6,10 -10,15 -2,3 -3,5 -5,7 -2,2 -3,5 -6,6l-6 7 -6 6c-4,4 -8,8 -12,11 -4,3 -9,7 -14,10 -4,4 -9,7 -13,10 -5,3 -10,6 -15,9 -4,3 -9,5 -14,8 -5,3 -10,5 -15,7 -5,3 -10,5 -15,7 -5,2 -10,5 -15,7 -10,2 -20,6 -31,9z"/>
    </g>
    <g>
     <g>
      <path class="fil6" d="M829 208c0,0 -1,11 -2,22 -1,10 -3,21 -3,21l-6 -1c0,0 2,-11 3,-21 0,-11 1,-22 1,-22l7 1z"/>
      <path class="fil6" d="M816 294c0,0 -3,11 -6,21 -3,10 -7,21 -7,21l-2 -1c0,0 3,-11 6,-21 2,-10 5,-21 5,-21l4 1z"/>
     </g>
     <g>
      <path class="fil6" d="M603 587c0,0 3,-1 6,-2 4,-2 9,-4 14,-7 9,-5 19,-10 19,-10l1 2c0,0 -10,5 -20,9 -9,4 -20,8 -20,8z"/>
      <path class="fil6" d="M679 546c0,0 9,-6 17,-12 9,-7 17,-13 17,-13l4 5c0,0 -8,6 -18,12 -9,6 -18,12 -18,12l-2 -4z"/>
      <path class="fil6" d="M744 492c0,0 2,-3 5,-6 2,-3 6,-7 9,-11 6,-9 10,-18 10,-18l7 3c0,0 -5,10 -11,19 -4,4 -7,8 -10,11 -2,3 -5,5 -5,5l-5 -3z"/>
      <polygon class="fil6" points="780,417 780,414 781,416 770,377 778,375 788,414 789,414 789,415 788,418 "/>
      <polygon class="fil6" points="758,336 745,295 753,292 766,333 "/>
      <polygon class="fil6" points="731,255 715,214 722,211 738,252 "/>
      <path class="fil6" d="M699 175c0,0 -5,-10 -10,-20 -5,-9 -10,-19 -10,-19l3 -1c0,0 6,9 11,18 5,10 10,19 10,19l-4 3z"/>
      <path class="fil6" d="M656 100c0,0 -3,-5 -7,-10 -4,-4 -9,-9 -9,-9 0,0 5,4 9,9 4,5 9,9 9,9l-2 1z"/>
     </g>
    </g>
    <path class="fil6" d="M606 677c0,0 11,0 22,1l2 0 -21 0c-2,-1 -3,-1 -3,-1z"/>
   </g>
   <path class="fil7" d="M1003 483c0,55 -23,105 -59,142 -36,36 -86,58 -141,58l-601 0c-55,0 -105,-22 -141,-58 -36,-37 -59,-87 -59,-142 0,-50 18,-95 48,-130 29,-35 70,-59 116,-67 -1,-3 -1,-5 -1,-7 0,-3 0,-7 0,-11 0,-35 14,-68 37,-91 23,-23 55,-38 90,-38 16,0 31,3 44,8 13,5 24,11 34,19 19,-42 41,-82 74,-112 35,-31 83,-51 153,-51 79,0 139,28 180,73 48,51 71,124 71,198 0,2 0,5 -1,8 0,2 0,4 0,5 44,10 83,35 111,69 28,35 45,79 45,127zm-65 135c34,-34 55,-82 55,-135 0,-46 -16,-88 -42,-121 -27,-34 -66,-58 -109,-67l-4 -1 0 -4c0,-2 0,-5 0,-8 0,-2 0,-5 0,-8 0,-72 -22,-142 -67,-192 -40,-43 -98,-70 -174,-70 -68,0 -113,19 -147,49 -33,30 -55,71 -74,114l-2 6 -5 -4c-10,-9 -22,-16 -36,-21 -12,-5 -26,-8 -41,-8 -32,0 -62,14 -84,36 -21,21 -34,51 -34,84 0,4 0,7 0,10 0,4 1,7 1,11l1 4 -4 1c-46,7 -86,31 -115,65 -28,33 -45,76 -45,124 0,53 21,101 55,135 35,35 82,56 135,56l601 0c53,0 100,-21 135,-56z"/>
  </g>
 </g>
</svg>
