<?xml version="1.0" encoding="UTF-8"?>
<!DOCTYPE svg PUBLIC "-//W3C//DTD SVG 1.1//EN" "http://www.w3.org/Graphics/SVG/1.1/DTD/svg11.dtd">
<!-- Creator: CorelDRAW X7 -->
<svg xmlns="http://www.w3.org/2000/svg" xml:space="preserve" width="1005px" height="686px" version="1.1" style="shape-rendering:geometricPrecision; text-rendering:geometricPrecision; image-rendering:optimizeQuality; fill-rule:evenodd; clip-rule:evenodd"
viewBox="0 0 1005 686"
 xmlns:xlink="http://www.w3.org/1999/xlink">
 <defs>
  <style type="text/css">
   <![CDATA[
    .str0 {stroke:white;stroke-width:8.34215;stroke-dasharray:41.884350 41.884350}
    .str1 {stroke:white;stroke-width:8.34215;stroke-dasharray:39.229226 39.229226}
    .fil1 {fill:none}
    .fil2 {fill:#4B7198}
    .fil0 {fill:#7CABDD}
    .fil4 {fill:#FEFEFE;fill-rule:nonzero}
    .fil3 {fill:white;fill-opacity:0.549020}
   ]]>
  </style>
 </defs>
 <g id="Слой_x0020_1">
  <metadata id="CorelCorpID_0Corel-Layer"/>
  <g id="_2329290210432">
   <g>
    <g>
     <path class="fil0" d="M998 483c0,108 -87,196 -195,196l-601 0c-108,0 -195,-88 -195,-196 0,-98 71,-179 164,-194 -1,-7 -2,-14 -2,-21 0,-68 55,-124 123,-124 31,0 59,11 80,29 38,-86 87,-166 225,-166 167,0 246,130 246,267 0,5 0,11 -1,17 89,18 156,97 156,192zm-930 -62c0,-6 5,-12 12,-12l125 0c6,0 12,5 12,12 0,7 -6,12 -12,12l-125 0c-7,0 -12,-5 -12,-12zm507 9l-125 0c-7,0 -12,-5 -12,-12 0,-7 5,-12 12,-12l125 0c6,0 12,5 12,12 0,7 -6,12 -12,12z"/>
     <g>
      <path class="fil1 str0" d="M998 483c0,108 -87,196 -195,196l-601 0c-108,0 -195,-88 -195,-196 0,-98 71,-179 164,-194 -1,-7 -2,-14 -2,-21 0,-68 55,-124 123,-124 31,0 59,11 80,29 38,-86 87,-166 225,-166 167,0 246,130 246,267 0,5 0,11 -1,17 89,18 156,97 156,192z"/>
      <path class="fil1 str1" d="M68 421c0,-6 5,-12 12,-12l125 0c6,0 12,5 12,12 0,7 -6,12 -12,12l-125 0c-7,0 -12,-5 -12,-12z"/>
      <path class="fil1 str1" d="M575 430l-125 0c-7,0 -12,-5 -12,-12 0,-7 5,-12 12,-12l125 0c6,0 12,5 12,12 0,7 -6,12 -12,12z"/>
     </g>
    </g>
    <path class="fil2" d="M753 193c0,0 -9,69 -22,173 -3,26 -7,54 -10,84 -4,30 -8,61 -12,94 -6,43 -12,89 -17,135l-21 0c8,-47 15,-93 21,-137 6,-32 10,-64 15,-93 5,-30 9,-58 13,-84 17,-103 28,-172 28,-172l5 0z"/>
    <g>
     <polygon class="fil3" points="774,192 768,235 767,235 773,192 "/>
     <polygon class="fil3" points="763,278 757,321 754,320 761,278 "/>
     <polygon class="fil3" points="751,364 745,406 742,405 748,363 "/>
     <polygon class="fil3" points="739,448 733,491 729,491 735,448 "/>
     <polygon class="fil3" points="728,534 722,576 717,576 723,533 "/>
     <polygon class="fil3" points="716,619 710,662 704,661 710,619 "/>
    </g>
    <path class="fil2" d="M572 679c3,-3 6,-6 9,-9 5,-4 9,-9 13,-14 2,-2 4,-5 7,-7 2,-3 4,-5 6,-7 4,-5 7,-10 11,-15 15,-20 27,-38 37,-56 9,-17 18,-32 24,-45 6,-13 11,-24 14,-31 3,-6 5,-10 5,-10 0,0 -2,4 -4,11 -1,4 -2,8 -4,13 -2,5 -4,12 -7,18 -4,14 -11,30 -20,49 -8,18 -19,38 -33,59 -10,14 -20,29 -33,44l-25 0z"/>
    <g>
     <path class="fil3" d="M567 679c6,-6 11,-10 11,-10l5 4c0,0 -3,2 -6,6l-10 0z"/>
     <path class="fil3" d="M608 637c0,0 6,-8 12,-17 7,-9 13,-18 13,-18l3 3c0,0 -5,9 -12,18 -6,9 -13,17 -13,17l-3 -3z"/>
     <polygon class="fil3" points="655,565 674,527 676,528 658,567 "/>
     <polygon class="fil3" points="692,487 698,472 692,488 "/>
    </g>
   </g>
   <path class="fil4" d="M1003 483c0,55 -23,105 -59,142 -36,36 -86,58 -141,58l-601 0c-55,0 -105,-22 -141,-58 -36,-37 -59,-87 -59,-142 0,-50 18,-95 48,-130 29,-35 70,-59 116,-67 -1,-3 -1,-5 -1,-7 0,-3 0,-7 0,-11 0,-35 14,-68 37,-91 23,-23 55,-38 90,-38 16,0 31,3 44,8 13,5 24,11 34,19 19,-42 41,-82 74,-112 35,-31 83,-51 153,-51 79,0 139,28 180,73 48,51 71,124 71,198 0,2 0,5 -1,8 0,2 0,4 0,5 44,10 83,35 111,69 28,35 45,79 45,127zm-65 135c34,-34 55,-82 55,-135 0,-46 -16,-88 -42,-121 -27,-34 -66,-58 -109,-67l-4 -1 0 -4c0,-2 0,-5 0,-8 0,-2 0,-5 0,-8 0,-72 -22,-142 -67,-192 -40,-43 -98,-70 -174,-70 -68,0 -113,19 -147,49 -33,30 -55,71 -74,114l-2 6 -5 -4c-10,-9 -22,-16 -36,-21 -12,-5 -26,-8 -41,-8 -32,0 -62,14 -84,36 -21,21 -34,51 -34,84 0,4 0,7 0,10 0,4 1,7 1,11l1 4 -4 1c-46,7 -86,31 -115,65 -28,33 -45,76 -45,124 0,53 21,101 55,135 35,35 82,56 135,56l601 0c53,0 100,-21 135,-56z"/>
  </g>
 </g>
</svg>
