<?xml version="1.0" encoding="UTF-8"?>
<!DOCTYPE svg PUBLIC "-//W3C//DTD SVG 1.1//EN" "http://www.w3.org/Graphics/SVG/1.1/DTD/svg11.dtd">
<!-- Creator: CorelDRAW X7 -->
<svg xmlns="http://www.w3.org/2000/svg" xml:space="preserve" width="1005px" height="686px" version="1.1" style="shape-rendering:geometricPrecision; text-rendering:geometricPrecision; image-rendering:optimizeQuality; fill-rule:evenodd; clip-rule:evenodd"
viewBox="0 0 1005 686"
 xmlns:xlink="http://www.w3.org/1999/xlink">
 <defs>
  <style type="text/css">
   <![CDATA[
    .fil3 {fill:#666665}
    .fil2 {fill:#8D8D8D}
    .fil0 {fill:#9FA0A0}
    .fil1 {fill:#D3D3D2}
    .fil4 {fill:#FEFEFE;fill-rule:nonzero}
   ]]>
  </style>
 </defs>
 <g id="Слой_x0020_1">
  <metadata id="CorelCorpID_0Corel-Layer"/>
  <g id="_2329298270560">
   <g>
    <g>
     <path class="fil0" d="M667 16l-53 280 63 0 49 -256c-17,-10 -37,-19 -59,-24z"/>
     <path class="fil1" d="M614 296l28 0 52 -272c-9,-3 -18,-6 -27,-8l-53 280z"/>
    </g>
    <path class="fil0" d="M493 28l-85 446 72 0 90 -466c-30,3 -56,10 -77,20z"/>
    <path class="fil1" d="M408 474l32 0 88 -459c-13,4 -24,8 -35,13l-85 446z"/>
    <g>
     <g>
      <path class="fil2" d="M685 387l-22 0c-33,0 -60,-27 -60,-60l0 -28c0,-34 27,-61 60,-61l22 0c33,0 60,27 60,61l0 28c0,33 -27,60 -60,60z"/>
      <path class="fil3" d="M674 387l0 0c-16,0 -30,-13 -30,-30l0 -96c0,-12 10,-23 23,-23l13 0c13,0 24,11 24,23l0 96c0,17 -13,30 -30,30z"/>
     </g>
     <path class="fil0" d="M829 179l-99 0c-18,0 -37,-5 -53,-15l-33 -21 -30 135c0,22 19,40 41,40l254 0c-20,-13 -42,-22 -67,-27 1,-6 1,-12 1,-17 0,-33 -4,-65 -14,-95z"/>
    </g>
    <g>
     <g>
      <path class="fil2" d="M528 618l-63 0c-33,0 -60,-27 -60,-60l0 -72c0,-33 27,-60 60,-60l63 0c34,0 61,27 61,60l0 72c0,33 -27,60 -61,60z"/>
      <path class="fil3" d="M497 618l0 0c-29,0 -39,-6 -39,-34l0 -128c0,-29 10,-30 39,-30l0 0c28,0 39,1 39,30l0 128c0,28 -11,34 -39,34z"/>
     </g>
     <path class="fil0" d="M938 342l-383 0c-24,1 -48,-6 -68,-18l-44 -28 -39 175c0,28 25,52 55,52l535 0c3,-13 4,-27 4,-40 0,-56 -23,-106 -60,-141z"/>
    </g>
   </g>
   <path class="fil4" d="M1003 483c0,55 -23,105 -59,142 -36,36 -86,58 -141,58l-601 0c-55,0 -105,-22 -141,-58 -36,-37 -59,-87 -59,-142 0,-50 18,-95 48,-130 29,-35 70,-59 116,-67 -1,-3 -1,-5 -1,-7 0,-3 0,-7 0,-11 0,-35 14,-68 37,-91 23,-23 55,-38 90,-38 16,0 31,3 44,8 13,5 24,11 34,19 19,-42 41,-82 74,-112 35,-31 83,-51 153,-51 79,0 139,28 180,73 48,51 71,124 71,198 0,2 0,5 -1,8 0,2 0,4 0,5 44,10 83,35 111,69 28,35 45,79 45,127zm-65 135c34,-34 55,-82 55,-135 0,-46 -16,-88 -42,-121 -27,-34 -66,-58 -109,-67l-4 -1 0 -4c0,-2 0,-5 0,-8 0,-2 0,-5 0,-8 0,-72 -22,-142 -67,-192 -40,-43 -98,-70 -174,-70 -68,0 -113,19 -147,49 -33,30 -55,71 -74,114l-2 6 -5 -4c-10,-9 -22,-16 -36,-21 -12,-5 -26,-8 -41,-8 -32,0 -62,14 -84,36 -21,21 -34,51 -34,84 0,4 0,7 0,10 0,4 1,7 1,11l1 4 -4 1c-46,7 -86,31 -115,65 -28,33 -45,76 -45,124 0,53 21,101 55,135 35,35 82,56 135,56l601 0c53,0 100,-21 135,-56z"/>
  </g>
 </g>
</svg>
