<?xml version="1.0" encoding="UTF-8"?>
<!DOCTYPE svg PUBLIC "-//W3C//DTD SVG 1.1//EN" "http://www.w3.org/Graphics/SVG/1.1/DTD/svg11.dtd">
<!-- Creator: CorelDRAW X7 -->
<svg xmlns="http://www.w3.org/2000/svg" xml:space="preserve" width="12.6998mm" height="22.8598mm" version="1.1" style="shape-rendering:geometricPrecision; text-rendering:geometricPrecision; image-rendering:optimizeQuality; fill-rule:evenodd; clip-rule:evenodd"
viewBox="0 0 1270 2286"
 xmlns:xlink="http://www.w3.org/1999/xlink">
 <defs>
  <style type="text/css">
   <![CDATA[
    .fil0 {fill:#2B2A29;fill-rule:nonzero}
   ]]>
  </style>
 </defs>
 <g id="Слой_x0020_1">
  <metadata id="CorelCorpID_0Corel-Layer"/>
  <g id="_1734321942736">
   <path class="fil0" d="M47 1013l997 -979c23,-23 54,-34 86,-34 19,0 37,4 55,10 17,7 33,18 46,31 21,21 34,50 34,85l5 2038c0,35 -11,62 -28,82 -13,14 -28,24 -46,30 -17,7 -36,10 -56,10 -45,0 -93,-17 -125,-46 -252,-229 -396,-376 -570,-554 -112,-113 -235,-240 -408,-408l-1 -2c-27,-28 -38,-79 -36,-131 3,-51 19,-103 45,-130l2 -2zm1010 -965l-998 981c-23,24 -37,70 -39,117 -2,47 7,93 30,116l1 1c172,169 296,296 408,410 173,177 317,323 569,552 29,27 72,41 112,41 17,0 34,-3 49,-8 15,-6 28,-14 38,-25 15,-17 23,-39 23,-69l-5 -2038c0,-29 -11,-53 -28,-71 -11,-11 -25,-20 -39,-26 -15,-6 -32,-9 -48,-9 -27,0 -53,9 -73,28z"/>
   <path class="fil0" d="M164 1207c-4,-4 -4,-10 0,-14 4,-4 10,-4 14,0l888 893c4,4 4,11 0,14 -4,4 -10,4 -14,0l-888 -893z"/>
  </g>
 </g>
</svg>
