<?xml version="1.0" encoding="utf-8"?>
<!-- Generator: Adobe Illustrator 19.2.1, SVG Export Plug-In . SVG Version: 6.00 Build 0)  -->
<svg version="1.1" id="Layer_1" xmlns="http://www.w3.org/2000/svg" xmlns:xlink="http://www.w3.org/1999/xlink" x="0px" y="0px"
	 viewBox="0 0 246 293" style="enable-background:new 0 0 246 293;" xml:space="preserve">
<style type="text/css">
	.st0{fill:#FFE0CF;stroke:#D98076;stroke-miterlimit:10;}
	.st1{fill:#81C0FE;}
	.st2{fill:#79B7D5;}
	.st3{opacity:0.48;}
	.st4{fill:#567B8C;}
	.st5{fill:#FFE0CF;stroke:#E38A7F;stroke-miterlimit:10;}
	.st6{fill:#FFE0CF;}
	.st7{fill:#E38A7F;}
	.st8{fill:#D98076;}
	.st9{clip-path:url(#SVGID_2_);}
	.st10{clip-path:url(#SVGID_4_);fill:#F1DACB;}
	.st11{clip-path:url(#SVGID_4_);fill:none;stroke:#C37F75;stroke-miterlimit:10;}
	.st12{opacity:0.67;clip-path:url(#SVGID_4_);enable-background:new    ;}
	
		.st13{clip-path:url(#SVGID_4_);fill:none;stroke:#CE8873;stroke-width:0.709;stroke-linecap:round;stroke-linejoin:round;stroke-miterlimit:22.926;}
	.st14{clip-path:url(#SVGID_4_);fill:#F6F09B;}
	.st15{clip-path:url(#SVGID_4_);fill:#C68470;}
</style>
<g>
	<path class="st0" d="M42,91v-7.4c0,0-8.1-1.8-10-7.4s-0.1-9.3,0.9-9.8c-0.6-0.3-2.6-10.9,4.8-15.3c-0.9-3.3,0.5-6-5.4-11.4
		c-1.3-2.8,0.4-6.5,5.6-4.1s6.5,3.4,10.1,15.1c2.5,1.5,5.6-0.4,5.6-0.4s6.3-3.6,7.5,4.1s5,23.4,5,23.4l-3.6,13H42z"/>
	<path class="st1" d="M162.7,278.9"/>
	<path class="st2" d="M162.7,278.9c0,0,18.5-5,20.3-6.3c-0.3,2,2.5,5.5,12.8,2s23.8-7,26.3-7.8c0,0,10.8-4.3,6.3-18
		s-10.5-11.3-11.5-8.8c-0.8-9-0.1-15.5-15.4-22s-23.6,1.8-23.6,1.8l-1.9-7.8c0,0,5.4-6.8,4.4-8.3s-7.5-3.5-8.8-6.3s-2-11-2-11
		s5.1-0.3,7.9-3.9c11.2,11.4,21.5,16.1,31.6,14.4c5.3-0.9,2.8,2.6,6.3,2.2c3.5-0.4,2.6-18.2,1.1-19.6c-1.5-1.4-25.8-20.8-28.8-21.3
		s1.1-6-9.1-10.8c-10.2-4.8-18.7-8.5-20.3-8.5c-1.7,0-56.3-13.9-58.7-14.3c-2.3-0.4-25.7-7.3-25.7-7.3s-8-12.2-9.2-16.8
		c-1-4,0-16.7,0-16.7S42.8,86,41.7,87c-7.6,7,0.3,40.2,7,43.9c-4.3,5.2,6.3,26.8,8.4,30.5c-1.6,3.1-3.3,33.3-6.9,36.8s-7,9.6-5.3,12
		c1.7,2.4,5.4,3,5.4,3l-0.1,2.8c0,0-12-6-29.3-1s-15,24.7-15,24.7s-3.3,2.3-4,5.3s-4.3,13.7,2,20.7s34.7,6.3,38.3,1.7
		c4.3,1.3,17,7.3,19.3,7.3c2.3,0,13.7,18.3,48.7,18.3S162.7,278.9,162.7,278.9z"/>
	<g class="st3">
		<path class="st4" d="M157.9,151.7c0,0,0.8,2.9,2,7.2c1.2,4.3,2.8,10.1,4.5,15.9c0.8,2.9,1.8,5.7,2.6,8.4c0.8,2.7,1.5,5.2,2,7.4
			c0.3,1.1,0.6,2.1,0.8,2.9c0.3,0.9,0.5,1.6,0.7,2.2c0.2,0.6,0.4,1.1,0.6,1.4c0.2,0.3,0.3,0.4,0.3,0.4l-0.1,0.2c0,0-0.1-0.1-0.4-0.4
			c-0.2-0.3-0.6-0.7-0.9-1.3c-0.4-0.6-0.7-1.3-1.2-2.1c-0.4-0.8-0.8-1.8-1.3-2.8c-0.4-1.1-0.9-2.2-1.3-3.4c-0.4-1.2-0.8-2.5-1.2-3.9
			c-0.8-2.7-1.4-5.7-2.1-8.6c-1.4-5.8-2.8-11.7-3.7-16.1c-0.9-4.4-1.5-7.4-1.5-7.4L157.9,151.7z"/>
	</g>
	<g class="st3">
		<path class="st4" d="M79.1,142.6c0,0-1.8,0.6-4.4,1.7c-2.6,1.2-6,3-8.9,5.3c-0.7,0.6-1.4,1.2-2.1,1.9c-0.6,0.7-1.2,1.3-1.8,2
			c-0.6,0.6-1.1,1.3-1.5,1.9c-0.2,0.3-0.5,0.6-0.6,0.9c-0.2,0.3-0.4,0.6-0.6,0.9c-0.2,0.3-0.3,0.6-0.5,0.9c-0.1,0.3-0.3,0.6-0.4,0.8
			c-0.3,0.5-0.4,1-0.6,1.3c-0.3,0.8-0.5,1.2-0.5,1.2l-0.2,0c0,0,0-0.5,0-1.4c0-0.4,0.1-1,0.2-1.6c0.1-0.6,0.3-1.3,0.6-2
			c0.3-0.7,0.6-1.5,1-2.2c0.4-0.8,1-1.5,1.6-2.2c0.6-0.7,1.3-1.4,2.1-2c0.8-0.6,1.5-1.2,2.4-1.8c3.2-2.2,6.8-3.8,9.6-4.7
			c2.7-0.9,4.7-1.3,4.7-1.3L79.1,142.6z"/>
	</g>
	<g class="st3">
		<path class="st4" d="M174.3,174.7c0,0,0,0.9-0.1,2.3c-0.1,0.7-0.2,1.5-0.4,2.3c-0.1,0.4-0.2,0.9-0.4,1.3c-0.1,0.4-0.3,0.9-0.5,1.3
			c-0.2,0.4-0.4,0.9-0.6,1.3c-0.2,0.4-0.5,0.8-0.8,1.2c-0.3,0.3-0.7,0.6-1.1,0.9c-0.4,0.2-0.8,0.4-1.2,0.5c-0.4,0.1-0.7,0.1-1,0.2
			c-0.3,0-0.6,0-0.8-0.1c-0.4-0.1-0.7-0.2-0.7-0.2l0-0.2c0,0,0.2-0.2,0.6-0.3c0.2-0.1,0.4-0.2,0.6-0.3c0.2-0.2,0.4-0.3,0.7-0.5
			c0.2-0.2,0.4-0.4,0.7-0.6c0.2-0.3,0.5-0.5,0.7-0.7c0.2-0.3,0.5-0.5,0.8-0.8c0.3-0.3,0.5-0.6,0.8-1c0.2-0.3,0.4-0.7,0.6-1.1
			c0.2-0.4,0.4-0.8,0.5-1.1c0.3-0.8,0.6-1.5,0.8-2.1c0.4-1.3,0.6-2.1,0.6-2.1L174.3,174.7z"/>
	</g>
	<g class="st3">
		<path class="st4" d="M73.7,117.7c0,0-1.8,0.4-4.5,1.1c-2.6,0.8-6.1,1.9-9.4,3.5c-0.8,0.4-1.6,0.8-2.4,1.3
			c-0.8,0.5-1.5,0.9-2.2,1.4c-0.7,0.4-1.3,0.9-2,1.3c-0.3,0.2-0.6,0.4-0.9,0.7c-0.3,0.2-0.5,0.4-0.8,0.7c-0.5,0.4-0.9,0.9-1.3,1.3
			c-0.4,0.4-0.7,0.8-0.9,1.1c-0.3,0.3-0.4,0.6-0.5,0.8c-0.1,0.2-0.2,0.3-0.2,0.3l-0.2-0.1c0,0,0-0.1,0.1-0.3c0-0.2,0.1-0.6,0.2-1
			c0.1-0.4,0.3-0.9,0.6-1.4c0.1-0.3,0.3-0.5,0.5-0.8c0.2-0.3,0.4-0.6,0.6-0.9c0.4-0.6,1-1.2,1.6-1.7c0.6-0.6,1.3-1.1,2.1-1.6
			c0.8-0.5,1.6-0.9,2.4-1.3c0.9-0.4,1.7-0.8,2.6-1.1c3.5-1.3,7.1-2.2,9.9-2.7c2.7-0.5,4.6-0.6,4.6-0.6L73.7,117.7z"/>
	</g>
	<g class="st3">
		<path class="st4" d="M57.1,193.7c0,0-1.1,0.7-2.7,2c-1.6,1.3-3.6,3.1-5.3,5.1c-0.4,0.5-0.8,1.1-1.1,1.6c-0.3,0.5-0.6,1.1-0.9,1.6
			c-0.3,0.5-0.5,1-0.8,1.5c-0.2,0.5-0.4,1-0.6,1.4c-0.1,0.4-0.3,0.9-0.4,1.3c-0.1,0.4-0.2,0.7-0.2,1c-0.1,0.6-0.2,0.9-0.2,0.9
			l-0.2,0c0,0-0.2-0.3-0.4-0.9c-0.1-0.3-0.2-0.7-0.2-1.1c-0.1-0.4-0.1-1,0-1.5c0-0.3,0.1-0.6,0.1-0.9c0.1-0.3,0.2-0.6,0.2-0.9
			c0.2-0.6,0.4-1.2,0.8-1.8c0.3-0.6,0.8-1.2,1.2-1.7c0.5-0.5,0.9-1.1,1.4-1.6c2-2,4.3-3.6,6.1-4.7c1.8-1.1,3-1.6,3-1.6L57.1,193.7z"
			/>
	</g>
	<g class="st3">
		<path class="st4" d="M5.9,239.7c0,0,1.2,2.7,3.8,6.3c0.6,0.9,1.4,1.8,2.2,2.8c0.9,0.9,1.7,2,2.7,2.9c0.5,0.5,1,1,1.5,1.5
			c0.5,0.5,1.1,0.9,1.6,1.4c0.6,0.5,1.1,1,1.7,1.4l1.8,1.3l0.9,0.6l0.9,0.6c0.6,0.4,1.2,0.8,1.8,1.1c1.2,0.7,2.5,1.3,3.7,2
			c1.2,0.6,2.4,1.1,3.5,1.7c0.6,0.3,1.1,0.6,1.7,0.7c0.5,0.2,1.1,0.4,1.6,0.6c1,0.4,1.9,0.9,2.8,1.1c0.8,0.3,1.6,0.5,2.2,0.8
			c1.2,0.4,1.9,0.7,1.9,0.7l0,0.2c0,0-0.7-0.1-2-0.2c-0.7-0.1-1.4-0.2-2.3-0.3c-0.5-0.1-0.9-0.2-1.4-0.3c-0.5-0.1-1-0.3-1.6-0.4
			c-1.1-0.3-2.3-0.6-3.5-1.1c-0.6-0.2-1.2-0.5-1.8-0.8c-0.6-0.3-1.3-0.5-1.9-0.9c-1.2-0.7-2.5-1.4-3.7-2.2c-0.6-0.4-1.2-0.9-1.8-1.3
			l-0.9-0.6l-0.9-0.7l-1.7-1.4c-0.6-0.5-1.1-1-1.6-1.5c-0.5-0.5-1.1-1-1.6-1.5c-0.5-0.5-1-1.1-1.4-1.6c-0.5-0.5-0.9-1-1.3-1.6
			c-0.4-0.5-0.9-1-1.2-1.5c-0.7-1.1-1.5-2-2-3c-2.4-3.8-3.5-6.6-3.5-6.6L5.9,239.7z"/>
	</g>
	<g class="st3">
		<path class="st4" d="M29,256.1c0,0,0.9,0.8,2.3,2c1.4,1.1,3.2,2.7,5.1,4.1c0.9,0.7,2,1.3,2.8,1.9c0.4,0.3,0.9,0.6,1.2,1
			c0.4,0.3,0.8,0.6,1.1,0.9c0.7,0.5,1.2,1.1,1.6,1.4c0.4,0.3,0.6,0.6,0.6,0.6l-0.1,0.2c0,0-0.3,0-0.9-0.1c-0.3,0-0.6-0.1-1-0.2
			c-0.4-0.1-0.8-0.2-1.2-0.4c-0.9-0.4-1.8-0.9-2.7-1.5c-0.4-0.4-0.9-0.7-1.3-1.1c-0.4-0.4-0.9-0.8-1.3-1.2c-1.7-1.7-3.4-3.4-4.6-4.8
			c-1.2-1.4-1.9-2.3-1.9-2.3L29,256.1z"/>
	</g>
	<g class="st3">
		<path class="st4" d="M64.3,209.2c-1.5,0.5-3,1.3-4.4,2c-1.4,0.8-2.7,1.7-4,2.7c-0.6,0.5-1.2,1-1.8,1.6c-0.6,0.5-1.1,1.1-1.6,1.7
			c-0.5,0.6-1,1.2-1.4,1.9c-0.4,0.6-0.8,1.3-1.2,2c-0.3,0.7-0.7,1.4-0.9,2.1c-0.1,0.4-0.3,0.7-0.4,1.1c-0.1,0.4-0.2,0.7-0.3,1.1
			l-0.2,1.1l-0.1,1.2c-0.1,0.8-0.1,1.6-0.1,2.3c0,0.8,0,1.6,0.2,2.3c0.1,0.8,0.2,1.5,0.4,2.3c0.1,0.8,0.4,1.5,0.6,2.3
			c0.2,0.8,0.5,1.5,0.7,2.2l-0.1-0.2c0.2,0.3,0.4,0.6,0.6,0.9c0.2,0.3,0.4,0.6,0.7,0.9c0.4,0.6,0.9,1.1,1.4,1.7
			c0.5,0.6,1,1.1,1.5,1.6c0.5,0.5,1,1.1,1.6,1.6c1.1,1.1,2.1,2.1,3.2,3.1c0.6,0.5,1.1,1,1.7,1.4c0.6,0.5,1.2,0.9,1.9,1.2l-0.1,0.2
			c-0.4-0.1-0.8-0.2-1.1-0.4c-0.4-0.1-0.7-0.3-1-0.5c-0.7-0.4-1.3-0.7-2-1.2c-1.3-0.8-2.5-1.8-3.7-2.7c-1.2-1-2.3-2-3.4-3.1
			c-0.5-0.5-1.1-1.1-1.6-1.7c-0.3-0.3-0.5-0.6-0.7-0.9c-0.2-0.3-0.5-0.7-0.7-1l-0.1-0.1l0-0.1c-0.2-0.8-0.5-1.6-0.7-2.4
			c-0.2-0.8-0.4-1.6-0.5-2.5c-0.1-0.8-0.2-1.7-0.3-2.5c-0.1-0.8-0.1-1.7,0-2.5c0-0.8,0.1-1.7,0.2-2.5l0.2-1.2l0.3-1.2
			c0.1-0.4,0.2-0.8,0.4-1.2c0.1-0.4,0.3-0.8,0.4-1.2c0.3-0.8,0.7-1.5,1.1-2.2c0.4-0.7,0.9-1.4,1.4-2.1c0.5-0.7,1-1.3,1.6-1.9
			c0.3-0.3,0.6-0.6,0.9-0.9c0.3-0.3,0.6-0.6,0.9-0.8c0.6-0.5,1.3-1.1,1.9-1.5c1.3-1,2.7-1.8,4.2-2.5c1.5-0.7,3-1.4,4.5-1.8
			L64.3,209.2z"/>
	</g>
	<g class="st3">
		<path class="st4" d="M51,243.4c0,0,0.1,2.7,0.4,6.8c0.2,2,0.5,4.4,0.9,6.9c0.3,1.2,0.5,2.5,1,3.7c0.1,0.3,0.3,0.5,0.4,0.8
			c0.1,0.2,0.4,0.5,0.5,0.8c0.4,0.5,0.8,1.2,1.2,1.6c0.4,0.5,0.8,1,1.3,1.4c0.5,0.4,0.9,0.9,1.4,1.3c0.5,0.4,1,0.8,1.5,1.2
			c0.5,0.3,1,0.7,1.6,1c0.5,0.3,1,0.6,1.6,0.9c0.5,0.3,1,0.6,1.5,0.8c1,0.5,2,1,2.9,1.4c0.9,0.4,1.8,0.7,2.6,1
			c0.8,0.3,1.5,0.5,2,0.7c1.1,0.4,1.8,0.5,1.8,0.5l0,0.2c0,0-0.7,0.1-1.9,0c-0.6,0-1.3-0.1-2.2-0.3c-0.8-0.1-1.8-0.3-2.8-0.6
			c-1-0.3-2.1-0.7-3.2-1.1c-0.6-0.2-1.1-0.5-1.7-0.8c-0.6-0.3-1.1-0.6-1.7-1c-0.5-0.4-1.1-0.8-1.6-1.2c-0.5-0.4-1-0.9-1.6-1.4
			c-0.5-0.5-1-1-1.5-1.5c-0.5-0.5-0.9-1.1-1.4-1.7c-0.5-0.6-0.8-1.2-1.1-1.7c-0.2-0.3-0.3-0.5-0.6-0.9c-0.1-0.3-0.3-0.7-0.4-1
			c-0.5-1.4-0.7-2.7-0.8-4c-0.2-1.3-0.3-2.5-0.3-3.7c-0.1-1.2-0.1-2.3-0.1-3.3c-0.1-4.1,0.1-6.8,0.1-6.8L51,243.4z"/>
	</g>
	<g class="st3">
		<path class="st4" d="M58.5,269.3c0,0,0.4,0.5,1,1.1c0.6,0.7,1.4,1.5,2.2,2.4c0.4,0.4,0.9,0.8,1.3,1.1c0.2,0.2,0.3,0.4,0.5,0.6
			c0.1,0.2,0.2,0.4,0.4,0.6c0.2,0.4,0.4,0.8,0.5,1c0.1,0.3,0.1,0.5,0.1,0.5l-0.1,0.2c0,0-0.8,0-1.6-0.5c-0.4-0.2-0.9-0.6-1.3-1
			c-0.4-0.4-0.6-1-1-1.5c-0.7-1-1.2-2.1-1.5-3c-0.4-0.8-0.6-1.4-0.6-1.4L58.5,269.3z"/>
	</g>
	<g class="st3">
		<path class="st4" d="M169.1,245.5c0,0,1.6-1.1,4-2.9c1.2-0.9,2.5-2,3.8-3.2c0.7-0.6,1.3-1.3,1.8-2c0.3-0.4,0.5-0.7,0.7-1.1
			c0.1-0.2,0.1-0.4,0.2-0.5c0-0.2,0-0.3,0-0.5c0-0.5-0.1-0.9-0.1-1.4c-0.1-0.5-0.1-0.9-0.2-1.4c-0.2-0.9-0.4-1.9-0.5-2.7
			c-0.3-1.8-0.6-3.5-0.7-4.9c-0.4-2.9-0.4-4.9-0.4-4.9l0.2,0c0,0,0.9,1.8,1.8,4.6c0.4,1.4,0.9,3.1,1.2,4.9c0.2,0.9,0.3,1.9,0.3,2.9
			c0,0.5,0.1,1,0.1,1.5c0,0.5,0,1.1,0,1.6c0,0.2,0,0.6-0.1,0.9c-0.1,0.3-0.2,0.6-0.4,0.8c-0.3,0.5-0.6,0.9-1,1.3
			c-0.7,0.8-1.4,1.4-2.1,2c-1.5,1.2-2.9,2.1-4.2,2.9c-2.5,1.6-4.3,2.5-4.3,2.5L169.1,245.5z"/>
	</g>
	<g class="st3">
		<path class="st4" d="M162.6,270.8c0,0,2-1.7,4.8-4.4c0.7-0.7,1.4-1.4,2.2-2.2c0.8-0.8,1.6-1.6,2.4-2.6c0.4-0.5,0.8-0.9,1.2-1.4
			c0.4-0.5,0.8-1,1.2-1.5c0.8-1,1.4-2.1,2-3.2c0.2-0.6,0.5-1.1,0.7-1.7l0.3-0.9l0.2-0.9c0.3-1.2,0.5-2.4,0.7-3.6
			c0.4-2.4,0.8-4.6,1.1-6.5c0.6-3.8,1.1-6.4,1.1-6.4l0.2,0c0,0,0.4,2.6,0.3,6.6c0,2-0.2,4.3-0.6,6.7c-0.2,1.2-0.5,2.5-0.9,3.7
			l-0.3,1l-0.3,0.9c-0.2,0.6-0.6,1.3-0.9,1.9c-0.7,1.2-1.5,2.3-2.3,3.2c-0.4,0.5-0.8,1-1.3,1.4c-0.4,0.5-0.9,0.9-1.3,1.4
			c-0.9,0.9-1.7,1.7-2.6,2.4c-0.8,0.8-1.6,1.4-2.4,2.1c-3,2.5-5.1,4-5.1,4L162.6,270.8z"/>
	</g>
	<g class="st3">
		<path class="st4" d="M159.9,280.6c0,0,1.1-0.9,2.7-2.5c0.8-0.8,1.6-1.7,2.5-2.7c0.4-0.5,0.9-1,1.3-1.6c0.4-0.6,0.9-1.1,1.3-1.7
			c0.4-0.6,0.8-1.2,1.1-1.8c0.4-0.6,0.6-1.2,0.9-1.8c0.3-0.6,0.5-1.1,0.9-1.6c0.3-0.5,0.4-1,0.7-1.5c0.2-0.5,0.3-0.9,0.5-1.3
			c0.2-0.4,0.2-0.8,0.3-1.1c0.1-0.6,0.2-1,0.2-1l0.2,0c0,0,0.1,0.4,0.3,1c0.1,0.3,0.2,0.7,0.2,1.2c0,0.5,0,1-0.1,1.6
			c-0.1,0.6-0.2,1.2-0.4,1.8c-0.2,0.6-0.5,1.3-0.8,1.9c-0.4,0.6-0.7,1.3-1.2,1.8c-0.5,0.6-0.9,1.2-1.4,1.7c-0.5,0.6-1,1.1-1.5,1.6
			c-0.5,0.5-1,1-1.5,1.5c-1,0.9-2,1.8-2.9,2.4c-1.7,1.3-3,2.1-3,2.1L159.9,280.6z"/>
	</g>
	<g class="st3">
		<path class="st4" d="M176.9,274.3c0,0,1.3-0.6,3.3-1.5c1-0.5,2.1-1.1,3.3-1.7c1.2-0.7,2.4-1.4,3.6-2.2c0.6-0.4,1.2-0.8,1.7-1.2
			c0.6-0.4,1.1-0.9,1.6-1.2c0.5-0.4,1-0.8,1.5-1.1c0.5-0.4,0.9-0.7,1.4-1c0.4-0.3,0.8-0.6,1.1-0.9c0.4-0.3,0.6-0.5,0.8-0.7
			c0.5-0.4,0.8-0.7,0.8-0.7l0.2,0.1c0,0-0.1,0.4-0.4,1c-0.1,0.3-0.3,0.7-0.5,1.1c-0.3,0.4-0.5,0.9-0.9,1.3c-0.4,0.4-0.8,0.9-1.2,1.4
			c-0.5,0.4-1,0.9-1.6,1.3c-0.6,0.4-1.2,0.8-1.8,1.1c-0.6,0.3-1.3,0.7-2,1c-1.3,0.7-2.7,1.3-3.9,1.8c-1.3,0.5-2.5,1-3.5,1.3
			c-2.1,0.7-3.5,1.1-3.5,1.1L176.9,274.3z"/>
	</g>
	<g class="st3">
		<path class="st4" d="M204.9,258.8c0,0,1.2-0.8,2.7-2.3c0.4-0.4,0.8-0.8,1.2-1.2c0.4-0.4,0.9-0.9,1.3-1.4c0.4-0.5,0.8-1.1,1.3-1.6
			c0.4-0.6,0.8-1.1,1.2-1.7c0.3-0.6,0.7-1.2,1-1.8c0.3-0.6,0.6-1.2,0.8-1.8c0.3-0.6,0.5-1.1,0.7-1.7c0.2-0.6,0.4-1.1,0.6-1.6
			c0.1-0.5,0.3-1,0.5-1.4c0.1-0.4,0.2-0.8,0.3-1.1c0.2-0.6,0.3-1,0.3-1l0.2,0c0,0,0.1,0.4,0.2,1c0.1,0.3,0.1,0.7,0.2,1.2
			c0,0.5,0,1,0,1.5c0,0.6-0.2,1.2-0.3,1.8c-0.1,0.7-0.4,1.3-0.6,2c-0.3,0.7-0.7,1.3-1.1,1.9c-0.4,0.6-0.9,1.2-1.3,1.8
			c-0.5,0.6-0.9,1.2-1.4,1.7c-0.5,0.5-1,1.1-1.5,1.5c-0.5,0.5-1,0.9-1.5,1.3c-0.5,0.4-1,0.8-1.4,1.1c-1.8,1.3-3.1,2-3.1,2
			L204.9,258.8z"/>
	</g>
	<g class="st3">
		<path class="st4" d="M88.9,251.6c0,0,0.8,0.2,2.3,0.6c0.7,0.2,1.6,0.4,2.6,0.7c1,0.2,2.1,0.5,3.3,0.8c0.6,0.1,1.2,0.3,1.9,0.4
			c0.7,0.1,1.3,0.3,2,0.4c1.4,0.3,2.9,0.5,4.4,0.8c1.5,0.2,3.1,0.4,4.7,0.6c1.6,0.1,3.2,0.3,4.8,0.4c0.8,0,1.6,0.1,2.4,0.1
			c0.8,0,1.6,0,2.4,0c0.8,0,1.6,0,2.4,0c0.8-0.1,1.6-0.1,2.3-0.2c0.8-0.1,1.5-0.1,2.2-0.2c0.7-0.1,1.4-0.2,2.1-0.3
			c0.7-0.1,1.4-0.2,2-0.2c0.7-0.1,1.3-0.2,1.9-0.4c1.2-0.3,2.3-0.4,3.3-0.6c1-0.3,1.8-0.5,2.6-0.7c1.4-0.3,2.3-0.5,2.3-0.5
			s-0.7,0.5-2,1.2c-0.6,0.4-1.4,0.9-2.3,1.4c-0.9,0.5-2,0.9-3.2,1.4c-0.6,0.2-1.2,0.5-1.9,0.7c-0.7,0.2-1.4,0.4-2.1,0.6
			c-0.7,0.2-1.5,0.4-2.2,0.6c-0.8,0.2-1.6,0.3-2.4,0.4c-0.8,0.1-1.6,0.2-2.5,0.4c-0.8,0.1-1.7,0.1-2.5,0.2c-0.9,0-1.7,0.1-2.6,0.1
			c-0.9,0-1.7-0.1-2.6-0.1c-1.7,0-3.4-0.3-5.1-0.5c-0.8-0.1-1.7-0.3-2.5-0.4c-0.8-0.2-1.6-0.3-2.4-0.5c-1.6-0.4-3.1-0.8-4.5-1.3
			c-0.7-0.2-1.4-0.5-2-0.7c-0.6-0.3-1.3-0.5-1.8-0.8c-1.2-0.5-2.2-1.1-3.2-1.5c-0.9-0.5-1.7-0.9-2.3-1.4c-0.6-0.4-1.1-0.7-1.4-1
			C89.1,251.8,88.9,251.6,88.9,251.6z"/>
	</g>
	<g class="st3">
		<path class="st4" d="M88.7,272.3c0,0,0.8,0.2,2.3,0.6c0.7,0.2,1.6,0.4,2.6,0.7c1,0.2,2.1,0.5,3.3,0.8c0.6,0.1,1.2,0.3,1.9,0.4
			c0.7,0.1,1.3,0.3,2,0.4c1.4,0.3,2.9,0.5,4.4,0.8c1.5,0.2,3.1,0.4,4.7,0.6c1.6,0.1,3.2,0.3,4.8,0.4c0.8,0,1.6,0.1,2.4,0.1
			c0.8,0,1.6,0,2.4,0c0.8,0,1.6,0,2.4,0c0.8-0.1,1.6-0.1,2.3-0.2c0.8-0.1,1.5-0.1,2.2-0.2c0.7-0.1,1.4-0.2,2.1-0.3
			c0.7-0.1,1.4-0.2,2-0.2c0.7-0.1,1.3-0.2,1.9-0.4c1.2-0.3,2.3-0.4,3.3-0.6c1-0.3,1.8-0.5,2.6-0.7c1.4-0.3,2.3-0.5,2.3-0.5
			s-0.7,0.5-2,1.2c-0.6,0.4-1.4,0.9-2.3,1.4c-0.9,0.5-2,0.9-3.2,1.4c-0.6,0.2-1.2,0.5-1.9,0.7c-0.7,0.2-1.4,0.4-2.1,0.6
			c-0.7,0.2-1.5,0.4-2.2,0.6c-0.8,0.2-1.6,0.3-2.4,0.4c-0.8,0.1-1.6,0.2-2.5,0.4c-0.8,0.1-1.7,0.1-2.5,0.2c-0.9,0-1.7,0.1-2.6,0.1
			c-0.9,0-1.7-0.1-2.6-0.1c-1.7,0-3.4-0.3-5.1-0.5c-0.8-0.1-1.7-0.3-2.5-0.4c-0.8-0.2-1.6-0.3-2.4-0.5c-1.6-0.4-3.1-0.8-4.5-1.3
			c-0.7-0.2-1.4-0.5-2-0.7c-0.6-0.3-1.3-0.5-1.8-0.8c-1.2-0.5-2.2-1.1-3.2-1.5c-0.9-0.5-1.7-0.9-2.3-1.4c-0.6-0.4-1.1-0.7-1.4-1
			C88.9,272.4,88.7,272.3,88.7,272.3z"/>
	</g>
	<g class="st3">
		<path class="st4" d="M85.1,191.3c1.7-0.7,3.5-1.3,5.2-1.8c1.8-0.5,3.6-0.9,5.4-1.1c0.9-0.2,1.8-0.3,2.7-0.4
			c0.9-0.1,1.8-0.1,2.8-0.2c0.9,0,1.8,0,2.8,0c0.9,0,1.8,0.1,2.8,0.1l5.5,0.2c0.9,0.1,1.8,0.1,2.8,0.1c0.9,0.1,1.9,0.2,2.8,0.3
			c0.9,0.1,1.8,0.3,2.8,0.5c0.9,0.2,1.8,0.5,2.7,0.9c0.9,0.3,1.8,0.8,2.6,1.2c0.4,0.3,0.8,0.5,1.2,0.8c0.4,0.3,0.8,0.6,1.2,0.9
			l-0.4-0.2c1.4,0.4,2.8,0.8,4.2,1.1l2.1,0.5c0.7,0.1,1.4,0.3,2.1,0.4c0.7,0.1,1.4,0.2,2.1,0.3c0.7,0.1,1.4,0.2,2.1,0.2
			c0.7,0.1,1.4,0.1,2.1,0.1c0.7,0,1.4-0.1,2.1-0.3l0.1,0.2c-0.7,0.4-1.4,0.6-2.1,0.8c-0.7,0.2-1.5,0.3-2.2,0.3
			c-0.7,0.1-1.5,0.1-2.2,0.1c-0.8,0-1.5,0-2.2-0.1c-0.7,0-1.5-0.2-2.2-0.2c-0.7-0.1-1.5-0.2-2.2-0.4c-0.7-0.2-1.5-0.3-2.2-0.5
			c-0.7-0.2-1.4-0.4-2.1-0.6l-0.2-0.1l-0.2-0.2c-0.3-0.3-0.7-0.5-1-0.8c-0.3-0.3-0.7-0.5-1.1-0.7c-0.7-0.5-1.5-0.9-2.3-1.2
			c-0.4-0.2-0.8-0.4-1.2-0.5c-0.4-0.2-0.8-0.3-1.2-0.5l-1.3-0.4l-1.3-0.4c-0.9-0.2-1.7-0.5-2.6-0.6c-0.9-0.2-1.8-0.3-2.7-0.4
			c-1.8-0.2-3.6-0.2-5.4-0.1c-1.8,0.1-3.6,0.4-5.4,0.7c-1.8,0.3-3.6,0.5-5.4,0.7c-3.6,0.5-7.2,1-10.9,1.4L85.1,191.3z"/>
	</g>
	<g class="st3">
		<path class="st4" d="M50.3,212.1c0,0,0.2-0.5,0.7-1.3c0.5-0.8,1.3-2,2.7-3.3c1.3-1.3,3.2-2.6,5.6-3.5c2.4-1,5.3-1.5,8.4-1.7
			c0.8,0,1.6-0.1,2.4,0c0.8,0.1,1.6,0.1,2.5,0.2c0.9,0,1.7,0.2,2.6,0.4c0.9,0.2,1.7,0.3,2.6,0.5c3.4,0.7,7.1,1.7,10.8,2.6
			c3.7,1,7.6,2,11.5,2.9c3.9,0.9,8,1.7,12,2.2c2,0.3,4.1,0.4,6,0.5c2.1,0,4-0.1,6-0.2c4-0.3,7.9-0.8,11.7-1.3c3.8-0.5,7.5-1,11-1.5
			c3.5-0.5,6.8-1,9.8-1.5c0.4-0.1,0.7-0.1,1.1-0.2c0.4-0.1,0.8-0.1,1.1-0.2c0.4,0,0.8-0.1,1.2-0.1c0.4,0,0.7,0,1.1,0
			c1.4,0,2.8,0.1,4.1,0.3c2.5,0.4,4.7,1,6.3,1.8c1.7,0.8,2.8,1.7,3.5,2.4c0.4,0.3,0.6,0.7,0.7,0.9c0.1,0.2,0.2,0.3,0.2,0.3l-0.2,0.1
			c0,0-0.1-0.1-0.3-0.3c-0.2-0.2-0.4-0.5-0.8-0.7c-0.7-0.6-1.9-1.3-3.6-1.9c-1.7-0.6-3.8-1.1-6.2-1.3c-1.2-0.1-2.5-0.1-3.9,0
			c-0.3,0-0.7,0.1-1,0.1c-0.3,0-0.7,0.1-1,0.1c-0.3,0.1-0.7,0.1-1.1,0.2c-0.4,0.1-0.8,0.2-1.1,0.3c-3,0.6-6.3,1.2-9.8,1.8
			c-3.5,0.6-7.2,1.1-11,1.5c-3.8,0.4-7.8,0.8-11.9,1c-2,0.1-4.1,0.1-6.2,0c-2.1-0.2-4.1-0.5-6.2-0.9c-4.1-0.8-8-1.8-12-2.7
			c-3.9-0.9-7.8-1.7-11.6-2.4c-3.8-0.7-7.4-1.3-10.9-2c-3.4-0.6-6.7-1.1-9.7-1c-3,0.1-5.7,0.4-8,1.3c-2.3,0.8-4.1,1.9-5.5,2.9
			c-1.4,1.1-2.3,2.1-2.9,2.9c-0.6,0.8-0.8,1.2-0.8,1.2L50.3,212.1z"/>
	</g>
	<g class="st3">
		<path class="st4" d="M160,195.7c0,0,1.2-0.1,2.9,0c0.9,0.1,1.9,0.1,3,0.3c1.1,0.2,2.3,0.4,3.4,0.7c0.6,0.2,1.2,0.3,1.7,0.5
			c0.6,0.2,1.1,0.3,1.6,0.6c0.5,0.2,1,0.5,1.4,0.8c0.4,0.3,0.8,0.6,1.2,0.9c0.3,0.3,0.6,0.6,0.9,0.9c0.3,0.3,0.4,0.5,0.6,0.8
			c0.3,0.4,0.5,0.7,0.5,0.7l-0.1,0.1c0,0-0.3-0.1-0.8-0.3c-0.2-0.1-0.5-0.2-0.8-0.4c-0.3-0.1-0.7-0.3-1.1-0.5
			c-0.4-0.2-0.8-0.3-1.2-0.5c-0.4-0.2-0.9-0.4-1.4-0.6c-0.5-0.2-1-0.5-1.4-0.7c-0.5-0.3-1-0.5-1.5-0.7c-1.1-0.4-2.1-0.8-3.2-1.1
			c-1-0.3-2-0.6-2.9-0.8c-1.7-0.4-2.8-0.6-2.8-0.6L160,195.7z"/>
	</g>
	<g>
		<path class="st5" d="M216.6,180c0,0,5.9-0.5,8.3-4.3c2.3-3.8,8.2-4.8,9.2-3.8s0.7,2.8-1.2,3.9c-1.8,1.1-4.8,3.9-3.2,4.3
			c1.6,0.3,5.7-3.8,7.1-2.3c1.3,1.5,1.2,3.2,0.8,3.8c0,0,6.5-2.1,7.9,0.9s-1.8,3-1.8,3s-7.8-0.2-8.9,5.3c1.3,0.7,6.5,3,5.1,5.3
			s-4.7,1.3-6.6,1.2s-7.7,2.1-11.4,2.3s-6.3,0.7-6.9-0.3S214.1,181,216.6,180z"/>
		<g>
			<path class="st6" d="M231.6,186.2c0,0,3.8-4.3,6.8-4.9"/>
			<path class="st7" d="M231.6,186.1c0,0,1.3-1.8,2.9-3.2c0.4-0.4,0.8-0.7,1.2-1c0.4-0.3,0.9-0.5,1.3-0.6c0.2-0.1,0.4-0.1,0.6-0.1
				c0.2,0,0.3,0,0.5,0c0.3,0,0.4,0,0.4,0l0,0.1c0,0-0.1,0.1-0.3,0.2c-0.2,0.1-0.5,0.3-0.8,0.5c-0.3,0.2-0.7,0.5-1.1,0.7
				c-0.4,0.2-0.9,0.5-1.3,0.8c-0.9,0.6-1.7,1.3-2.3,1.8C232,185.8,231.6,186.2,231.6,186.1L231.6,186.1z"/>
		</g>
	</g>
	<g>
		<path class="st8" d="M32.9,66.5c0,0,1.4-0.5,2.8-0.7c0.4-0.1,0.7-0.1,1.1-0.1c0.4,0,0.7,0.1,1,0.2c0.3,0.1,0.5,0.3,0.6,0.4
			c0.1,0.2,0.1,0.3,0.1,0.3l-0.1,0c0,0-0.1,0-0.2-0.1c-0.1,0-0.2,0-0.3,0c-0.1,0-0.2,0-0.3,0c-0.3,0-0.5,0-0.9,0c-0.3,0-0.7,0-1,0
			C34.4,66.4,32.9,66.5,32.9,66.5L32.9,66.5z"/>
	</g>
	<g>
		<g>
			<defs>
				<polygon id="SVGID_1_" points="-160.9,271.5 131.1,336.1 289.1,36.4 -3,-28.1 				"/>
			</defs>
			<clipPath id="SVGID_2_">
				<use xlink:href="#SVGID_1_"  style="overflow:visible;"/>
			</clipPath>
			<g class="st9">
				<defs>
					<polygon id="SVGID_3_" points="-3,-28.1 289.1,36.4 131.1,336.1 -160.9,271.5 					"/>
				</defs>
				<clipPath id="SVGID_4_">
					<use xlink:href="#SVGID_3_"  style="overflow:visible;"/>
				</clipPath>
				<path class="st10" d="M54.2,96.6c-2.1-1.9-4.9-3.3-8-3.6c-7.5-0.7-14.2,4.7-14.9,12.1c-0.7,7.4,4.8,14,12.3,14.7
					c6,0.6,11.4-2.8,13.8-8"/>
				<path class="st11" d="M54.2,96.6c-2.1-1.9-4.9-3.3-8-3.6c-7.5-0.7-14.2,4.7-14.9,12.1c-0.7,7.4,4.8,14,12.3,14.7
					c6,0.6,11.4-2.8,13.8-8"/>
				<path class="st10" d="M110.2,151c-5.4-0.3-10.9-2.3-10.9-2.3c-6.8-1.9-27.3-7.9-39.7-26.9c-1.2-1.9-3.9-6.3-6.2-12.3
					c0.3-0.8,0.5-1.5,0.6-2.4c0.2-1.7-0.2-3.3-0.9-4.7c-0.3,0-0.4-0.1-0.7-0.2c-0.3,0-0.7-0.1-1,0c-1.6-7.7-1.7-16.7,2.6-25.7
					c9.6-20.3,29.5-29.1,39.2-31.3c9.7-2.2,14.2-11.4,14.5-14.8c0.3-3.4,0.2-18.5,0.7-20.4c0.4-1.8,5.5-9.9,13.4-9.7
					c7.9,0.1,13.2,5.4,11.3,10c-1.9,4.5-6.3,6.4-10.3,5.9c-4-0.5-8.3-2.8-10.8-4.5c-2.5-1.7-6.8-5.8-7.3-6.9c-0.5-1,7,5.3,10.6,6.6
					c3.6,1.3,12.2,3.5,14.1-0.4c2-4-1.5-6.3-4.1-6.5c-2.6-0.2-13.4,1.8-11.2,12.5c2.2,10.7,9.2,17.4,12.2,20
					c3,2.6,3.2,4.5,25.7,11.3c15.1,4.6,31.1,19,36.6,34.4c5.3,14.9,2.5,29.9-1.7,36.6C182.7,126.1,171.6,154.4,110.2,151z"/>
				<path class="st10" d="M191.3,98c-4.6,28.3-33.7,48.5-68.3,44.7c-34.5-3.8-59.9-30.1-56.8-58.6c2.2-19.8,16.5-35.1,36-40.8
					c8.6-2.5,12.8,0.9,23.6-0.2c7.4-0.8,19.2,1.8,25.9,4.7C176.3,58.3,194.1,80.2,191.3,98z"/>
				<path class="st11" d="M51.3,102.2c-2.4-12.7,0-20.8,2.6-25.7c3-5.7,12.2-24.1,39.2-31.3c9.6-2.6,14.2-11.4,14.5-14.8
					c0.3-3.4,0.2-18.5,0.7-20.4c0.4-1.8,5.5-9.9,13.4-9.7c7.9,0.1,13.2,5.4,11.3,10c-1.9,4.5-6.3,6.4-10.3,5.9
					c-4-0.5-8.3-2.8-10.8-4.5c-2.5-1.7-6.8-5.8-7.3-6.9c-0.5-1,7,5.3,10.6,6.6c3.6,1.3,12.2,3.5,14.1-0.4c2-4-1.5-6.3-4.1-6.5
					c-2.6-0.2-13.4,1.8-11.2,12.5c2.2,10.7,9.2,17.4,12.2,20c3,2.6,3.2,4.5,25.7,11.3c22.5,6.9,34.4,29.5,36.6,34.4
					c2.1,5.1,5.7,19.1-1.7,36.6c-2.8,5.2-8.4,13.9-18.6,20.7c-7.1,4.7-13.3,6.4-20.1,8.4c-17.4,4.9-31.8,3.4-37.9,2.6
					c-5.8-0.8-10-2-10.9-2.3c-6.8-1.9-27.2-8-39.7-26.9c-1.7-2.6-4.1-6.7-6.2-12.3C52.7,107.1,52,104.6,51.3,102.2z"/>
				<path class="st10" d="M197.7,96.4c-2.3-0.2-4.5,0.3-6.3,1.4c0,5.3-0.8,11.6-3.2,18.6c1.8,2.2,4.4,3.6,7.3,3.9
					c6.2,0.6,11.8-4.3,12.4-10.9C208.4,102.9,203.9,97,197.7,96.4"/>
				<path class="st11" d="M197.7,96.4c-2.3-0.2-4.5,0.3-6.3,1.4c0,5.3-0.8,11.6-3.2,18.6c1.8,2.2,4.4,3.6,7.3,3.9
					c6.2,0.6,11.8-4.3,12.4-10.9C208.4,102.9,203.9,97,197.7,96.4z"/>
				<g class="st12">
					<g>
						<defs>
							
								<rect id="SVGID_5_" x="125.5" y="112" transform="matrix(0.2158 -0.9764 0.9764 0.2158 -15.383 219.0064)" width="6.3" height="14.2"/>
						</defs>
						<clipPath id="SVGID_6_">
							<use xlink:href="#SVGID_5_"  style="overflow:visible;"/>
						</clipPath>
					</g>
				</g>
				<path class="st13" d="M137.9,43.8c-1.9,0.4-4.2,0.7-5.3,0.4c-2.1-0.7-6.7-2.3-8.1-0.9c-1.4,1.3-4.4,0.5-6.6-0.6
					c-2.2-1.2-3.2,0.8-6,0.4c-2.8-0.4-1.4-1.7-3.3-1c-1.9,0.7-4.9,1.8-6.3,1.2c-1.2-0.5-1.7,1-5.5,0.7c7.1-3.3,10.5-10.6,10.8-13.6
					c0.3-3.4,0.2-18.5,0.7-20.4c0.4-1.8,5.5-9.9,13.4-9.7s13.2,5.4,11.3,10c-1.9,4.5-6.3,6.4-10.3,5.9c-4-0.5-8.3-2.8-10.8-4.5
					c-2.5-1.7-6.8-5.8-7.3-6.9c-0.5-1,7,5.3,10.6,6.6c3.6,1.3,12.2,3.5,14.1-0.4c2-4-1.5-6.3-4.1-6.5c-2.6-0.2-13.4,1.8-11.2,12.5
					c2.2,10.7,9.2,17.4,12.2,20C128.4,39,129,40.5,137.9,43.8z"/>
				<path class="st14" d="M137.9,43.8c-1.9,0.4-4.2,0.7-5.3,0.4c-2.1-0.7-6.7-2.3-8.1-0.9c-1.4,1.3-4.4,0.5-6.6-0.6
					c-2.2-1.2-3,0-5.7-0.4c-2.8-0.4-1.7-0.9-3.6-0.2c-1.9,0.7-4.9,1.8-6.3,1.2c-1.2-0.5-1.7,1-5.5,0.7c7.1-3.3,10.5-10.6,10.8-13.6
					c0.3-3.4,0.2-18.5,0.7-20.4c0.4-1.8,5.5-9.9,13.4-9.7s13.2,5.4,11.3,10c-1.9,4.5-6.3,6.4-10.3,5.9c-4-0.5-8.3-2.8-10.8-4.5
					c-2.5-1.7-6.8-5.8-7.3-6.9c-0.5-1,7,5.3,10.6,6.6c3.6,1.3,12.2,3.5,14.1-0.4c2-4-1.5-6.3-4.1-6.5c-2.6-0.2-13.4,1.8-11.2,12.5
					c2.2,10.7,9.2,17.4,12.2,20C128.4,39,129,40.5,137.9,43.8"/>
				<path class="st15" d="M130.1,45.1c0,0-0.5-0.1-1.3-0.7c-0.4-0.2-0.9-0.5-1.5-0.9c-0.5-0.4-1.1-0.8-1.7-1.4
					c-0.7-0.5-1.2-1.2-1.8-1.8c-0.6-0.7-1.3-1.4-1.9-2.3c-0.6-0.8-1.2-1.7-1.8-2.6c-0.3-0.5-0.5-0.9-0.8-1.4l-0.7-1.5
					c-0.2-0.5-0.5-0.9-0.7-1.5c-0.2-0.5-0.4-1-0.6-1.5c-0.2-0.5-0.4-1-0.6-1.5c-0.2-0.5-0.3-1-0.6-1.5c-0.4-0.9-0.8-1.8-1.1-2.7
					c-0.3-0.9-0.6-1.7-0.9-2.4c-0.3-0.7-0.5-1.4-0.7-2.1c-0.2-0.6-0.4-1.2-0.5-1.6c-0.4-0.9-0.5-1.4-0.5-1.4l-0.1,0
					c0,0,0.1,0.5,0.3,1.5c0,0.4,0.2,1.1,0.4,1.7c0.1,0.6,0.3,1.4,0.5,2.1c0.2,0.8,0.5,1.6,0.7,2.5c0.3,0.9,0.6,1.8,1,2.8
					c0.2,0.5,0.3,1,0.6,1.5c0.2,0.5,0.4,1,0.7,1.5c0.2,0.5,0.4,1,0.7,1.5c0.2,0.5,0.5,0.9,0.8,1.5l0.8,1.5c0.3,0.5,0.6,0.9,0.9,1.4
					c0.5,0.9,1.2,1.8,1.9,2.5c0.3,0.4,0.6,0.8,0.9,1.1c0.3,0.4,0.6,0.8,0.9,1.1c0.6,0.7,1.3,1.3,1.9,1.8c0.6,0.6,1.2,1,1.8,1.3
					c0.6,0.3,1.1,0.6,1.5,0.8C129.6,45.1,130.1,45.2,130.1,45.1"/>
				<path class="st15" d="M121.1,44.7c0,0-0.3-0.2-0.8-0.7c-0.5-0.5-1.1-1.2-1.7-2.1c-0.3-0.5-0.6-1-1-1.5c-0.3-0.6-0.7-1.1-1-1.8
					c-0.3-0.6-0.7-1.3-0.9-2c-0.3-0.6-0.6-1.4-0.9-2.1c-0.3-0.7-0.5-1.4-0.7-2.2c-0.2-0.7-0.4-1.4-0.6-2.1c-0.4-1.3-0.8-2.6-1-3.7
					c-0.3-1.1-0.5-2-0.7-2.6c-0.2-0.6-0.3-1-0.3-1l-0.1,0c0,0,0.1,0.4,0.1,1.1c0.1,0.4,0.1,0.7,0.2,1.2c0,0.4,0.1,1,0.2,1.5
					c0.1,0.5,0.2,1.2,0.4,1.8c0.1,0.6,0.3,1.3,0.5,2c0.2,0.7,0.4,1.3,0.7,2.1c0.3,0.7,0.5,1.4,0.8,2.1c0.3,0.7,0.6,1.4,0.9,2.1
					c0.3,0.6,0.7,1.4,1,1.9c0.3,0.6,0.8,1.2,1.1,1.8c0.4,0.6,0.7,1,1.1,1.5c0.7,0.9,1.3,1.6,1.9,2C120.7,44.6,121,44.8,121.1,44.7"
					/>
				<path class="st15" d="M106,47c0,0,0.3-0.2,0.9-0.7c0.3-0.2,0.5-0.6,0.8-1c0.3-0.4,0.6-0.8,0.9-1.3c0.2-0.2,0.3-0.5,0.5-0.8
					c0.1-0.3,0.3-0.6,0.4-0.9c0.3-0.6,0.6-1.3,0.9-2c0.2-0.7,0.6-1.4,0.7-2.2c0.2-0.8,0.4-1.5,0.6-2.3l0.2-1.2
					c0-0.4,0.1-0.8,0.1-1.2c0.1-0.8,0.1-1.6,0.2-2.3c0-0.8,0.1-1.5,0-2.2c0-0.7-0.1-1.3-0.2-1.9c0-0.6-0.2-1.2-0.2-1.6
					c0-0.4-0.2-0.9-0.2-1.2c-0.1-0.7-0.2-1.1-0.2-1.1l-0.1,0c0,0,0,0.4,0,1.1c0,0.7,0.1,1.7,0.1,2.9c0,1.2,0,2.5-0.1,4
					c0,0.7-0.1,1.5-0.1,2.3c0,0.3-0.1,0.8-0.1,1.1l-0.2,1.2c-0.1,0.8-0.2,1.6-0.4,2.3c-0.2,0.8-0.4,1.4-0.6,2.2
					c-0.2,0.7-0.5,1.4-0.8,1.9c-0.1,0.3,0.1-0.3,0,0c-0.1,0.3-0.8,1.5-0.9,1.8c-0.3,0.5-0.6,1-0.8,1.4c-0.3,0.4-0.5,0.7-0.8,1
					C106.2,46.7,106,46.9,106,47"/>
				<path class="st15" d="M99.7,46.3c0,0,0.8-0.6,2-1.8c0.6-0.6,1.4-1.4,2.1-2.2c0.8-1,1.6-2,2.4-3.3c0.8-1.2,1.6-2.6,2.2-4.2
					c0.3-0.8,0.7-1.6,0.8-2.5c0.1-0.4,0.3-0.8,0.4-1.3c0.1-0.4,0.2-0.9,0.3-1.4l0.2-0.7l0.1-0.7c0-0.4,0.1-1,0.1-1.4
					c0.1-1,0.1-1.9,0.1-2.9c0.1-1.9,0-3.9-0.1-5.9c-0.1-1.9-0.1-3.9,0.2-5.7c0.3-1.9,1.2-3.5,2.5-4.7l0.5-0.5l0.5-0.4
					c0.4-0.3,0.7-0.5,1-0.8c0.4-0.2,0.7-0.5,1-0.7c0.4-0.2,0.7-0.5,1.1-0.6c1.5-0.7,2.9-1.3,4.3-1.4c1.4-0.1,2.7-0.1,3.9,0.2
					c1.1,0.3,2.1,0.6,2.9,1.1c0.7,0.4,1.3,0.8,1.6,1.1c0.3,0.3,0.5,0.5,0.5,0.5l0.1,0c0,0-0.1-0.3-0.5-0.6c-0.3-0.4-0.8-0.8-1.5-1.3
					c-0.7-0.5-1.7-0.9-2.8-1.3c-1.2-0.4-2.6-0.5-4.1-0.4c-1.5,0.1-3.1,0.7-4.7,1.4c-0.4,0.2-0.7,0.4-1.1,0.6
					c-0.4,0.2-0.7,0.5-1.1,0.8c-0.4,0.2-0.8,0.5-1.1,0.9L113,6.6l-0.5,0.5c-1.4,1.4-2.4,3.2-2.6,5.3c-0.3,2-0.2,4-0.1,5.9
					c0.1,1.9,0.1,3.9,0.1,5.9c0,1,0,1.9-0.1,2.9c0,0.4-0.1,1-0.1,1.4l-0.1,0.7l-0.2,0.7c0,0.4-0.2,0.9-0.2,1.4
					c-0.1,0.4-0.3,0.8-0.4,1.3c-0.2,0.9-0.5,1.7-0.8,2.5c-0.6,1.5-1.3,3-2.1,4.3c-0.7,1.2-1.5,2.4-2.3,3.3c-0.8,0.9-1.5,1.7-2.1,2.3
					C100.4,45.5,99.7,46.2,99.7,46.3"/>
			</g>
		</g>
	</g>
</g>
</svg>
