<?xml version="1.0" encoding="utf-8"?>
<!-- Generator: Adobe Illustrator 19.2.1, SVG Export Plug-In . SVG Version: 6.00 Build 0)  -->
<svg version="1.1" id="Слой_1" xmlns="http://www.w3.org/2000/svg" xmlns:xlink="http://www.w3.org/1999/xlink" x="0px" y="0px"
	 viewBox="0 0 415 841" style="enable-background:new 0 0 415 841;" xml:space="preserve">
<style type="text/css">
	.st0{fill:#9FA0A0;}
	.st1{fill:#D3D3D2;}
	.st2{fill:#6E6E6E;}
	.st3{fill:#888888;}
	.st4{fill:#767676;}
	.st5{fill:#8D8D8D;}
	.st6{fill:#666665;}
	.st7{fill:#7CABDD;}
	.st8{fill:none;stroke:#FFFFFF;stroke-width:2;stroke-miterlimit:10;stroke-dasharray:10.0418,10.0418;}
	.st9{fill:none;stroke:#FFFFFF;stroke-width:2;stroke-miterlimit:10;stroke-dasharray:9.4053,9.4053;}
	.st10{fill:none;stroke:#FFFFFF;stroke-width:2;stroke-miterlimit:10;}
	.st11{fill:none;stroke:#FFFFFF;stroke-width:2;stroke-miterlimit:10;stroke-dasharray:8.7619,8.7619;}
	.st12{fill:none;stroke:#FFFFFF;stroke-width:2;stroke-miterlimit:10;stroke-dasharray:9.4201,9.4201;}
	.st13{fill:#4B7198;}
	.st14{opacity:0.55;}
	.st15{fill:#FFFFFF;}
</style>
<g>
	<g>
		<polygon class="st0" points="302.1,446.4 361.7,758.8 347.1,758.8 286.7,446.4 		"/>
		<polygon class="st1" points="361.7,758.8 355.3,758.8 295.8,448.7 302.1,446.4 		"/>
	</g>
	<polygon class="st0" points="344,445 411.8,800.3 395.1,800.3 326.5,445 	"/>
	<polygon class="st1" points="411.8,800.3 404.4,800.3 336.8,447.5 344,445 	"/>
	<g>
		<polygon class="st0" points="108.4,446.4 48.8,758.8 63.5,758.8 123.8,446.4 		"/>
		<polygon class="st1" points="48.8,758.8 55.3,758.8 114.8,448.7 108.4,446.4 		"/>
	</g>
	<polygon class="st0" points="68.8,445 1,800.3 17.7,800.3 86.3,445 	"/>
	<polygon class="st1" points="1,800.3 8.4,800.3 76,447.5 68.8,445 	"/>
	<path class="st0" d="M71.3,347.4h21v116.1c0,4.8-2.5,9.3-6.5,11.8c-4,2.5-8.5,5.3-14.5,5.1c-4.7-0.2-8.6-1.3-11.5-3
		c-4.8-2.7-7.3-8.2-6.5-13.6L71.3,347.4z"/>
	<path class="st0" d="M312.8,347.6H336l19.8,112c0.8,4.7-0.8,9.6-4.4,12.8c-3.5,3.1-7.4,6.7-13.4,7.5c-4.7,0.6-8.7,0.2-11.9-0.9
		c-5.2-1.9-8.7-6.8-8.8-12.3L312.8,347.6z"/>
	<g>
		<path class="st0" d="M360.8,587.9c0,0-48.7,15-149,14.7c-100-0.3-151.3-13.3-151.3-13.3c-13.7-0.7-13.7-10.4-13.7-17l7.2-51.5
			c0-6.6,5.4-12,12-12h276.4c6.6,0,12,5.4,12,12l11.3,46.8C365.8,574.2,367.4,587.9,360.8,587.9z"/>
		<ellipse class="st2" cx="201.7" cy="568.1" rx="129" ry="8"/>
	</g>
	<g>
		<polygon class="st0" points="18.8,377 53.6,377 98.3,312.2 73.9,310.3 		"/>
		<rect x="18.8" y="377" class="st3" width="33.9" height="22"/>
		<polygon class="st4" points="98.3,312.2 98.3,329.8 52.8,398.9 52.8,377 		"/>
		<g>
			<polygon class="st0" points="384.6,377.9 349.8,377.9 305.1,313.1 329.6,311.3 			"/>
			
				<rect x="350.7" y="377.9" transform="matrix(-1 -4.492863e-011 4.492863e-011 -1 735.2463 777.7673)" class="st3" width="33.9" height="22"/>
			<polygon class="st4" points="305.1,313.1 305.1,330.7 350.7,399.9 350.7,377.9 			"/>
		</g>
	</g>
	<g>
		<g>
			<path class="st5" d="M65.3,780h-5c-7.7,0-14-6.3-14-14v-6.5c0-7.7,6.3-14,14-14h5c7.7,0,14,6.3,14,14v6.5
				C79.3,773.7,73,780,65.3,780z"/>
			<path class="st6" d="M62.8,780L62.8,780c-3.8,0-7-3.1-7-7v-22.1c0-3,2.4-5.4,5.4-5.4h3.1c3,0,5.4,2.4,5.4,5.4V773
				C69.8,776.9,66.7,780,62.8,780z"/>
		</g>
		<g>
			<path class="st5" d="M352.5,781.5h-5c-7.7,0-14-6.3-14-14V761c0-7.7,6.3-14,14-14h5c7.7,0,14,6.3,14,14v6.5
				C366.5,775.2,360.2,781.5,352.5,781.5z"/>
			<path class="st6" d="M350,781.5L350,781.5c-3.8,0-7-3.1-7-7v-22.1c0-3,2.4-5.4,5.4-5.4h3.1c3,0,5.4,2.4,5.4,5.4v22.1
				C357,778.4,353.9,781.5,350,781.5z"/>
		</g>
		<path class="st0" d="M357.2,723.4l-4.5,4.1c-4.1,2.5-8.7,3.8-13.5,3.9l-263.3,0.3c-4.3,0.1-8.6-1-12.3-3.3l-7.8-4.9l-7,31.3
			c0,5.1,4.4,9.3,9.7,9.3h298.1c5.4,0,6.6-7.6,6.6-12.7L357.2,723.4z"/>
	</g>
	<g>
		<g>
			<path class="st5" d="M29,833.7H14.3c-7.7,0-14-6.3-14-14V803c0-7.7,6.3-14,14-14H29c7.7,0,14,6.3,14,14v16.7
				C43,827.4,36.7,833.7,29,833.7z"/>
			<path class="st6" d="M21.7,833.7L21.7,833.7c-6.6,0-9-1.4-9-8V796c0-6.6,2.4-7,9-7h0c6.6,0,9,0.4,9,7v29.7
				C30.7,832.3,28.3,833.7,21.7,833.7z"/>
		</g>
		<g>
			<path class="st5" d="M400.7,835.7H386c-7.7,0-14-6.3-14-14V805c0-7.7,6.3-14,14-14h14.7c7.7,0,14,6.3,14,14v16.7
				C414.7,829.4,408.4,835.7,400.7,835.7z"/>
			<path class="st6" d="M393.4,835.7L393.4,835.7c-6.6,0-9-1.4-9-8V798c0-6.6,2.4-7,9-7h0c6.6,0,9,0.4,9,7v29.7
				C402.4,834.3,400,835.7,393.4,835.7z"/>
		</g>
		<path class="st0" d="M403.6,757.7l-10,6.5c-5.2,3.3-11.3,5-17.5,5l-340.9,0.4c-5.6,0.2-11.1-1.3-15.9-4.3l-10.1-6.4l-9,40.6
			c0,6.6,5.7,12,12.6,12h385.9c6.9,0,12.8-11.4,12.8-18L403.6,757.7z"/>
	</g>
	<g>
		<path class="st7" d="M328.4,294.4c-3.6-1.8-3.3,0,30.7-54.7c34-54.7,32-120.7,12.7-180.7c-19.3-60-152.7-54-170-53.3
			c-17.3,0.7-123.3,3-157.3,38.7c-28.7,30.2-31.3,116-21.3,146.7c8.2,25.1,43.3,78.5,55.7,96.9c2.3,3.4,1.2,8.1-2.4,10.1
			c-11.8,6.7-35,20.8-36,28.3c-1.9,14,38.7,80,36.7,94s8.7,126.7,19.3,126.7s208.7,2.7,222,0s14.7-134,16-142s34-72.7,36-81.3
			C372.4,315.1,339.9,300.2,328.4,294.4z M145.5,152.7c0-1.5,1.2-2.8,2.8-2.8h29c1.5,0,2.8,1.2,2.8,2.8s-1.2,2.8-2.8,2.8h-29
			C146.7,155.4,145.5,154.2,145.5,152.7z M201.7,447.5c-19.7,0-35.7-6.7-35.7-22.8h71.3C237.4,440.8,221.4,447.5,201.7,447.5z
			 M263.2,154.7h-29c-1.5,0-2.7-1.2-2.7-2.8s1.2-2.8,2.7-2.8h29c1.5,0,2.8,1.2,2.8,2.8S264.7,154.7,263.2,154.7z"/>
		<g>
			<path class="st8" d="M328.4,294.4c-3.6-1.8-3.3,0,30.7-54.7c34-54.7,32-120.7,12.7-180.7c-19.3-60-152.7-54-170-53.3
				c-17.3,0.7-123.3,3-157.3,38.7c-28.7,30.2-31.3,116-21.3,146.7c8.2,25.1,43.3,78.5,55.7,96.9c2.3,3.4,1.2,8.1-2.4,10.1
				c-11.8,6.7-35,20.8-36,28.3c-1.9,14,38.7,80,36.7,94s8.7,126.7,19.3,126.7s208.7,2.7,222,0s14.7-134,16-142s34-72.7,36-81.3
				C372.4,315.1,339.9,300.2,328.4,294.4z"/>
			<path class="st9" d="M145.5,152.7c0-1.5,1.2-2.8,2.8-2.8h29c1.5,0,2.8,1.2,2.8,2.8s-1.2,2.8-2.8,2.8h-29
				C146.7,155.4,145.5,154.2,145.5,152.7z"/>
			<g>
				<path class="st10" d="M166.6,429.7c-0.4-1.5-0.6-3.2-0.6-5h5"/>
				<line class="st11" x1="179.8" y1="424.8" x2="228" y2="424.8"/>
				<path class="st10" d="M232.4,424.8h5c0,1.8-0.2,3.4-0.6,5"/>
				<path class="st12" d="M232.4,437.9c-6.2,6.6-17.6,9.6-30.7,9.6c-15.3,0-28.4-4.1-33.4-13.4"/>
			</g>
			<path class="st9" d="M263.2,154.7h-29c-1.5,0-2.7-1.2-2.7-2.8s1.2-2.8,2.7-2.8h29c1.5,0,2.8,1.2,2.8,2.8S264.7,154.7,263.2,154.7
				z"/>
		</g>
	</g>
	<g>
		<path class="st13" d="M116.7,376.4c0,0,2.4-1.3,6.8-3.1c2.2-0.9,4.9-2,8-3.2c3.1-1.2,6.7-2.4,10.6-3.7c3.9-1.3,8.2-2.5,12.7-3.7
			c4.6-1.1,9.4-2.4,14.4-3.3c5-1,10.3-1.9,15.7-2.6c5.4-0.6,10.8-1.2,16.3-1.5l4.1-0.2c1.4,0,2.7-0.1,4.1-0.1c2.7-0.1,5.5-0.1,8.2,0
			c5.4,0.1,10.7,0.5,15.9,1c1.3,0.1,2.6,0.3,3.8,0.4c1.3,0.2,2.5,0.3,3.7,0.5c2.5,0.3,4.8,0.8,7.2,1.2c1.2,0.2,2.3,0.4,3.4,0.7
			c1.1,0.3,2.2,0.5,3.3,0.7c2.2,0.5,4.2,1.1,6.2,1.6c4,1,7.5,2.4,10.7,3.4c3.1,1.2,5.8,2.3,8,3.3c2.2,1,3.8,1.9,5,2.4
			c1.1,0.6,1.8,0.9,1.8,0.9s-0.7-0.2-1.9-0.6c-1.2-0.4-3-0.9-5.3-1.6c-2.3-0.6-5.1-1.3-8.3-2.2c-3.2-0.7-6.8-1.6-10.8-2.3
			c-2-0.4-4-0.8-6.2-1c-2.2-0.3-4.4-0.7-6.7-0.9c-4.6-0.6-9.4-1-14.5-1.3c-5-0.3-10.2-0.4-15.5-0.4c-1.3,0-2.6,0-4,0
			c-1.3,0-2.7,0.1-4,0.1c-1.3,0-2.7,0.1-4,0.1l-4,0.2c-5.4,0.3-10.7,0.8-16,1.3c-5.3,0.7-10.4,1.2-15.4,2c-5,0.8-9.8,1.6-14.4,2.5
			c-4.5,0.9-8.9,1.8-12.8,2.7c-4,0.9-7.6,1.7-10.8,2.5c-3.2,0.8-6,1.5-8.3,2.1c-2.3,0.6-4.1,1.1-5.3,1.5
			C117.4,376.3,116.7,376.4,116.7,376.4z"/>
	</g>
	<g class="st14">
		<g>
			<path class="st15" d="M116.7,381.1c0,0,2.3-0.9,4.7-1.8c2.3-0.9,4.7-1.8,4.7-1.8l0.2,0.5c0,0-2.4,0.8-4.7,1.6
				C119.1,380.3,116.7,381.1,116.7,381.1z"/>
			<path class="st15" d="M135.5,374.3c0,0,2.4-0.7,4.8-1.4c2.4-0.7,4.8-1.4,4.8-1.4l0.3,1.1c0,0-2.4,0.6-4.8,1.3
				c-2.4,0.6-4.8,1.3-4.8,1.3L135.5,374.3z"/>
			<polygon class="st15" points="154.8,369 164.6,366.8 164.9,368.4 155.1,370.4 			"/>
			<polygon class="st15" points="174.5,365 184.4,363.6 184.7,365.4 174.7,366.8 			"/>
			<path class="st15" d="M194.4,362.5c0,0,2.5-0.2,5-0.4c2.5-0.2,5-0.3,5-0.3l0.1,2c0,0-2.5,0.2-5,0.3c-2.5,0.2-5,0.3-5,0.3
				L194.4,362.5z"/>
			<polygon class="st15" points="214.5,361.6 224.5,361.8 224.4,363.6 214.4,363.5 			"/>
			<path class="st15" d="M234.5,362.5c0,0,2.5,0.3,5,0.6c2.5,0.3,5,0.6,5,0.6l-0.2,1.5c0,0-2.5-0.2-5-0.5c-2.5-0.3-5-0.5-5-0.5
				L234.5,362.5z"/>
			<polygon class="st15" points="254.4,365.4 264.1,367.7 263.9,368.7 254.1,366.7 			"/>
			<polygon class="st15" points="273.7,370.6 283.1,374.2 283,374.4 273.5,371.3 			"/>
		</g>
	</g>
	<g>
		<g>
			<path class="st13" d="M105.9,107.8c0,0,2.6,16,6.5,40c1,6,2,12.5,3.1,19.4c1.1,6.9,2.2,14.1,3.4,21.6c2.3,15,4.8,31,7.3,47
				c1.3,8,2.5,16,3.8,23.9c1.3,7.9,2.4,15.6,3.5,23.2c0.5,3.8,1,7.5,1.4,11.1c0.1,0.9,0.2,1.8,0.3,2.7c0.1,1,0.2,1.9,0.3,2.9
				c0.1,1.8,0.1,3.6,0.1,5.4c0,3.5-0.1,7-0.2,10.3c-0.2,3.3-0.4,6.5-0.8,9.6c-0.6,6.1-1.6,11.7-2.7,16.6c-0.6,2.4-1.2,4.7-1.8,6.8
				c-0.6,2.1-1.3,4-2,5.6c-1.3,3.4-2.7,5.9-3.7,7.5c-0.5,0.8-0.9,1.4-1.3,1.8c-0.3,0.4-0.4,0.6-0.4,0.6l-0.5-0.3
				c0,0,0.1-0.2,0.3-0.7c0.2-0.4,0.6-1.1,0.9-1.9c0.8-1.7,1.7-4.3,2.6-7.7c0.9-3.4,1.7-7.5,2.3-12.4c0.6-4.8,1.1-10.3,1.3-16.3
				c0.1-3,0.2-6.1,0.2-9.4c0-3.2,0-6.6-0.2-10c-0.1-1.7-0.2-3.4-0.3-5.2c-0.1-0.8-0.2-1.6-0.3-2.5c-0.1-0.9-0.3-1.8-0.4-2.7
				c-0.5-3.6-1-7.3-1.6-11.1c-1-7.5-2-15.3-2.9-23.2c-1-7.9-2-15.9-3-24c-2-16.1-4.1-32.1-6-47.2c-1-7.5-1.9-14.8-2.8-21.7
				c-0.9-6.9-1.7-13.4-2.4-19.5c-3-24.1-5-40.2-5-40.2L105.9,107.8z"/>
		</g>
		<g>
			<path class="st13" d="M80.6,413.9c1.1-0.6,2.2-1.2,3.3-1.8c1.1-0.6,2.2-1.2,3.3-1.9c1.1-0.6,2.2-1.3,3.2-2c1.1-0.7,2.1-1.3,3.2-2
				c1-0.7,2.1-1.4,3.1-2.1c1-0.7,2-1.4,3-2.2c1-0.8,2-1.5,2.9-2.3c1-0.8,1.9-1.6,2.8-2.4c0.9-0.8,1.8-1.6,2.7-2.5
				c0.9-0.8,1.7-1.7,2.5-2.6l1.2-1.4l1.1-1.4c0.4-0.5,0.7-0.9,1.1-1.4c0.4-0.5,0.7-1,1-1.5c0.7-1,1.2-2,1.8-3c0.5-1,1-2.1,1.4-3.1
				c0.2-0.5,0.4-1.1,0.5-1.6c0.2-0.5,0.3-1.1,0.4-1.6c0.1-0.5,0.3-1.1,0.3-1.6l0.2-1.7l0.1,0.9c-0.9-3.4-1.8-6.8-2.8-10.2l-1.5-5.1
				l-1.5-5.1l-1.6-5l-1.6-5c-0.5-1.7-1.1-3.3-1.7-5c-0.5-1.7-1.1-3.3-1.7-5c-0.6-1.7-1.1-3.3-1.8-5c-0.6-1.6-1.2-3.3-1.9-4.9l-2-4.9
				l-2.1-4.8l-2.3-4.8c-0.8-1.6-1.7-3.1-2.5-4.6c-0.4-0.8-0.9-1.5-1.3-2.3l-1.4-2.2c-1-1.5-2.1-2.8-3.1-4.3l2,1.8l1,0.9l0.5,0.5
				l0.4,0.5l1.8,2c0.6,0.7,1.2,1.3,1.7,2.1c1,1.5,2.2,2.9,3.2,4.4c1,1.5,2,3,2.9,4.6l2.7,4.7c0.8,1.6,1.6,3.2,2.5,4.8
				c0.8,1.6,1.5,3.2,2.3,4.9c0.8,1.6,1.5,3.3,2.2,4.9c0.7,1.7,1.4,3.3,2,5c0.6,1.7,1.3,3.3,1.9,5c0.6,1.7,1.2,3.4,1.8,5.1l1.7,5.1
				c1.1,3.4,2.1,6.8,3.1,10.3c1,3.4,1.9,6.9,2.7,10.4l0.1,0.5l0,0.4l-0.3,2.1c-0.1,0.7-0.3,1.4-0.4,2.1c-0.1,0.7-0.4,1.4-0.6,2
				c-0.2,0.7-0.4,1.3-0.7,2c-0.5,1.3-1.2,2.5-1.8,3.7c-0.7,1.2-1.4,2.3-2.3,3.4c-0.4,0.6-0.8,1.1-1.2,1.6c-0.4,0.5-0.8,1.1-1.3,1.5
				l-1.4,1.5l-1.4,1.4c-1,0.9-1.9,1.8-2.9,2.6c-1,0.8-2,1.6-3.1,2.4c-1.1,0.8-2.1,1.5-3.2,2.2c-1.1,0.7-2.2,1.4-3.3,2.1
				c-1.1,0.7-2.2,1.3-3.4,1.9c-1.1,0.6-2.3,1.2-3.4,1.7c-1.2,0.6-2.3,1.1-3.5,1.6c-1.2,0.5-2.4,1-3.5,1.5
				C85.5,412.3,83.1,413.2,80.6,413.9z"/>
		</g>
	</g>
	<g class="st14">
		<g>
			<g>
				<polygon class="st15" points="100.6,107.8 102.1,117.7 101.8,117.8 100.4,107.9 				"/>
				<polygon class="st15" points="103.5,127.6 105,137.5 104.5,137.6 103.1,127.7 				"/>
				<polygon class="st15" points="106.5,147.4 108,157.3 107.1,157.4 105.8,147.5 				"/>
				<polygon class="st15" points="109.4,167.1 110.9,177 109.8,177.2 108.5,167.3 				"/>
				<polygon class="st15" points="112.3,186.9 113.8,196.8 112.6,197 111.2,187.1 				"/>
				<polygon class="st15" points="115.2,206.7 116.7,216.6 115.3,216.8 113.9,206.9 				"/>
				<polygon class="st15" points="118.1,226.5 119.6,236.4 118,236.6 116.6,226.7 				"/>
				<polygon class="st15" points="121,246.3 122.5,256.2 120.6,256.4 119.3,246.5 				"/>
				<polygon class="st15" points="123.9,266.1 125.3,276 123.3,276.2 122,266.3 				"/>
				<polygon class="st15" points="126.7,285.9 128,295.8 126,296.1 124.7,286.2 				"/>
				<path class="st15" d="M128.7,305.9c0,0,0,2.5,0,5c0,2.5-0.1,5-0.1,5l-1.7-0.1c0,0,0.1-2.5,0.1-5c0-2.5-0.1-5-0.1-5L128.7,305.9z
					"/>
				<path class="st15" d="M127.9,325.9c0,0-0.2,2.5-0.5,5c-0.3,2.5-0.7,5-0.7,5l-1.3-0.2c0,0,0.3-2.5,0.5-5c0.2-2.5,0.4-5,0.4-5
					L127.9,325.9z"/>
				<path class="st15" d="M124.8,345.8c0,0-0.6,2.5-1.3,4.9c-0.7,2.4-1.6,4.8-1.6,4.8l-0.6-0.2c0,0,0.8-2.4,1.4-4.8
					c0.6-2.4,1.1-4.8,1.1-4.8L124.8,345.8z"/>
			</g>
		</g>
		<g>
			<g>
				<path class="st15" d="M75.5,413.9c0,0,0.6-0.3,1.4-0.6c0.9-0.4,2-0.9,3.1-1.5c2.2-1.1,4.4-2.3,4.4-2.3l0.3,0.5
					c0,0-2.3,1.1-4.6,2.1C77.9,413,75.5,413.9,75.5,413.9z"/>
				<path class="st15" d="M93,404.3c0,0,2.1-1.4,4.1-2.8c2-1.5,3.9-3,3.9-3l0.9,1.1c0,0-2,1.5-4.1,2.9c-2.1,1.4-4.2,2.7-4.2,2.7
					L93,404.3z"/>
				<path class="st15" d="M108.2,391.7c0,0,0.4-0.5,1-1.2c0.6-0.7,1.4-1.7,2.1-2.7c1.4-2,2.5-4.2,2.5-4.2l1.6,0.8
					c0,0-1.2,2.3-2.7,4.3c-0.8,1-1.6,2-2.2,2.7c-0.6,0.7-1.1,1.2-1.1,1.2L108.2,391.7z"/>
				<polygon class="st15" points="116.5,374.5 116.5,373.8 116.6,374.1 114.2,365.1 116.1,364.6 118.4,373.6 118.5,373.8 
					118.5,373.9 118.4,374.6 				"/>
				<polygon class="st15" points="111.4,355.6 108.3,346.1 110.2,345.5 113.2,355 				"/>
				<polygon class="st15" points="105.1,336.7 101.5,327.3 103,326.7 106.7,336 				"/>
				<path class="st15" d="M97.6,318.2c0,0-1-2.3-2.2-4.5c-1.1-2.2-2.3-4.4-2.3-4.4l0.7-0.4c0,0,1.3,2.1,2.5,4.3
					c1.2,2.2,2.3,4.4,2.3,4.4L97.6,318.2z"/>
				<path class="st15" d="M87.8,300.9c0,0-0.9-1.2-1.8-2.3c-0.9-1.1-2-2.2-2-2.2s1.1,1,2.1,2.1c1,1.1,2,2.2,2,2.2L87.8,300.9z"/>
			</g>
		</g>
	</g>
	<g>
		<g>
			<path class="st13" d="M304.5,99.7c0,0-2,16.1-5,40.2c-0.7,6-1.6,12.6-2.4,19.5c-0.9,6.9-1.8,14.2-2.8,21.7
				c-1.9,15.1-4,31.1-6,47.2c-1,8-2,16.1-3,24c-0.9,7.9-2,15.7-2.9,23.2c-0.5,3.8-1,7.4-1.6,11.1c-0.1,0.9-0.3,1.8-0.4,2.7
				c-0.1,0.8-0.2,1.7-0.3,2.5c-0.2,1.7-0.2,3.5-0.3,5.2c-0.1,3.4-0.2,6.8-0.2,10c0,3.2,0.1,6.4,0.2,9.4c0.3,6,0.7,11.5,1.3,16.3
				c0.6,4.8,1.4,9,2.3,12.4c0.9,3.4,1.9,5.9,2.6,7.7c0.4,0.9,0.7,1.5,0.9,1.9c0.2,0.4,0.3,0.7,0.3,0.7l-0.5,0.3c0,0-0.2-0.2-0.4-0.6
				c-0.3-0.4-0.7-1-1.3-1.8c-1-1.6-2.4-4.1-3.7-7.5c-0.7-1.7-1.3-3.6-2-5.6c-0.6-2.1-1.2-4.4-1.8-6.8c-1.1-4.9-2-10.5-2.7-16.6
				c-0.3-3.1-0.6-6.3-0.8-9.6c-0.2-3.3-0.2-6.7-0.2-10.3c0-1.8,0-3.6,0.1-5.4c0.1-1,0.2-1.9,0.3-2.9c0.1-0.9,0.2-1.8,0.3-2.7
				c0.4-3.6,0.9-7.3,1.4-11.1c1.1-7.5,2.2-15.3,3.5-23.2c1.2-7.9,2.5-15.9,3.8-23.9c2.5-16,5-32,7.3-47c1.2-7.5,2.3-14.8,3.4-21.6
				c1.1-6.9,2.1-13.4,3.1-19.4c3.9-24,6.5-40,6.5-40L304.5,99.7z"/>
		</g>
		<g>
			<path class="st13" d="M329.2,405.6c-2.5-0.7-4.9-1.5-7.2-2.5c-1.2-0.5-2.4-0.9-3.5-1.5c-1.2-0.5-2.3-1.1-3.5-1.6
				c-1.2-0.6-2.3-1.1-3.4-1.7c-1.1-0.6-2.3-1.2-3.4-1.9c-1.1-0.7-2.2-1.3-3.3-2.1c-1.1-0.7-2.1-1.5-3.2-2.2c-1-0.8-2.1-1.6-3.1-2.4
				c-1-0.8-2-1.7-2.9-2.6l-1.4-1.4l-1.4-1.5c-0.5-0.5-0.9-1-1.3-1.5c-0.4-0.5-0.8-1-1.2-1.6c-0.8-1.1-1.5-2.2-2.3-3.4
				c-0.6-1.2-1.3-2.4-1.8-3.7c-0.3-0.6-0.5-1.3-0.7-2c-0.2-0.7-0.4-1.3-0.6-2c-0.1-0.7-0.3-1.4-0.4-2.1l-0.3-2.1l0-0.4l0.1-0.5
				c0.8-3.5,1.8-6.9,2.7-10.4c1-3.4,2-6.9,3.1-10.3l1.7-5.1c0.6-1.7,1.2-3.4,1.8-5.1c0.6-1.7,1.3-3.4,1.9-5c0.6-1.7,1.3-3.3,2-5
				c0.7-1.7,1.4-3.3,2.2-4.9c0.8-1.6,1.5-3.3,2.3-4.9c0.8-1.6,1.6-3.2,2.5-4.8l2.7-4.7c0.9-1.5,1.9-3,2.9-4.6c1-1.5,2.1-2.9,3.2-4.4
				c0.5-0.7,1.1-1.4,1.7-2.1l1.8-2l0.4-0.5l0.5-0.5l1-0.9l2-1.8c-1,1.5-2.2,2.8-3.1,4.3l-1.4,2.2c-0.5,0.7-0.9,1.5-1.3,2.3
				c-0.8,1.6-1.7,3.1-2.5,4.6l-2.3,4.8l-2.1,4.8l-2,4.9c-0.7,1.6-1.2,3.3-1.9,4.9c-0.6,1.6-1.2,3.3-1.8,5c-0.6,1.7-1.2,3.3-1.7,5
				c-0.5,1.7-1.1,3.3-1.7,5l-1.6,5l-1.6,5l-1.5,5.1l-1.5,5.1c-1,3.4-1.9,6.8-2.8,10.2l0.1-0.9l0.2,1.7c0,0.6,0.2,1.1,0.3,1.6
				c0.1,0.6,0.2,1.1,0.4,1.6c0.1,0.5,0.3,1.1,0.5,1.6c0.4,1.1,0.9,2.1,1.4,3.1c0.6,1,1.1,2,1.8,3c0.3,0.5,0.7,1,1,1.5
				c0.4,0.5,0.7,1,1.1,1.4l1.1,1.4l1.2,1.4c0.8,0.9,1.7,1.8,2.5,2.6c0.9,0.9,1.8,1.7,2.7,2.5c0.9,0.8,1.9,1.6,2.8,2.4
				c1,0.8,2,1.5,2.9,2.3c1,0.7,2,1.5,3,2.2c1,0.7,2,1.4,3.1,2.1c1,0.7,2.1,1.4,3.2,2c1.1,0.7,2.1,1.3,3.2,2c1.1,0.7,2.2,1.3,3.3,1.9
				C327,404.4,328.1,405,329.2,405.6z"/>
		</g>
	</g>
	<g class="st14">
		<g>
			<g>
				<polygon class="st15" points="309.5,99.6 308.1,109.5 307.8,109.5 309.3,99.6 				"/>
				<polygon class="st15" points="306.8,119.4 305.4,129.4 304.8,129.3 306.3,119.4 				"/>
				<polygon class="st15" points="304.1,139.3 302.7,149.1 301.9,149 303.4,139.2 				"/>
				<polygon class="st15" points="301.4,159 300,168.9 299,168.8 300.4,158.9 				"/>
				<polygon class="st15" points="298.7,178.8 297.3,188.7 296.1,188.6 297.5,178.7 				"/>
				<polygon class="st15" points="295.9,198.6 294.6,208.5 293.2,208.3 294.6,198.5 				"/>
				<polygon class="st15" points="293.2,218.5 291.9,228.4 290.3,228.1 291.7,218.2 				"/>
				<polygon class="st15" points="290.6,238.3 289.2,248.2 287.4,247.9 288.8,238 				"/>
				<polygon class="st15" points="287.9,258.1 286.6,268 284.5,267.7 285.9,257.8 				"/>
				<polygon class="st15" points="285.2,277.9 283.8,287.8 281.8,287.5 283.2,277.6 				"/>
				<path class="st15" d="M283.1,297.7c0,0-0.1,2.5-0.1,5c0,2.5,0.1,5,0.1,5l-1.7,0.1c0,0-0.1-2.5-0.1-5c0-2.5,0-5,0-5L283.1,297.7z
					"/>
				<path class="st15" d="M283.5,317.6c0,0,0.2,2.5,0.4,5c0.2,2.5,0.5,5,0.5,5l-1.3,0.2c0,0-0.4-2.5-0.7-5c-0.3-2.5-0.5-5-0.5-5
					L283.5,317.6z"/>
				<path class="st15" d="M286.1,337.3c0,0,0.5,2.4,1.1,4.8c0.6,2.4,1.4,4.8,1.4,4.8l-0.6,0.2c0,0-0.9-2.3-1.6-4.8
					c-0.7-2.4-1.3-4.9-1.3-4.9L286.1,337.3z"/>
			</g>
		</g>
		<g>
			<g>
				<path class="st15" d="M334.4,405.6c0,0-2.4-0.8-4.7-1.8c-2.3-1-4.6-2.1-4.6-2.1l0.3-0.5c0,0,2.2,1.2,4.4,2.3
					c1.1,0.6,2.2,1.1,3.1,1.5C333.8,405.4,334.4,405.6,334.4,405.6z"/>
				<path class="st15" d="M316.3,397c0,0-2.2-1.3-4.2-2.7c-2.1-1.4-4.1-2.9-4.1-2.9l0.9-1.1c0,0,1.9,1.6,3.9,3
					c2,1.5,4.1,2.8,4.1,2.8L316.3,397z"/>
				<path class="st15" d="M300.5,384.5c0,0-0.4-0.5-1.1-1.2c-0.6-0.7-1.4-1.7-2.2-2.7c-1.5-2.1-2.7-4.3-2.7-4.3l1.6-0.8
					c0,0,1.1,2.2,2.5,4.2c0.7,1,1.5,2,2.1,2.7c0.6,0.7,1,1.2,1,1.2L300.5,384.5z"/>
				<polygon class="st15" points="291.5,366.4 291.4,365.7 291.4,365.5 291.4,365.4 293.8,356.4 295.7,356.9 293.3,365.9 
					293.3,365.5 293.4,366.2 				"/>
				<polygon class="st15" points="296.6,346.7 299.7,337.2 301.5,337.8 298.5,347.3 				"/>
				<polygon class="st15" points="303.1,327.8 306.9,318.5 308.3,319.1 304.8,328.4 				"/>
				<path class="st15" d="M311.1,309.4c0,0,1.1-2.2,2.3-4.4c1.2-2.2,2.5-4.3,2.5-4.3l0.7,0.4c0,0-1.2,2.2-2.3,4.4
					c-1.1,2.2-2.2,4.5-2.2,4.5L311.1,309.4z"/>
				<path class="st15" d="M321.8,292.4c0,0,0.9-1.1,2-2.2c1-1.1,2.1-2.1,2.1-2.1s-1,1.1-2,2.2c-0.9,1.1-1.8,2.3-1.8,2.3L321.8,292.4
					z"/>
			</g>
		</g>
	</g>
	<g>
		<path class="st13" d="M111.7,167.6c0,0,0.2,0.9,0.7,2.6c0.5,1.7,1.4,4.2,2.7,7.2c1.3,3.1,3.1,6.7,5.4,10.6
			c2.3,3.9,5.3,8.2,8.9,12.4c3.7,4.2,8,8.4,13.1,12.3c5.1,3.9,10.9,7.2,17.3,10c6.3,2.8,13.2,4.9,20.4,6.4c7.1,1.5,14.6,2.3,22,2.7
			l2.9,0.1c0.9,0,1.8,0,2.8,0c1.8,0,3.7-0.1,5.5-0.1c3.7-0.2,7.3-0.5,10.9-1.1c7.2-1.2,14-3.2,20.3-6.1c6.2-2.9,11.8-6.7,16.6-10.9
			c1.2-1,2.3-2.2,3.4-3.2c1.1-1.1,2.2-2.2,3.1-3.3c0.5-0.6,1-1.1,1.5-1.7c0.5-0.6,0.9-1.1,1.4-1.7c0.9-1.1,1.8-2.3,2.7-3.4
			c3.4-4.5,6.1-8.9,8.4-12.9c2.3-4,4.2-7.6,5.6-10.6c1.4-3,2.6-5.4,3.3-7c0.7-1.6,1.1-2.5,1.1-2.5s-0.3,0.9-0.8,2.6
			c-0.3,0.9-0.6,1.9-1,3.1c-0.4,1.2-0.9,2.7-1.5,4.2c-1.1,3.1-2.7,6.9-4.7,11.2c-2,4.2-4.4,9-7.7,13.8c-3.2,4.8-7,9.9-12,14.6
			c-4.8,4.7-10.6,9-17.3,12.3c-3.3,1.7-6.8,3.1-10.4,4.3c-3.6,1.2-7.4,2.1-11.2,2.8c-3.8,0.7-7.7,1.1-11.6,1.3
			c-1.9,0.1-3.9,0.2-5.9,0.2c-1,0-2,0-2.9,0L202,238c-7.8-0.4-15.5-1.3-23.1-3c-7.5-1.6-14.7-4.2-21.4-7.3
			c-6.6-3.1-12.7-7-17.8-11.3c-5.2-4.3-9.5-9-13-13.6c-3.5-4.6-6.2-9.3-8.3-13.5c-2.1-4.2-3.5-8.1-4.5-11.3c-1-3.2-1.5-5.8-1.9-7.6
			C111.8,168.5,111.7,167.6,111.7,167.6z"/>
	</g>
	<g class="st14">
		<g>
			<path class="st15" d="M111.7,164.5c0,0,0.1,0.6,0.3,1.5c0.2,0.9,0.5,2.1,0.9,3.3c0.7,2.4,1.6,4.7,1.6,4.7l-0.4,0.1
				c0,0-0.8-2.4-1.4-4.8c-0.3-1.2-0.6-2.4-0.8-3.4C111.8,165.1,111.7,164.5,111.7,164.5z"/>
			<path class="st15" d="M118.6,183.1c0,0,1.1,2.2,2.4,4.4c1.3,2.1,2.7,4.2,2.7,4.2l-0.8,0.5c0,0-1.4-2.1-2.6-4.3
				c-1.2-2.2-2.3-4.5-2.3-4.5L118.6,183.1z"/>
			<path class="st15" d="M129.7,199.6c0,0,1.6,1.9,3.3,3.7c1.7,1.8,3.6,3.5,3.6,3.5l-0.9,1c0,0-1.8-1.7-3.6-3.6
				c-1.7-1.8-3.3-3.8-3.3-3.8L129.7,199.6z"/>
			<path class="st15" d="M144.3,212.9c0,0,2,1.4,4.1,2.8c2.1,1.3,4.3,2.5,4.3,2.5l-0.8,1.5c0,0-2.2-1.2-4.3-2.6
				c-1.1-0.7-2.1-1.4-2.9-2c-0.8-0.6-1.3-0.9-1.3-0.9L144.3,212.9z"/>
			<path class="st15" d="M161.6,222.5c0,0,0.6,0.2,1.4,0.6c0.9,0.3,2,0.8,3.2,1.2c2.3,0.8,4.7,1.6,4.7,1.6l-0.5,1.7
				c0,0-2.4-0.7-4.8-1.6c-1.2-0.4-2.4-0.9-3.2-1.3c-0.9-0.4-1.5-0.6-1.5-0.6L161.6,222.5z"/>
			<path class="st15" d="M180.5,228.3c0,0,2.4,0.5,4.9,0.9c2.4,0.4,4.9,0.7,4.9,0.7l-0.2,1.9c0,0-2.5-0.3-5-0.7
				c-2.5-0.4-4.9-0.9-4.9-0.9L180.5,228.3z"/>
			<path class="st15" d="M200.2,230.8c0,0,0.2,0,0.4,0c0.1,0,0.1,0,0.2,0c0.1,0,0.1,0,0.2,0c0.2,0,0.4,0,0.6,0c0.9,0,2.2,0,3.4,0.1
				c2.5,0,5,0.1,5,0.1l0,2c0,0-2.5,0-5-0.1c-1.3,0-2.5,0-3.4,0c-0.2,0-0.4,0-0.6,0c-0.1,0-0.2,0-0.3,0c-0.1,0-0.2,0-0.2,0
				c-0.3,0-0.4,0-0.4,0L200.2,230.8z"/>
			<path class="st15" d="M220,230.3c0,0,0.6-0.1,1.5-0.2c0.9-0.1,2.1-0.3,3.4-0.5c2.4-0.4,4.8-1,4.8-1l0.4,1.8c0,0-2.5,0.6-4.9,1
				c-1.2,0.2-2.5,0.4-3.4,0.5c-0.9,0.1-1.6,0.2-1.6,0.2L220,230.3z"/>
			<path class="st15" d="M239.2,225.8c0,0,0.6-0.2,1.4-0.6c0.9-0.3,2-0.8,3.1-1.3c2.3-1,4.4-2.2,4.4-2.2l0.8,1.5
				c0,0-2.2,1.2-4.5,2.3c-1.1,0.5-2.3,1-3.2,1.4c-0.9,0.3-1.5,0.6-1.5,0.6L239.2,225.8z"/>
			<path class="st15" d="M256.5,216.4c0,0,0.5-0.4,1.2-0.9c0.7-0.6,1.7-1.3,2.6-2.1c1.9-1.6,3.7-3.3,3.7-3.3l1,1
				c0,0-1.8,1.8-3.7,3.5c-0.9,0.8-1.9,1.6-2.7,2.2c-0.7,0.6-1.2,1-1.2,1L256.5,216.4z"/>
			<path class="st15" d="M270.8,202.7c0,0,1.6-1.9,3-3.9c1.5-2,2.8-4.1,2.8-4.1l0.9,0.6c0,0-1.3,2.1-2.8,4.2c-1.4,2.1-3,4-3,4
				L270.8,202.7z"/>
			<polygon class="st15" points="281.7,186.1 286.3,177.2 286.7,177.4 282.4,186.4 			"/>
			<polygon class="st15" points="290.3,168 291.7,164.5 290.4,168.1 			"/>
		</g>
	</g>
	<g class="st14">
		<g>
			<polygon class="st15" points="80,449.1 90,449.5 90,450.2 			"/>
			<polygon class="st15" points="100,449.9 110,450.3 109.9,452.2 99.9,451.2 			"/>
			
				<rect x="123.9" y="447.1" transform="matrix(5.571698e-002 -0.9984 0.9984 5.571698e-002 -333.4595 551.6774)" class="st15" width="2" height="10"/>
			
				<rect x="143.9" y="448.1" transform="matrix(4.588201e-002 -0.9989 0.9989 4.588201e-002 -314.4153 577.1092)" class="st15" width="2" height="10"/>
			
				<rect x="163.9" y="449" transform="matrix(3.528435e-002 -0.9994 0.9994 3.528435e-002 -294.6078 602.7303)" class="st15" width="2" height="10"/>
			
				<rect x="183.9" y="449.5" transform="matrix(2.339166e-002 -0.9997 0.9997 2.339166e-002 -273.868 628.7498)" class="st15" width="2" height="10"/>
			
				<rect x="203.9" y="449.9" transform="matrix(9.576023e-003 -1 1 9.576023e-003 -251.9439 655.3976)" class="st15" width="2" height="10"/>
			
				<rect x="219.9" y="453.9" transform="matrix(1 -7.040403e-003 7.040403e-003 1 -3.1972 1.5945)" class="st15" width="10" height="2"/>
			
				<rect x="239.9" y="453.6" transform="matrix(0.9996 -2.784686e-002 2.784686e-002 0.9996 -12.5634 6.9953)" class="st15" width="10" height="2"/>
			
				<rect x="259.9" y="452.7" transform="matrix(0.9985 -5.527988e-002 5.527988e-002 0.9985 -24.6782 15.3352)" class="st15" width="10" height="2"/>
			
				<rect x="279.8" y="451.3" transform="matrix(0.9956 -9.417836e-002 9.417836e-002 0.9956 -41.3285 28.8326)" class="st15" width="10" height="2"/>
			<path class="st15" d="M299.6,449.6c0,0,0.6-0.1,1.5-0.2c0.9-0.1,2.2-0.3,3.4-0.4c2.5-0.3,5-0.6,5-0.6l0.2,1.5
				c0,0-2.5,0.5-4.9,0.9c-1.2,0.2-2.5,0.5-3.4,0.6c-0.9,0.2-1.5,0.3-1.5,0.3L299.6,449.6z"/>
			<path class="st15" d="M319.3,446.5c0,0,2.4-0.5,4.9-1.1c2.4-0.6,4.8-1.3,4.8-1.3l0.1,0.3c0,0-2.3,0.9-4.7,1.7
				c-2.4,0.8-4.8,1.4-4.8,1.4L319.3,446.5z"/>
		</g>
	</g>
	<g class="st14">
		<g>
			<path class="st15" d="M230.7,439.6c0,0,2.5-0.1,5-0.2c2.5-0.1,5-0.1,5-0.1l-0.1,1.6c0,0-2.5-0.3-5-0.6
				C233.1,439.9,230.7,439.6,230.7,439.6z"/>
			
				<rect x="250.6" y="439" transform="matrix(0.9998 -1.959953e-002 1.959953e-002 0.9998 -8.5753 5.0949)" class="st15" width="10" height="2"/>
			
				<rect x="270.6" y="438.1" transform="matrix(0.9974 -7.217748e-002 7.217748e-002 0.9974 -30.9748 21.0379)" class="st15" width="10" height="2"/>
			
				<rect x="290.5" y="436.2" transform="matrix(0.9924 -0.1232 0.1232 0.9924 -51.6165 39.7456)" class="st15" width="10" height="2"/>
			<path class="st15" d="M310.2,434.1c0,0,2.5-0.4,4.9-0.9c1.2-0.2,2.5-0.4,3.4-0.6c0.9-0.2,1.5-0.3,1.5-0.3l0.3,2
				c0,0-0.6,0.2-1.5,0.3c-0.9,0.1-2.2,0.4-3.4,0.6c-2.5,0.4-4.9,0.9-4.9,0.9L310.2,434.1z"/>
			<polygon class="st15" points="329.9,431 332.7,430.6 330,431.5 			"/>
		</g>
	</g>
	<g class="st14">
		<g>
			<path class="st15" d="M76.2,434.8c0,0,2.5,0,5,0.1c2.5,0.1,5,0.2,5,0.2l-0.2,1.7c0,0-2.5-0.4-4.9-0.9
				C78.7,435.3,76.2,434.8,76.2,434.8z"/>
			
				<rect x="100.1" y="432.2" transform="matrix(7.970835e-002 -0.9968 0.9968 7.970835e-002 -342.8058 503.1322)" class="st15" width="2" height="10"/>
			
				<rect x="120" y="433.6" transform="matrix(5.745097e-002 -0.9983 0.9983 5.745097e-002 -323.789 534.2244)" class="st15" width="2" height="10"/>
			
				<rect x="140" y="434.5" transform="matrix(3.604765e-002 -0.9994 0.9994 3.604765e-002 -303.3173 564.5961)" class="st15" width="2" height="10"/>
			<path class="st15" d="M156,439c0,0,0.6,0,1.6,0c0.5,0,1,0,1.6,0c0.6,0,1.2,0,1.8,0c0.6,0,1.2,0.1,1.8,0.2
				c0.6,0.1,1.1,0.1,1.6,0.1c0.9,0.1,1.6,0.1,1.6,0.1l0,1.3c0,0-0.6,0-1.6,0.1c-0.5,0-1,0.1-1.6,0.1c-0.6,0-1.2,0.1-1.8,0.1
				c-0.6,0-1.2,0-1.8,0c-0.6,0-1.1,0-1.6,0c-0.9,0-1.6,0-1.6,0L156,439z"/>
		</g>
	</g>
</g>
</svg>
