<?xml version="1.0" encoding="UTF-8"?>
<!DOCTYPE svg PUBLIC "-//W3C//DTD SVG 1.1//EN" "http://www.w3.org/Graphics/SVG/1.1/DTD/svg11.dtd">
<!-- Creator: CorelDRAW X7 -->
<svg xmlns="http://www.w3.org/2000/svg" xml:space="preserve" width="1005px" height="686px" version="1.1" style="shape-rendering:geometricPrecision; text-rendering:geometricPrecision; image-rendering:optimizeQuality; fill-rule:evenodd; clip-rule:evenodd"
viewBox="0 0 1005 686"
 xmlns:xlink="http://www.w3.org/1999/xlink">
 <defs>
  <style type="text/css">
   <![CDATA[
    .str0 {stroke:white;stroke-width:8.34215;stroke-dasharray:41.884350 41.884350}
    .fil1 {fill:none}
    .fil2 {fill:#4B7198}
    .fil0 {fill:#7CABDD}
    .fil4 {fill:#FEFEFE;fill-rule:nonzero}
    .fil3 {fill:white;fill-opacity:0.549020}
   ]]>
  </style>
 </defs>
 <g id="Слой_x0020_1">
  <metadata id="CorelCorpID_0Corel-Layer"/>
  <g id="_2329298274080">
   <g>
    <g>
     <path class="fil0" d="M756 679c-11,-70 -27,-139 -49,-207 -56,-174 -336,-219 -535,-229 -2,8 -3,16 -3,25 0,7 1,14 2,21 -93,15 -164,96 -164,194 0,108 87,196 195,196l554 0z"/>
     <path class="fil1 str0" d="M756 679c-11,-70 -27,-139 -49,-207 -56,-174 -336,-219 -535,-229 -2,8 -3,16 -3,25 0,7 1,14 2,21 -93,15 -164,96 -164,194 0,108 87,196 195,196l554 0z"/>
    </g>
    <polygon class="fil2" points="417,648 413,679 408,679 413,648 "/>
    <polygon class="fil3" points="439,647 434,679 433,679 438,647 "/>
   </g>
   <path class="fil4" d="M1003 483c0,55 -23,105 -59,142 -36,36 -86,58 -141,58l-601 0c-55,0 -105,-22 -141,-58 -36,-37 -59,-87 -59,-142 0,-50 18,-95 48,-130 29,-35 70,-59 116,-67 -1,-3 -1,-5 -1,-7 0,-3 0,-7 0,-11 0,-35 14,-68 37,-91 23,-23 55,-38 90,-38 16,0 31,3 44,8 13,5 24,11 34,19 19,-42 41,-82 74,-112 35,-31 83,-51 153,-51 79,0 139,28 180,73 48,51 71,124 71,198 0,2 0,5 -1,8 0,2 0,4 0,5 44,10 83,35 111,69 28,35 45,79 45,127zm-65 135c34,-34 55,-82 55,-135 0,-46 -16,-88 -42,-121 -27,-34 -66,-58 -109,-67l-4 -1 0 -4c0,-2 0,-5 0,-8 0,-2 0,-5 0,-8 0,-72 -22,-142 -67,-192 -40,-43 -98,-70 -174,-70 -68,0 -113,19 -147,49 -33,30 -55,71 -74,114l-2 6 -5 -4c-10,-9 -22,-16 -36,-21 -12,-5 -26,-8 -41,-8 -32,0 -62,14 -84,36 -21,21 -34,51 -34,84 0,4 0,7 0,10 0,4 1,7 1,11l1 4 -4 1c-46,7 -86,31 -115,65 -28,33 -45,76 -45,124 0,53 21,101 55,135 35,35 82,56 135,56l601 0c53,0 100,-21 135,-56z"/>
  </g>
 </g>
</svg>
