<?xml version="1.0" encoding="UTF-8"?>
<!DOCTYPE svg PUBLIC "-//W3C//DTD SVG 1.1//EN" "http://www.w3.org/Graphics/SVG/1.1/DTD/svg11.dtd">
<!-- Creator: CorelDRAW X7 -->
<svg xmlns="http://www.w3.org/2000/svg" xml:space="preserve" width="500px" height="340px" version="1.1" style="shape-rendering:geometricPrecision; text-rendering:geometricPrecision; image-rendering:optimizeQuality; fill-rule:evenodd; clip-rule:evenodd"
viewBox="0 0 500 340"
 xmlns:xlink="http://www.w3.org/1999/xlink">
 <defs>
  <style type="text/css">
   <![CDATA[
    .fil0 {fill:#FEFEFE;fill-rule:nonzero}
   ]]>
  </style>
 </defs>
 <g id="Слой_x0020_1">
  <metadata id="CorelCorpID_0Corel-Layer"/>
  <path class="fil0" d="M500 240c0,27 -11,52 -29,71 -18,18 -43,29 -71,29l-300 0c-28,0 -53,-11 -71,-29 -18,-19 -29,-44 -29,-71 0,-25 9,-48 24,-65 14,-17 35,-29 58,-33 -1,-2 -1,-3 -1,-4 0,-1 0,-3 0,-5 0,-18 7,-34 19,-46 11,-11 27,-19 45,-19 8,0 15,2 22,4 6,3 12,6 17,10 9,-21 20,-41 37,-56 17,-16 41,-26 76,-26 40,0 70,14 90,37 24,25 36,62 36,99 0,1 0,2 -1,4 0,1 0,2 0,2 22,5 42,18 56,34 14,18 22,40 22,64l0 0z"/>
 </g>
</svg>
