<?xml version="1.0" encoding="utf-8"?>
<!-- Generator: Adobe Illustrator 19.2.1, SVG Export Plug-In . SVG Version: 6.00 Build 0)  -->
<svg version="1.1" id="Слой_1" xmlns="http://www.w3.org/2000/svg" xmlns:xlink="http://www.w3.org/1999/xlink" x="0px" y="0px"
	 viewBox="0 0 475 556" style="enable-background:new 0 0 475 556;" xml:space="preserve">
<style type="text/css">
	.st0{fill:#EABA33;}
	.st1{fill:#D27168;}
	.st2{fill:#F0F1CA;}
	.st3{fill:#63AFBD;}
	.st4{fill:#CD679D;stroke:#BA0066;stroke-width:0.7087;stroke-linecap:round;stroke-linejoin:round;stroke-miterlimit:22.9256;}
	.st5{fill:none;stroke:#AD1D61;stroke-width:0.5669;stroke-miterlimit:10;}
	.st6{fill:#FFFFFF;}
	.st7{fill:#F1DACB;}
	.st8{fill:#F9F1EB;}
	.st9{fill:#F1DACB;stroke:#CA8B80;stroke-width:0.7087;stroke-linecap:round;stroke-linejoin:round;stroke-miterlimit:22.9256;}
	.st10{fill:#C1962D;}
	.st11{fill:#E5B39E;stroke:#CA7E75;stroke-width:0.7087;stroke-linecap:round;stroke-linejoin:round;stroke-miterlimit:22.9256;}
	.st12{fill:#222220;}
	.st13{fill:#F6F09B;stroke:#CD8872;stroke-width:0.7087;stroke-linecap:round;stroke-linejoin:round;stroke-miterlimit:22.9256;}
	.st14{fill:none;stroke:#CA8B80;stroke-width:0.7087;stroke-linecap:round;stroke-linejoin:round;stroke-miterlimit:22.9256;}
	.st15{fill:none;stroke:#CD8872;stroke-width:0.7087;stroke-linecap:round;stroke-linejoin:round;stroke-miterlimit:22.9256;}
	.st16{fill:#F4E0D0;stroke:#CA8B80;stroke-width:0.7087;stroke-linecap:round;stroke-linejoin:round;stroke-miterlimit:22.9256;}
	.st17{fill:none;stroke:#C2887E;stroke-width:0.5669;stroke-miterlimit:10;}
	
		.st18{fill-rule:evenodd;clip-rule:evenodd;fill:#CD679D;stroke:#A33384;stroke-width:0.7087;stroke-linecap:round;stroke-linejoin:round;stroke-miterlimit:22.9256;}
	
		.st19{fill-rule:evenodd;clip-rule:evenodd;fill:#D990B7;stroke:#A33384;stroke-width:0.7087;stroke-linecap:round;stroke-linejoin:round;stroke-miterlimit:22.9256;}
	.st20{fill:none;stroke:#48807B;stroke-width:3;stroke-miterlimit:10;}
	.st21{fill:#48807B;}
	.st22{fill:none;stroke:#48807B;stroke-miterlimit:10;}
	.st23{fill:#DCA530;}
	.st24{fill:#C9522C;}
	.st25{fill:#D88FB8;stroke:#BA0066;stroke-width:0.7087;stroke-linecap:round;stroke-linejoin:round;stroke-miterlimit:22.9256;}
	.st26{fill:#EBCBE0;stroke:#BA0066;stroke-width:0.7087;stroke-linecap:round;stroke-linejoin:round;stroke-miterlimit:22.9256;}
	.st27{fill:#DA95BB;stroke:#BA0066;stroke-width:0.7087;stroke-linecap:round;stroke-linejoin:round;stroke-miterlimit:22.9256;}
	.st28{fill:none;stroke:#BA0066;stroke-miterlimit:10;}
</style>
<g>
	<polygon class="st0" points="371.7,398.6 -260.7,398.5 -260.7,552.6 471.9,552.6 	"/>
	<path class="st1" d="M22.1,363H-78.4c-6,0-10.9-4.9-10.9-10.9v-1.7c0-6,4.9-10.9,10.9-10.9H22.1c6,0,10.9,4.9,10.9,10.9v1.7
		C33.1,358.1,28.1,363,22.1,363z"/>
	<path class="st2" d="M274.8,362.1H103.3c-6,0-10.9-4.9-10.9-10.9v-1.7c0-6,4.9-10.9,10.9-10.9h171.5c6,0,10.9,4.9,10.9,10.9v1.7
		C285.7,357.1,280.8,362.1,274.8,362.1z"/>
	<path class="st0" d="M259.8,338.4h-133c-6.2,0-11.3-5.1-11.3-11.3v-2.6c0-6.2,5.1-11.3,11.3-11.3h133c6.2,0,11.3,5.1,11.3,11.3v2.6
		C271.2,333.3,266.1,338.4,259.8,338.4z"/>
	<path class="st3" d="M293.8,425h-402.8c-6.6,0-12-5.4-12-12v-38.7c0-6.6,5.4-12,12-12h402.8c6.6,0,12,5.4,12,12V413
		C305.8,419.6,300.4,425,293.8,425z"/>
	<g>
		<path class="st4" d="M235.9,288.1c2.9,4.2,7.1,9.2,3.1,16.9c-4,7.8-19.9,4.9-22.1,4.7c-2.1-0.2-10.7-2.9-12-4.8
			c-1.3-1.9-5.3-10,0.6-13.7C212.4,286.9,229.5,278.9,235.9,288.1L235.9,288.1z"/>
		<path class="st4" d="M247.6,204.7c0,0,2,8.3,0.9,18.6c-1.1,10.3-6.3,22-9.8,25.4c-3.5,3.4-1.8,7.9-1.8,9c0,1.1-0.9,6-1.7,6.6
			c-0.8,0.6-0.4,1.9,0,2.8c0.4,0.9,1,8.7-0.2,11.5c-0.8,1.9-2.4,4.3-3.7,5.9c-7.9-2.8-22.5,3.8-27.9,7.5c-0.4,0.3,4.2,1.3,5.2,7.3
			c0.4,2.3,0.1,3.9-0.1,4.9c-0.2,0.9-0.6,2.5-0.6,2.5l0,0c-0.5,1.4-6,6.1-8,6.4c-2,0.3-20.3,2.4-31.1-4.4
			c-10.8-6.8-10.1-18.3-10.4-24.2c-0.3-5.9-3.3-19.3-5.7-22.3c-2.4-3-4.6-13.3-4.6-14.8c0-0.2-0.1-0.9-0.4-1.9
			c0.8,0.2,2.1,0.5,2.9-0.3c1.2-1.2,5.6-5.3,5.2-11.1c-0.4-5.8-2.6-8-4.5-9.3c-2.9-2.1-11.9-3.1-16.5,0.4c-0.7-0.2-1.3-0.4-1.5-0.4
			c-0.8-0.2-2.7-2.3-2.7-4.2c0-1.9-0.2-4.7,0.7-6.6c0.9-2,4.7-11.6,5.2-13.3c0.6-1.7,3.8-5.2,4.2-6.4c0.4-1.3,0-5.4,1.2-6.6
			c1.2-1.3,7-9,8.3-12.4c1.3-3.4,7.5-8.2,9.3-9c1.8-0.9,5.2-3.9,5.7-7.3c0-0.1,0-0.1,0.1-0.2c4.4,1.6,9.4,3,15,4.1
			c3,0.6,6.1,1,9.1,1.2c6.6,4.4,15.6,6.6,26.2,3.7c0,0,9-1.7,15-6.9c2.8,0.8,6.3,1.9,9.1,3.1c5.5,2.4,10.8,10.4,13.7,11.7
			c2.9,1.3,15,10.5,17.2,15c2.3,4.5,5.2,11,5.2,13.6c-0.1,2.6-7.8,3.6-9.4,5.1c-1.7,1.5-3.4,4.6-4.1,5.1c-0.7,0.5-7.6-2.1-10.2-5.1
			C249.5,206.3,247.6,204.7,247.6,204.7L247.6,204.7z M201,281.3c0,0-2.8,6.8-3.3,7.1c-0.5,0.3,5.1,2.2,5.5,2.8
			C203.5,291.7,200.8,284.2,201,281.3L201,281.3z"/>
		<path class="st5" d="M201,281.3c0,0,5.1-18.5-7.4-30.5"/>
		<path class="st5" d="M167.3,243.2c0,0-8.1,7.3-10.8,12.7"/>
		<path class="st5" d="M236.6,252.9c0,0-17.5,18.1-34.6,21.9"/>
		<path class="st5" d="M212,168.6c0,0,39.9,59.1-10.1,106.2"/>
		<path class="st5" d="M233.2,169.3c0,0,12.5,18.8,14.5,35.4"/>
		<path class="st5" d="M236.4,214.2c0,0-7.1,4-18.2,2.1"/>
		<path class="st5" d="M235.9,217.9c0,0-5.5,4.3-16.8,1.9"/>
		<path class="st5" d="M177.8,181.2c0,0-3.9,17.9-16.8,24.2"/>
		<path class="st5" d="M176.1,172c0,0-8.5-11.8-19.5-3.7"/>
		<line class="st5" x1="155.7" y1="174.7" x2="143.8" y2="185.5"/>
		<path class="st4" d="M147,193.5c0,0-3.8-0.6-6.2,0.9c0,0-4.9,8.4-6.3,12c-1.4,3.7-3.6,9.4-3.6,9.4s-0.8,5.7,0.5,7.3
			c1.3,1.5,2.5,2,2.9,2.2s18.4,0.9,18.4,0.9h1.5c0,0,3.4-0.9,5-3.7c1.7-2.7,4-7.9,4.1-9.1s0-9,1.8-10.6"/>
		<path class="st5" d="M181,186.9c0,0-7.8,10.6-13.4,13.7c-5.6,3.1-3.6,11-4.4,13.4c-0.8,2.4-3.3,10.4-8.2,11.9
			c-4.9,1.4-1.7-6.3-13.5-5.1c-11.9,1.2-9.3,3.4-9.3,3.4"/>
		<path class="st5" d="M275.9,204.4c0,0-10.1-2.8-15.8,9.8"/>
		<path class="st5" d="M191.6,169.4c0,0-15.4-2.5-26.6-9.2"/>
		<path class="st5" d="M207.8,306.8c0,0,2.7-7.4-1.3-11.8c-4-4.3-8.5-6.7-13.5-6.5c-5,0.2-12.2,4.4-12.9,4.8"/>
		<path class="st5" d="M197.7,288.4c0,0-10.6-3.7-19-0.7"/>
		<path class="st5" d="M234.7,264.9c0,0-2.5,3.5-8.6,3.4"/>
		<path class="st5" d="M210.3,288.6c-0.4,0.7-0.6,1.5-0.6,2.3c0,4.4,7,7.9,15.6,7.9c6.4,0,11.9-2,14.3-4.8c-1-2.2-2.4-4.1-3.6-5.8
			C230.7,280.6,218.4,284.5,210.3,288.6L210.3,288.6z"/>
		<path class="st5" d="M234.1,169.4c-0.6,0.4,5.1,9.3,9.2,10.7c4.1,1.4,5.4,2.4,6.1,3.9c0.7,1.5,2.1,6.1,3.6,8.3
			c1.5,2.3,4.8,6.6,6.4,7.9s4.7,5.1,6.5,5.7c1.8,0.6,3.5-2.7,8.2-2.4c0.7,0,1.2,0,1.7-0.1c-0.4-3-3-8.6-5.1-12.7
			c-2.3-4.5-14.3-13.8-17.2-15c-2.9-1.3-8.2-9.3-13.7-11.7c-2.4-1.1-5.4-2-8-2.8l-3.7,1.6C228.1,162.8,234.1,169.4,234.1,169.4
			L234.1,169.4z"/>
	</g>
	<g>
		<path class="st5" d="M229.8,206.3c1,0,1.9-0.8,1.9-1.9c0-1-0.8-1.9-1.9-1.9s-1.9,0.8-1.9,1.9C228,205.4,228.8,206.3,229.8,206.3
			L229.8,206.3z"/>
		<path class="st5" d="M221.3,180.8c0.9,0,1.7-0.8,1.7-1.7c0-0.9-0.8-1.7-1.7-1.7c-0.9,0-1.7,0.8-1.7,1.7
			C219.6,180,220.4,180.8,221.3,180.8L221.3,180.8z"/>
		<path class="st5" d="M229,234.8c1,0,1.8-0.8,1.8-1.8c0-1-0.8-1.8-1.8-1.8c-1,0-1.8,0.8-1.8,1.8C227.2,234,228.1,234.8,229,234.8
			L229,234.8z"/>
		<path class="st5" d="M217.8,262.5c1,0,1.9-0.9,1.9-1.9c0-1-0.9-1.9-1.9-1.9c-1,0-1.9,0.9-1.9,1.9
			C215.8,261.7,216.7,262.5,217.8,262.5L217.8,262.5z"/>
	</g>
	<path class="st6" d="M156.1,229.4v0.5 M130.9,215.8 M130.5,215.8h-245v-61.1c1.6-2.1,2.6-4.7,2.6-7.6c0-6.9-5.6-12.6-12.6-12.6
		c-6.9,0-12.6,5.6-12.6,12.6c0,2.9,1,5.5,2.6,7.6v317.9h19.9v-43.1H301v43.1h19.9V154.6c1.6-2.1,2.6-4.7,2.6-7.6
		c0-6.9-5.6-12.6-12.6-12.6c-6.9,0-12.6,5.6-12.6,12.6c0,2.9,1,5.5,2.6,7.6v61.1h-138c-2.7,5-1.1,10.9-6.8,14v186.1H123V229.4l8.8,0
		c0,0,0.4-1.2,0.7-1.8c0.3-0.6,1.6-2,1.6-2s-0.9-0.2-1.4-0.5c-0.6-0.5-1.6-1.5-2.1-3C129.9,220.2,130.5,215.8,130.5,215.8z
		 M-81.5,415.9h-33V229.4h33V415.9z M-33.9,415.9h-33.2V229.4h33.2V415.9z M13.6,415.9h-33.2V229.4h33.2V415.9z M61.1,415.9H27.9
		V229.4h33.2V415.9z M108.6,415.9H75.5V229.4h33.2V415.9z M203.7,415.9h-33.2V229.4h33.2V415.9z M251.2,415.9H218V229.4h33.2V415.9z
		 M301,415.9h-35.4V229.4H301V415.9z"/>
	<path class="st7" d="M270.8,122.7c0,0-4,12-17.7,23.9c-4.7,4.1-11.4,7.9-19.3,11c0.3-0.5,0.6-1,0.9-1.5c4.7-9,1.9-16.1,0.2-18.5
		c-1.7-2.4-6.9-6.3-14.6-3.9c-7.8,2.5-18.6,1.4-21.8,0.4c-3.2-1-14-2.1-17.1,3.6c-3.1,5.7-4.3,13.1,2.1,20.9c1.7,2,3.7,3.9,6.1,5.5
		c-3-0.2-6.1-0.6-9.1-1.2c-28.5-5.4-41.5-20.1-45.1-24.7c-3.6-4.6-18.8-25-10.6-47.7c8.2-22.6,28.5-34,38.6-37.4
		c10.1-3.3,13.9-13.6,13.9-17.2c0-3.6-1.7-19.8-1.3-21.8c0.3-2,4.8-11,13.3-11.7c8.5-0.6,14.6,4.4,13.1,9.5c-1.6,5.1-6,7.4-10.4,7.4
		c-4.4-0.1-9.1-2.1-12-3.7c-2.9-1.6-7.8-5.5-8.5-6.6c-0.6-1,8,4.9,12,5.9c4,1,13.3,2.5,15-1.9c1.7-4.4-2.2-6.5-5-6.5
		c-2.8,0-14.1,3.2-10.7,14.4c3.4,11.2,11.5,17.6,15,20.1c3.5,2.5,3.8,4.4,28.5,9.5c24.7,5.1,39.7,27.9,42.5,33
		C271.6,88.7,276.9,103.2,270.8,122.7L270.8,122.7z"/>
	<path class="st8" d="M197,40.5c-9.5,1.2-18.3,4-26.1,8.1c-1.9,1.9-4.4,3.5-7.4,4.5c-14.7,10.4-24.1,26-24.1,43.5
		c0,22.9,16.2,42.7,39.4,51.6c-0.3-3.9,0.8-7.5,2.4-10.6c3.1-5.7,13.8-4.7,17.1-3.6c3.2,1,14.1,2.1,21.8-0.4
		c7.8-2.4,12.9,1.5,14.6,3.9c1.1,1.5,2.7,5,2.4,9.7c19.3-8.3,33.3-24.1,36.4-42.9c-0.1-10.1-3-17.5-4.8-20.8
		c-2.8-5.1-17.8-27.9-42.5-33c-24.7-5.1-25-7-28.5-9.5C197.5,40.9,197.3,40.7,197,40.5L197,40.5z"/>
	<path class="st9" d="M127.1,111.8c-2.5-1.9-5.5-3-8.9-3c-8.1,0-14.6,6.5-14.6,14.4c0,8,6.5,14.4,14.6,14.4c6.5,0,11.9-4.1,13.9-9.9
		"/>
	<path class="st9" d="M280,97.1c-2.5,0-4.7,0.8-6.7,2.1c0.6,5.7,0.4,12.5-1.6,20.2l0,0c2.2,2.1,5,3.4,8.2,3.4
		c6.7,0,12.1-5.8,12.1-12.9C292.1,102.9,286.7,97.1,280,97.1L280,97.1z"/>
	<path class="st10" d="M182.9,93.8c0.1-5.1,4.3-9.3,9.5-9.3c1.8,0,3.5,0.5,5,1.4C191.8,87.3,186.9,90,182.9,93.8L182.9,93.8z"/>
	<path class="st10" d="M223.6,84.4c1.8-1.7,5.7-1.2,9,1.3c3.1,2.4,4.7,5.7,3.8,7.9c-1.2-1.9-2.9-3.8-5.1-5.5
		C228.8,86.2,226.1,85,223.6,84.4L223.6,84.4z"/>
	<path class="st11" d="M208.8,124.9c-4.2,0-7.6,1.5-7.6,3.2c0,1.8,3.4,3.2,7.6,3.2s7.6-1.5,7.6-3.2
		C216.4,126.4,213,124.9,208.8,124.9L208.8,124.9z"/>
	<path class="st12" d="M223,116.7c0-4.2-1.5-7.6-3.2-7.6c-1.8,0-3.2,3.4-3.2,7.6c0,4.2,1.5,7.6,3.2,7.6
		C221.5,124.4,223,120.9,223,116.7L223,116.7z"/>
	<path class="st12" d="M199.9,118.4c0-4.2-1.5-7.6-3.2-7.6c-1.8,0-3.2,3.4-3.2,7.6c0,4.2,1.5,7.6,3.2,7.6
		C198.4,126,199.9,122.6,199.9,118.4L199.9,118.4z"/>
	<path class="st6" d="M218.7,112.4c-0.7,0-1.3,0.6-1.3,1.3s0.6,1.3,1.3,1.3c0.7,0,1.3-0.6,1.3-1.3S219.5,112.4,218.7,112.4
		L218.7,112.4z"/>
	<path class="st6" d="M195.8,113.8c-0.8,0-1.4,0.6-1.4,1.4c0,0.8,0.6,1.4,1.4,1.4c0.8,0,1.4-0.6,1.4-1.4
		C197.2,114.4,196.5,113.8,195.8,113.8L195.8,113.8z"/>
	<path class="st13" d="M211,47.1c-2,0.6-4.4,1.2-5.6,0.9c-2.4-0.6-7.4-1.7-8.8-0.2c-1.4,1.6-4.7,1-7.1,0c-2.5-1-3.3,1.2-6.3,1
		c-3-0.2-1.7-1.7-3.6-0.7c-2,1-5,2.5-6.6,2c-1.3-0.4-1.7,1.2-5.8,1.3c7.3-4.3,10.1-12.4,10.1-15.5c0-3.6-1.7-19.8-1.3-21.8
		c0.3-2,4.8-11,13.3-11.7c8.5-0.6,14.6,4.4,13.1,9.5c-1.6,5.1-6,7.4-10.4,7.4c-4.4-0.1-9.1-2.1-12-3.7c-2.9-1.6-7.8-5.5-8.5-6.6
		c-0.6-1,8,4.9,12,5.9c4,1,13.3,2.5,15-1.9c1.7-4.4-2.2-6.5-5-6.5c-2.8,0-14.1,3.2-10.7,14.4c3.4,11.2,11.5,17.6,15,20.1
		C200.3,42.9,201.2,44.4,211,47.1L211,47.1z"/>
	<path class="st14" d="M109.9,123.3c0-5.2,4-9.3,8.8-9.3c4.9,0,8.8,4.2,8.8,9.3c0,1.9-0.6,3.7-1.5,5.2"/>
	<path class="st14" d="M125.7,128.5c-2.9,0-5.2-2.3-5.2-5.2c0-2.9,2.3-5.2,5.2-5.2c0.3,0,0.5,0,0.8,0.1c0.9,1.4,1.4,3.1,1.4,4.9
		c0,2-0.6,3.9-1.7,5.4C126,128.5,125.8,128.5,125.7,128.5L125.7,128.5z"/>
	<path class="st14" d="M273.2,111.1c0.8-4.3,3.7-8.2,7.5-8.3c4.6-0.2,7.7,4.2,7.6,8.6"/>
	<path class="st14" d="M274.5,116c-0.6,0-1.1-0.1-1.7-0.3c-0.1-0.3-0.1-0.5-0.2-0.8c0.3-1.8,0.5-3.5,0.7-5.2c0.5-1.2,1.3-2.2,2.3-3
		c1.8,0.5,3.2,2.4,3.2,4.6C278.9,113.8,276.9,116,274.5,116L274.5,116z"/>
	<path class="st15" d="M202.8,49.3c0,0-13.1-2.5-21.9-28.8"/>
	<path class="st15" d="M193.1,49.8c0,0-7.3-3.6-12.4-22.2"/>
	<path class="st15" d="M177.3,53.7c0,0,7.7-7,3.4-26"/>
	<path class="st15" d="M170.5,53.5c0,0,9.6-8.8,9.1-22c-0.5-13.2-4.4-17.6,4-23.9c8.5-6.3,15.4-0.9,15.7-0.2"/>
	<g>
		<path class="st16" d="M275.5,205.3c0,0,5.2-0.3,8.1,1.4c2.8,1.7,5.8,6,6,7.1c0.2,1.1,1.3,5.3-1.4,6.8c-2.7,1.6-2.8,1.9-3.5,3.1
			c-0.7,1.1-2.8,0.8-4.3,0c-1.4-0.8-1.6-1.2-2.8-0.1c-1.1,1.1-3.2,0.8-4.9-0.7c-1.7-1.5-2.7-3.7-4.4-1.8c-1.6,1.9-1.7,4.6-3.9,4.4
			c-2.3-0.2-4.5-1.6-4.7-2.6c-0.3-1,0.4-2.3,1.6-3.6c1.1-1.3,1.5-3.7,1-4.6c0.7-0.5,2.4-3.6,4.1-5.1
			C267.9,208.2,274,207.2,275.5,205.3L275.5,205.3z"/>
		<path class="st17" d="M286.5,221.7c0,0,3.2-9.8-6.4-12.1"/>
		<path class="st17" d="M279,222.9c0,0,3.7-8.1-5.8-11.8"/>
		<path class="st17" d="M271.2,221.2c0,0-0.2-3.3-0.6-5.9"/>
		<path class="st17" d="M268,221.6c0,0-0.6-3.5-0.6-4.8"/>
		<path class="st17" d="M273.2,223.2c0.1-1.6,1.1-2.9,2.4-2.9c1.3,0,2.4,1.3,2.4,3c-0.1,0.1-0.3,0.2-0.4,0.4
			C276.6,224.6,274.8,224.3,273.2,223.2L273.2,223.2z"/>
		<path class="st17" d="M281,223.9c0-0.2,0-0.4,0-0.6c0-1.7,1.1-3.1,2.5-3.1c1.1,0,2,0.9,2.3,2.1c-0.5,0.4-0.7,0.8-1,1.4
			C284.1,224.6,282.4,224.5,281,223.9L281,223.9z"/>
		<path class="st17" d="M261.4,219.2c0.7,0.6,1.1,1.5,1.1,2.6c0,1.1-0.5,2.1-1.2,2.7c-0.8-0.5-1.4-1.1-1.6-1.5
			C259.5,221.9,260.2,220.5,261.4,219.2C261.4,219.2,261.4,219.2,261.4,219.2L261.4,219.2z"/>
	</g>
	<g>
		<path class="st16" d="M131.9,231.7c0.1,4.6,2.9,5.2,3.7,6.7c0.8,1.5,0.5,3.6-1.1,3.2c-1.6-0.4-2.8-0.3-0.8,2.6
			c2.1,2.9,5.2,2.4,5.9,2c0.6-0.5,1.7,2.8,4.4,1.3c2.7-1.5,2.9-1.7,3-1.9c0.1-0.2,2.4,1,3.6-0.2c1.2-1.2,5.6-5.3,5.2-11.1
			c-0.4-5.8-2.6-8-4.5-9.3C147.3,222.1,131.8,221.2,131.9,231.7L131.9,231.7z"/>
		<path class="st17" d="M153,231.6c0,0-0.6-2.1-1.6-2.8"/>
		<path class="st17" d="M147,245.6c0,0,2.5-3.6,2.6-6.8"/>
		<path class="st17" d="M139.6,246.2c0,0,2.4-2.7,2-6.1"/>
	</g>
	<g>
		<path class="st18" d="M135.7,68c0,0,7,9.2,6.5,12.3c-0.5,3.2,29.1-14.9,35.5-29.4c1.7-4,2.7-6.4,3.1-7.8c-1.6,0.8-3.2,1.4-4.7,1.2
			c-5.5,2.3-15.4,6.6-16.6,7.5C157.7,53.3,157.2,58.6,135.7,68z"/>
		<path class="st18" d="M187.6,39.3c0.1,0,6.2,0.2,9.1-1.2c2.9-1.4,19.9,1.8,24.2,7.5c4.3,5.7,11.5,19.8,11.4,22.2
			c-0.2,2.4,5.4-15.8-12.7-28.1c-18.1-12.3-18.2-10-34.9-3.3c0.2,0.3,0.3,0.7,0.4,1.1C185.8,38.2,186.6,38.8,187.6,39.3z"/>
		<path class="st19" d="M182.7,34.2c0.6-2,3.3-11.2,6.8-14.6c4-3.8,11.8-7.4,13.1-6.6c1.3,0.7,8.7,10.8,8.5,14
			c-0.1,1.6-2.7,3.2-5.8,4.7c-6.1-1.9-10,0.6-20.6,4.9c-0.2-0.5-0.5-0.9-0.7-1.2C183.8,34.9,183.3,34.6,182.7,34.2z"/>
		<path class="st19" d="M159.4,52c0,0-8.7,3.6-12.8-0.3c-4.2-3.9-2.9-8.5,3.9-10.5c6.8-2,17.2-3.6,20.4-2.8c0.1,0,0.2,0.1,0.3,0.1
			c-0.1,0.5-0.1,0.8-0.1,0.8c0.9,2.4,2,3.8,3.2,4.5c-0.1,0.5-0.3,1-0.5,1.4c-3,1.3-6.5,2.8-9.4,4.1c-1.4,0.6-2.8,1.2-4.2,2
			C159.9,51.7,159.6,51.8,159.4,52L159.4,52z M159.6,43.6c-2.6-0.5-7.6,0.1-9.3,1.7c-1.8,1.6-1.4,3.1,1.3,2.6
			C154.3,47.3,159.6,43.6,159.6,43.6z"/>
		<path class="st18" d="M171.2,39.4c0,0-0.3-3.3,4-5.2c4.3-1.9,7.9-0.1,8.7,1.1c0.8,1.2,2.9,4.5-1.4,7
			C178.2,44.7,173.9,46.7,171.2,39.4z"/>
	</g>
	<g>
		<path class="st20" d="M-89.3,139.2c0-34.2,21-61.9,55.2-61.9s55.7,28.6,55.7,56"/>
		<polygon class="st21" points="-87.2,216.3 -91.8,216.3 -91.7,139.2 -86.9,139.2 		"/>
		<path class="st21" d="M-27.8,148h7c0,0,18.1-14.6,40.8-14.6s41.7,15.3,41.7,15.3h8.1c0,0-19.8-20.2-50-20.2S-27.8,148-27.8,148z"
			/>
		<line class="st22" x1="-23.6" y1="167.1" x2="-23.6" y2="147.3"/>
		<line class="st22" x1="65.3" y1="167.8" x2="65.3" y2="147.3"/>
		<line class="st22" x1="19.4" y1="156.9" x2="19.4" y2="132.6"/>
		<g>
			<path class="st23" d="M26.6,171c-0.5,0-1,0.1-1.4,0.4c-0.4-0.9-1-1.6-1.6-2.2c1.8-1.3,3-3.4,3-5.8c0-1.1-0.3-2.2-0.8-3.2
				c0.5-0.4,0.8-1.1,0.8-1.7c0-1.3-1.1-2.4-2.4-2.4c-0.7,0-1.3,0.3-1.8,0.8c-0.9-0.4-1.9-0.7-3-0.7s-2.1,0.3-3,0.7
				c-0.4-0.5-1.1-0.8-1.8-0.8c-1.3,0-2.4,1.1-2.4,2.4c0,0.7,0.3,1.3,0.8,1.7c-0.5,1-0.8,2-0.8,3.2c0,2.5,1.3,4.7,3.2,6
				c-0.6,0.6-1.2,1.4-1.6,2.3c-0.5-0.3-1-0.5-1.7-0.5c-1.6,0-2.9,1.3-2.9,2.9c0,1.6,1.3,2.9,2.9,2.9c0.2,0,0.5,0,0.7-0.1
				c0.1,1.8,0.6,3.5,1.4,4.8c-0.9,0.3-1.5,1.2-1.5,2.2c0,1.3,1.1,2.4,2.4,2.4c1.1,0,2-0.7,2.3-1.7c0.7,0.3,1.4,0.5,2.1,0.5
				s1.5-0.2,2.1-0.5c0.3,1,1.2,1.7,2.3,1.7c1.3,0,2.4-1.1,2.4-2.4c0-1-0.6-1.8-1.5-2.2c0.8-1.3,1.3-3,1.4-4.8c0.1,0,0.2,0,0.4,0
				c1.6,0,2.9-1.3,2.9-2.9C29.5,172.3,28.2,171,26.6,171z"/>
			<path class="st6" d="M-16.3,182.1c-0.5,0-1,0.1-1.4,0.4c-0.4-0.9-1-1.6-1.6-2.2c1.8-1.3,3-3.4,3-5.8c0-1.1-0.3-2.2-0.8-3.2
				c0.5-0.4,0.8-1.1,0.8-1.7c0-1.3-1.1-2.4-2.4-2.4c-0.7,0-1.3,0.3-1.8,0.8c-0.9-0.4-1.9-0.7-3-0.7s-2.1,0.3-3,0.7
				c-0.4-0.5-1.1-0.8-1.8-0.8c-1.3,0-2.4,1.1-2.4,2.4c0,0.7,0.3,1.3,0.8,1.7c-0.5,1-0.8,2-0.8,3.2c0,2.5,1.3,4.7,3.2,6
				c-0.6,0.6-1.2,1.4-1.6,2.3c-0.5-0.3-1-0.5-1.7-0.5c-1.6,0-2.9,1.3-2.9,2.9c0,1.6,1.3,2.9,2.9,2.9c0.2,0,0.5,0,0.7-0.1
				c0.1,1.8,0.6,3.5,1.4,4.8c-0.9,0.3-1.5,1.2-1.5,2.2c0,1.3,1.1,2.4,2.4,2.4c1.1,0,2-0.7,2.3-1.7c0.7,0.3,1.4,0.5,2.1,0.5
				s1.5-0.2,2.1-0.5c0.3,1,1.2,1.7,2.3,1.7c1.3,0,2.4-1.1,2.4-2.4c0-1-0.6-1.8-1.5-2.2c0.8-1.3,1.3-3,1.4-4.8c0.1,0,0.2,0,0.4,0
				c1.6,0,2.9-1.3,2.9-2.9C-13.4,183.4-14.7,182.1-16.3,182.1z"/>
			<path class="st24" d="M72.6,181.4c-0.5,0-1,0.1-1.4,0.4c-0.4-0.9-1-1.6-1.6-2.2c1.8-1.3,3-3.4,3-5.8c0-1.1-0.3-2.2-0.8-3.2
				c0.5-0.4,0.8-1.1,0.8-1.7c0-1.3-1.1-2.4-2.4-2.4c-0.7,0-1.3,0.3-1.8,0.8c-0.9-0.4-1.9-0.7-3-0.7s-2.1,0.3-3,0.7
				c-0.4-0.5-1.1-0.8-1.8-0.8c-1.3,0-2.4,1.1-2.4,2.4c0,0.7,0.3,1.3,0.8,1.7c-0.5,1-0.8,2-0.8,3.2c0,2.5,1.3,4.7,3.2,6
				c-0.6,0.6-1.2,1.4-1.6,2.3c-0.5-0.3-1-0.5-1.7-0.5c-1.6,0-2.9,1.3-2.9,2.9c0,1.6,1.3,2.9,2.9,2.9c0.2,0,0.5,0,0.7-0.1
				c0.1,1.8,0.6,3.5,1.4,4.8c-0.9,0.3-1.5,1.2-1.5,2.2c0,1.3,1.1,2.4,2.4,2.4c1.1,0,2-0.7,2.3-1.7c0.7,0.3,1.4,0.5,2.1,0.5
				c0.7,0,1.5-0.2,2.1-0.5c0.3,1,1.2,1.7,2.3,1.7c1.3,0,2.4-1.1,2.4-2.4c0-1-0.6-1.8-1.5-2.2c0.8-1.3,1.3-3,1.4-4.8
				c0.1,0,0.2,0,0.4,0c1.6,0,2.9-1.3,2.9-2.9C75.5,182.7,74.2,181.4,72.6,181.4z"/>
		</g>
	</g>
	<g>
		<g>
			<path class="st25" d="M181.1,135.8c-7.8,4.8-5,14.9-1.4,20.2c11.7,17.2,30.3,12.9,34.7,12c20-4.2,22.3-14.2,22.4-22.2
				c0.1-7.9-4.3-12.4-14.3-12.5c-3.4,0-9.1,2.7-16.5,2.5C196.3,135.7,189.5,130.6,181.1,135.8z"/>
			<path class="st25" d="M198.9,161.7c-5.1,2.2-8.6,6.2-8.6,10.7c-0.1,7,7.9,12.7,17.9,12.8c9.9,0.1,18-5.5,18.1-12.5
				c0-4.5-3.3-8.6-8.5-10.8c-0.2,0.9-0.7,1.7-1.3,2.4c1.5,1.5,2.3,3.5,2.3,5.7c0,4.9-4.7,8.9-10.5,8.8c-5.8,0-10.4-4-10.3-9
				c0-2.1,0.9-4.1,2.3-5.6C199.5,163.3,199,162.6,198.9,161.7z"/>
			<path class="st26" d="M207.7,148.3c-7.7-0.1-13.9,4-14,9.1c0,2.1,1,4,2.8,5.6c0.8-0.5,1.5-0.8,2.3-1.1c-0.1-0.3-0.1-0.6-0.1-0.9
				c0-3.5,4.3-6.2,9.5-6.2c5.2,0,9.4,2.9,9.4,6.3c0,0.3,0,0.6-0.1,0.9c0.6,0.2,1,0.5,1.5,0.8c1.5-1.4,2.4-3.2,2.4-5.1
				C221.5,152.4,215.3,148.3,207.7,148.3L207.7,148.3z M199.5,164.8c0.9,0.5,2.1,0.9,3.2,1.2c-1-0.5-1.9-1.1-2.6-1.8
				C199.9,164.3,199.7,164.6,199.5,164.8L199.5,164.8z M216.5,163.8c-0.4,0.5-0.8,0.8-1.2,1.2c0.5-0.2,0.9-0.4,1.2-0.7
				c-0.1-0.1-0.2-0.2-0.3-0.3C216.3,164,216.4,163.9,216.5,163.8z"/>
		</g>
		
			<ellipse transform="matrix(7.182321e-003 -1 1 7.182321e-003 45.4915 368.2161)" class="st27" cx="208.2" cy="161.2" rx="6.4" ry="9.5"/>
	</g>
	<path class="st6" d="M156.1,229.8h-0.8c0,0-0.5-1.4-0.7-1.7c-0.2-0.3-1.3-1.9-1.3-1.9s0.9,0,1.4-0.2s2.2-0.7,2.9-1.4
		s2.5-2.6,3.3-4.3c0.8-1.8,1.9-4.6,1.9-4.6s-2.2,9.3-3.2,11.4C159,228.6,156.1,229.8,156.1,229.8z"/>
	<path class="st3" d="M-140.4,574.8c0-1.8-0.6-19.6-1.4-43.1"/>
	<path class="st28" d="M-106.4,357.8"/>
</g>
</svg>
