<?xml version="1.0" encoding="utf-8"?>
<!-- Generator: Adobe Illustrator 19.2.1, SVG Export Plug-In . SVG Version: 6.00 Build 0)  -->
<svg version="1.1" id="Layer_1" xmlns="http://www.w3.org/2000/svg" xmlns:xlink="http://www.w3.org/1999/xlink" x="0px" y="0px"
	 viewBox="0 0 179 270" style="enable-background:new 0 0 179 270;" xml:space="preserve">
<style type="text/css">
	.st0{fill:#D98076;}
	.st1{opacity:0.61;}
	.st2{fill:#A0635B;}
	.st3{fill:#A86860;}
	.st4{opacity:0.43;}
	.st5{opacity:0.51;}
	.st6{fill:none;stroke:#A0635B;stroke-miterlimit:10;}
	.st7{clip-path:url(#SVGID_2_);}
	.st8{clip-path:url(#SVGID_4_);fill:#F1DACB;}
	.st9{clip-path:url(#SVGID_4_);fill:none;stroke:#C37F75;stroke-miterlimit:10;}
	.st10{opacity:0.67;clip-path:url(#SVGID_4_);enable-background:new    ;}
	
		.st11{clip-path:url(#SVGID_4_);fill:none;stroke:#CE8873;stroke-width:0.709;stroke-linecap:round;stroke-linejoin:round;stroke-miterlimit:22.926;}
	.st12{clip-path:url(#SVGID_4_);fill:#F6F09B;}
	.st13{clip-path:url(#SVGID_4_);fill:#C68470;}
	
		.st14{fill-rule:evenodd;clip-rule:evenodd;fill:#CD679D;stroke:#A33384;stroke-width:0.7087;stroke-linecap:round;stroke-linejoin:round;stroke-miterlimit:22.9256;}
	
		.st15{fill-rule:evenodd;clip-rule:evenodd;fill:#D990B7;stroke:#A33384;stroke-width:0.7087;stroke-linecap:round;stroke-linejoin:round;stroke-miterlimit:22.9256;}
</style>
<path class="st0" d="M72.8,262.5c0,0,41.7,12,64.7-6.3c0,0-6.5,9.7,9.2,11.2s22.9-10,22.9-10s9.7-16.8,9.4-23.3s-2.8-9.3-4.3-12
	c0,0-2.4-14.9-6.1-19.4s-6.5-6.3-6.5-6.3c0.7-3.2-2.7-21.7-4.5-25.5c-1.3-2.7,2.2-17.3-6.2-25.5c-10-9.8-14.7-9.7-20.3-13
	c-19-11.2-45.1-19.8-78.6,7.3c-3.9,3-11.4,3.2-20.2,13.9c-6.8,8.3-6.2,19.4-7.3,24c-1.8,7.3-6.5,24.5-6.2,26.2
	c0.3,1.7-15.8,11-12.5,27.2s16.5,21,26.5,23.5c1,1.8,6.5,17.7,25.8,15.5C58.7,269.8,70.2,270.8,72.8,262.5z"/>
<g class="st1">
	<path class="st2" d="M11.3,223.7c0,0,1.2-1.1,3.3-2.5c2-1.4,5-3,8.4-3.6c0.8-0.2,1.7-0.3,2.6-0.3c0.9,0,1.7,0,2.5,0.2
		c0.4,0.1,0.8,0.2,1.2,0.3c0.4,0.1,0.7,0.3,1.1,0.5c0.7,0.4,1.3,0.8,1.8,1.2c0.5,0.4,0.9,0.9,1.2,1.3c0.3,0.4,0.6,0.8,0.8,1.1
		c0.4,0.7,0.5,1,0.5,1l-0.2,0.1c0,0-0.4-0.2-0.9-0.7c-0.3-0.2-0.6-0.4-1-0.7c-0.4-0.2-0.8-0.6-1.4-0.8c-0.3-0.1-0.5-0.3-0.8-0.4
		c-0.3-0.1-0.6-0.3-0.9-0.4c-0.6-0.2-1.2-0.4-1.9-0.5c-1.3-0.3-2.9-0.5-4.4-0.3c-3.1,0.3-6.1,1.6-8.3,2.7c-2.2,1.1-3.5,2-3.5,2
		L11.3,223.7z"/>
</g>
<g class="st1">
	<path class="st2" d="M154.6,229.3c0,0,1.1-1.2,2.9-2.8c1.8-1.6,4.5-3.5,7.6-4.7c0.8-0.3,1.6-0.5,2.4-0.7c0.8-0.2,1.7-0.3,2.5-0.2
		c0.8,0.1,1.6,0.2,2.3,0.5c0.7,0.3,1.4,0.6,1.9,1c0.5,0.4,0.9,0.8,1.3,1.2c0.3,0.4,0.6,0.8,0.8,1.1c0.4,0.6,0.5,1,0.5,1l-0.2,0.1
		c0,0-0.3-0.2-0.9-0.7c-0.3-0.2-0.6-0.4-1-0.7c-0.4-0.2-0.8-0.5-1.4-0.7c-0.2-0.1-0.5-0.2-0.8-0.3c-0.3-0.1-0.6-0.2-0.9-0.2
		c-0.6-0.1-1.2-0.2-1.9-0.3c-0.7,0-1.4-0.1-2.1,0c-0.7,0-1.5,0.2-2.2,0.4c-3,0.8-5.7,2.4-7.7,3.7c-2,1.3-3.2,2.4-3.2,2.4
		L154.6,229.3z"/>
</g>
<g>
	<path class="st3" d="M28.9,235.6c0.1-0.8,0.3-1.6,0.5-2.3c0.2-0.8,0.5-1.5,0.9-2.2c0.2-0.4,0.3-0.7,0.6-1.1c0.2-0.3,0.4-0.7,0.6-1
		c0.4-0.7,1-1.3,1.5-1.8c0.6-0.5,1.2-1.1,1.9-1.5c0.6-0.5,1.4-0.8,2.1-1.2c0.7-0.3,1.5-0.5,2.3-0.8c0.8-0.1,1.6-0.3,2.4-0.4l1.2-0.1
		l0.6,0c0.1,0,0.1,0,0.4,0l0.3,0l1.2,0.1l1.2,0.3c0.4,0.1,0.8,0.3,1.2,0.4c0.4,0.1,0.8,0.3,1.1,0.5c0.7,0.4,1.4,0.8,2.1,1.3
		c0.3,0.3,0.6,0.5,0.9,0.8l0.9,0.8c0.6,0.6,1.1,1.2,1.6,1.8c0.5,0.6,0.9,1.3,1.4,2c0.4,0.7,0.8,1.4,1.2,2.2l0.1,0.2l0,0.3
		c-0.1,0.5-0.1,1-0.2,1.5c0,0.5-0.1,1,0,1.5c0,1,0.1,2,0.4,2.9c0.1,0.4,0.3,0.8,0.5,1.2c0.1,0.2,0.2,0.3,0.4,0.5
		c0.2,0.1,0.3,0.2,0.5,0.4c0.8,0.6,1.7,1.2,2.5,2c1.7,1.4,3.3,2.9,4.5,4.9c0.2,0.2,0.3,0.5,0.4,0.8c0.1,0.3,0.3,0.5,0.4,0.8
		c0.2,0.5,0.3,1.1,0.5,1.7c0,0.6,0.1,1.2,0,1.8c0,0.6-0.3,1.2-0.4,1.7l-0.5-0.9c0.4,0.1,0.8,0.3,1.2,0.5c0.4,0.2,0.7,0.5,1,0.7
		c0.3,0.3,0.6,0.6,0.9,0.9c0.3,0.3,0.5,0.6,0.7,1c0.2,0.3,0.4,0.7,0.5,1.1c0.1,0.4,0.2,0.8,0.3,1.2c0.1,0.4,0.1,0.8,0,1.2
		c0,0.2-0.1,0.4-0.1,0.6c-0.1,0.2-0.2,0.4-0.2,0.5l-0.2-0.1c0-0.2,0.1-0.4,0.1-0.5c0-0.2,0-0.4,0-0.5c0-0.4-0.1-0.7-0.2-1.1
		c-0.1-0.3-0.2-0.7-0.4-1c-0.2-0.3-0.4-0.6-0.6-0.9c-0.2-0.3-0.4-0.6-0.7-0.8c-0.3-0.2-0.5-0.5-0.8-0.7c-0.3-0.2-0.6-0.4-0.9-0.5
		c-0.3-0.1-0.6-0.2-1-0.3l-0.6-0.1l0.1-0.8c0.1-0.5,0.2-0.9,0.2-1.4c0.1-0.5,0-0.9-0.1-1.4c-0.1-0.4-0.2-0.9-0.5-1.3
		c-0.1-0.2-0.2-0.4-0.3-0.6c-0.1-0.2-0.2-0.4-0.4-0.6c-0.3-0.4-0.6-0.8-0.9-1.2c-0.3-0.4-0.7-0.7-1-1.1c-0.7-0.7-1.5-1.4-2.3-2
		l-2.5-1.9c-0.2-0.2-0.5-0.4-0.7-0.7c-0.2-0.3-0.4-0.5-0.6-0.8c-0.3-0.6-0.5-1.1-0.7-1.7c-0.3-1.2-0.4-2.3-0.4-3.4
		c0-0.6,0.1-1.1,0.1-1.7c0.1-0.6,0.1-1.1,0.3-1.7l0,0.5c-0.3-0.6-0.6-1.4-1-2c-0.4-0.7-0.8-1.3-1.2-1.9c-0.4-0.6-0.9-1.2-1.4-1.8
		l-0.8-0.8c-0.3-0.3-0.6-0.5-0.8-0.7c-0.6-0.5-1.2-0.9-1.8-1.3c-0.3-0.2-0.6-0.4-1-0.5c-0.3-0.1-0.7-0.3-1-0.4l-1-0.3l-1.2-0.2
		l-0.3,0c0,0-0.2,0-0.2,0l-0.6,0l-1.1,0c-0.8,0-1.5,0.2-2.3,0.3c-0.7,0.2-1.5,0.4-2.2,0.6c-0.7,0.3-1.4,0.6-2,1
		c-0.7,0.4-1.2,0.9-1.8,1.4c-0.5,0.5-1.1,1.1-1.5,1.7c-0.2,0.3-0.5,0.6-0.7,0.9c-0.2,0.3-0.4,0.6-0.6,1c-0.4,0.7-0.7,1.4-0.9,2.1
		c-0.3,0.7-0.5,1.5-0.6,2.2L28.9,235.6z"/>
</g>
<g>
	<path class="st2" d="M18.5,204.1c1.6-1,3.3-1.9,5-2.7c1.7-0.8,3.5-1.5,5.4-1.9c1.9-0.4,3.9-0.5,5.9,0.1c1,0.3,1.9,0.9,2.6,1.7
		c0.7,0.8,1.3,1.7,1.7,2.6l0.1,0.3l-0.2,0.4c-0.4,0.8-0.8,1.6-1.1,2.5c-0.3,0.9-0.6,1.8-0.9,2.7c-0.5,1.8-0.8,3.6-0.6,5.3
		c0,0.4,0.1,0.8,0.3,1.2l0,0.1c0-0.1,0,0,0,0l0.1,0.2l0.2,0.3c0.1,0.2,0.2,0.4,0.3,0.6c0.2,0.4,0.5,0.8,0.7,1.1
		c0.3,0.4,0.6,0.7,0.9,1.1c1.2,1.4,2.6,2.7,4.1,4l-0.1,0.2c-0.9-0.4-1.7-0.9-2.6-1.4c-0.8-0.5-1.6-1.1-2.4-1.8
		c-0.4-0.3-0.8-0.7-1.1-1c-0.4-0.4-0.7-0.8-1-1.2c-0.1-0.2-0.3-0.5-0.5-0.7l-0.2-0.3l-0.1-0.2c0,0,0,0-0.1-0.1l0-0.1
		c-0.2-0.5-0.4-1.1-0.5-1.6c-0.2-1.1-0.2-2.1,0-3.2c0.1-1,0.4-2,0.7-3c0.3-1,0.7-1.9,1.1-2.8c0.4-0.9,0.9-1.8,1.4-2.7l-0.1,0.7
		c-0.5-1.6-1.6-3-3.2-3.6c-1.6-0.6-3.4-0.7-5.2-0.4c-1.8,0.3-3.6,0.8-5.4,1.4c-1.7,0.6-3.5,1.4-5.1,2.3L18.5,204.1z"/>
</g>
<g class="st1">
	<path class="st2" d="M46.5,198.7c0,0-0.7,0.5-1.7,1.3c-1,0.8-2.2,1.9-3.4,3.1c-0.6,0.6-1.1,1.3-1.6,1.8c-0.2,0.3-0.5,0.5-0.8,0.8
		c-0.2,0.2-0.5,0.5-0.7,0.7c-0.2,0.2-0.4,0.4-0.6,0.6c-0.2,0.2-0.4,0.3-0.5,0.5c-0.3,0.3-0.5,0.4-0.5,0.4l-0.2-0.1c0,0,0-0.2,0-0.6
		c0-0.2,0-0.5,0.1-0.7c0.1-0.3,0.2-0.6,0.3-0.9c0.1-0.3,0.3-0.6,0.5-1c0.2-0.3,0.5-0.6,0.7-1c0.6-0.6,1.3-1.1,2-1.6
		c1.4-1.1,2.9-1.9,4.1-2.5c1.2-0.6,2-0.9,2-0.9L46.5,198.7z"/>
</g>
<g class="st1">
	<path class="st2" d="M45.5,214c0,0-1.9,1.6-3.6,3.4c-0.4,0.4-0.8,0.9-1.2,1.3c-0.4,0.4-0.8,0.8-1,1.1c-0.1,0.2-0.3,0.3-0.4,0.4
		c-0.1,0.1-0.2,0.3-0.2,0.4c0,0.2,0.1,0.3,0,0.4l-0.1,0.1c0,0,0,0-0.1-0.1c-0.1,0-0.2-0.2-0.2-0.3c-0.1-0.3,0-0.8,0.2-1.3
		c0.2-0.5,0.5-0.9,1-1.4c0.4-0.4,0.9-0.8,1.4-1.2C43.3,215.2,45.5,213.9,45.5,214L45.5,214z"/>
</g>
<g class="st4">
	<path class="st2" d="M103.2,234.3c0,0,0.7-0.2,1.9-0.5c1.2-0.3,2.9-0.7,4.9-1.2c2-0.4,4.3-1,6.8-1.5c1.2-0.3,2.5-0.6,3.8-0.8
		c1.3-0.3,2.6-0.6,3.8-0.9c1.3-0.3,2.5-0.7,3.8-1c1.2-0.4,2.4-0.7,3.6-1.1c0.6-0.2,1.1-0.4,1.7-0.6c0.6-0.2,1.1-0.4,1.6-0.6
		c0.5-0.2,1-0.4,1.5-0.6c0.5-0.2,0.9-0.4,1.4-0.6c0.4-0.2,0.9-0.4,1.2-0.7c0.4-0.2,0.8-0.4,1.1-0.6c0.7-0.4,1.3-0.8,1.7-1.2
		c0.5-0.4,0.8-0.7,1.1-0.9c0.3-0.2,0.4-0.3,0.4-0.3s-0.1,0.2-0.2,0.5c-0.1,0.3-0.2,0.8-0.6,1.4c-0.1,0.3-0.3,0.6-0.5,0.9
		c-0.2,0.3-0.4,0.7-0.7,1c-0.2,0.4-0.6,0.7-0.9,1.1c-0.3,0.4-0.7,0.8-1.1,1.1c-0.4,0.4-0.8,0.8-1.3,1.1c-0.5,0.4-0.9,0.7-1.5,1.1
		c-1,0.7-2.2,1.4-3.4,2c-1.2,0.6-2.5,1.2-3.8,1.6c-1.3,0.5-2.7,0.9-4.1,1.2c-5.5,1.4-11.2,1.6-15.3,1.3c-2.1-0.1-3.8-0.4-5-0.7
		C103.8,234.5,103.2,234.3,103.2,234.3z"/>
</g>
<g>
	<path class="st2" d="M133.8,197.4c0,0,1.2-0.7,3.4-1.6c1.1-0.5,2.5-1,4-1.5c1.6-0.5,3.4-1,5.5-1.3c1-0.1,2.2-0.2,3.4-0.1
		c0.6,0.1,1.3,0.2,1.9,0.6c0.3,0.2,0.6,0.4,0.9,0.8c0.2,0.2,0.3,0.5,0.5,0.7c0.7,1.2,1.2,2.3,1.5,3.5c0.4,1.2,0.7,2.4,1,3.7
		c0.5,2.5,1,5.1,1.4,7.8c0.2,1.3,0.3,2.7,0.4,4l0.1,2c0,0.7,0,1.4,0,2.1c-0.1,1.4-0.3,2.8-0.6,4.1c-0.3,1.3-0.7,2.6-1.1,3.9
		c-0.8,2.6-1.7,5.1-2.6,7.5c-1,2.4-2,4.6-3.1,6.7c-1.1,2.1-2.3,4-3.5,5.7c-0.6,0.9-1.2,1.6-1.8,2.4c-0.6,0.7-1.2,1.4-1.8,2
		c-0.6,0.6-1.2,1.1-1.7,1.6c-0.5,0.5-1.1,0.9-1.6,1.3c-0.5,0.3-0.9,0.7-1.3,0.9c-0.4,0.2-0.8,0.4-1,0.6c-0.6,0.3-0.9,0.5-0.9,0.5
		l-0.1-0.2c0,0,0.3-0.2,0.8-0.6c0.2-0.2,0.6-0.4,0.9-0.7c0.4-0.3,0.7-0.7,1.1-1.1c0.9-0.8,1.8-1.9,2.8-3.1c1-1.3,2-2.8,3.1-4.5
		c0.5-0.9,1.1-1.7,1.6-2.7c0.5-0.9,1.1-1.9,1.6-3c1-2,2.1-4.2,3.1-6.5c1-2.3,2-4.7,2.9-7.2c0.5-1.2,0.9-2.5,1.3-3.8
		c0.5-1.3,0.7-2.5,0.9-3.8c0.4-2.6,0.3-5.3,0-8c-0.3-2.6-1-5.2-1.8-7.6c-0.4-1.2-0.9-2.3-1.3-3.4c-0.5-1.1-1-2.1-1.6-3l-0.5-0.7
		c-0.1-0.1-0.2-0.2-0.4-0.3c-0.3-0.2-0.8-0.3-1.3-0.4c-1-0.1-2-0.1-2.9,0c-2,0.2-3.8,0.6-5.3,0.9c-1.6,0.4-3,0.7-4.1,1
		c-1.1,0.3-2,0.5-2.7,0.7c-0.6,0.2-0.9,0.3-0.9,0.3L133.8,197.4z"/>
</g>
<g class="st1">
	<path class="st2" d="M33.3,199.7c0,0-0.1-0.6-0.1-1.6c0-1,0.2-2.7,1.2-4.4c1-1.8,2.8-3.6,5.2-5c2.4-1.4,5.5-2.3,8.8-2.8
		c0.4-0.1,0.8-0.2,1.3-0.2c0.4,0,0.8-0.1,1.3-0.1c0.8-0.1,1.7-0.2,2.6-0.2c1.8-0.1,3.7-0.1,5.6,0.1c3.8,0.3,7.8,1.3,11.6,2.8
		c3.9,1.4,7.7,3.1,11.9,3.8c4.2,0.5,8.6,0.5,12.9,0.4c4.3-0.1,8.6-0.4,12.8-0.8c4.2-0.4,8.3-1.1,12.1-2.1c1.9-0.6,3.8-1.2,5.6-1.8
		c1.9-0.6,3.7-1.2,5.5-1.7c3.6-1.1,7.1-1.9,10.4-2.5c1.7-0.3,3.3-0.4,4.8-0.4c1.6,0,3.1,0.2,4.5,0.7l0.5,0.2l0.3,0.1l0,0
		c0,0,0.2,0.1,0.1,0.1l0,0l0.1,0.1c0.3,0.2,0.5,0.3,0.8,0.6c0.3,0.3,0.6,0.5,0.8,0.8c0.2,0.3,0.4,0.6,0.5,0.9
		c0.6,1.2,0.7,2.4,0.6,3.4c-0.2,2-0.8,3.5-1.3,4.4c-0.3,0.5-0.5,0.8-0.7,1c-0.2,0.2-0.4,0.3-0.4,0.3l-0.1-0.3c0,0,0.1,0,0.2-0.2
		c0.1-0.2,0.3-0.5,0.5-1c0.3-0.9,0.7-2.4,0.6-4.2c-0.1-0.9-0.3-1.8-0.8-2.7c-0.1-0.2-0.3-0.4-0.4-0.6c-0.2-0.2-0.3-0.3-0.5-0.4
		c-0.2-0.1-0.5-0.3-0.8-0.5l-0.1-0.1l-0.1,0c-0.1,0,0.1,0,0.1,0l0,0l-0.2-0.1l-0.4-0.1c-2.2-0.6-5.2-0.2-8.2,0.5
		c-3.1,0.7-6.4,1.7-10,2.8c-1.8,0.6-3.6,1.2-5.4,1.8c-0.9,0.3-1.9,0.6-2.8,0.9c-0.9,0.3-2,0.6-3,0.9c-4.1,1-8.4,1.5-12.7,1.8
		c-4.3,0.3-8.7,0.1-13.1-0.2c-2.2-0.2-4.4-0.3-6.5-0.5c-1.1-0.1-2.2-0.2-3.2-0.3l-1.6-0.1l-1.6-0.2c-4.3-0.7-8.3-2.2-12.2-3.2
		c-3.9-1-7.7-1.5-11.4-1.7c-1.8-0.1-3.6-0.1-5.3,0c-0.8,0-1.7,0.1-2.6,0.1c-0.4,0-0.8,0.1-1.3,0.1c-0.3,0-0.8,0.1-1.2,0.1
		c-3.1,0.3-5.9,1.1-8.2,2.1c-2.3,1-4,2.4-5,3.9c-1.1,1.4-1.5,2.9-1.7,3.8c-0.2,1-0.2,1.5-0.2,1.5L33.3,199.7z"/>
</g>
<g>
	<path class="st2" d="M44.7,154.8c0,0-1.4,2.7-3.3,6.8c-1.9,4.1-4.4,9.6-6.6,15.2c-0.5,1.4-1,2.8-1.5,4.2c-0.5,1.4-0.9,2.8-1.3,4.1
		c-0.4,1.3-0.8,2.6-1.2,3.8c-0.4,1.2-0.7,2.4-1,3.5c-0.3,1.1-0.5,2.1-0.6,3c-0.1,0.4-0.1,0.9-0.2,1.2c-0.1,0.4-0.1,0.7-0.1,1.1
		c0,0.3,0,0.6,0,0.9c0,0.3,0,0.5,0,0.6c0,0.4,0,0.5,0,0.5l-0.2,0c0,0-0.1-0.2-0.2-0.5c0-0.2-0.1-0.4-0.2-0.6c0-0.3-0.1-0.6-0.1-0.9
		c-0.1-0.7-0.2-1.5-0.2-2.4c0-0.9,0.1-2,0.2-3.1c0.1-1.1,0.4-2.4,0.7-3.7c0.3-1.3,0.7-2.6,1.1-4c0.5-1.4,1-2.7,1.6-4.1
		c0.6-1.4,1.2-2.8,1.8-4.2c2.5-5.5,5.2-10.9,7.4-14.9c2.2-4,3.8-6.5,3.8-6.5L44.7,154.8z"/>
</g>
<g>
	<path class="st2" d="M133.9,150.6c0,0,1.3,2,3.1,4.9c1.9,3,4.3,7,6.6,11.1c1.1,2,2.3,4.1,3.3,6.1c0.5,1,0.9,2,1.3,2.9
		c0.4,0.9,0.7,1.9,1,2.7c0.5,1.7,0.8,3.2,0.9,4.2c0,0.5,0,1,0,1.2c0,0.3-0.1,0.4-0.1,0.4l-0.2,0c0,0,0-0.1-0.1-0.4
		c-0.1-0.3-0.2-0.6-0.3-1.1c-0.4-0.9-0.9-2.3-1.7-3.8c-0.8-1.6-1.7-3.4-2.6-5.3c-0.9-2-1.8-4.1-2.8-6.2c-2-4.2-4.2-8.3-5.8-11.5
		c-1.6-3.1-2.7-5.2-2.7-5.2L133.9,150.6z"/>
</g>
<g class="st5">
	<path class="st2" d="M45.5,177.3c0,0-1.1,0.5-2.6,1.3c-0.8,0.4-1.7,0.9-2.6,1.5c-0.9,0.6-1.9,1.2-2.9,1.8c-0.5,0.3-0.9,0.7-1.4,1
		c-0.4,0.3-0.8,0.7-1.3,1.1c-0.4,0.3-0.8,0.7-1.2,0.9c-0.4,0.3-0.7,0.6-1.1,0.8c-0.3,0.3-0.6,0.5-0.9,0.7c-0.3,0.2-0.5,0.4-0.7,0.6
		c-0.4,0.4-0.6,0.6-0.6,0.6l-0.2-0.1c0,0,0-0.3,0.2-0.8c0.1-0.3,0.2-0.6,0.4-0.9c0.2-0.3,0.4-0.7,0.6-1.1c0.3-0.4,0.6-0.8,0.9-1.2
		c0.4-0.4,0.8-0.8,1.2-1.1c0.5-0.3,1-0.7,1.5-1c0.5-0.3,1.1-0.6,1.6-0.9c1.1-0.6,2.2-1.1,3.2-1.5c1-0.4,2-0.8,2.9-1.1
		c1.7-0.6,2.9-0.8,2.9-0.8L45.5,177.3z"/>
</g>
<path class="st6" d="M109.2,182.4c0,0,8.2,3.9,19-1.3c10.8-5.2,15.3-5.8,19-3.9"/>
<g class="st4">
	<path class="st2" d="M61.2,159.6c0,0,0.8-0.5,2.4-1.3c1.5-0.8,3.8-1.8,6.6-2.7c2.8-1,6.1-1.9,9.7-2.6c1.8-0.4,3.7-0.6,5.6-0.8
		c1.9-0.2,3.9-0.3,5.9-0.3c2,0,4,0.1,6,0.3c2,0.2,3.9,0.6,5.7,1c0.9,0.2,1.8,0.5,2.7,0.8c0.9,0.3,1.7,0.6,2.5,0.9
		c0.8,0.4,1.6,0.7,2.3,1.1c0.7,0.4,1.4,0.8,2.1,1.2c0.6,0.4,1.2,0.8,1.8,1.2c0.6,0.4,1,0.9,1.5,1.2c0.5,0.4,0.9,0.8,1.2,1.2
		c0.4,0.4,0.7,0.7,1,1.1c0.6,0.7,0.9,1.2,1.2,1.6c0.3,0.4,0.4,0.6,0.4,0.6s-0.9-0.5-2.3-1.4c-0.4-0.2-0.8-0.4-1.2-0.7
		c-0.2-0.1-0.4-0.2-0.7-0.4c-0.2-0.1-0.5-0.2-0.8-0.4c-1-0.5-2.2-1-3.5-1.5c-0.7-0.2-1.3-0.4-2.1-0.7c-0.7-0.2-1.5-0.4-2.2-0.6
		c-0.8-0.2-1.6-0.3-2.4-0.5c-0.8-0.1-1.6-0.3-2.5-0.4c-1.7-0.2-3.5-0.4-5.3-0.5c-0.9-0.1-1.8-0.1-2.7-0.1c-0.9,0-1.9,0-2.8,0
		c-1.9,0-3.7,0.1-5.6,0.2c-1.8,0.1-3.7,0.2-5.4,0.4c-3.5,0.3-6.8,0.7-9.7,1.1c-2.8,0.3-5.2,0.7-6.9,0.9
		C62.1,159.5,61.2,159.6,61.2,159.6z"/>
</g>
<g>
	<defs>
		<polygon id="SVGID_1_" points="-180.1,290.1 115.6,335 253.2,25.5 -42.5,-19.4 		"/>
	</defs>
	<clipPath id="SVGID_2_">
		<use xlink:href="#SVGID_1_"  style="overflow:visible;"/>
	</clipPath>
	<g class="st7">
		<defs>
			<polygon id="SVGID_3_" points="-42.5,-19.4 253.2,25.5 115.6,335 -180.1,290.1 			"/>
		</defs>
		<clipPath id="SVGID_4_">
			<use xlink:href="#SVGID_3_"  style="overflow:visible;"/>
		</clipPath>
		<path class="st8" d="M22.9,101.3c-2.2-1.8-5.1-2.9-8.2-3c-7.6-0.2-13.8,5.6-14,13.1C0.5,118.7,6.4,125,14,125.2
			c6,0.2,11.2-3.5,13.2-8.9"/>
		<path class="st9" d="M22.9,101.3c-2.2-1.8-5.1-2.9-8.2-3c-7.6-0.2-13.8,5.6-14,13.1C0.5,118.7,6.4,125,14,125.2
			c6,0.2,11.2-3.5,13.2-8.9"/>
		<path class="st8" d="M82.4,151.7c-5.4,0.1-11.1-1.5-11.1-1.5c-6.9-1.5-27.7-6.1-41.4-24.2c-1.3-1.8-4.4-6-7-11.9
			c0.3-0.8,0.4-1.6,0.4-2.4c0-1.7-0.4-3.3-1.2-4.6c-0.3,0-0.4-0.1-0.7-0.1c-0.3,0-0.7,0-1,0.1c-2.1-7.5-2.8-16.5,0.9-25.8
			c8.2-20.9,27.5-31,37.1-33.9c9.6-2.9,13.4-12.3,13.5-15.7c0.1-3.4-1.1-18.5-0.7-20.4C71.5,9.4,76,1,83.9,0.6
			c7.9-0.4,13.5,4.5,11.9,9.2c-1.6,4.7-5.8,6.8-9.8,6.6c-4-0.2-8.5-2.2-11.1-3.8c-2.7-1.6-7.2-5.3-7.7-6.4c-0.6-1,7.4,4.8,11.1,5.9
			c3.7,1.1,12.4,2.7,14-1.4c1.8-4.1-1.9-6.1-4.5-6.2c-2.6-0.1-13.2,2.7-10.4,13.2c2.9,10.5,10.3,16.7,13.5,19.2
			c3.2,2.4,3.4,4.3,26.4,9.6c15.3,3.6,32.3,16.9,38.8,31.9c6.3,14.6,4.4,29.7,0.7,36.7C153,122.1,143.8,151,82.4,151.7z"/>
		<path class="st8" d="M159.7,93.4c-2.7,28.6-30.4,50.7-65.1,49.2s-61.8-26-60.5-54.7C34.9,68,48.2,51.8,67.3,44.8
			c8.4-3.1,12.9,0,23.5-1.8c7.4-1.3,19.3,0.5,26.2,3C142.1,54.8,161.4,75.5,159.7,93.4z"/>
		<path class="st9" d="M20.4,107c-3.3-12.6-1.4-20.7,0.9-25.8c2.6-5.9,10.5-24.8,37.1-33.9c9.5-3.2,13.4-12.3,13.5-15.7
			c0.1-3.4-1.1-18.5-0.7-20.4C71.5,9.4,76,1,83.9,0.6c7.9-0.4,13.5,4.5,11.9,9.2c-1.6,4.7-5.8,6.8-9.8,6.6c-4-0.2-8.5-2.2-11.1-3.8
			c-2.7-1.6-7.2-5.3-7.7-6.4c-0.6-1,7.4,4.8,11.1,5.9c3.7,1.1,12.4,2.7,14-1.4c1.8-4.1-1.9-6.1-4.5-6.2c-2.6-0.1-13.2,2.7-10.4,13.2
			c2.9,10.5,10.3,16.7,13.5,19.2c3.2,2.4,3.4,4.3,26.4,9.6c22.9,5.3,36.3,27.1,38.8,31.9c2.4,4.9,7,18.6,0.7,36.7
			c-2.4,5.4-7.5,14.4-17.1,21.9c-6.8,5.2-12.8,7.3-19.5,9.7c-17.1,6-31.5,5.6-37.7,5.1c-5.8-0.4-10.2-1.3-11.1-1.5
			c-6.9-1.5-27.6-6.2-41.4-24.2c-1.9-2.5-4.6-6.4-7-11.9C22.1,111.8,21.2,109.4,20.4,107z"/>
		<path class="st8" d="M166,91.5c-2.3-0.1-4.5,0.6-6.2,1.8c0.4,5.3,0,11.7-2,18.7c1.9,2.1,4.6,3.3,7.6,3.4
			c6.3,0.2,11.5-5.1,11.6-11.7C177.1,97.2,172.3,91.7,166,91.5"/>
		<path class="st9" d="M166,91.5c-2.3-0.1-4.5,0.6-6.2,1.8c0.4,5.3,0,11.7-2,18.7c1.9,2.1,4.6,3.3,7.6,3.4
			c6.3,0.2,11.5-5.1,11.6-11.7C177.1,97.2,172.3,91.7,166,91.5z"/>
		<g class="st10">
			<g>
				<defs>
					
						<rect id="SVGID_5_" x="95.5" y="111.6" transform="matrix(0.1501 -0.9887 0.9887 0.1501 -33.5016 198.4092)" width="6.3" height="14.2"/>
				</defs>
				<clipPath id="SVGID_6_">
					<use xlink:href="#SVGID_5_"  style="overflow:visible;"/>
				</clipPath>
			</g>
		</g>
		<path class="st11" d="M102.8,43c-1.8,0.6-4.1,1-5.2,0.7c-2.2-0.6-6.8-1.8-8.2-0.4c-1.3,1.4-4.4,0.8-6.6-0.2c-2.2-1-3.2,1-5.9,0.8
			c-2.8-0.3-1.5-1.6-3.4-0.8c-1.9,0.8-4.8,2.1-6.2,1.7c-1.2-0.4-1.6,1.1-5.4,1.1c6.9-3.8,9.8-11.3,9.9-14.3
			c0.1-3.4-1.1-18.5-0.7-20.4C71.4,9.4,75.9,1,83.8,0.6s13.5,4.5,11.9,9.2c-1.6,4.7-5.8,6.8-9.8,6.6c-4-0.2-8.5-2.2-11.1-3.8
			c-2.7-1.6-7.2-5.3-7.7-6.4c-0.6-1,7.4,4.8,11.1,5.9c3.7,1.1,12.4,2.7,14-1.3c1.8-4.1-1.9-6.1-4.5-6.2C85,4.5,74.4,7.2,77.3,17.7
			c2.9,10.5,10.3,16.7,13.5,19.2C93,38.8,93.8,40.2,102.8,43z"/>
		<path class="st12" d="M102.8,43c-1.8,0.6-4.1,1-5.2,0.7c-2.2-0.6-6.8-1.8-8.2-0.4c-1.3,1.4-4.4,0.8-6.6-0.2c-2.3-1.1-3,0.2-5.7,0
			c-2.8-0.3-1.7-0.8-3.6,0c-1.9,0.8-4.8,2.1-6.2,1.7c-1.2-0.4-1.6,1.1-5.4,1.1c6.9-3.8,9.8-11.3,9.9-14.3c0.1-3.4-1.1-18.5-0.7-20.4
			C71.4,9.4,75.9,1,83.8,0.6s13.5,4.5,11.9,9.2c-1.6,4.7-5.8,6.8-9.8,6.6c-4-0.2-8.5-2.2-11.1-3.8c-2.7-1.6-7.2-5.3-7.7-6.4
			c-0.6-1,7.4,4.8,11.1,5.9c3.7,1.1,12.4,2.7,14-1.3c1.8-4.1-1.9-6.1-4.5-6.2C85,4.5,74.4,7.2,77.3,17.7
			c2.9,10.5,10.3,16.7,13.5,19.2C93,38.8,93.8,40.2,102.8,43"/>
		<path class="st13" d="M95.1,44.8c0,0-0.5-0.1-1.4-0.6c-0.4-0.2-0.9-0.5-1.5-0.8c-0.5-0.4-1.2-0.7-1.8-1.3c-0.7-0.5-1.3-1.1-2-1.7
			s-1.4-1.3-2-2.1c-0.7-0.8-1.3-1.6-1.9-2.5c-0.3-0.4-0.6-0.9-0.9-1.3L82.8,33c-0.2-0.4-0.6-0.9-0.8-1.4c-0.2-0.4-0.5-1-0.7-1.4
			c-0.2-0.4-0.5-1-0.7-1.4c-0.2-0.4-0.4-1-0.7-1.4c-0.4-0.9-0.9-1.8-1.2-2.6c-0.3-0.9-0.7-1.7-1.1-2.4c-0.3-0.7-0.6-1.4-0.8-2
			c-0.2-0.6-0.5-1.1-0.7-1.6c-0.4-0.9-0.6-1.4-0.6-1.4l-0.1,0c0,0,0.2,0.5,0.4,1.5c0.1,0.4,0.2,1.1,0.5,1.7c0.6,2.1-0.3-0.6,0.6,2.1
			c0.2,0.8,0.6,1.6,0.9,2.5c0.3,0.9,0.7,1.8,1.1,2.7c0.2,0.4,0.4,1,0.7,1.4c0.2,0.4,0.5,1,0.8,1.4c0.2,0.4,0.5,1,0.8,1.4
			c0.2,0.4,0.6,0.9,0.9,1.4l0.9,1.4c0.3,0.4,0.7,0.9,1,1.3c0.6,0.9,1.3,1.7,2,2.4c0.3,0.4,0.7,0.7,1,1.1c0.3,0.4,0.7,0.7,1,1
			c0.7,0.6,1.4,1.2,2,1.6c0.7,0.5,1.3,0.9,1.9,1.2c0.6,0.3,1.1,0.6,1.5,0.7C94.6,44.8,95.1,44.9,95.1,44.8"/>
		<path class="st13" d="M86.2,45c0,0-0.3-0.2-0.9-0.6c-0.5-0.4-1.2-1.1-1.9-2c-0.3-0.4-0.7-1-1.1-1.4c-0.3-0.5-0.8-1.1-1.1-1.7
			c-0.3-0.6-0.7-1.2-1-1.9c-0.3-0.6-0.7-1.3-1-2c-0.3-0.7-0.6-1.4-0.8-2.1c-0.2-0.7-0.5-1.4-0.7-2c-0.5-1.3-1-2.6-1.3-3.6
			c-0.4-1.1-0.6-1.9-0.9-2.5c-0.2-0.6-0.4-1-0.4-1l-0.1,0c0,0,0.1,0.4,0.1,1c0.1,0.4,0.2,0.7,0.2,1.1c0.1,0.4,0.1,1,0.3,1.5
			c0.2,0.5,0.3,1.1,0.5,1.8c0.2,0.6,0.4,1.3,0.6,1.9c0.2,0.7,0.5,1.3,0.8,2c0.3,0.7,0.6,1.4,1,2c0.3,0.7,0.7,1.3,1.1,2
			c0.3,0.6,0.7,1.3,1.2,1.9c0.3,0.6,0.8,1.2,1.2,1.7c0.4,0.5,0.8,1,1.2,1.4c0.8,0.9,1.4,1.5,2,1.9C85.7,44.9,86.1,45.1,86.2,45"/>
		<path class="st13" d="M71.3,48.3c0,0,0.3-0.3,0.8-0.8c0.3-0.3,0.5-0.6,0.7-1c0.3-0.4,0.5-0.9,0.8-1.4c0.2-0.3,0.3-0.5,0.5-0.9
			c0.1-0.3,0.3-0.6,0.4-0.9c0.3-0.6,0.5-1.3,0.8-2.1c0.2-0.7,0.5-1.5,0.6-2.2c0.1-0.8,0.3-1.6,0.4-2.3l0.1-1.2c0-0.4,0-0.8,0-1.2
			c0-0.8,0-1.6,0.1-2.3c-0.1-0.8,0-1.5-0.1-2.2c-0.1-0.7-0.2-1.3-0.3-1.9c-0.1-0.6-0.2-1.1-0.3-1.6c-0.1-0.4-0.2-0.9-0.3-1.2
			c-0.2-0.7-0.3-1.1-0.3-1.1L75,24c0,0,0,0.4,0.1,1.1c0.1,0.7,0.2,1.7,0.3,2.9c0.1,1.2,0.2,2.5,0.1,4c0.1,0.7,0,1.5,0,2.3
			c0,0.3,0,0.8,0,1.1l-0.1,1.2c0,0.8-0.1,1.6-0.2,2.3c-0.1,0.8-0.3,1.5-0.5,2.3c-0.2,0.7-0.4,1.4-0.7,2c-0.1,0.3,0.1-0.3,0,0
			c-0.1,0.3-0.7,1.5-0.7,1.8c-0.3,0.5-0.6,1-0.7,1.5c-0.3,0.4-0.5,0.8-0.7,1C71.5,48,71.2,48.2,71.3,48.3"/>
		<path class="st13" d="M64.9,48c0,0,0.7-0.7,1.9-1.9c0.5-0.7,1.3-1.4,2-2.4c0.7-1,1.5-2.1,2.2-3.4c0.7-1.3,1.4-2.7,1.9-4.4
			c0.3-0.8,0.6-1.6,0.7-2.5c0.1-0.4,0.2-0.9,0.3-1.3c0.1-0.4,0.1-1,0.2-1.4l0.1-0.7l0-0.7c0-0.4,0-1,0-1.4c0-1,0-1.9-0.1-2.9
			c0-1.9-0.2-3.9-0.4-5.8c-0.3-3.2-0.4-2.7-0.2-5.7c0.1-1.9,1-3.5,2.1-4.9L76.1,8l0.4-0.4c0.4-0.3,0.6-0.6,1-0.8
			c0.4-0.3,0.7-0.5,1-0.8c0.4-0.3,0.7-0.5,1.1-0.7c1.4-0.8,2.8-1.5,4.2-1.7c1.4-0.2,2.7-0.3,3.9-0.1c1.1,0.2,2.2,0.5,2.9,0.9
			c0.8,0.4,1.4,0.7,1.7,1c0.3,0.3,0.5,0.5,0.5,0.5l0.1,0c0,0-0.2-0.3-0.5-0.5c-0.3-0.4-0.9-0.7-1.6-1.2c-0.8-0.5-1.7-0.8-2.9-1.1
			c-1.2-0.3-2.6-0.3-4.1-0.1c-1.5,0.2-3.1,0.9-4.6,1.7c-0.4,0.3-0.7,0.4-1.1,0.7c-0.4,0.3-0.7,0.5-1.1,0.8c-0.4,0.3-0.7,0.6-1.1,0.9
			l-0.5,0.5L75.1,8c-1.3,1.4-2.2,3.3-2.2,5.4c-0.1,2,0.1,4,0.3,5.9c0.2,1.9,0.4,3.9,0.5,5.8c0.1,1,0.1,1.9,0.1,2.9c0,0.4,0,1,0,1.4
			l0,0.7l-0.1,0.7c0,0.4-0.1,0.9-0.1,1.4c-0.1,0.4-0.2,0.9-0.3,1.3c-0.1,0.9-0.4,1.7-0.7,2.5c-0.5,1.6-1.1,3.1-1.8,4.4
			c-0.6,1.3-1.4,2.5-2.1,3.4c-0.7,0.9-1.4,1.8-1.9,2.5C65.6,47.2,64.9,47.9,64.9,48"/>
	</g>
</g>
<g>
	<path class="st14" d="M119,46.7c-5.2-14.9-24.5-18.3-40.5-11.9c0.2,0.3,0.3,0.7,0.4,1.1c0.6,0.5,1.4,1.1,2.4,1.6
		c0.1,0,5.9,0.2,8.7-1.1c2.8-1.3,18.6,2.9,22.7,8.3L119,46.7z"/>
	<path class="st15" d="M76.5,32.7c0.6-2,3.2-10.7,6.6-14c3.8-3.7,11.3-7.1,12.6-6.4c1.3,0.7,8.3,10.4,8.1,13.4
		c-0.1,1.5-2.6,3.1-5.6,4.5c-5.8-1.8-9.6,0.6-19.7,4.7c-0.2-0.5-0.5-0.9-0.7-1.2C77.5,33.4,77.1,33,76.5,32.7z"/>
	<path class="st15" d="M42,49.4c-0.2-0.2-2.7-2.4-2.2-5c0.4-2.2,2.5-4,6-5c6.5-1.9,16.4-3.4,19.6-2.6c0.1,0,0.2,0.1,0.3,0.1
		c-0.1,0.5-0.1,0.8-0.1,0.8c0.9,2.3,1.9,3.7,3.1,4.3c-0.1,0.5-0.2,1-0.5,1.4c-2.9,1.5-5.7,3-8.6,4.5C52.4,51.7,45.5,52.5,42,49.4z
		 M54.4,41.7c-2.5-0.5-7.2,0.1-8.9,1.6c-1.7,1.5-1.3,3,1.2,2.5C49.3,45.2,54.4,41.7,54.4,41.7z"/>
	<path class="st14" d="M65.6,37.6c0,0-0.2-3.2,3.9-5c4.1-1.8,7.5-0.1,8.4,1c0.8,1.1,2.8,4.4-1.3,6.7C72.3,42.7,68.1,44.6,65.6,37.6z
		"/>
</g>
<g class="st1">
	<path class="st2" d="M155.7,203.1c0,0,0.1-0.6,0.3-1.6c0.2-0.9,0.5-2.2,1-3.4c0.2-0.6,0.5-1.2,0.9-1.7c0.4-0.5,0.9-1,1.4-1.1
		c0.3-0.1,0.6-0.1,0.8-0.1c0.2,0,0.4,0.1,0.6,0.2c0.3,0.2,0.4,0.3,0.4,0.3l-0.1,0.1c0,0,0,0-0.1,0c-0.1,0-0.2-0.1-0.3,0
		c-0.3,0-0.6,0-0.9,0.3c-0.3,0.2-0.6,0.6-0.9,1c-0.3,0.4-0.7,0.9-1,1.5c-0.6,1.1-1.1,2.3-1.4,3.1C156,202.6,155.8,203.2,155.7,203.1
		L155.7,203.1z"/>
</g>
</svg>
