<?xml version="1.0" encoding="utf-8"?>
<!-- Generator: Adobe Illustrator 19.2.1, SVG Export Plug-In . SVG Version: 6.00 Build 0)  -->
<svg version="1.1" id="Слой_1" xmlns="http://www.w3.org/2000/svg" xmlns:xlink="http://www.w3.org/1999/xlink" x="0px" y="0px"
	 viewBox="0 0 205 205" style="enable-background:new 0 0 205 205;" xml:space="preserve">
<style type="text/css">
	
		.st0{fill:none;stroke:url(#SVGID_1_);stroke-width:3;stroke-linecap:round;stroke-miterlimit:10;stroke-dasharray:10.1346,10.1346;}
	.st1{fill:none;stroke:url(#SVGID_2_);stroke-width:3;stroke-miterlimit:10;}
	.st2{fill:url(#SVGID_3_);}
	.st3{fill:url(#SVGID_4_);}
	.st4{fill:url(#SVGID_5_);}
	.st5{fill:url(#SVGID_6_);}
	.st6{fill:url(#SVGID_7_);}
	.st7{fill:url(#SVGID_8_);}
	.st8{fill:url(#SVGID_9_);}
	.st9{fill:url(#SVGID_10_);}
	.st10{fill:url(#SVGID_11_);}
	.st11{fill:url(#SVGID_12_);}
	.st12{fill:url(#SVGID_13_);}
</style>
<g>
	<g>
		<linearGradient id="SVGID_1_" gradientUnits="userSpaceOnUse" x1="1" y1="102.5" x2="204" y2="102.5">
			<stop  offset="0" style="stop-color:#F4A283"/>
			<stop  offset="1" style="stop-color:#DA7F81"/>
		</linearGradient>
		<circle class="st0" cx="102.5" cy="102.5" r="100"/>
	</g>
	<linearGradient id="SVGID_2_" gradientUnits="userSpaceOnUse" x1="16.7729" y1="101.8008" x2="188.76" y2="101.8008">
		<stop  offset="0" style="stop-color:#F4A283"/>
		<stop  offset="1" style="stop-color:#DA7F81"/>
	</linearGradient>
	<circle class="st1" cx="102.8" cy="101.8" r="84.5"/>
	<g>
		
			<linearGradient id="SVGID_3_" gradientUnits="userSpaceOnUse" x1="-430.9804" y1="88.9454" x2="-331.949" y2="88.9454" gradientTransform="matrix(-1 0 0 1 -276.7869 0)">
			<stop  offset="0" style="stop-color:#F4A283"/>
			<stop  offset="1" style="stop-color:#DA7F81"/>
		</linearGradient>
		<path class="st2" d="M55.2,118.3c0.2,2.6,1.6,5,3.7,6.5c7.9,5.7,24.4,15.3,45.8,15.3c21.4,0,37.8-9.6,45.8-15.3
			c2.1-1.5,3.5-3.9,3.7-6.5c0.2-2.6-0.7-5.2-2.6-7.1c-2.5-2.5-6.2-3.3-9.4-2.2c-0.3-1.1-0.8-2.6-1.4-4.3c0.2,0,0.4,0,0.5,0
			c0.7,0,1.4-0.1,2.1-0.3c4.6-1.3,7.2-6.6,7.3-6.8c0.3-0.6,0.2-1.3-0.1-1.8c-0.4-0.5-1-0.8-1.6-0.8c-4.9,0.4-6.7-2.4-9.4-6.5
			c-1.9-2.9-4.1-6.3-7.9-8.8c-6.1-4.1-11.7-2.8-15.1-0.7c-1-1.6-2.8-2.7-4.8-2.7h-9.5c2.7-6.2,4.1-19.8-1.1-29.2
			c-0.5-0.9-1-1.7-1.6-2.4c0,0,0-0.1-0.1-0.1c0,0,0,0,0,0c-3.5-4.5-8.5-6.8-14.7-6.8c-23.2,0-25.3,19.9-25.3,20.1
			c0,0.5,0.1,1,0.5,1.4c0.3,0.4,0.8,0.6,1.3,0.6h4.9c-0.7,4.4-0.6,9.2,0.4,14.8c1.1,6.3,5.5,8.7,9.2,8.8c0.2,0,0.3,0,0.5,0
			c1.1,0,2.2-0.2,3.2-0.5c-0.6,1.2-1.4,2.4-2.3,3.7c-7.5,10.8-9.7,18.5-10.4,22.3c-3.1-0.9-6.7-0.1-9.1,2.3
			C55.9,113.1,55,115.7,55.2,118.3z M98.4,76.1c0,0.1-0.1,0.2-0.1,0.2h-0.9c-3.1,0-5.7,2.5-5.7,5.7c0,3,2.3,5.4,5.2,5.6l1.4,12.6
			c-11.2,2.6-18,11.6-20.3,15.2c-3.1-1.6-5.8-3.2-7.8-4.6c0.2-2.4,1.6-10.1,10-22c11.4-16.4,3.8-26.4,3.4-26.8
			c-0.6-0.8-1.7-0.9-2.5-0.3c-0.8,0.6-0.9,1.8-0.3,2.5c0.2,0.2,3.1,4.2,1.6,11.4c0,0,0,0,0,0.1c-0.7,2.6-3.4,4.5-6.4,4.3
			c-1.4-0.1-4.9-0.8-5.8-5.8c-0.7-3.8-1.4-9.6,0-15.5c0.1-0.5,0-1.1-0.3-1.5c-0.3-0.4-0.9-0.7-1.4-0.7h-4.9c1.1-4.3,5-14,19.5-14.8
			v4.4c0,1,0.8,1.8,1.8,1.8c1,0,1.8-0.8,1.8-1.8v-4.3c3.7,0.3,6.7,1.7,9,4.1l-4.3,3.5c-0.8,0.6-0.9,1.8-0.2,2.5
			c0.4,0.4,0.9,0.7,1.4,0.7c0.4,0,0.8-0.1,1.2-0.4l4.1-3.4c0.1,0.2,0.2,0.3,0.3,0.4c1.4,2.5,2.2,5.3,2.6,8.2h-5.4
			c-1,0-1.8,0.8-1.8,1.8s0.8,1.8,1.8,1.8h5.7C101.4,67.3,100,73.5,98.4,76.1z M127.4,117.3c-6.2,2.7-13.9,4.8-22.7,4.8
			c-9,0-17-2.3-23.4-5.1c2.7-4,10.7-13.9,23.4-13.9C117.7,103.1,125.2,113.6,127.4,117.3z M106.7,99.5c-0.7,0-1.3-0.1-2-0.1
			c-1,0-1.9,0.1-2.8,0.1l-1.3-11.9h7.8L106.7,99.5z M113.8,82c0,1.1-0.9,2-2,2H97.3c-1.1,0-2-0.9-2-2c0-1.1,0.9-2,2-2h14.4
			C112.9,80,113.8,80.9,113.8,82z M117,84.2c15.3,4.7,20.8,22,22,26.6c-2.1,1.5-4.9,3.2-8.3,4.9c-2-3.5-8.5-13.2-20.4-15.7l1.8-12.4
			C114.2,87.5,116.1,86.2,117,84.2z M138.9,100.4c-0.4-0.9-0.9-1.7-1.4-2.6c-4.5-8-10.6-13.6-17.8-16.3c2.3-1,5.7-1.5,9.9,1.3
			c3.2,2.1,5.1,5,6.9,7.8c2.3,3.5,4.7,7.1,9.3,8c-0.9,1.1-2.1,2.1-3.5,2.5C141.3,101.3,140.1,101.1,138.9,100.4z M58.8,118
			c-0.1-1.6,0.4-3.1,1.5-4.3c1.9-1.9,4.9-2.2,7-0.7c2.5,1.8,6.1,4.1,10.5,6.2c0,0,0,0,0.1,0c0,0,0.1,0,0.1,0.1
			c7,3.4,16.2,6.3,26.7,6.3c17.4,0,30.9-7.9,37.4-12.6c0.9-0.7,2-1,3.1-1c1.4,0,2.8,0.6,3.9,1.6c1.1,1.1,1.7,2.7,1.5,4.3
			c-0.1,1.6-0.9,3-2.2,3.9c-7.6,5.4-23.3,14.6-43.7,14.6c-20.4,0-36.1-9.1-43.7-14.6C59.7,121,58.9,119.6,58.8,118z"/>
		<linearGradient id="SVGID_4_" gradientUnits="userSpaceOnUse" x1="73.7117" y1="61.2633" x2="77.3223" y2="61.2633">
			<stop  offset="0" style="stop-color:#F4A283"/>
			<stop  offset="1" style="stop-color:#DA7F81"/>
		</linearGradient>
		<path class="st3" d="M74.2,62.5c0.2,0.2,0.4,0.3,0.6,0.4c0.2,0.1,0.5,0.1,0.7,0.1c0.2,0,0.5,0,0.7-0.1c0.2-0.1,0.4-0.2,0.6-0.4
			c0.2-0.2,0.3-0.4,0.4-0.6c0.1-0.2,0.1-0.5,0.1-0.7c0-0.5-0.2-0.9-0.5-1.3c-0.1-0.1-0.2-0.2-0.3-0.2c-0.1-0.1-0.2-0.1-0.3-0.2
			c-0.1,0-0.2-0.1-0.3-0.1c-0.6-0.1-1.2,0.1-1.6,0.5c-0.3,0.3-0.5,0.8-0.5,1.3c0,0.2,0,0.5,0.1,0.7C73.9,62.2,74.1,62.4,74.2,62.5z"
			/>
	</g>
	<g>
		<linearGradient id="SVGID_5_" gradientUnits="userSpaceOnUse" x1="54.9419" y1="152.9351" x2="69.995" y2="152.9351">
			<stop  offset="0" style="stop-color:#F4A283"/>
			<stop  offset="1" style="stop-color:#DA7F81"/>
		</linearGradient>
		<path class="st4" d="M66.2,145.3c0.9-0.6,2-0.7,2.9,0c0.9,0.7,1.1,1.8,0.7,2.8l-3.8,11.7c-0.1,0.3-0.3,0.6-0.3,0.7
			c-0.5,0.7-1.4,0.7-2,0.2c-0.7-0.5-0.8-1.2-0.6-1.8l0.7-2l-4.7-3.6l-1.7,1.2c-0.6,0.4-1.2,0.5-1.9,0c-0.7-0.5-0.9-1.5-0.3-2.1
			c0.2-0.3,0.4-0.4,0.5-0.5L66.2,145.3z M61.7,151.5l3.2,2.5l2.2-6.1l0,0L61.7,151.5z"/>
		<linearGradient id="SVGID_6_" gradientUnits="userSpaceOnUse" x1="67.915" y1="160.0155" x2="80.2432" y2="160.0155">
			<stop  offset="0" style="stop-color:#F4A283"/>
			<stop  offset="1" style="stop-color:#DA7F81"/>
		</linearGradient>
		<path class="st5" d="M71.7,154.1c0.4-0.9,1.3-1.2,2.1-0.9c0.7,0.3,1,1,0.8,1.6c0.9-0.5,1.9-0.5,3.2,0.2c2.2,1.1,3.1,3.2,1.9,5.5
			l-2.6,5.3c-0.4,0.9-1.3,1.2-2.1,0.9c-0.8-0.4-1.1-1.3-0.6-2.2l2.3-4.8c0.6-1.3,0.1-2.3-0.9-2.8c-1.1-0.6-2.2,0-2.7,1l-2.3,4.8
			c-0.4,0.9-1.3,1.2-2.1,0.9c-0.8-0.4-1.1-1.3-0.6-2.2L71.7,154.1z"/>
		<linearGradient id="SVGID_7_" gradientUnits="userSpaceOnUse" x1="80.1539" y1="162.0373" x2="91.6576" y2="162.0373">
			<stop  offset="0" style="stop-color:#F4A283"/>
			<stop  offset="1" style="stop-color:#DA7F81"/>
		</linearGradient>
		<path class="st6" d="M83.6,154.4c0.3-1,1.1-1.5,1.9-1.2c0.9,0.2,1.3,1.1,1,2l-1.1,4l0,0c0.8-0.6,2-0.5,3-0.3
			c2.3,0.6,3.6,2.6,3,5.1l-1.5,5.7c-0.3,1-1.1,1.5-1.9,1.2c-0.9-0.2-1.3-1.1-1-2l1.4-5.1c0.4-1.4-0.3-2.3-1.4-2.6
			c-1.2-0.3-2.1,0.4-2.4,1.5l-1.4,5.1c-0.3,1-1.1,1.5-1.9,1.2c-0.9-0.2-1.3-1.1-1-2L83.6,154.4z"/>
		<linearGradient id="SVGID_8_" gradientUnits="userSpaceOnUse" x1="92.7746" y1="166.5037" x2="103.7888" y2="166.5037">
			<stop  offset="0" style="stop-color:#F4A283"/>
			<stop  offset="1" style="stop-color:#DA7F81"/>
		</linearGradient>
		<path class="st7" d="M95.8,167.3c0.1,1.5,1.3,2.3,2.7,2.4c1.6,0.1,2.7-1,3.5-1c0.7,0,1.2,0.8,1.1,1.4c-0.1,1.3-2.9,2.4-5.2,2.2
			c-3.4-0.3-5.5-2.9-5.3-6.3c0.2-3.1,2.7-5.7,5.9-5.5c3.3,0.3,5.3,3.4,5.1,6c-0.1,0.9-0.5,1.3-1.4,1.3L95.8,167.3z M100.8,165.7
			c-0.1-1.3-0.8-2.4-2.3-2.5c-1.4-0.1-2.3,0.9-2.6,2.1L100.8,165.7z"/>
		<linearGradient id="SVGID_9_" gradientUnits="userSpaceOnUse" x1="104.8074" y1="164.1361" x2="108.541" y2="164.1361">
			<stop  offset="0" style="stop-color:#F4A283"/>
			<stop  offset="1" style="stop-color:#DA7F81"/>
		</linearGradient>
		<path class="st8" d="M104.8,157.7c-0.1-1,0.5-1.7,1.4-1.8c0.9,0,1.6,0.6,1.6,1.6l0.7,13.1c0.1,1-0.5,1.7-1.4,1.8
			c-0.9,0-1.6-0.6-1.6-1.6L104.8,157.7z"/>
		<linearGradient id="SVGID_10_" gradientUnits="userSpaceOnUse" x1="114.3194" y1="162.1677" x2="129.4185" y2="162.1677">
			<stop  offset="0" style="stop-color:#F4A283"/>
			<stop  offset="1" style="stop-color:#DA7F81"/>
		</linearGradient>
		<path class="st9" d="M114.4,157.9c-0.2-0.8,0.2-1.7,1.1-2c0.9-0.3,1.7,0.1,2,1.1l1.3,4.4l3.4-6.8c0.2-0.3,0.4-0.8,1-0.9
			c0.8-0.2,1.7,0.1,1.9,1c0.2,0.5,0,1.1-0.5,1.9l-2.7,4.9l6.2,3.5c0.6,0.4,1.1,0.7,1.3,1.3c0.3,1-0.3,1.6-1.2,1.9
			c-0.6,0.2-1.1-0.1-1.8-0.5l-7-4.2l1.5,5.2c0.2,0.8-0.2,1.6-1.1,1.9c-0.9,0.3-1.7-0.1-2-1L114.4,157.9z"/>
		<linearGradient id="SVGID_11_" gradientUnits="userSpaceOnUse" x1="125.4275" y1="158.6458" x2="134.0333" y2="158.6458">
			<stop  offset="0" style="stop-color:#F4A283"/>
			<stop  offset="1" style="stop-color:#DA7F81"/>
		</linearGradient>
		<path class="st10" d="M128.7,152.1c0.4,0.9,0,1.9-0.8,2.3c-0.8,0.4-1.9,0-2.3-0.9c-0.4-0.8,0-1.9,0.9-2.2S128.3,151.3,128.7,152.1
			z M127.7,157.7c-0.4-0.9-0.1-1.8,0.7-2.2c0.8-0.4,1.7,0,2.1,0.9l3.4,7.4c0.4,0.9,0.1,1.8-0.7,2.2c-0.8,0.4-1.7,0-2.1-0.9
			L127.7,157.7z"/>
		<linearGradient id="SVGID_12_" gradientUnits="userSpaceOnUse" x1="132.7182" y1="153.8449" x2="145.5385" y2="153.8449">
			<stop  offset="0" style="stop-color:#F4A283"/>
			<stop  offset="1" style="stop-color:#DA7F81"/>
		</linearGradient>
		<path class="st11" d="M145.2,157.1c0.5,0.9,0.4,1.8-0.4,2.3c-0.7,0.5-1.4,0.3-2-0.3c0,1.1-0.7,2.1-1.6,2.7
			c-2.6,1.7-5.8,0.3-7.3-2.2c-1.6-2.5-1.9-6,0.9-7.8c0.9-0.6,2-0.8,3-0.7l-2.2-3.5c-0.5-0.9-0.4-1.8,0.4-2.3
			c0.8-0.5,1.7-0.2,2.2,0.6L145.2,157.1z M136.8,154c-1.3,0.9-1.1,2.7-0.3,3.9c0.8,1.2,2.3,2.2,3.7,1.3c1.4-0.9,1.1-2.7,0.3-4
			C139.6,154,138.1,153.1,136.8,154z"/>
		<linearGradient id="SVGID_13_" gradientUnits="userSpaceOnUse" x1="142.1773" y1="149.643" x2="153.179" y2="149.643">
			<stop  offset="0" style="stop-color:#F4A283"/>
			<stop  offset="1" style="stop-color:#DA7F81"/>
		</linearGradient>
		<path class="st12" d="M148.1,146c-0.4,0.4-1.9,0.5-2.6,1.2c-0.4,0.4-0.6,0.9-0.2,1.3c1,1.1,4.7-2.7,7.1-0.1
			c1.4,1.5,1.1,3.8-0.8,5.6c-1.3,1.2-3.8,2.1-4.7,1.1c-0.3-0.3-0.6-1.3,0.1-1.9c0.9-0.8,2-0.4,3-1.4c0.7-0.6,0.7-1,0.3-1.5
			c-0.9-1-4.7,2.7-7.1,0.1c-1.4-1.6-1.1-3.8,0.7-5.4c1.1-1,3.3-2,4.3-0.9C148.5,144.7,148.6,145.5,148.1,146z"/>
	</g>
</g>
</svg>
