<?xml version="1.0" encoding="UTF-8"?>
<!DOCTYPE svg PUBLIC "-//W3C//DTD SVG 1.1//EN" "http://www.w3.org/Graphics/SVG/1.1/DTD/svg11.dtd">
<!-- Creator: CorelDRAW X7 -->
<svg xmlns="http://www.w3.org/2000/svg" xml:space="preserve" width="15.2398mm" height="25.3998mm" version="1.1" style="shape-rendering:geometricPrecision; text-rendering:geometricPrecision; image-rendering:optimizeQuality; fill-rule:evenodd; clip-rule:evenodd"
viewBox="0 0 1524 2540"
 xmlns:xlink="http://www.w3.org/1999/xlink">
 <defs>
  <style type="text/css">
   <![CDATA[
    .fil0 {fill:#4F3D27}
    .fil1 {fill:#EDEDC2}
   ]]>
  </style>
 </defs>
 <g id="Слой_x0020_1">
  <metadata id="CorelCorpID_0Corel-Layer"/>
  <g id="_1734194513392">
   <rect class="fil0" x="2" width="1520" height="1517"/>
   <path class="fil1" d="M931 2128c-19,-55 -30,-113 -30,-174 0,-247 176,-456 416,-522l0 -381 -1118 0 0 382c239,67 413,275 413,521 0,63 -11,124 -33,180 -39,43 -63,101 -63,164 0,134 108,242 242,242 134,0 242,-108 242,-242 0,-65 -27,-127 -69,-170z"/>
  </g>
 </g>
</svg>
